M48
;GenerationSoftware,Autodesk,EAGLE,9.2.2*%
;CreationDate,2019-07-30T17:19:40Z*%
FMAT,2
ICI,OFF
METRIC,TZ,000.000
T9C0.350
T8C0.800
T7C0.813
T6C0.900
T5C1.000
T4C1.016
T3C1.200
T2C1.300
T1C2.750
%
G90
M71
T1
X61500Y17470
X3500Y66470
X61500Y66470
X3500Y17470
T2
X47565Y6242
X40065Y6242
X22165Y6242
X14665Y6242
T3
X55943Y61341
X66612Y42799
X53403Y42799
X66612Y61341
X64071Y42799
X64071Y61341
X55943Y42799
X53403Y61341
T4
X43917Y67742
X43917Y65202
X41377Y67742
X41377Y65202
X38837Y67742
X8370Y65200
X38837Y65202
X10897Y65202
X10897Y67742
X13437Y65202
X13437Y67742
X15977Y65202
X15977Y67742
X48997Y67742
X18517Y67742
X21057Y65202
X21057Y67742
X23597Y65202
X23597Y67742
X26137Y65202
X26137Y67742
X28677Y65202
X28677Y67742
X31217Y65202
X31217Y67742
X33757Y65202
X33757Y67742
X36297Y65202
X8357Y67742
X56617Y67742
X56617Y65202
X54077Y67742
X54077Y65202
X16255Y62125
X18795Y62125
X18517Y65202
X51537Y67742
X51537Y65202
X48997Y65202
X46457Y67742
X46457Y65202
X36297Y67742
T5
X72883Y8890
T6
X16165Y3492
X41565Y3492
X46065Y3492
X20665Y3492
T7
X32385Y5080
X29845Y5080
X65723Y57150
X65723Y48260
X55880Y57150
X55880Y48260
T8
X75883Y4090
X78883Y8890
T9
X14605Y57785
X4445Y57785
X19685Y41910
X40005Y62865
X53975Y52705
X61595Y26670
X39370Y32385
X20320Y20955
X20320Y32385
X69215Y3810
X4445Y26035
X8890Y10795
X29845Y8255
X36830Y12065
X52705Y8255
X66040Y66040
X20955Y57785
M30