G04 EAGLE Gerber RS-274X export*
G75*
%MOMM*%
%FSLAX34Y34*%
%LPD*%
%INBottom Copper*%
%IPPOS*%
%AMOC8*
5,1,8,0,0,1.08239X$1,22.5*%
G01*
%ADD10R,1.524000X1.524000*%
%ADD11C,1.524000*%
%ADD12R,1.408000X1.408000*%
%ADD13P,2.110661X8X22.500000*%
%ADD14C,2.184400*%
%ADD15P,1.429621X8X202.500000*%
%ADD16C,2.000000*%
%ADD17R,2.000000X2.000000*%
%ADD18R,2.540000X1.270000*%
%ADD19P,1.732040X8X22.500000*%
%ADD20C,0.756400*%
%ADD21C,0.406400*%
%ADD22C,1.016000*%

G36*
X806724Y21213D02*
X806724Y21213D01*
X806743Y21211D01*
X806845Y21233D01*
X806947Y21249D01*
X806964Y21259D01*
X806984Y21263D01*
X807073Y21316D01*
X807164Y21365D01*
X807178Y21379D01*
X807195Y21389D01*
X807262Y21468D01*
X807334Y21543D01*
X807342Y21561D01*
X807355Y21576D01*
X807394Y21672D01*
X807437Y21766D01*
X807439Y21786D01*
X807447Y21804D01*
X807465Y21971D01*
X807465Y139954D01*
X807462Y139974D01*
X807464Y139993D01*
X807442Y140095D01*
X807426Y140197D01*
X807416Y140214D01*
X807412Y140234D01*
X807359Y140323D01*
X807310Y140414D01*
X807296Y140428D01*
X807286Y140445D01*
X807207Y140512D01*
X807132Y140584D01*
X807114Y140592D01*
X807099Y140605D01*
X807003Y140644D01*
X806909Y140687D01*
X806889Y140689D01*
X806871Y140697D01*
X806704Y140715D01*
X674127Y140715D01*
X674085Y140708D01*
X674041Y140710D01*
X673897Y140677D01*
X673885Y140676D01*
X673882Y140674D01*
X673878Y140673D01*
X673846Y140662D01*
X672966Y140714D01*
X672949Y140712D01*
X672921Y140715D01*
X672039Y140715D01*
X672008Y140728D01*
X671966Y140738D01*
X671926Y140757D01*
X671780Y140782D01*
X671768Y140784D01*
X671765Y140784D01*
X671761Y140785D01*
X667669Y141026D01*
X658120Y144761D01*
X650193Y151265D01*
X646532Y156983D01*
X646474Y157047D01*
X646422Y157117D01*
X646392Y157138D01*
X646367Y157166D01*
X646292Y157208D01*
X646220Y157258D01*
X646185Y157269D01*
X646153Y157287D01*
X646068Y157303D01*
X645984Y157328D01*
X645948Y157326D01*
X645912Y157333D01*
X645825Y157321D01*
X645739Y157318D01*
X645704Y157305D01*
X645668Y157300D01*
X645590Y157261D01*
X645509Y157231D01*
X645480Y157207D01*
X645447Y157191D01*
X645386Y157130D01*
X645319Y157074D01*
X645292Y157036D01*
X645273Y157017D01*
X645259Y156990D01*
X645222Y156937D01*
X644698Y155976D01*
X644685Y155941D01*
X644665Y155909D01*
X644648Y155837D01*
X644584Y155752D01*
X644569Y155723D01*
X644525Y155660D01*
X644486Y155588D01*
X644484Y155587D01*
X644369Y155464D01*
X641731Y151940D01*
X641714Y151907D01*
X641689Y151879D01*
X641661Y151809D01*
X641587Y151735D01*
X641568Y151708D01*
X641516Y151653D01*
X641466Y151586D01*
X641463Y151585D01*
X641332Y151480D01*
X638220Y148368D01*
X638198Y148337D01*
X638170Y148313D01*
X638132Y148248D01*
X638048Y148185D01*
X638047Y148184D01*
X638046Y148184D01*
X638025Y148161D01*
X637965Y148113D01*
X637907Y148055D01*
X637904Y148054D01*
X637760Y147969D01*
X634236Y145331D01*
X634210Y145304D01*
X634179Y145284D01*
X634132Y145225D01*
X634040Y145175D01*
X634014Y145154D01*
X633948Y145116D01*
X633882Y145066D01*
X633879Y145066D01*
X633724Y145002D01*
X629860Y142893D01*
X629831Y142870D01*
X629797Y142854D01*
X629743Y142802D01*
X629644Y142765D01*
X629615Y142749D01*
X629545Y142720D01*
X629472Y142681D01*
X629470Y142681D01*
X629307Y142640D01*
X625182Y141101D01*
X625150Y141083D01*
X625114Y141072D01*
X625053Y141029D01*
X624950Y141006D01*
X624919Y140994D01*
X624846Y140976D01*
X624768Y140947D01*
X624766Y140947D01*
X624599Y140930D01*
X624594Y140929D01*
X620297Y139994D01*
X620263Y139981D01*
X620226Y139975D01*
X620159Y139941D01*
X620054Y139933D01*
X620022Y139926D01*
X619946Y139918D01*
X619865Y139900D01*
X619863Y139901D01*
X619695Y139908D01*
X615304Y139594D01*
X615268Y139585D01*
X615231Y139585D01*
X615160Y139561D01*
X615054Y139568D01*
X615022Y139565D01*
X614946Y139568D01*
X614863Y139562D01*
X614861Y139563D01*
X614696Y139594D01*
X610305Y139908D01*
X610268Y139904D01*
X610231Y139909D01*
X610157Y139895D01*
X610054Y139918D01*
X610021Y139920D01*
X609946Y139933D01*
X609864Y139939D01*
X609862Y139941D01*
X609703Y139994D01*
X606424Y140708D01*
X605401Y140930D01*
X605364Y140932D01*
X605328Y140942D01*
X605254Y140939D01*
X605154Y140976D01*
X605122Y140982D01*
X605050Y141006D01*
X604969Y141024D01*
X604967Y141026D01*
X604818Y141101D01*
X600693Y142640D01*
X600657Y142647D01*
X600623Y142662D01*
X600548Y142670D01*
X600455Y142720D01*
X600424Y142731D01*
X600356Y142765D01*
X600279Y142794D01*
X600277Y142796D01*
X600140Y142893D01*
X596276Y145002D01*
X596241Y145015D01*
X596209Y145035D01*
X596137Y145052D01*
X596052Y145116D01*
X596023Y145131D01*
X595960Y145175D01*
X595888Y145214D01*
X595887Y145216D01*
X595764Y145331D01*
X592240Y147969D01*
X592207Y147986D01*
X592179Y148011D01*
X592109Y148039D01*
X592035Y148113D01*
X592008Y148132D01*
X591952Y148185D01*
X591886Y148234D01*
X591885Y148237D01*
X591780Y148368D01*
X588668Y151480D01*
X588637Y151502D01*
X588613Y151530D01*
X588548Y151568D01*
X588485Y151652D01*
X588461Y151675D01*
X588413Y151735D01*
X588355Y151793D01*
X588354Y151796D01*
X588269Y151940D01*
X585631Y155464D01*
X585604Y155490D01*
X585584Y155521D01*
X585525Y155568D01*
X585475Y155660D01*
X585454Y155686D01*
X585416Y155752D01*
X585366Y155818D01*
X585366Y155821D01*
X585302Y155976D01*
X583193Y159840D01*
X583170Y159869D01*
X583154Y159903D01*
X583102Y159957D01*
X583065Y160056D01*
X583049Y160085D01*
X583020Y160155D01*
X582981Y160228D01*
X582981Y160230D01*
X582940Y160393D01*
X581401Y164518D01*
X581383Y164550D01*
X581372Y164586D01*
X581329Y164647D01*
X581306Y164750D01*
X581294Y164781D01*
X581276Y164854D01*
X581247Y164932D01*
X581247Y164934D01*
X581230Y165101D01*
X580294Y169403D01*
X580281Y169437D01*
X580275Y169475D01*
X580241Y169541D01*
X580233Y169646D01*
X580226Y169678D01*
X580218Y169754D01*
X580200Y169835D01*
X580201Y169837D01*
X580208Y170005D01*
X579894Y174396D01*
X579885Y174432D01*
X579885Y174469D01*
X579861Y174540D01*
X579868Y174646D01*
X579865Y174678D01*
X579868Y174754D01*
X579862Y174837D01*
X579863Y174839D01*
X579894Y175004D01*
X580208Y179395D01*
X580204Y179432D01*
X580209Y179469D01*
X580195Y179543D01*
X580218Y179646D01*
X580220Y179679D01*
X580233Y179754D01*
X580239Y179836D01*
X580241Y179838D01*
X580294Y179997D01*
X581230Y184299D01*
X581232Y184336D01*
X581242Y184372D01*
X581239Y184446D01*
X581276Y184546D01*
X581282Y184578D01*
X581306Y184650D01*
X581324Y184731D01*
X581326Y184733D01*
X581401Y184882D01*
X582940Y189007D01*
X582947Y189043D01*
X582962Y189077D01*
X582970Y189152D01*
X583020Y189245D01*
X583031Y189276D01*
X583065Y189344D01*
X583094Y189421D01*
X583096Y189423D01*
X583193Y189560D01*
X585302Y193424D01*
X585315Y193459D01*
X585335Y193491D01*
X585352Y193563D01*
X585416Y193648D01*
X585431Y193677D01*
X585475Y193740D01*
X585514Y193812D01*
X585516Y193813D01*
X585631Y193936D01*
X588269Y197460D01*
X588286Y197493D01*
X588311Y197521D01*
X588339Y197591D01*
X588413Y197665D01*
X588432Y197692D01*
X588485Y197748D01*
X588534Y197814D01*
X588537Y197815D01*
X588668Y197920D01*
X591780Y201032D01*
X591802Y201063D01*
X591830Y201087D01*
X591868Y201152D01*
X591952Y201215D01*
X591975Y201239D01*
X592035Y201287D01*
X592093Y201345D01*
X592096Y201346D01*
X592240Y201431D01*
X595764Y204069D01*
X595790Y204096D01*
X595821Y204116D01*
X595868Y204175D01*
X595960Y204225D01*
X595986Y204246D01*
X596052Y204284D01*
X596118Y204334D01*
X596121Y204334D01*
X596276Y204398D01*
X600140Y206507D01*
X600169Y206530D01*
X600203Y206546D01*
X600257Y206598D01*
X600356Y206635D01*
X600385Y206651D01*
X600455Y206680D01*
X600528Y206719D01*
X600530Y206719D01*
X600693Y206760D01*
X604818Y208299D01*
X604850Y208317D01*
X604886Y208328D01*
X604947Y208371D01*
X605050Y208394D01*
X605081Y208406D01*
X605154Y208424D01*
X605232Y208453D01*
X605234Y208453D01*
X605401Y208470D01*
X605406Y208471D01*
X609703Y209406D01*
X609737Y209419D01*
X609775Y209425D01*
X609841Y209459D01*
X609946Y209467D01*
X609978Y209474D01*
X610054Y209482D01*
X610135Y209500D01*
X610137Y209499D01*
X610305Y209492D01*
X614696Y209806D01*
X614732Y209815D01*
X614769Y209815D01*
X614840Y209839D01*
X614946Y209832D01*
X614978Y209835D01*
X615054Y209832D01*
X615137Y209838D01*
X615139Y209837D01*
X615304Y209806D01*
X619695Y209492D01*
X619732Y209496D01*
X619769Y209491D01*
X619843Y209505D01*
X619946Y209482D01*
X619979Y209480D01*
X620054Y209467D01*
X620136Y209461D01*
X620138Y209459D01*
X620297Y209406D01*
X620981Y209257D01*
X624599Y208470D01*
X624636Y208468D01*
X624672Y208458D01*
X624746Y208461D01*
X624846Y208424D01*
X624878Y208418D01*
X624950Y208394D01*
X625031Y208376D01*
X625033Y208374D01*
X625182Y208299D01*
X629307Y206760D01*
X629343Y206753D01*
X629377Y206738D01*
X629452Y206730D01*
X629545Y206680D01*
X629576Y206669D01*
X629644Y206635D01*
X629721Y206606D01*
X629723Y206604D01*
X629860Y206507D01*
X633724Y204398D01*
X633759Y204385D01*
X633791Y204365D01*
X633863Y204348D01*
X633948Y204284D01*
X633977Y204269D01*
X634040Y204225D01*
X634112Y204186D01*
X634113Y204184D01*
X634236Y204069D01*
X637760Y201431D01*
X637793Y201414D01*
X637821Y201389D01*
X637891Y201361D01*
X637965Y201287D01*
X637992Y201268D01*
X638048Y201215D01*
X638114Y201166D01*
X638115Y201163D01*
X638220Y201032D01*
X641066Y198186D01*
X641124Y198144D01*
X641176Y198095D01*
X641223Y198073D01*
X641265Y198043D01*
X641334Y198022D01*
X641399Y197991D01*
X641451Y197986D01*
X641501Y197970D01*
X641572Y197972D01*
X641643Y197964D01*
X641694Y197975D01*
X641746Y197977D01*
X641814Y198001D01*
X641884Y198017D01*
X641928Y198043D01*
X641977Y198061D01*
X642033Y198106D01*
X642095Y198143D01*
X642129Y198182D01*
X642169Y198215D01*
X642208Y198275D01*
X642255Y198330D01*
X642274Y198378D01*
X642302Y198422D01*
X642320Y198491D01*
X642347Y198558D01*
X642355Y198629D01*
X642363Y198660D01*
X642361Y198684D01*
X642365Y198725D01*
X642365Y322368D01*
X645374Y331627D01*
X651096Y339504D01*
X658973Y345226D01*
X668232Y348235D01*
X679704Y348235D01*
X679724Y348238D01*
X679743Y348236D01*
X679845Y348258D01*
X679947Y348274D01*
X679964Y348284D01*
X679984Y348288D01*
X680073Y348341D01*
X680164Y348390D01*
X680178Y348404D01*
X680195Y348414D01*
X680262Y348493D01*
X680334Y348568D01*
X680342Y348586D01*
X680355Y348601D01*
X680394Y348697D01*
X680437Y348791D01*
X680439Y348811D01*
X680447Y348829D01*
X680465Y348996D01*
X680465Y673100D01*
X680462Y673122D01*
X680463Y673160D01*
X680225Y676180D01*
X680224Y676185D01*
X680224Y676191D01*
X680190Y676355D01*
X678324Y682099D01*
X678308Y682131D01*
X678299Y682166D01*
X678216Y682311D01*
X674666Y687197D01*
X674640Y687223D01*
X674621Y687253D01*
X674497Y687366D01*
X669611Y690916D01*
X669579Y690932D01*
X669552Y690955D01*
X669399Y691024D01*
X663655Y692890D01*
X663649Y692891D01*
X663644Y692894D01*
X663480Y692925D01*
X660460Y693163D01*
X660438Y693161D01*
X660400Y693165D01*
X637730Y693165D01*
X637728Y693165D01*
X637725Y693165D01*
X637606Y693145D01*
X637487Y693126D01*
X637485Y693124D01*
X637483Y693124D01*
X637373Y693065D01*
X637270Y693010D01*
X637268Y693009D01*
X637266Y693007D01*
X637181Y692917D01*
X637101Y692832D01*
X637100Y692830D01*
X637098Y692828D01*
X637048Y692718D01*
X636997Y692609D01*
X636997Y692607D01*
X636996Y692604D01*
X636983Y692483D01*
X636970Y692365D01*
X636970Y692362D01*
X636970Y692360D01*
X636997Y692242D01*
X637022Y692124D01*
X637023Y692122D01*
X637024Y692120D01*
X637087Y692016D01*
X637148Y691913D01*
X637150Y691911D01*
X637151Y691909D01*
X637274Y691795D01*
X637760Y691431D01*
X637793Y691414D01*
X637821Y691389D01*
X637891Y691361D01*
X637965Y691287D01*
X637992Y691268D01*
X638048Y691215D01*
X638114Y691166D01*
X638115Y691163D01*
X638220Y691032D01*
X641332Y687920D01*
X641363Y687898D01*
X641387Y687870D01*
X641452Y687832D01*
X641515Y687748D01*
X641539Y687725D01*
X641587Y687665D01*
X641645Y687607D01*
X641646Y687604D01*
X641731Y687460D01*
X644369Y683936D01*
X644396Y683910D01*
X644416Y683879D01*
X644475Y683832D01*
X644525Y683740D01*
X644546Y683714D01*
X644584Y683648D01*
X644634Y683582D01*
X644634Y683579D01*
X644698Y683424D01*
X646807Y679560D01*
X646830Y679531D01*
X646846Y679497D01*
X646898Y679443D01*
X646935Y679344D01*
X646951Y679315D01*
X646980Y679245D01*
X647019Y679172D01*
X647019Y679170D01*
X647060Y679007D01*
X648599Y674883D01*
X648617Y674850D01*
X648628Y674815D01*
X648671Y674753D01*
X648694Y674650D01*
X648706Y674619D01*
X648724Y674546D01*
X648753Y674468D01*
X648753Y674466D01*
X648770Y674299D01*
X649706Y669997D01*
X649719Y669963D01*
X649725Y669926D01*
X649759Y669859D01*
X649767Y669754D01*
X649774Y669722D01*
X649782Y669646D01*
X649800Y669565D01*
X649799Y669563D01*
X649792Y669395D01*
X650106Y665004D01*
X650115Y664968D01*
X650115Y664931D01*
X650139Y664860D01*
X650132Y664754D01*
X650135Y664722D01*
X650132Y664646D01*
X650138Y664563D01*
X650137Y664561D01*
X650106Y664396D01*
X649792Y660005D01*
X649796Y659968D01*
X649791Y659931D01*
X649805Y659857D01*
X649782Y659754D01*
X649780Y659721D01*
X649767Y659646D01*
X649761Y659564D01*
X649759Y659562D01*
X649706Y659403D01*
X648770Y655101D01*
X648768Y655064D01*
X648758Y655028D01*
X648761Y654954D01*
X648724Y654854D01*
X648718Y654822D01*
X648706Y654787D01*
X648700Y654775D01*
X648699Y654768D01*
X648694Y654750D01*
X648676Y654669D01*
X648674Y654667D01*
X648599Y654518D01*
X647060Y650393D01*
X647053Y650357D01*
X647038Y650323D01*
X647030Y650248D01*
X646980Y650155D01*
X646969Y650124D01*
X646935Y650056D01*
X646906Y649979D01*
X646904Y649977D01*
X646807Y649840D01*
X644698Y645976D01*
X644685Y645941D01*
X644665Y645909D01*
X644648Y645837D01*
X644584Y645752D01*
X644569Y645723D01*
X644525Y645660D01*
X644486Y645588D01*
X644484Y645587D01*
X644369Y645464D01*
X641731Y641940D01*
X641714Y641907D01*
X641689Y641879D01*
X641661Y641809D01*
X641587Y641735D01*
X641568Y641708D01*
X641516Y641653D01*
X641466Y641586D01*
X641463Y641585D01*
X641332Y641480D01*
X638220Y638368D01*
X638198Y638337D01*
X638170Y638313D01*
X638143Y638267D01*
X638127Y638250D01*
X638123Y638241D01*
X638048Y638185D01*
X638025Y638161D01*
X637965Y638113D01*
X637907Y638055D01*
X637904Y638054D01*
X637760Y637969D01*
X634236Y635331D01*
X634210Y635304D01*
X634179Y635284D01*
X634132Y635225D01*
X634040Y635175D01*
X634014Y635154D01*
X633948Y635116D01*
X633882Y635066D01*
X633879Y635066D01*
X633724Y635002D01*
X629860Y632893D01*
X629831Y632870D01*
X629797Y632854D01*
X629743Y632802D01*
X629644Y632765D01*
X629615Y632749D01*
X629545Y632720D01*
X629472Y632681D01*
X629470Y632681D01*
X629307Y632640D01*
X625182Y631101D01*
X625150Y631083D01*
X625114Y631072D01*
X625053Y631029D01*
X624950Y631006D01*
X624919Y630994D01*
X624846Y630976D01*
X624768Y630947D01*
X624766Y630947D01*
X624599Y630930D01*
X624594Y630929D01*
X620297Y629994D01*
X620263Y629981D01*
X620226Y629975D01*
X620159Y629941D01*
X620054Y629933D01*
X620022Y629926D01*
X619946Y629918D01*
X619865Y629900D01*
X619863Y629901D01*
X619695Y629908D01*
X615304Y629594D01*
X615268Y629585D01*
X615231Y629585D01*
X615160Y629561D01*
X615054Y629568D01*
X615022Y629565D01*
X614946Y629568D01*
X614863Y629562D01*
X614861Y629563D01*
X614696Y629594D01*
X610305Y629908D01*
X610268Y629904D01*
X610231Y629909D01*
X610157Y629895D01*
X610054Y629918D01*
X610021Y629920D01*
X609946Y629933D01*
X609864Y629939D01*
X609862Y629941D01*
X609703Y629994D01*
X605401Y630930D01*
X605364Y630932D01*
X605328Y630942D01*
X605254Y630939D01*
X605154Y630976D01*
X605122Y630982D01*
X605050Y631006D01*
X604969Y631024D01*
X604967Y631026D01*
X604818Y631101D01*
X600693Y632640D01*
X600657Y632647D01*
X600623Y632662D01*
X600548Y632670D01*
X600455Y632720D01*
X600424Y632731D01*
X600356Y632765D01*
X600279Y632794D01*
X600277Y632796D01*
X600140Y632893D01*
X596276Y635002D01*
X596241Y635015D01*
X596209Y635035D01*
X596137Y635052D01*
X596052Y635116D01*
X596023Y635131D01*
X595960Y635175D01*
X595888Y635214D01*
X595887Y635216D01*
X595764Y635331D01*
X592240Y637969D01*
X592207Y637986D01*
X592179Y638011D01*
X592109Y638039D01*
X592035Y638113D01*
X592008Y638132D01*
X591952Y638185D01*
X591886Y638234D01*
X591885Y638237D01*
X591827Y638309D01*
X591825Y638313D01*
X591822Y638316D01*
X591780Y638368D01*
X588668Y641480D01*
X588637Y641502D01*
X588613Y641530D01*
X588548Y641568D01*
X588485Y641652D01*
X588461Y641675D01*
X588413Y641735D01*
X588355Y641793D01*
X588354Y641796D01*
X588269Y641940D01*
X585631Y645464D01*
X585604Y645490D01*
X585584Y645521D01*
X585525Y645568D01*
X585475Y645660D01*
X585454Y645686D01*
X585416Y645752D01*
X585366Y645818D01*
X585366Y645821D01*
X585302Y645976D01*
X583193Y649840D01*
X583170Y649869D01*
X583154Y649903D01*
X583102Y649957D01*
X583065Y650056D01*
X583049Y650085D01*
X583020Y650155D01*
X582981Y650228D01*
X582981Y650230D01*
X582940Y650393D01*
X581401Y654518D01*
X581383Y654550D01*
X581372Y654586D01*
X581329Y654647D01*
X581306Y654750D01*
X581294Y654781D01*
X581276Y654854D01*
X581247Y654932D01*
X581247Y654934D01*
X581230Y655101D01*
X580294Y659403D01*
X580281Y659437D01*
X580275Y659474D01*
X580241Y659541D01*
X580233Y659646D01*
X580226Y659678D01*
X580218Y659754D01*
X580200Y659835D01*
X580201Y659837D01*
X580208Y660005D01*
X579894Y664396D01*
X579885Y664432D01*
X579885Y664469D01*
X579861Y664540D01*
X579868Y664646D01*
X579865Y664678D01*
X579868Y664754D01*
X579862Y664837D01*
X579863Y664839D01*
X579894Y665004D01*
X580208Y669395D01*
X580204Y669432D01*
X580209Y669469D01*
X580195Y669543D01*
X580218Y669646D01*
X580220Y669679D01*
X580233Y669754D01*
X580239Y669836D01*
X580241Y669838D01*
X580294Y669997D01*
X581230Y674299D01*
X581232Y674336D01*
X581242Y674372D01*
X581239Y674446D01*
X581276Y674546D01*
X581282Y674578D01*
X581306Y674650D01*
X581324Y674731D01*
X581326Y674733D01*
X581401Y674882D01*
X582940Y679007D01*
X582947Y679043D01*
X582962Y679077D01*
X582970Y679152D01*
X583020Y679245D01*
X583031Y679276D01*
X583065Y679344D01*
X583094Y679421D01*
X583096Y679423D01*
X583193Y679560D01*
X585302Y683424D01*
X585315Y683459D01*
X585335Y683491D01*
X585352Y683563D01*
X585416Y683648D01*
X585431Y683677D01*
X585475Y683740D01*
X585514Y683812D01*
X585516Y683813D01*
X585631Y683936D01*
X588269Y687460D01*
X588286Y687493D01*
X588311Y687521D01*
X588339Y687591D01*
X588413Y687665D01*
X588432Y687692D01*
X588485Y687748D01*
X588534Y687814D01*
X588537Y687815D01*
X588668Y687920D01*
X591780Y691032D01*
X591802Y691063D01*
X591830Y691087D01*
X591868Y691152D01*
X591952Y691215D01*
X591975Y691239D01*
X592035Y691287D01*
X592093Y691345D01*
X592096Y691346D01*
X592240Y691431D01*
X592726Y691795D01*
X592728Y691796D01*
X592730Y691798D01*
X592813Y691885D01*
X592897Y691972D01*
X592898Y691974D01*
X592899Y691976D01*
X592950Y692085D01*
X593002Y692194D01*
X593002Y692197D01*
X593003Y692199D01*
X593016Y692318D01*
X593030Y692439D01*
X593030Y692441D01*
X593030Y692443D01*
X593004Y692562D01*
X592980Y692679D01*
X592978Y692681D01*
X592978Y692684D01*
X592915Y692789D01*
X592855Y692891D01*
X592853Y692893D01*
X592852Y692895D01*
X592758Y692975D01*
X592669Y693052D01*
X592667Y693053D01*
X592665Y693055D01*
X592551Y693101D01*
X592441Y693146D01*
X592439Y693146D01*
X592437Y693147D01*
X592270Y693165D01*
X57730Y693165D01*
X57728Y693165D01*
X57725Y693165D01*
X57606Y693145D01*
X57487Y693126D01*
X57485Y693124D01*
X57483Y693124D01*
X57373Y693065D01*
X57270Y693010D01*
X57268Y693009D01*
X57266Y693007D01*
X57181Y692917D01*
X57101Y692832D01*
X57100Y692830D01*
X57098Y692828D01*
X57048Y692718D01*
X56997Y692609D01*
X56997Y692607D01*
X56996Y692604D01*
X56983Y692483D01*
X56970Y692365D01*
X56970Y692362D01*
X56970Y692360D01*
X56997Y692242D01*
X57022Y692124D01*
X57023Y692122D01*
X57024Y692120D01*
X57087Y692016D01*
X57148Y691913D01*
X57150Y691911D01*
X57151Y691909D01*
X57274Y691795D01*
X57760Y691431D01*
X57793Y691414D01*
X57821Y691389D01*
X57891Y691361D01*
X57965Y691287D01*
X57992Y691268D01*
X58048Y691215D01*
X58114Y691166D01*
X58115Y691163D01*
X58220Y691032D01*
X61332Y687920D01*
X61363Y687898D01*
X61387Y687870D01*
X61452Y687832D01*
X61515Y687748D01*
X61539Y687725D01*
X61587Y687665D01*
X61645Y687607D01*
X61646Y687604D01*
X61731Y687460D01*
X64369Y683936D01*
X64396Y683910D01*
X64416Y683879D01*
X64475Y683832D01*
X64526Y683739D01*
X64546Y683714D01*
X64584Y683648D01*
X64634Y683582D01*
X64634Y683579D01*
X64698Y683424D01*
X66807Y679560D01*
X66830Y679531D01*
X66846Y679497D01*
X66898Y679443D01*
X66935Y679344D01*
X66951Y679315D01*
X66980Y679245D01*
X67019Y679172D01*
X67019Y679170D01*
X67060Y679007D01*
X68599Y674882D01*
X68617Y674850D01*
X68628Y674814D01*
X68671Y674753D01*
X68694Y674650D01*
X68706Y674619D01*
X68724Y674546D01*
X68753Y674468D01*
X68753Y674466D01*
X68770Y674299D01*
X69706Y669997D01*
X69719Y669963D01*
X69725Y669926D01*
X69759Y669859D01*
X69767Y669754D01*
X69774Y669722D01*
X69782Y669646D01*
X69800Y669565D01*
X69799Y669563D01*
X69792Y669395D01*
X70106Y665004D01*
X70115Y664968D01*
X70115Y664931D01*
X70139Y664860D01*
X70132Y664754D01*
X70135Y664722D01*
X70132Y664646D01*
X70138Y664563D01*
X70137Y664561D01*
X70106Y664396D01*
X69792Y660005D01*
X69796Y659968D01*
X69791Y659931D01*
X69805Y659857D01*
X69782Y659754D01*
X69780Y659721D01*
X69767Y659646D01*
X69761Y659564D01*
X69759Y659562D01*
X69706Y659403D01*
X68770Y655101D01*
X68768Y655064D01*
X68758Y655028D01*
X68761Y654954D01*
X68724Y654854D01*
X68718Y654822D01*
X68706Y654787D01*
X68700Y654775D01*
X68699Y654768D01*
X68694Y654750D01*
X68676Y654669D01*
X68674Y654667D01*
X68599Y654518D01*
X67060Y650393D01*
X67053Y650357D01*
X67038Y650323D01*
X67030Y650248D01*
X66980Y650155D01*
X66969Y650124D01*
X66935Y650056D01*
X66906Y649979D01*
X66904Y649977D01*
X66807Y649840D01*
X64698Y645976D01*
X64685Y645941D01*
X64665Y645909D01*
X64648Y645837D01*
X64584Y645752D01*
X64569Y645723D01*
X64525Y645660D01*
X64486Y645588D01*
X64484Y645587D01*
X64369Y645464D01*
X61731Y641940D01*
X61714Y641907D01*
X61689Y641879D01*
X61661Y641809D01*
X61587Y641735D01*
X61568Y641708D01*
X61516Y641653D01*
X61466Y641586D01*
X61463Y641585D01*
X61332Y641480D01*
X58220Y638368D01*
X58198Y638337D01*
X58170Y638313D01*
X58143Y638267D01*
X58127Y638250D01*
X58123Y638241D01*
X58048Y638185D01*
X58025Y638161D01*
X57965Y638113D01*
X57907Y638055D01*
X57904Y638054D01*
X57760Y637969D01*
X54236Y635331D01*
X54210Y635304D01*
X54179Y635284D01*
X54132Y635225D01*
X54040Y635175D01*
X54014Y635154D01*
X53948Y635116D01*
X53882Y635066D01*
X53879Y635066D01*
X53724Y635002D01*
X49860Y632893D01*
X49831Y632870D01*
X49797Y632854D01*
X49743Y632802D01*
X49644Y632765D01*
X49615Y632749D01*
X49545Y632720D01*
X49472Y632681D01*
X49470Y632681D01*
X49307Y632640D01*
X45182Y631101D01*
X45150Y631083D01*
X45114Y631072D01*
X45053Y631029D01*
X44950Y631006D01*
X44919Y630994D01*
X44846Y630976D01*
X44768Y630947D01*
X44766Y630947D01*
X44599Y630930D01*
X44594Y630929D01*
X40297Y629994D01*
X40263Y629981D01*
X40226Y629975D01*
X40159Y629941D01*
X40054Y629933D01*
X40022Y629926D01*
X39946Y629918D01*
X39865Y629900D01*
X39863Y629901D01*
X39695Y629908D01*
X35304Y629594D01*
X35268Y629585D01*
X35231Y629585D01*
X35160Y629561D01*
X35054Y629568D01*
X35022Y629565D01*
X34946Y629568D01*
X34863Y629562D01*
X34861Y629563D01*
X34696Y629594D01*
X30305Y629908D01*
X30268Y629904D01*
X30231Y629909D01*
X30157Y629895D01*
X30054Y629918D01*
X30021Y629920D01*
X29946Y629933D01*
X29864Y629939D01*
X29862Y629941D01*
X29703Y629994D01*
X28797Y630191D01*
X25401Y630930D01*
X25364Y630932D01*
X25328Y630942D01*
X25254Y630939D01*
X25154Y630976D01*
X25122Y630982D01*
X25050Y631006D01*
X24969Y631024D01*
X24967Y631026D01*
X24818Y631101D01*
X20693Y632640D01*
X20657Y632647D01*
X20623Y632662D01*
X20548Y632670D01*
X20455Y632720D01*
X20424Y632731D01*
X20356Y632765D01*
X20279Y632794D01*
X20277Y632796D01*
X20140Y632893D01*
X16276Y635002D01*
X16241Y635015D01*
X16209Y635035D01*
X16137Y635052D01*
X16052Y635116D01*
X16023Y635131D01*
X15960Y635175D01*
X15888Y635214D01*
X15887Y635216D01*
X15764Y635331D01*
X12240Y637969D01*
X12207Y637986D01*
X12179Y638011D01*
X12109Y638039D01*
X12035Y638113D01*
X12008Y638132D01*
X11952Y638185D01*
X11886Y638234D01*
X11885Y638237D01*
X11827Y638309D01*
X11825Y638313D01*
X11822Y638316D01*
X11780Y638368D01*
X8668Y641480D01*
X8637Y641502D01*
X8613Y641530D01*
X8548Y641568D01*
X8485Y641652D01*
X8461Y641675D01*
X8413Y641735D01*
X8355Y641793D01*
X8354Y641796D01*
X8269Y641940D01*
X6705Y644029D01*
X6704Y644031D01*
X6702Y644033D01*
X6615Y644116D01*
X6528Y644200D01*
X6526Y644201D01*
X6524Y644202D01*
X6415Y644253D01*
X6306Y644305D01*
X6303Y644305D01*
X6301Y644306D01*
X6182Y644319D01*
X6061Y644333D01*
X6059Y644333D01*
X6057Y644333D01*
X5938Y644307D01*
X5821Y644283D01*
X5819Y644281D01*
X5816Y644281D01*
X5712Y644219D01*
X5609Y644158D01*
X5607Y644156D01*
X5605Y644155D01*
X5526Y644062D01*
X5448Y643972D01*
X5447Y643970D01*
X5445Y643968D01*
X5399Y643854D01*
X5354Y643745D01*
X5354Y643742D01*
X5353Y643740D01*
X5335Y643573D01*
X5335Y508000D01*
X5338Y507981D01*
X5336Y507950D01*
X5610Y503773D01*
X5616Y503750D01*
X5634Y503626D01*
X7797Y495556D01*
X7803Y495541D01*
X7806Y495526D01*
X7873Y495372D01*
X12050Y488137D01*
X12060Y488124D01*
X12066Y488110D01*
X12171Y487979D01*
X18079Y482071D01*
X18092Y482062D01*
X18101Y482050D01*
X18237Y481950D01*
X25472Y477773D01*
X25487Y477767D01*
X25499Y477758D01*
X25656Y477697D01*
X33726Y475534D01*
X33749Y475532D01*
X33873Y475510D01*
X38050Y475236D01*
X38069Y475238D01*
X38100Y475235D01*
X131868Y475235D01*
X141127Y472226D01*
X149004Y466504D01*
X154726Y458627D01*
X157735Y449368D01*
X157735Y388832D01*
X154726Y379573D01*
X149004Y371696D01*
X141127Y365974D01*
X131868Y362965D01*
X38100Y362965D01*
X38082Y362962D01*
X38050Y362964D01*
X33873Y362690D01*
X33850Y362684D01*
X33726Y362666D01*
X25656Y360503D01*
X25641Y360497D01*
X25626Y360494D01*
X25472Y360427D01*
X18237Y356250D01*
X18224Y356240D01*
X18210Y356234D01*
X18079Y356129D01*
X12171Y350221D01*
X12162Y350208D01*
X12150Y350199D01*
X12050Y350063D01*
X7873Y342828D01*
X7867Y342813D01*
X7858Y342801D01*
X7797Y342644D01*
X5634Y334574D01*
X5632Y334551D01*
X5610Y334427D01*
X5336Y330250D01*
X5338Y330231D01*
X5335Y330200D01*
X5335Y195827D01*
X5335Y195825D01*
X5335Y195822D01*
X5355Y195703D01*
X5374Y195584D01*
X5376Y195582D01*
X5376Y195580D01*
X5435Y195470D01*
X5490Y195367D01*
X5491Y195365D01*
X5493Y195363D01*
X5583Y195278D01*
X5668Y195198D01*
X5670Y195196D01*
X5672Y195195D01*
X5782Y195145D01*
X5891Y195094D01*
X5893Y195094D01*
X5896Y195093D01*
X6017Y195080D01*
X6135Y195067D01*
X6138Y195067D01*
X6140Y195067D01*
X6258Y195094D01*
X6376Y195119D01*
X6378Y195120D01*
X6380Y195121D01*
X6484Y195184D01*
X6587Y195245D01*
X6589Y195247D01*
X6591Y195248D01*
X6705Y195371D01*
X8269Y197460D01*
X8286Y197493D01*
X8311Y197521D01*
X8339Y197591D01*
X8413Y197665D01*
X8432Y197692D01*
X8485Y197748D01*
X8534Y197814D01*
X8537Y197815D01*
X8668Y197920D01*
X11780Y201032D01*
X11802Y201063D01*
X11830Y201087D01*
X11868Y201152D01*
X11952Y201215D01*
X11975Y201239D01*
X12035Y201287D01*
X12093Y201345D01*
X12096Y201346D01*
X12240Y201431D01*
X15764Y204069D01*
X15790Y204096D01*
X15821Y204116D01*
X15868Y204175D01*
X15960Y204225D01*
X15986Y204246D01*
X16052Y204284D01*
X16118Y204334D01*
X16121Y204334D01*
X16276Y204398D01*
X20140Y206507D01*
X20169Y206530D01*
X20203Y206546D01*
X20257Y206598D01*
X20356Y206635D01*
X20385Y206651D01*
X20455Y206680D01*
X20528Y206719D01*
X20530Y206719D01*
X20693Y206760D01*
X24818Y208299D01*
X24850Y208317D01*
X24886Y208328D01*
X24947Y208371D01*
X25050Y208394D01*
X25081Y208406D01*
X25154Y208424D01*
X25232Y208453D01*
X25234Y208453D01*
X25401Y208470D01*
X25406Y208471D01*
X29703Y209406D01*
X29737Y209419D01*
X29775Y209425D01*
X29841Y209459D01*
X29946Y209467D01*
X29978Y209474D01*
X30054Y209482D01*
X30135Y209500D01*
X30137Y209499D01*
X30305Y209492D01*
X34696Y209806D01*
X34732Y209815D01*
X34770Y209815D01*
X34840Y209839D01*
X34946Y209832D01*
X34978Y209835D01*
X35054Y209832D01*
X35137Y209838D01*
X35139Y209837D01*
X35304Y209806D01*
X39695Y209492D01*
X39732Y209496D01*
X39769Y209491D01*
X39843Y209505D01*
X39946Y209482D01*
X39979Y209480D01*
X40054Y209467D01*
X40136Y209461D01*
X40138Y209459D01*
X40297Y209406D01*
X40981Y209257D01*
X44599Y208470D01*
X44636Y208468D01*
X44672Y208458D01*
X44746Y208461D01*
X44846Y208424D01*
X44878Y208418D01*
X44950Y208394D01*
X45031Y208376D01*
X45033Y208374D01*
X45182Y208299D01*
X49307Y206760D01*
X49343Y206753D01*
X49377Y206738D01*
X49452Y206730D01*
X49545Y206680D01*
X49576Y206669D01*
X49644Y206635D01*
X49721Y206606D01*
X49723Y206604D01*
X49860Y206507D01*
X53724Y204398D01*
X53759Y204385D01*
X53791Y204365D01*
X53863Y204348D01*
X53948Y204284D01*
X53977Y204269D01*
X54040Y204225D01*
X54112Y204186D01*
X54113Y204184D01*
X54236Y204069D01*
X57760Y201431D01*
X57793Y201414D01*
X57821Y201389D01*
X57891Y201361D01*
X57965Y201287D01*
X57992Y201268D01*
X58047Y201216D01*
X58114Y201166D01*
X58115Y201163D01*
X58220Y201032D01*
X61332Y197920D01*
X61363Y197898D01*
X61387Y197870D01*
X61452Y197832D01*
X61515Y197748D01*
X61539Y197725D01*
X61587Y197665D01*
X61645Y197607D01*
X61646Y197604D01*
X61731Y197460D01*
X64369Y193936D01*
X64396Y193910D01*
X64416Y193879D01*
X64475Y193832D01*
X64525Y193740D01*
X64546Y193714D01*
X64584Y193648D01*
X64634Y193582D01*
X64634Y193579D01*
X64698Y193424D01*
X66807Y189560D01*
X66830Y189531D01*
X66846Y189497D01*
X66898Y189443D01*
X66935Y189344D01*
X66951Y189315D01*
X66980Y189245D01*
X67019Y189172D01*
X67019Y189170D01*
X67060Y189007D01*
X68599Y184882D01*
X68617Y184850D01*
X68628Y184814D01*
X68671Y184753D01*
X68694Y184650D01*
X68706Y184619D01*
X68724Y184546D01*
X68753Y184468D01*
X68753Y184466D01*
X68770Y184299D01*
X69706Y179997D01*
X69719Y179963D01*
X69725Y179926D01*
X69759Y179859D01*
X69767Y179754D01*
X69774Y179722D01*
X69782Y179646D01*
X69800Y179565D01*
X69799Y179563D01*
X69792Y179395D01*
X70106Y175004D01*
X70115Y174968D01*
X70115Y174931D01*
X70139Y174860D01*
X70132Y174754D01*
X70135Y174722D01*
X70132Y174646D01*
X70138Y174563D01*
X70137Y174561D01*
X70106Y174396D01*
X69792Y170005D01*
X69796Y169968D01*
X69791Y169931D01*
X69805Y169857D01*
X69782Y169754D01*
X69780Y169721D01*
X69767Y169646D01*
X69761Y169564D01*
X69759Y169562D01*
X69706Y169403D01*
X68770Y165101D01*
X68768Y165064D01*
X68758Y165028D01*
X68761Y164954D01*
X68724Y164854D01*
X68718Y164822D01*
X68694Y164750D01*
X68676Y164669D01*
X68674Y164667D01*
X68599Y164518D01*
X67060Y160393D01*
X67053Y160357D01*
X67038Y160323D01*
X67030Y160248D01*
X66980Y160155D01*
X66969Y160124D01*
X66935Y160056D01*
X66906Y159979D01*
X66904Y159977D01*
X66807Y159840D01*
X64698Y155976D01*
X64685Y155941D01*
X64665Y155909D01*
X64648Y155837D01*
X64584Y155752D01*
X64569Y155723D01*
X64525Y155660D01*
X64486Y155588D01*
X64484Y155587D01*
X64369Y155464D01*
X61731Y151940D01*
X61714Y151907D01*
X61689Y151879D01*
X61661Y151809D01*
X61587Y151735D01*
X61568Y151708D01*
X61515Y151652D01*
X61466Y151586D01*
X61463Y151585D01*
X61332Y151480D01*
X58220Y148368D01*
X58198Y148337D01*
X58170Y148313D01*
X58132Y148248D01*
X58048Y148185D01*
X58047Y148184D01*
X58046Y148184D01*
X58025Y148161D01*
X57965Y148113D01*
X57907Y148055D01*
X57904Y148054D01*
X57760Y147969D01*
X54236Y145331D01*
X54210Y145304D01*
X54179Y145284D01*
X54132Y145225D01*
X54040Y145175D01*
X54014Y145154D01*
X53948Y145116D01*
X53882Y145066D01*
X53879Y145066D01*
X53724Y145002D01*
X49860Y142893D01*
X49831Y142870D01*
X49797Y142854D01*
X49743Y142802D01*
X49644Y142765D01*
X49615Y142749D01*
X49545Y142720D01*
X49472Y142681D01*
X49470Y142681D01*
X49307Y142640D01*
X45182Y141101D01*
X45150Y141083D01*
X45114Y141072D01*
X45053Y141029D01*
X44950Y141006D01*
X44919Y140994D01*
X44846Y140976D01*
X44768Y140947D01*
X44766Y140947D01*
X44599Y140930D01*
X44594Y140929D01*
X40297Y139994D01*
X40263Y139981D01*
X40225Y139975D01*
X40159Y139941D01*
X40054Y139933D01*
X40022Y139926D01*
X39946Y139918D01*
X39865Y139900D01*
X39863Y139901D01*
X39695Y139908D01*
X35304Y139594D01*
X35268Y139585D01*
X35231Y139585D01*
X35160Y139561D01*
X35054Y139568D01*
X35022Y139565D01*
X34946Y139568D01*
X34863Y139562D01*
X34861Y139563D01*
X34696Y139594D01*
X30305Y139908D01*
X30268Y139904D01*
X30231Y139909D01*
X30157Y139895D01*
X30054Y139918D01*
X30021Y139920D01*
X29946Y139933D01*
X29864Y139939D01*
X29862Y139941D01*
X29703Y139994D01*
X25401Y140930D01*
X25364Y140932D01*
X25328Y140942D01*
X25254Y140939D01*
X25154Y140976D01*
X25122Y140982D01*
X25050Y141006D01*
X24969Y141024D01*
X24967Y141026D01*
X24818Y141101D01*
X20693Y142640D01*
X20657Y142647D01*
X20623Y142662D01*
X20548Y142670D01*
X20455Y142720D01*
X20424Y142731D01*
X20356Y142765D01*
X20279Y142794D01*
X20277Y142796D01*
X20140Y142893D01*
X16276Y145002D01*
X16241Y145015D01*
X16209Y145035D01*
X16137Y145052D01*
X16052Y145116D01*
X16023Y145131D01*
X15960Y145175D01*
X15888Y145214D01*
X15887Y145216D01*
X15764Y145331D01*
X12240Y147969D01*
X12207Y147986D01*
X12179Y148011D01*
X12109Y148039D01*
X12035Y148113D01*
X12008Y148132D01*
X11952Y148185D01*
X11886Y148234D01*
X11885Y148237D01*
X11780Y148368D01*
X8668Y151480D01*
X8637Y151502D01*
X8613Y151530D01*
X8548Y151568D01*
X8485Y151652D01*
X8461Y151675D01*
X8413Y151735D01*
X8355Y151793D01*
X8354Y151796D01*
X8269Y151940D01*
X6705Y154029D01*
X6704Y154031D01*
X6702Y154033D01*
X6615Y154116D01*
X6528Y154200D01*
X6526Y154201D01*
X6524Y154202D01*
X6415Y154253D01*
X6306Y154305D01*
X6303Y154305D01*
X6301Y154306D01*
X6182Y154319D01*
X6061Y154333D01*
X6059Y154333D01*
X6057Y154333D01*
X5938Y154307D01*
X5821Y154283D01*
X5819Y154281D01*
X5816Y154281D01*
X5712Y154219D01*
X5609Y154158D01*
X5607Y154156D01*
X5605Y154155D01*
X5526Y154062D01*
X5448Y153972D01*
X5447Y153970D01*
X5445Y153968D01*
X5399Y153854D01*
X5354Y153745D01*
X5354Y153742D01*
X5353Y153740D01*
X5335Y153573D01*
X5335Y76200D01*
X5338Y76178D01*
X5337Y76140D01*
X5575Y73120D01*
X5576Y73115D01*
X5576Y73109D01*
X5610Y72945D01*
X7476Y67201D01*
X7492Y67169D01*
X7501Y67134D01*
X7584Y66989D01*
X11134Y62103D01*
X11160Y62077D01*
X11179Y62047D01*
X11303Y61934D01*
X16189Y58384D01*
X16221Y58368D01*
X16248Y58345D01*
X16401Y58276D01*
X22145Y56410D01*
X22151Y56409D01*
X22156Y56406D01*
X22320Y56375D01*
X25340Y56137D01*
X25362Y56139D01*
X25400Y56135D01*
X86412Y56135D01*
X93759Y53748D01*
X100008Y49208D01*
X104548Y42959D01*
X106935Y35612D01*
X106935Y21971D01*
X106938Y21951D01*
X106936Y21932D01*
X106958Y21830D01*
X106974Y21728D01*
X106984Y21711D01*
X106988Y21691D01*
X107041Y21602D01*
X107090Y21511D01*
X107104Y21497D01*
X107114Y21480D01*
X107193Y21413D01*
X107268Y21341D01*
X107286Y21333D01*
X107301Y21320D01*
X107397Y21281D01*
X107491Y21238D01*
X107511Y21236D01*
X107529Y21228D01*
X107696Y21210D01*
X806704Y21210D01*
X806724Y21213D01*
G37*
%LPC*%
G36*
X152926Y23820D02*
X152926Y23820D01*
X150545Y26201D01*
X150545Y43649D01*
X152926Y46030D01*
X164592Y46030D01*
X164612Y46033D01*
X164631Y46031D01*
X164733Y46053D01*
X164835Y46069D01*
X164852Y46079D01*
X164872Y46083D01*
X164961Y46136D01*
X165052Y46185D01*
X165066Y46199D01*
X165083Y46209D01*
X165150Y46288D01*
X165222Y46363D01*
X165230Y46381D01*
X165243Y46396D01*
X165282Y46492D01*
X165325Y46586D01*
X165327Y46606D01*
X165335Y46624D01*
X165353Y46791D01*
X165353Y608804D01*
X165350Y608824D01*
X165352Y608843D01*
X165330Y608945D01*
X165314Y609047D01*
X165304Y609064D01*
X165300Y609084D01*
X165247Y609173D01*
X165198Y609264D01*
X165184Y609278D01*
X165174Y609295D01*
X165095Y609362D01*
X165020Y609434D01*
X165002Y609442D01*
X164987Y609455D01*
X164891Y609494D01*
X164797Y609537D01*
X164777Y609539D01*
X164759Y609547D01*
X164592Y609565D01*
X153246Y609565D01*
X150865Y611946D01*
X150865Y630554D01*
X153246Y632935D01*
X171854Y632935D01*
X174235Y630554D01*
X174235Y622189D01*
X174249Y622099D01*
X174257Y622008D01*
X174269Y621978D01*
X174274Y621946D01*
X174317Y621866D01*
X174353Y621782D01*
X174379Y621750D01*
X174390Y621729D01*
X174413Y621707D01*
X174458Y621651D01*
X174966Y621143D01*
X175024Y621101D01*
X175076Y621052D01*
X175123Y621030D01*
X175165Y620999D01*
X175234Y620978D01*
X175299Y620948D01*
X175351Y620942D01*
X175401Y620927D01*
X175472Y620929D01*
X175543Y620921D01*
X175594Y620932D01*
X175646Y620933D01*
X175714Y620958D01*
X175784Y620973D01*
X175828Y621000D01*
X175877Y621018D01*
X175933Y621063D01*
X175995Y621099D01*
X176029Y621139D01*
X176069Y621171D01*
X176108Y621232D01*
X176155Y621286D01*
X176174Y621335D01*
X176202Y621378D01*
X176220Y621448D01*
X176247Y621514D01*
X176255Y621586D01*
X176263Y621617D01*
X176261Y621640D01*
X176265Y621681D01*
X176265Y623574D01*
X178044Y627869D01*
X181331Y631156D01*
X185626Y632935D01*
X190274Y632935D01*
X194569Y631156D01*
X197105Y628620D01*
X197179Y628567D01*
X197248Y628507D01*
X197279Y628495D01*
X197305Y628476D01*
X197392Y628449D01*
X197477Y628415D01*
X197518Y628411D01*
X197540Y628404D01*
X197572Y628405D01*
X197643Y628397D01*
X232583Y628397D01*
X240159Y625935D01*
X246603Y621253D01*
X251285Y614809D01*
X252768Y610245D01*
X252770Y610241D01*
X252771Y610237D01*
X252826Y610133D01*
X252881Y610026D01*
X252884Y610024D01*
X252886Y610020D01*
X252972Y609938D01*
X253057Y609855D01*
X253061Y609853D01*
X253064Y609851D01*
X253172Y609800D01*
X253279Y609749D01*
X253283Y609749D01*
X253287Y609747D01*
X253405Y609734D01*
X253524Y609720D01*
X253528Y609720D01*
X253531Y609720D01*
X253649Y609745D01*
X253764Y609769D01*
X253768Y609771D01*
X253772Y609772D01*
X253874Y609834D01*
X253977Y609893D01*
X253980Y609896D01*
X253983Y609898D01*
X254061Y609989D01*
X254139Y610079D01*
X254140Y610082D01*
X254143Y610085D01*
X254188Y610198D01*
X254233Y610306D01*
X254233Y610310D01*
X254235Y610313D01*
X254253Y610480D01*
X254253Y642291D01*
X254239Y642381D01*
X254231Y642472D01*
X254219Y642502D01*
X254214Y642533D01*
X254171Y642614D01*
X254135Y642698D01*
X254109Y642730D01*
X254098Y642751D01*
X254075Y642773D01*
X254030Y642829D01*
X251460Y645399D01*
X249681Y649694D01*
X249681Y654342D01*
X251460Y658637D01*
X254747Y661924D01*
X259042Y663703D01*
X263690Y663703D01*
X267985Y661924D01*
X271272Y658637D01*
X273051Y654342D01*
X273051Y649694D01*
X271272Y645399D01*
X267985Y642112D01*
X266917Y641670D01*
X266817Y641608D01*
X266717Y641548D01*
X266713Y641543D01*
X266708Y641540D01*
X266633Y641450D01*
X266557Y641361D01*
X266555Y641355D01*
X266551Y641351D01*
X266509Y641243D01*
X266465Y641133D01*
X266464Y641126D01*
X266463Y641121D01*
X266462Y641103D01*
X266447Y640966D01*
X266447Y127000D01*
X266448Y126990D01*
X266448Y126984D01*
X266450Y126973D01*
X266449Y126940D01*
X266599Y125033D01*
X266601Y125027D01*
X266600Y125022D01*
X266634Y124858D01*
X267813Y121230D01*
X267829Y121198D01*
X267838Y121163D01*
X267921Y121017D01*
X270163Y117931D01*
X270189Y117906D01*
X270207Y117876D01*
X270331Y117763D01*
X273417Y115521D01*
X273449Y115505D01*
X273477Y115482D01*
X273630Y115413D01*
X277258Y114234D01*
X277263Y114233D01*
X277268Y114231D01*
X277433Y114199D01*
X279340Y114049D01*
X279362Y114051D01*
X279400Y114047D01*
X308783Y114047D01*
X316359Y111585D01*
X322803Y106903D01*
X327485Y100459D01*
X329947Y92883D01*
X329947Y60106D01*
X329961Y60016D01*
X329969Y59925D01*
X329981Y59896D01*
X329986Y59864D01*
X330029Y59783D01*
X330065Y59699D01*
X330091Y59667D01*
X330102Y59646D01*
X330125Y59624D01*
X330170Y59568D01*
X334519Y55219D01*
X334519Y46381D01*
X330459Y42321D01*
X330417Y42263D01*
X330368Y42211D01*
X330346Y42164D01*
X330316Y42122D01*
X330294Y42053D01*
X330264Y41988D01*
X330259Y41936D01*
X330243Y41886D01*
X330245Y41815D01*
X330237Y41744D01*
X330248Y41693D01*
X330250Y41641D01*
X330274Y41573D01*
X330289Y41503D01*
X330316Y41458D01*
X330334Y41410D01*
X330379Y41354D01*
X330416Y41292D01*
X330455Y41258D01*
X330488Y41218D01*
X330548Y41179D01*
X330603Y41132D01*
X330651Y41113D01*
X330695Y41085D01*
X330764Y41067D01*
X330831Y41040D01*
X330902Y41032D01*
X330933Y41024D01*
X330956Y41026D01*
X330997Y41022D01*
X403784Y41022D01*
X403804Y41025D01*
X403823Y41023D01*
X403925Y41045D01*
X404027Y41061D01*
X404044Y41071D01*
X404064Y41075D01*
X404153Y41128D01*
X404244Y41177D01*
X404258Y41191D01*
X404275Y41201D01*
X404342Y41280D01*
X404414Y41355D01*
X404422Y41373D01*
X404435Y41388D01*
X404474Y41484D01*
X404517Y41578D01*
X404519Y41598D01*
X404527Y41616D01*
X404545Y41783D01*
X404545Y43649D01*
X406926Y46030D01*
X424374Y46030D01*
X426755Y43649D01*
X426755Y26201D01*
X424374Y23820D01*
X406926Y23820D01*
X404545Y26201D01*
X404545Y28067D01*
X404542Y28084D01*
X404544Y28100D01*
X404544Y28102D01*
X404544Y28106D01*
X404522Y28208D01*
X404506Y28310D01*
X404496Y28327D01*
X404492Y28347D01*
X404439Y28436D01*
X404390Y28527D01*
X404376Y28541D01*
X404366Y28558D01*
X404287Y28625D01*
X404212Y28697D01*
X404194Y28705D01*
X404179Y28718D01*
X404083Y28757D01*
X403989Y28800D01*
X403969Y28802D01*
X403951Y28810D01*
X403784Y28828D01*
X265389Y28828D01*
X256857Y31601D01*
X249599Y36874D01*
X244326Y44132D01*
X241553Y52664D01*
X241553Y603250D01*
X241550Y603272D01*
X241551Y603310D01*
X241401Y605217D01*
X241399Y605223D01*
X241400Y605228D01*
X241366Y605392D01*
X240187Y609020D01*
X240171Y609052D01*
X240162Y609087D01*
X240079Y609233D01*
X237837Y612319D01*
X237811Y612344D01*
X237793Y612374D01*
X237669Y612487D01*
X234583Y614729D01*
X234551Y614745D01*
X234523Y614768D01*
X234370Y614837D01*
X230742Y616016D01*
X230737Y616017D01*
X230732Y616019D01*
X230567Y616051D01*
X228660Y616201D01*
X228638Y616199D01*
X228600Y616203D01*
X199016Y616203D01*
X198901Y616184D01*
X198785Y616167D01*
X198779Y616165D01*
X198773Y616164D01*
X198671Y616109D01*
X198565Y616056D01*
X198561Y616051D01*
X198556Y616048D01*
X198476Y615964D01*
X198393Y615880D01*
X198390Y615874D01*
X198386Y615870D01*
X198378Y615853D01*
X198312Y615733D01*
X197856Y614631D01*
X194569Y611344D01*
X190274Y609565D01*
X185626Y609565D01*
X181331Y611344D01*
X178846Y613829D01*
X178788Y613871D01*
X178736Y613920D01*
X178689Y613942D01*
X178647Y613973D01*
X178578Y613994D01*
X178513Y614024D01*
X178461Y614030D01*
X178411Y614045D01*
X178340Y614043D01*
X178269Y614051D01*
X178218Y614040D01*
X178166Y614039D01*
X178098Y614014D01*
X178028Y613999D01*
X177983Y613972D01*
X177935Y613954D01*
X177879Y613909D01*
X177817Y613873D01*
X177783Y613833D01*
X177743Y613800D01*
X177704Y613740D01*
X177657Y613686D01*
X177638Y613637D01*
X177610Y613594D01*
X177592Y613524D01*
X177565Y613457D01*
X177557Y613386D01*
X177549Y613355D01*
X177551Y613332D01*
X177547Y613291D01*
X177547Y41343D01*
X175168Y35601D01*
X172978Y33410D01*
X172925Y33336D01*
X172865Y33267D01*
X172853Y33237D01*
X172834Y33210D01*
X172807Y33124D01*
X172773Y33039D01*
X172769Y32998D01*
X172762Y32975D01*
X172763Y32943D01*
X172755Y32872D01*
X172755Y26201D01*
X170374Y23820D01*
X152926Y23820D01*
G37*
%LPD*%
%LPC*%
G36*
X334866Y370585D02*
X334866Y370585D01*
X332485Y372966D01*
X332485Y389034D01*
X334866Y391415D01*
X363634Y391415D01*
X366015Y389034D01*
X366015Y387858D01*
X366018Y387838D01*
X366016Y387819D01*
X366038Y387717D01*
X366054Y387615D01*
X366064Y387598D01*
X366068Y387578D01*
X366121Y387489D01*
X366170Y387398D01*
X366184Y387384D01*
X366194Y387367D01*
X366273Y387300D01*
X366348Y387228D01*
X366366Y387220D01*
X366381Y387207D01*
X366477Y387168D01*
X366571Y387125D01*
X366591Y387123D01*
X366609Y387115D01*
X366776Y387097D01*
X450850Y387097D01*
X450876Y387101D01*
X450925Y387100D01*
X452064Y387213D01*
X452092Y387220D01*
X452120Y387220D01*
X452281Y387267D01*
X454387Y388139D01*
X454443Y388174D01*
X454503Y388199D01*
X454568Y388251D01*
X454596Y388269D01*
X454608Y388284D01*
X454634Y388304D01*
X456246Y389916D01*
X456284Y389969D01*
X456330Y390016D01*
X456370Y390089D01*
X456389Y390116D01*
X456395Y390134D01*
X456411Y390163D01*
X457283Y392269D01*
X457290Y392297D01*
X457303Y392322D01*
X457337Y392486D01*
X457450Y393625D01*
X457448Y393652D01*
X457453Y393700D01*
X457453Y412757D01*
X457438Y412853D01*
X457428Y412950D01*
X457418Y412974D01*
X457414Y413000D01*
X457368Y413086D01*
X457328Y413175D01*
X457311Y413194D01*
X457298Y413217D01*
X457228Y413284D01*
X457162Y413356D01*
X457139Y413368D01*
X457120Y413386D01*
X457032Y413427D01*
X456946Y413474D01*
X456921Y413479D01*
X456897Y413490D01*
X456800Y413501D01*
X456704Y413518D01*
X456678Y413514D01*
X456653Y413517D01*
X456557Y413497D01*
X456461Y413482D01*
X456438Y413471D01*
X456412Y413465D01*
X456329Y413415D01*
X456242Y413371D01*
X456223Y413352D01*
X456201Y413339D01*
X456138Y413265D01*
X456070Y413195D01*
X456054Y413167D01*
X456041Y413152D01*
X456029Y413121D01*
X455989Y413048D01*
X454085Y408453D01*
X448797Y403165D01*
X441889Y400303D01*
X366776Y400303D01*
X366756Y400300D01*
X366737Y400302D01*
X366635Y400280D01*
X366533Y400264D01*
X366516Y400254D01*
X366496Y400250D01*
X366407Y400197D01*
X366316Y400148D01*
X366302Y400134D01*
X366285Y400124D01*
X366218Y400045D01*
X366146Y399970D01*
X366138Y399952D01*
X366125Y399937D01*
X366086Y399841D01*
X366043Y399747D01*
X366041Y399727D01*
X366033Y399709D01*
X366015Y399542D01*
X366015Y398366D01*
X363634Y395985D01*
X334866Y395985D01*
X332485Y398366D01*
X332485Y414434D01*
X334866Y416815D01*
X363634Y416815D01*
X366015Y414434D01*
X366015Y413258D01*
X366018Y413238D01*
X366016Y413219D01*
X366038Y413117D01*
X366054Y413015D01*
X366064Y412998D01*
X366068Y412978D01*
X366121Y412889D01*
X366170Y412798D01*
X366184Y412784D01*
X366194Y412767D01*
X366273Y412700D01*
X366348Y412628D01*
X366366Y412620D01*
X366381Y412607D01*
X366477Y412568D01*
X366571Y412525D01*
X366591Y412523D01*
X366609Y412515D01*
X366776Y412497D01*
X438150Y412497D01*
X438176Y412501D01*
X438225Y412500D01*
X439364Y412613D01*
X439392Y412620D01*
X439420Y412620D01*
X439581Y412667D01*
X441687Y413539D01*
X441743Y413574D01*
X441803Y413599D01*
X441868Y413651D01*
X441896Y413669D01*
X441908Y413684D01*
X441934Y413704D01*
X443546Y415316D01*
X443584Y415369D01*
X443630Y415416D01*
X443670Y415489D01*
X443689Y415516D01*
X443695Y415534D01*
X443711Y415563D01*
X444583Y417669D01*
X444590Y417697D01*
X444603Y417722D01*
X444637Y417886D01*
X444750Y419025D01*
X444748Y419052D01*
X444753Y419100D01*
X444753Y438157D01*
X444738Y438253D01*
X444728Y438350D01*
X444718Y438374D01*
X444714Y438400D01*
X444668Y438486D01*
X444628Y438575D01*
X444611Y438594D01*
X444598Y438617D01*
X444528Y438684D01*
X444462Y438756D01*
X444439Y438768D01*
X444420Y438786D01*
X444332Y438827D01*
X444246Y438874D01*
X444221Y438879D01*
X444197Y438890D01*
X444100Y438901D01*
X444004Y438918D01*
X443978Y438914D01*
X443953Y438917D01*
X443857Y438897D01*
X443761Y438882D01*
X443738Y438871D01*
X443712Y438865D01*
X443629Y438815D01*
X443542Y438771D01*
X443523Y438752D01*
X443501Y438739D01*
X443438Y438665D01*
X443370Y438595D01*
X443354Y438567D01*
X443341Y438552D01*
X443329Y438521D01*
X443289Y438448D01*
X441385Y433852D01*
X436098Y428565D01*
X429189Y425703D01*
X366776Y425703D01*
X366756Y425700D01*
X366737Y425702D01*
X366635Y425680D01*
X366533Y425664D01*
X366516Y425654D01*
X366496Y425650D01*
X366407Y425597D01*
X366316Y425548D01*
X366302Y425534D01*
X366285Y425524D01*
X366218Y425445D01*
X366146Y425370D01*
X366138Y425352D01*
X366125Y425337D01*
X366086Y425241D01*
X366043Y425147D01*
X366041Y425127D01*
X366033Y425109D01*
X366015Y424942D01*
X366015Y423766D01*
X363634Y421385D01*
X334866Y421385D01*
X332485Y423766D01*
X332485Y439834D01*
X334866Y442215D01*
X363634Y442215D01*
X366015Y439834D01*
X366015Y438658D01*
X366018Y438638D01*
X366016Y438619D01*
X366038Y438517D01*
X366054Y438415D01*
X366064Y438398D01*
X366068Y438378D01*
X366121Y438289D01*
X366170Y438198D01*
X366184Y438184D01*
X366194Y438167D01*
X366273Y438100D01*
X366348Y438028D01*
X366366Y438020D01*
X366381Y438007D01*
X366477Y437968D01*
X366571Y437925D01*
X366591Y437923D01*
X366609Y437915D01*
X366776Y437897D01*
X425450Y437897D01*
X425476Y437901D01*
X425525Y437900D01*
X426664Y438013D01*
X426692Y438020D01*
X426720Y438020D01*
X426881Y438067D01*
X428987Y438939D01*
X429043Y438974D01*
X429103Y438999D01*
X429168Y439051D01*
X429196Y439069D01*
X429208Y439084D01*
X429234Y439104D01*
X430846Y440716D01*
X430884Y440769D01*
X430930Y440816D01*
X430970Y440889D01*
X430989Y440916D01*
X430995Y440934D01*
X431011Y440963D01*
X431883Y443069D01*
X431890Y443097D01*
X431903Y443122D01*
X431937Y443286D01*
X432050Y444425D01*
X432048Y444452D01*
X432053Y444500D01*
X432053Y507492D01*
X432050Y507512D01*
X432052Y507531D01*
X432030Y507633D01*
X432014Y507735D01*
X432004Y507752D01*
X432000Y507772D01*
X431947Y507861D01*
X431898Y507952D01*
X431884Y507966D01*
X431874Y507983D01*
X431795Y508050D01*
X431720Y508122D01*
X431702Y508130D01*
X431687Y508143D01*
X431591Y508182D01*
X431497Y508225D01*
X431477Y508227D01*
X431459Y508235D01*
X431292Y508253D01*
X430276Y508253D01*
X430256Y508250D01*
X430237Y508252D01*
X430135Y508230D01*
X430033Y508214D01*
X430016Y508204D01*
X429996Y508200D01*
X429907Y508147D01*
X429816Y508098D01*
X429802Y508084D01*
X429785Y508074D01*
X429718Y507995D01*
X429646Y507920D01*
X429638Y507902D01*
X429625Y507887D01*
X429586Y507791D01*
X429543Y507697D01*
X429541Y507677D01*
X429533Y507659D01*
X429515Y507492D01*
X429515Y506316D01*
X427134Y503935D01*
X398366Y503935D01*
X395985Y506316D01*
X395985Y522384D01*
X398366Y524765D01*
X427134Y524765D01*
X429515Y522384D01*
X429515Y521208D01*
X429518Y521188D01*
X429516Y521169D01*
X429538Y521067D01*
X429554Y520965D01*
X429564Y520948D01*
X429568Y520928D01*
X429621Y520839D01*
X429670Y520748D01*
X429684Y520734D01*
X429694Y520717D01*
X429773Y520650D01*
X429848Y520578D01*
X429866Y520570D01*
X429881Y520557D01*
X429977Y520518D01*
X430071Y520475D01*
X430091Y520473D01*
X430109Y520465D01*
X430276Y520447D01*
X434276Y520447D01*
X438851Y518552D01*
X442352Y515051D01*
X443289Y512789D01*
X443340Y512706D01*
X443386Y512620D01*
X443404Y512602D01*
X443418Y512580D01*
X443494Y512517D01*
X443564Y512450D01*
X443588Y512439D01*
X443608Y512423D01*
X443699Y512388D01*
X443787Y512347D01*
X443813Y512344D01*
X443837Y512335D01*
X443935Y512330D01*
X444031Y512320D01*
X444057Y512325D01*
X444083Y512324D01*
X444177Y512351D01*
X444272Y512372D01*
X444294Y512385D01*
X444319Y512393D01*
X444399Y512448D01*
X444483Y512498D01*
X444500Y512518D01*
X444521Y512533D01*
X444580Y512611D01*
X444643Y512685D01*
X444653Y512709D01*
X444668Y512730D01*
X444698Y512823D01*
X444735Y512913D01*
X444738Y512946D01*
X444744Y512964D01*
X444744Y512997D01*
X444753Y513080D01*
X444753Y527050D01*
X444749Y527076D01*
X444750Y527125D01*
X444637Y528264D01*
X444630Y528292D01*
X444630Y528320D01*
X444583Y528481D01*
X443711Y530587D01*
X443676Y530643D01*
X443651Y530703D01*
X443599Y530768D01*
X443581Y530796D01*
X443566Y530808D01*
X443546Y530834D01*
X441934Y532446D01*
X441881Y532484D01*
X441834Y532530D01*
X441761Y532570D01*
X441734Y532589D01*
X441716Y532595D01*
X441687Y532611D01*
X439581Y533483D01*
X439553Y533490D01*
X439528Y533503D01*
X439364Y533537D01*
X438225Y533650D01*
X438198Y533648D01*
X438150Y533653D01*
X430276Y533653D01*
X430256Y533650D01*
X430237Y533652D01*
X430135Y533630D01*
X430033Y533614D01*
X430016Y533604D01*
X429996Y533600D01*
X429907Y533547D01*
X429816Y533498D01*
X429802Y533484D01*
X429785Y533474D01*
X429718Y533395D01*
X429646Y533320D01*
X429638Y533302D01*
X429625Y533287D01*
X429586Y533191D01*
X429543Y533097D01*
X429541Y533077D01*
X429533Y533059D01*
X429515Y532892D01*
X429515Y531716D01*
X427134Y529335D01*
X398366Y529335D01*
X395985Y531716D01*
X395985Y547784D01*
X398366Y550165D01*
X427134Y550165D01*
X429515Y547784D01*
X429515Y546608D01*
X429518Y546588D01*
X429516Y546569D01*
X429538Y546467D01*
X429554Y546365D01*
X429564Y546348D01*
X429568Y546328D01*
X429621Y546239D01*
X429670Y546148D01*
X429684Y546134D01*
X429694Y546117D01*
X429773Y546050D01*
X429848Y545978D01*
X429866Y545970D01*
X429881Y545957D01*
X429977Y545918D01*
X430071Y545875D01*
X430091Y545873D01*
X430109Y545865D01*
X430276Y545847D01*
X441889Y545847D01*
X448798Y542985D01*
X454085Y537698D01*
X455989Y533102D01*
X456040Y533019D01*
X456086Y532933D01*
X456105Y532915D01*
X456118Y532893D01*
X456193Y532831D01*
X456264Y532764D01*
X456288Y532752D01*
X456308Y532736D01*
X456399Y532701D01*
X456487Y532660D01*
X456513Y532657D01*
X456537Y532648D01*
X456635Y532644D01*
X456731Y532633D01*
X456757Y532638D01*
X456783Y532637D01*
X456877Y532664D01*
X456972Y532685D01*
X456994Y532698D01*
X457019Y532706D01*
X457099Y532761D01*
X457183Y532811D01*
X457200Y532831D01*
X457221Y532846D01*
X457280Y532924D01*
X457343Y532998D01*
X457353Y533022D01*
X457368Y533043D01*
X457398Y533136D01*
X457435Y533226D01*
X457438Y533259D01*
X457444Y533277D01*
X457444Y533310D01*
X457453Y533393D01*
X457453Y552450D01*
X457449Y552476D01*
X457450Y552525D01*
X457337Y553664D01*
X457330Y553692D01*
X457330Y553720D01*
X457283Y553881D01*
X456411Y555987D01*
X456376Y556043D01*
X456351Y556103D01*
X456299Y556168D01*
X456281Y556196D01*
X456266Y556208D01*
X456246Y556234D01*
X454634Y557846D01*
X454581Y557884D01*
X454534Y557930D01*
X454461Y557970D01*
X454434Y557989D01*
X454416Y557995D01*
X454387Y558011D01*
X452281Y558883D01*
X452253Y558890D01*
X452228Y558903D01*
X452064Y558937D01*
X450925Y559050D01*
X450898Y559048D01*
X450850Y559053D01*
X430276Y559053D01*
X430256Y559050D01*
X430237Y559052D01*
X430135Y559030D01*
X430033Y559014D01*
X430016Y559004D01*
X429996Y559000D01*
X429907Y558947D01*
X429816Y558898D01*
X429802Y558884D01*
X429785Y558874D01*
X429718Y558795D01*
X429646Y558720D01*
X429638Y558702D01*
X429625Y558687D01*
X429586Y558591D01*
X429543Y558497D01*
X429541Y558477D01*
X429533Y558459D01*
X429515Y558292D01*
X429515Y557116D01*
X427134Y554735D01*
X398366Y554735D01*
X395985Y557116D01*
X395985Y573184D01*
X398366Y575565D01*
X427134Y575565D01*
X429515Y573184D01*
X429515Y572008D01*
X429518Y571988D01*
X429516Y571969D01*
X429538Y571867D01*
X429554Y571765D01*
X429564Y571748D01*
X429568Y571728D01*
X429621Y571639D01*
X429670Y571548D01*
X429684Y571534D01*
X429694Y571517D01*
X429773Y571450D01*
X429848Y571378D01*
X429866Y571370D01*
X429881Y571357D01*
X429977Y571318D01*
X430071Y571275D01*
X430091Y571273D01*
X430109Y571265D01*
X430276Y571247D01*
X454589Y571247D01*
X461498Y568385D01*
X466785Y563098D01*
X469647Y556189D01*
X469647Y389961D01*
X466785Y383052D01*
X461498Y377765D01*
X454589Y374903D01*
X366776Y374903D01*
X366756Y374900D01*
X366737Y374902D01*
X366635Y374880D01*
X366533Y374864D01*
X366516Y374854D01*
X366496Y374850D01*
X366407Y374797D01*
X366316Y374748D01*
X366302Y374734D01*
X366285Y374724D01*
X366218Y374645D01*
X366146Y374570D01*
X366138Y374552D01*
X366125Y374537D01*
X366086Y374441D01*
X366043Y374347D01*
X366041Y374327D01*
X366033Y374309D01*
X366015Y374142D01*
X366015Y372966D01*
X363634Y370585D01*
X334866Y370585D01*
G37*
%LPD*%
%LPC*%
G36*
X725844Y62991D02*
X725844Y62991D01*
X720336Y65273D01*
X716120Y69489D01*
X713838Y74997D01*
X713838Y78994D01*
X713835Y79014D01*
X713837Y79033D01*
X713815Y79135D01*
X713799Y79237D01*
X713789Y79254D01*
X713785Y79274D01*
X713732Y79363D01*
X713683Y79454D01*
X713669Y79468D01*
X713659Y79485D01*
X713580Y79552D01*
X713505Y79624D01*
X713487Y79632D01*
X713472Y79645D01*
X713376Y79684D01*
X713282Y79727D01*
X713262Y79729D01*
X713244Y79737D01*
X713077Y79755D01*
X613722Y79755D01*
X596827Y82734D01*
X580706Y88602D01*
X565849Y97180D01*
X552707Y108207D01*
X541680Y121349D01*
X533102Y136206D01*
X527234Y152327D01*
X524255Y169222D01*
X524255Y413164D01*
X524252Y413184D01*
X524254Y413203D01*
X524232Y413305D01*
X524216Y413407D01*
X524206Y413424D01*
X524202Y413444D01*
X524149Y413533D01*
X524100Y413624D01*
X524086Y413638D01*
X524076Y413655D01*
X523997Y413722D01*
X523922Y413794D01*
X523904Y413802D01*
X523889Y413815D01*
X523793Y413854D01*
X523699Y413897D01*
X523679Y413899D01*
X523661Y413907D01*
X523494Y413925D01*
X522351Y413925D01*
X519970Y416306D01*
X519970Y439674D01*
X522351Y442055D01*
X545719Y442055D01*
X546197Y441577D01*
X546213Y441565D01*
X546225Y441549D01*
X546312Y441494D01*
X546396Y441433D01*
X546415Y441427D01*
X546432Y441416D01*
X546533Y441391D01*
X546632Y441361D01*
X546651Y441361D01*
X546671Y441356D01*
X546774Y441364D01*
X546877Y441367D01*
X546896Y441374D01*
X546916Y441376D01*
X547011Y441416D01*
X547108Y441452D01*
X547124Y441464D01*
X547142Y441472D01*
X547273Y441577D01*
X547751Y442055D01*
X571119Y442055D01*
X573500Y439674D01*
X573500Y416306D01*
X571119Y413925D01*
X547751Y413925D01*
X547273Y414403D01*
X547257Y414415D01*
X547245Y414431D01*
X547157Y414487D01*
X547074Y414547D01*
X547055Y414553D01*
X547038Y414564D01*
X546937Y414589D01*
X546838Y414619D01*
X546819Y414619D01*
X546799Y414624D01*
X546696Y414616D01*
X546593Y414613D01*
X546574Y414606D01*
X546554Y414604D01*
X546459Y414564D01*
X546362Y414528D01*
X546346Y414516D01*
X546328Y414508D01*
X546197Y414403D01*
X545719Y413925D01*
X543306Y413925D01*
X543286Y413922D01*
X543267Y413924D01*
X543165Y413902D01*
X543063Y413886D01*
X543046Y413876D01*
X543026Y413872D01*
X542937Y413819D01*
X542846Y413770D01*
X542832Y413756D01*
X542815Y413746D01*
X542748Y413667D01*
X542676Y413592D01*
X542668Y413574D01*
X542655Y413559D01*
X542616Y413463D01*
X542573Y413369D01*
X542571Y413349D01*
X542563Y413331D01*
X542545Y413164D01*
X542545Y177800D01*
X542547Y177787D01*
X542545Y177767D01*
X542846Y170882D01*
X542853Y170851D01*
X542857Y170783D01*
X545248Y157223D01*
X545258Y157193D01*
X545282Y157094D01*
X549992Y144155D01*
X550007Y144128D01*
X550048Y144035D01*
X556933Y132110D01*
X556952Y132086D01*
X557009Y132002D01*
X565860Y121453D01*
X565883Y121433D01*
X565953Y121360D01*
X576502Y112509D01*
X576528Y112493D01*
X576610Y112433D01*
X588535Y105548D01*
X588564Y105537D01*
X588655Y105492D01*
X601594Y100782D01*
X601625Y100776D01*
X601723Y100748D01*
X615283Y98357D01*
X615315Y98357D01*
X615382Y98346D01*
X622267Y98045D01*
X622279Y98047D01*
X622300Y98045D01*
X713077Y98045D01*
X713097Y98048D01*
X713116Y98046D01*
X713218Y98068D01*
X713320Y98084D01*
X713337Y98094D01*
X713357Y98098D01*
X713446Y98151D01*
X713537Y98200D01*
X713551Y98214D01*
X713568Y98224D01*
X713635Y98303D01*
X713707Y98378D01*
X713715Y98396D01*
X713728Y98411D01*
X713767Y98507D01*
X713810Y98601D01*
X713812Y98621D01*
X713820Y98639D01*
X713838Y98806D01*
X713838Y102803D01*
X716120Y108311D01*
X720336Y112527D01*
X725844Y114809D01*
X731806Y114809D01*
X737314Y112527D01*
X741530Y108311D01*
X743812Y102803D01*
X743812Y74997D01*
X741530Y69489D01*
X737314Y65273D01*
X731806Y62991D01*
X725844Y62991D01*
G37*
%LPD*%
%LPC*%
G36*
X284066Y383285D02*
X284066Y383285D01*
X281685Y385666D01*
X281685Y401734D01*
X284066Y404115D01*
X291592Y404115D01*
X291612Y404118D01*
X291631Y404116D01*
X291733Y404138D01*
X291835Y404154D01*
X291852Y404164D01*
X291872Y404168D01*
X291961Y404221D01*
X292052Y404270D01*
X292066Y404284D01*
X292083Y404294D01*
X292150Y404373D01*
X292222Y404448D01*
X292230Y404466D01*
X292243Y404481D01*
X292282Y404577D01*
X292325Y404671D01*
X292327Y404691D01*
X292335Y404709D01*
X292353Y404876D01*
X292353Y433324D01*
X292350Y433344D01*
X292352Y433363D01*
X292330Y433465D01*
X292314Y433567D01*
X292304Y433584D01*
X292300Y433604D01*
X292247Y433693D01*
X292198Y433784D01*
X292184Y433798D01*
X292174Y433815D01*
X292095Y433882D01*
X292020Y433954D01*
X292002Y433962D01*
X291987Y433975D01*
X291891Y434014D01*
X291797Y434057D01*
X291777Y434059D01*
X291759Y434067D01*
X291592Y434085D01*
X284066Y434085D01*
X281685Y436466D01*
X281685Y452534D01*
X284066Y454915D01*
X291592Y454915D01*
X291612Y454918D01*
X291631Y454916D01*
X291733Y454938D01*
X291835Y454954D01*
X291852Y454964D01*
X291872Y454968D01*
X291961Y455021D01*
X292052Y455070D01*
X292066Y455084D01*
X292083Y455094D01*
X292150Y455173D01*
X292222Y455248D01*
X292230Y455266D01*
X292243Y455281D01*
X292282Y455377D01*
X292325Y455471D01*
X292327Y455491D01*
X292335Y455509D01*
X292353Y455676D01*
X292353Y543489D01*
X295215Y550398D01*
X300502Y555685D01*
X307411Y558547D01*
X344424Y558547D01*
X344444Y558550D01*
X344463Y558548D01*
X344565Y558570D01*
X344667Y558586D01*
X344684Y558596D01*
X344704Y558600D01*
X344793Y558653D01*
X344884Y558702D01*
X344898Y558716D01*
X344915Y558726D01*
X344982Y558805D01*
X345054Y558880D01*
X345062Y558898D01*
X345075Y558913D01*
X345114Y559009D01*
X345157Y559103D01*
X345159Y559123D01*
X345167Y559141D01*
X345185Y559308D01*
X345185Y560484D01*
X347566Y562865D01*
X376334Y562865D01*
X378715Y560484D01*
X378715Y544416D01*
X376334Y542035D01*
X347566Y542035D01*
X345185Y544416D01*
X345185Y545592D01*
X345182Y545612D01*
X345184Y545631D01*
X345162Y545733D01*
X345146Y545835D01*
X345136Y545852D01*
X345132Y545872D01*
X345079Y545961D01*
X345030Y546052D01*
X345016Y546066D01*
X345006Y546083D01*
X344927Y546150D01*
X344852Y546222D01*
X344834Y546230D01*
X344819Y546243D01*
X344723Y546282D01*
X344629Y546325D01*
X344609Y546327D01*
X344591Y546335D01*
X344424Y546353D01*
X311150Y546353D01*
X311124Y546349D01*
X311075Y546350D01*
X309936Y546237D01*
X309908Y546230D01*
X309880Y546230D01*
X309719Y546183D01*
X307613Y545311D01*
X307557Y545276D01*
X307497Y545251D01*
X307432Y545199D01*
X307404Y545181D01*
X307392Y545166D01*
X307366Y545146D01*
X305754Y543534D01*
X305716Y543481D01*
X305670Y543434D01*
X305630Y543361D01*
X305611Y543334D01*
X305605Y543316D01*
X305589Y543287D01*
X304717Y541181D01*
X304710Y541153D01*
X304697Y541128D01*
X304663Y540964D01*
X304550Y539825D01*
X304552Y539798D01*
X304547Y539750D01*
X304547Y508508D01*
X304550Y508488D01*
X304548Y508469D01*
X304570Y508367D01*
X304586Y508265D01*
X304596Y508248D01*
X304600Y508228D01*
X304653Y508139D01*
X304702Y508048D01*
X304716Y508034D01*
X304726Y508017D01*
X304805Y507950D01*
X304880Y507878D01*
X304898Y507870D01*
X304913Y507857D01*
X305009Y507818D01*
X305103Y507775D01*
X305123Y507773D01*
X305141Y507765D01*
X305308Y507747D01*
X344424Y507747D01*
X344444Y507750D01*
X344463Y507748D01*
X344565Y507770D01*
X344667Y507786D01*
X344684Y507796D01*
X344704Y507800D01*
X344793Y507853D01*
X344884Y507902D01*
X344898Y507916D01*
X344915Y507926D01*
X344982Y508005D01*
X345054Y508080D01*
X345062Y508098D01*
X345075Y508113D01*
X345114Y508209D01*
X345157Y508303D01*
X345159Y508323D01*
X345167Y508341D01*
X345185Y508508D01*
X345185Y509684D01*
X347566Y512065D01*
X376334Y512065D01*
X378715Y509684D01*
X378715Y493616D01*
X376334Y491235D01*
X347566Y491235D01*
X345185Y493616D01*
X345185Y494792D01*
X345182Y494812D01*
X345184Y494831D01*
X345162Y494933D01*
X345146Y495035D01*
X345136Y495052D01*
X345132Y495072D01*
X345079Y495161D01*
X345030Y495252D01*
X345016Y495266D01*
X345006Y495283D01*
X344927Y495350D01*
X344852Y495422D01*
X344834Y495430D01*
X344819Y495443D01*
X344723Y495482D01*
X344629Y495525D01*
X344609Y495527D01*
X344591Y495535D01*
X344424Y495553D01*
X305308Y495553D01*
X305288Y495550D01*
X305269Y495552D01*
X305167Y495530D01*
X305065Y495514D01*
X305048Y495504D01*
X305028Y495500D01*
X304939Y495447D01*
X304848Y495398D01*
X304834Y495384D01*
X304817Y495374D01*
X304750Y495295D01*
X304678Y495220D01*
X304670Y495202D01*
X304657Y495187D01*
X304618Y495091D01*
X304575Y494997D01*
X304573Y494977D01*
X304565Y494959D01*
X304547Y494792D01*
X304547Y455676D01*
X304550Y455656D01*
X304548Y455637D01*
X304570Y455535D01*
X304586Y455433D01*
X304596Y455416D01*
X304600Y455396D01*
X304653Y455307D01*
X304702Y455216D01*
X304716Y455202D01*
X304726Y455185D01*
X304805Y455118D01*
X304880Y455046D01*
X304898Y455038D01*
X304913Y455025D01*
X305009Y454986D01*
X305103Y454943D01*
X305123Y454941D01*
X305141Y454933D01*
X305308Y454915D01*
X312834Y454915D01*
X315215Y452534D01*
X315215Y436466D01*
X312834Y434085D01*
X305308Y434085D01*
X305288Y434082D01*
X305269Y434084D01*
X305167Y434062D01*
X305065Y434046D01*
X305048Y434036D01*
X305028Y434032D01*
X304939Y433979D01*
X304848Y433930D01*
X304834Y433916D01*
X304817Y433906D01*
X304750Y433827D01*
X304678Y433752D01*
X304670Y433734D01*
X304657Y433719D01*
X304618Y433623D01*
X304575Y433529D01*
X304573Y433509D01*
X304565Y433491D01*
X304547Y433324D01*
X304547Y404876D01*
X304550Y404858D01*
X304548Y404840D01*
X304548Y404839D01*
X304548Y404837D01*
X304570Y404735D01*
X304586Y404633D01*
X304596Y404616D01*
X304600Y404596D01*
X304653Y404507D01*
X304702Y404416D01*
X304716Y404402D01*
X304726Y404385D01*
X304805Y404318D01*
X304880Y404246D01*
X304898Y404238D01*
X304913Y404225D01*
X305009Y404186D01*
X305103Y404143D01*
X305123Y404141D01*
X305141Y404133D01*
X305308Y404115D01*
X312834Y404115D01*
X315215Y401734D01*
X315215Y385666D01*
X312834Y383285D01*
X284066Y383285D01*
G37*
%LPD*%
%LPC*%
G36*
X501710Y469767D02*
X501710Y469767D01*
X501677Y469764D01*
X501590Y469767D01*
X501521Y469762D01*
X501517Y469764D01*
X501352Y469795D01*
X498948Y469985D01*
X498916Y469982D01*
X498884Y469987D01*
X498798Y469972D01*
X498708Y469994D01*
X498675Y469996D01*
X498590Y470013D01*
X498521Y470018D01*
X498517Y470021D01*
X498359Y470078D01*
X496014Y470641D01*
X495982Y470643D01*
X495952Y470653D01*
X495865Y470652D01*
X495779Y470688D01*
X495747Y470695D01*
X495665Y470725D01*
X495598Y470741D01*
X495594Y470744D01*
X495448Y470825D01*
X493219Y471748D01*
X493188Y471755D01*
X493160Y471769D01*
X493074Y471782D01*
X492994Y471831D01*
X492964Y471843D01*
X492888Y471885D01*
X492824Y471912D01*
X492821Y471915D01*
X492688Y472018D01*
X490632Y473278D01*
X490603Y473290D01*
X490577Y473309D01*
X490493Y473335D01*
X490423Y473396D01*
X490395Y473413D01*
X490326Y473466D01*
X490267Y473502D01*
X490265Y473506D01*
X490150Y473629D01*
X488316Y475195D01*
X488289Y475211D01*
X488267Y475234D01*
X488188Y475273D01*
X488128Y475343D01*
X488103Y475365D01*
X488043Y475428D01*
X487991Y475473D01*
X487989Y475478D01*
X487895Y475616D01*
X486329Y477450D01*
X486304Y477471D01*
X486286Y477496D01*
X486214Y477547D01*
X486166Y477626D01*
X486144Y477651D01*
X486096Y477723D01*
X486051Y477776D01*
X486050Y477780D01*
X485978Y477932D01*
X484718Y479988D01*
X484697Y480013D01*
X484683Y480041D01*
X484621Y480102D01*
X484585Y480188D01*
X484568Y480216D01*
X484531Y480294D01*
X484495Y480354D01*
X484494Y480358D01*
X484448Y480519D01*
X483525Y482748D01*
X483508Y482775D01*
X483498Y482805D01*
X483446Y482875D01*
X483425Y482965D01*
X483412Y482996D01*
X483388Y483079D01*
X483361Y483143D01*
X483362Y483148D01*
X483341Y483314D01*
X482778Y485659D01*
X482765Y485689D01*
X482760Y485720D01*
X482720Y485798D01*
X482713Y485890D01*
X482705Y485922D01*
X482694Y486008D01*
X482678Y486076D01*
X482679Y486080D01*
X482685Y486248D01*
X482498Y488613D01*
X482484Y488673D01*
X482479Y488735D01*
X482472Y488750D01*
X482472Y488915D01*
X482469Y488937D01*
X482470Y488975D01*
X482457Y489140D01*
X482464Y489202D01*
X482471Y489234D01*
X482469Y489251D01*
X482472Y489278D01*
X482472Y564822D01*
X482462Y564883D01*
X482462Y564944D01*
X482457Y564961D01*
X482470Y565125D01*
X482468Y565147D01*
X482472Y565185D01*
X482472Y565350D01*
X482484Y565412D01*
X482494Y565443D01*
X482493Y565460D01*
X482498Y565487D01*
X482685Y567852D01*
X482682Y567884D01*
X482687Y567915D01*
X482672Y568002D01*
X482694Y568092D01*
X482696Y568125D01*
X482713Y568210D01*
X482718Y568279D01*
X482721Y568283D01*
X482778Y568441D01*
X483341Y570786D01*
X483343Y570818D01*
X483353Y570848D01*
X483352Y570935D01*
X483388Y571021D01*
X483395Y571053D01*
X483425Y571135D01*
X483441Y571202D01*
X483444Y571206D01*
X483525Y571352D01*
X484448Y573581D01*
X484455Y573612D01*
X484469Y573640D01*
X484473Y573666D01*
X484476Y573672D01*
X484482Y573725D01*
X484482Y573726D01*
X484531Y573806D01*
X484543Y573836D01*
X484585Y573912D01*
X484612Y573976D01*
X484615Y573979D01*
X484718Y574112D01*
X485978Y576168D01*
X485990Y576197D01*
X486009Y576223D01*
X486035Y576307D01*
X486096Y576377D01*
X486113Y576405D01*
X486166Y576474D01*
X486202Y576533D01*
X486206Y576535D01*
X486329Y576650D01*
X487895Y578484D01*
X487911Y578511D01*
X487934Y578533D01*
X487973Y578612D01*
X488043Y578672D01*
X488065Y578697D01*
X488128Y578757D01*
X488173Y578809D01*
X488178Y578811D01*
X488316Y578905D01*
X490150Y580471D01*
X490171Y580496D01*
X490196Y580514D01*
X490247Y580586D01*
X490326Y580634D01*
X490351Y580656D01*
X490423Y580704D01*
X490476Y580749D01*
X490480Y580750D01*
X490632Y580822D01*
X492688Y582082D01*
X492713Y582103D01*
X492741Y582117D01*
X492802Y582179D01*
X492888Y582215D01*
X492916Y582232D01*
X492994Y582269D01*
X493054Y582305D01*
X493058Y582306D01*
X493219Y582352D01*
X495448Y583275D01*
X495475Y583292D01*
X495505Y583302D01*
X495575Y583354D01*
X495665Y583375D01*
X495696Y583388D01*
X495779Y583412D01*
X495843Y583439D01*
X495848Y583438D01*
X496014Y583459D01*
X498359Y584022D01*
X498389Y584035D01*
X498420Y584040D01*
X498498Y584080D01*
X498590Y584087D01*
X498622Y584095D01*
X498708Y584106D01*
X498776Y584122D01*
X498780Y584121D01*
X498948Y584115D01*
X501352Y584305D01*
X501383Y584312D01*
X501415Y584312D01*
X501498Y584340D01*
X501590Y584333D01*
X501623Y584336D01*
X501710Y584333D01*
X501779Y584338D01*
X501783Y584336D01*
X501948Y584305D01*
X504352Y584115D01*
X504384Y584118D01*
X504416Y584113D01*
X504502Y584128D01*
X504592Y584106D01*
X504625Y584104D01*
X504710Y584087D01*
X504779Y584082D01*
X504783Y584079D01*
X504941Y584022D01*
X507286Y583459D01*
X507318Y583457D01*
X507348Y583447D01*
X507435Y583448D01*
X507521Y583412D01*
X507553Y583405D01*
X507635Y583375D01*
X507702Y583359D01*
X507706Y583356D01*
X507852Y583275D01*
X510081Y582352D01*
X510112Y582345D01*
X510140Y582331D01*
X510226Y582318D01*
X510306Y582269D01*
X510336Y582257D01*
X510412Y582215D01*
X510476Y582188D01*
X510479Y582185D01*
X510612Y582082D01*
X512668Y580822D01*
X512697Y580810D01*
X512723Y580791D01*
X512807Y580765D01*
X512877Y580704D01*
X512905Y580687D01*
X512974Y580634D01*
X513033Y580598D01*
X513035Y580594D01*
X513150Y580471D01*
X514984Y578905D01*
X515011Y578889D01*
X515033Y578866D01*
X515112Y578827D01*
X515172Y578757D01*
X515197Y578735D01*
X515257Y578672D01*
X515309Y578627D01*
X515311Y578622D01*
X515405Y578484D01*
X516971Y576650D01*
X516996Y576629D01*
X517014Y576603D01*
X517086Y576553D01*
X517134Y576474D01*
X517156Y576449D01*
X517204Y576377D01*
X517249Y576324D01*
X517250Y576320D01*
X517322Y576168D01*
X518582Y574112D01*
X518603Y574087D01*
X518617Y574059D01*
X518679Y573998D01*
X518715Y573912D01*
X518732Y573884D01*
X518769Y573806D01*
X518805Y573746D01*
X518806Y573742D01*
X518852Y573581D01*
X519775Y571352D01*
X519792Y571325D01*
X519802Y571295D01*
X519854Y571225D01*
X519875Y571135D01*
X519888Y571104D01*
X519912Y571021D01*
X519939Y570957D01*
X519938Y570952D01*
X519959Y570786D01*
X520522Y568441D01*
X520535Y568411D01*
X520540Y568380D01*
X520580Y568302D01*
X520587Y568210D01*
X520595Y568178D01*
X520606Y568092D01*
X520622Y568024D01*
X520621Y568020D01*
X520615Y567852D01*
X520802Y565487D01*
X520816Y565427D01*
X520821Y565365D01*
X520828Y565350D01*
X520828Y565185D01*
X520831Y565163D01*
X520830Y565125D01*
X520843Y564960D01*
X520836Y564898D01*
X520829Y564866D01*
X520831Y564849D01*
X520828Y564822D01*
X520828Y489278D01*
X520838Y489217D01*
X520838Y489156D01*
X520843Y489139D01*
X520830Y488975D01*
X520832Y488953D01*
X520828Y488915D01*
X520828Y488750D01*
X520816Y488688D01*
X520806Y488657D01*
X520807Y488640D01*
X520802Y488613D01*
X520615Y486248D01*
X520618Y486216D01*
X520613Y486184D01*
X520628Y486098D01*
X520606Y486008D01*
X520604Y485975D01*
X520587Y485890D01*
X520582Y485821D01*
X520579Y485817D01*
X520522Y485659D01*
X519959Y483314D01*
X519957Y483282D01*
X519947Y483252D01*
X519948Y483165D01*
X519912Y483079D01*
X519905Y483047D01*
X519875Y482965D01*
X519859Y482898D01*
X519856Y482894D01*
X519775Y482748D01*
X518852Y480519D01*
X518845Y480488D01*
X518831Y480460D01*
X518829Y480449D01*
X518829Y480448D01*
X518818Y480373D01*
X518769Y480294D01*
X518757Y480264D01*
X518715Y480188D01*
X518688Y480124D01*
X518685Y480121D01*
X518582Y479988D01*
X517322Y477932D01*
X517310Y477903D01*
X517291Y477877D01*
X517265Y477793D01*
X517204Y477723D01*
X517187Y477695D01*
X517134Y477626D01*
X517098Y477567D01*
X517094Y477565D01*
X516971Y477450D01*
X515405Y475616D01*
X515389Y475589D01*
X515366Y475567D01*
X515327Y475488D01*
X515257Y475428D01*
X515235Y475403D01*
X515172Y475343D01*
X515127Y475291D01*
X515122Y475289D01*
X514984Y475195D01*
X513150Y473629D01*
X513129Y473604D01*
X513104Y473586D01*
X513053Y473514D01*
X512974Y473466D01*
X512949Y473444D01*
X512877Y473396D01*
X512824Y473351D01*
X512820Y473350D01*
X512668Y473278D01*
X510612Y472018D01*
X510587Y471997D01*
X510559Y471983D01*
X510498Y471921D01*
X510412Y471885D01*
X510384Y471868D01*
X510306Y471831D01*
X510246Y471795D01*
X510242Y471794D01*
X510081Y471748D01*
X507852Y470825D01*
X507825Y470808D01*
X507795Y470798D01*
X507725Y470746D01*
X507635Y470725D01*
X507604Y470712D01*
X507521Y470688D01*
X507457Y470661D01*
X507452Y470662D01*
X507286Y470641D01*
X504941Y470078D01*
X504911Y470065D01*
X504880Y470060D01*
X504802Y470020D01*
X504710Y470013D01*
X504678Y470005D01*
X504592Y469994D01*
X504524Y469978D01*
X504520Y469979D01*
X504352Y469985D01*
X501948Y469795D01*
X501917Y469788D01*
X501885Y469788D01*
X501802Y469760D01*
X501710Y469767D01*
G37*
%LPD*%
%LPC*%
G36*
X114048Y488814D02*
X114048Y488814D01*
X114016Y488821D01*
X113999Y488819D01*
X113972Y488822D01*
X38428Y488822D01*
X38367Y488812D01*
X38306Y488812D01*
X38289Y488807D01*
X38125Y488820D01*
X38103Y488818D01*
X38065Y488822D01*
X37900Y488822D01*
X37838Y488834D01*
X37807Y488844D01*
X37790Y488843D01*
X37763Y488848D01*
X35398Y489035D01*
X35366Y489032D01*
X35334Y489037D01*
X35248Y489022D01*
X35158Y489044D01*
X35125Y489046D01*
X35040Y489063D01*
X34971Y489068D01*
X34967Y489071D01*
X34809Y489128D01*
X32464Y489691D01*
X32432Y489693D01*
X32402Y489703D01*
X32315Y489702D01*
X32229Y489738D01*
X32197Y489745D01*
X32115Y489775D01*
X32048Y489791D01*
X32044Y489794D01*
X31898Y489875D01*
X29669Y490798D01*
X29638Y490805D01*
X29610Y490819D01*
X29524Y490832D01*
X29444Y490881D01*
X29414Y490893D01*
X29338Y490935D01*
X29274Y490962D01*
X29271Y490965D01*
X29138Y491068D01*
X27082Y492328D01*
X27053Y492340D01*
X27027Y492359D01*
X26943Y492385D01*
X26873Y492446D01*
X26845Y492463D01*
X26776Y492516D01*
X26717Y492552D01*
X26715Y492556D01*
X26600Y492679D01*
X24766Y494245D01*
X24739Y494261D01*
X24717Y494284D01*
X24638Y494323D01*
X24578Y494393D01*
X24553Y494415D01*
X24493Y494478D01*
X24441Y494523D01*
X24439Y494528D01*
X24345Y494666D01*
X22779Y496500D01*
X22754Y496521D01*
X22736Y496547D01*
X22664Y496597D01*
X22616Y496676D01*
X22594Y496701D01*
X22546Y496773D01*
X22501Y496826D01*
X22500Y496830D01*
X22428Y496982D01*
X21168Y499038D01*
X21147Y499063D01*
X21133Y499091D01*
X21071Y499152D01*
X21035Y499238D01*
X21018Y499266D01*
X20981Y499344D01*
X20945Y499404D01*
X20944Y499408D01*
X20898Y499569D01*
X19975Y501798D01*
X19958Y501825D01*
X19948Y501855D01*
X19896Y501925D01*
X19875Y502015D01*
X19862Y502046D01*
X19838Y502129D01*
X19811Y502193D01*
X19812Y502198D01*
X19791Y502364D01*
X19228Y504709D01*
X19215Y504739D01*
X19210Y504770D01*
X19170Y504848D01*
X19163Y504940D01*
X19155Y504972D01*
X19144Y505058D01*
X19128Y505126D01*
X19129Y505130D01*
X19135Y505298D01*
X18945Y507702D01*
X18938Y507733D01*
X18938Y507765D01*
X18910Y507848D01*
X18917Y507940D01*
X18914Y507973D01*
X18917Y508060D01*
X18912Y508129D01*
X18914Y508133D01*
X18945Y508298D01*
X19135Y510702D01*
X19132Y510734D01*
X19137Y510766D01*
X19122Y510852D01*
X19144Y510942D01*
X19146Y510975D01*
X19163Y511060D01*
X19168Y511129D01*
X19171Y511133D01*
X19228Y511291D01*
X19791Y513636D01*
X19793Y513668D01*
X19803Y513698D01*
X19802Y513785D01*
X19838Y513871D01*
X19845Y513903D01*
X19875Y513985D01*
X19891Y514052D01*
X19894Y514056D01*
X19902Y514070D01*
X19904Y514072D01*
X19907Y514079D01*
X19975Y514202D01*
X20898Y516431D01*
X20905Y516462D01*
X20919Y516490D01*
X20932Y516576D01*
X20981Y516656D01*
X20993Y516686D01*
X21035Y516762D01*
X21062Y516826D01*
X21065Y516829D01*
X21168Y516962D01*
X22428Y519018D01*
X22440Y519047D01*
X22459Y519073D01*
X22485Y519157D01*
X22546Y519227D01*
X22563Y519255D01*
X22616Y519324D01*
X22652Y519383D01*
X22656Y519385D01*
X22779Y519500D01*
X24345Y521334D01*
X24361Y521361D01*
X24384Y521383D01*
X24423Y521462D01*
X24493Y521522D01*
X24515Y521547D01*
X24578Y521607D01*
X24623Y521659D01*
X24628Y521661D01*
X24766Y521755D01*
X26600Y523321D01*
X26621Y523346D01*
X26646Y523364D01*
X26697Y523436D01*
X26776Y523484D01*
X26801Y523506D01*
X26873Y523554D01*
X26926Y523599D01*
X26930Y523600D01*
X27082Y523672D01*
X29138Y524932D01*
X29163Y524953D01*
X29191Y524967D01*
X29252Y525029D01*
X29338Y525065D01*
X29366Y525082D01*
X29444Y525119D01*
X29504Y525155D01*
X29508Y525156D01*
X29650Y525197D01*
X29652Y525197D01*
X29653Y525197D01*
X29669Y525202D01*
X31898Y526125D01*
X31925Y526142D01*
X31955Y526152D01*
X32025Y526204D01*
X32115Y526225D01*
X32146Y526238D01*
X32229Y526262D01*
X32293Y526289D01*
X32298Y526288D01*
X32464Y526309D01*
X34809Y526872D01*
X34839Y526885D01*
X34870Y526890D01*
X34948Y526930D01*
X35040Y526937D01*
X35072Y526945D01*
X35158Y526956D01*
X35226Y526972D01*
X35230Y526971D01*
X35398Y526965D01*
X37763Y527152D01*
X37823Y527166D01*
X37885Y527171D01*
X37900Y527178D01*
X38065Y527178D01*
X38087Y527181D01*
X38125Y527180D01*
X38290Y527193D01*
X38352Y527186D01*
X38384Y527179D01*
X38401Y527181D01*
X38428Y527178D01*
X113972Y527178D01*
X114033Y527188D01*
X114094Y527188D01*
X114111Y527193D01*
X114275Y527180D01*
X114297Y527182D01*
X114335Y527178D01*
X114500Y527178D01*
X114562Y527166D01*
X114593Y527156D01*
X114610Y527157D01*
X114637Y527152D01*
X117002Y526965D01*
X117034Y526968D01*
X117066Y526963D01*
X117152Y526978D01*
X117242Y526956D01*
X117275Y526954D01*
X117360Y526937D01*
X117429Y526932D01*
X117433Y526929D01*
X117591Y526872D01*
X119936Y526309D01*
X119968Y526307D01*
X119998Y526297D01*
X120085Y526298D01*
X120171Y526262D01*
X120203Y526255D01*
X120285Y526225D01*
X120352Y526209D01*
X120356Y526206D01*
X120502Y526125D01*
X122731Y525202D01*
X122762Y525195D01*
X122790Y525181D01*
X122876Y525168D01*
X122956Y525119D01*
X122986Y525107D01*
X123062Y525065D01*
X123126Y525038D01*
X123129Y525035D01*
X123262Y524932D01*
X125318Y523672D01*
X125347Y523660D01*
X125373Y523641D01*
X125457Y523615D01*
X125527Y523554D01*
X125555Y523537D01*
X125624Y523484D01*
X125683Y523448D01*
X125685Y523444D01*
X125800Y523321D01*
X127634Y521755D01*
X127661Y521739D01*
X127683Y521716D01*
X127762Y521677D01*
X127822Y521607D01*
X127847Y521585D01*
X127907Y521522D01*
X127959Y521477D01*
X127961Y521472D01*
X128055Y521334D01*
X129621Y519500D01*
X129646Y519479D01*
X129664Y519454D01*
X129736Y519403D01*
X129784Y519324D01*
X129806Y519299D01*
X129854Y519227D01*
X129899Y519174D01*
X129900Y519170D01*
X129972Y519018D01*
X131232Y516962D01*
X131253Y516937D01*
X131267Y516909D01*
X131329Y516848D01*
X131365Y516762D01*
X131382Y516734D01*
X131419Y516656D01*
X131455Y516596D01*
X131456Y516592D01*
X131502Y516431D01*
X132425Y514202D01*
X132442Y514175D01*
X132452Y514145D01*
X132504Y514075D01*
X132525Y513985D01*
X132538Y513954D01*
X132562Y513871D01*
X132589Y513807D01*
X132588Y513802D01*
X132609Y513636D01*
X133172Y511291D01*
X133185Y511261D01*
X133190Y511230D01*
X133230Y511152D01*
X133237Y511060D01*
X133245Y511028D01*
X133256Y510942D01*
X133272Y510874D01*
X133271Y510870D01*
X133265Y510702D01*
X133455Y508298D01*
X133462Y508267D01*
X133462Y508235D01*
X133490Y508152D01*
X133483Y508060D01*
X133486Y508027D01*
X133483Y507940D01*
X133488Y507871D01*
X133486Y507867D01*
X133455Y507702D01*
X133265Y505298D01*
X133268Y505266D01*
X133263Y505234D01*
X133278Y505148D01*
X133256Y505058D01*
X133254Y505025D01*
X133237Y504940D01*
X133232Y504871D01*
X133229Y504867D01*
X133172Y504709D01*
X132609Y502364D01*
X132607Y502332D01*
X132597Y502302D01*
X132598Y502215D01*
X132562Y502129D01*
X132555Y502097D01*
X132525Y502015D01*
X132509Y501948D01*
X132506Y501944D01*
X132425Y501798D01*
X131502Y499569D01*
X131495Y499538D01*
X131481Y499510D01*
X131477Y499488D01*
X131473Y499480D01*
X131467Y499422D01*
X131419Y499344D01*
X131407Y499314D01*
X131365Y499238D01*
X131338Y499174D01*
X131335Y499171D01*
X131232Y499038D01*
X129972Y496982D01*
X129960Y496953D01*
X129941Y496927D01*
X129915Y496843D01*
X129854Y496773D01*
X129837Y496745D01*
X129784Y496676D01*
X129748Y496617D01*
X129744Y496615D01*
X129621Y496500D01*
X128055Y494666D01*
X128039Y494639D01*
X128016Y494617D01*
X127977Y494538D01*
X127907Y494478D01*
X127885Y494453D01*
X127822Y494393D01*
X127777Y494341D01*
X127772Y494339D01*
X127634Y494245D01*
X125800Y492679D01*
X125779Y492654D01*
X125754Y492636D01*
X125703Y492564D01*
X125624Y492516D01*
X125599Y492494D01*
X125527Y492446D01*
X125474Y492401D01*
X125470Y492400D01*
X125318Y492328D01*
X123262Y491068D01*
X123237Y491047D01*
X123209Y491033D01*
X123148Y490971D01*
X123062Y490935D01*
X123034Y490918D01*
X122956Y490881D01*
X122896Y490845D01*
X122892Y490844D01*
X122731Y490798D01*
X120502Y489875D01*
X120475Y489858D01*
X120445Y489848D01*
X120375Y489796D01*
X120285Y489775D01*
X120254Y489762D01*
X120171Y489738D01*
X120107Y489711D01*
X120102Y489712D01*
X119936Y489691D01*
X117591Y489128D01*
X117561Y489115D01*
X117530Y489110D01*
X117452Y489070D01*
X117360Y489063D01*
X117328Y489055D01*
X117242Y489044D01*
X117174Y489028D01*
X117170Y489029D01*
X117002Y489035D01*
X114637Y488848D01*
X114577Y488834D01*
X114515Y488829D01*
X114500Y488822D01*
X114335Y488822D01*
X114313Y488819D01*
X114275Y488820D01*
X114110Y488807D01*
X114048Y488814D01*
G37*
%LPD*%
%LPC*%
G36*
X114048Y311014D02*
X114048Y311014D01*
X114016Y311021D01*
X113999Y311019D01*
X113972Y311022D01*
X38428Y311022D01*
X38367Y311012D01*
X38306Y311012D01*
X38289Y311007D01*
X38125Y311020D01*
X38103Y311018D01*
X38065Y311022D01*
X37900Y311022D01*
X37838Y311034D01*
X37807Y311044D01*
X37790Y311043D01*
X37763Y311048D01*
X35398Y311235D01*
X35366Y311232D01*
X35334Y311237D01*
X35248Y311222D01*
X35158Y311244D01*
X35125Y311246D01*
X35040Y311263D01*
X34971Y311268D01*
X34967Y311271D01*
X34809Y311328D01*
X32464Y311891D01*
X32432Y311893D01*
X32402Y311903D01*
X32315Y311902D01*
X32229Y311938D01*
X32197Y311945D01*
X32115Y311975D01*
X32048Y311991D01*
X32044Y311994D01*
X31898Y312075D01*
X29669Y312998D01*
X29638Y313005D01*
X29610Y313019D01*
X29524Y313032D01*
X29444Y313081D01*
X29414Y313093D01*
X29338Y313135D01*
X29274Y313162D01*
X29271Y313165D01*
X29138Y313268D01*
X27082Y314528D01*
X27053Y314540D01*
X27027Y314559D01*
X26943Y314585D01*
X26873Y314646D01*
X26845Y314663D01*
X26776Y314716D01*
X26717Y314752D01*
X26715Y314756D01*
X26600Y314879D01*
X24766Y316445D01*
X24739Y316461D01*
X24717Y316484D01*
X24638Y316523D01*
X24578Y316593D01*
X24553Y316615D01*
X24493Y316678D01*
X24441Y316723D01*
X24439Y316728D01*
X24345Y316866D01*
X22779Y318700D01*
X22754Y318721D01*
X22736Y318747D01*
X22664Y318797D01*
X22616Y318876D01*
X22594Y318901D01*
X22546Y318973D01*
X22501Y319026D01*
X22500Y319030D01*
X22428Y319182D01*
X21168Y321238D01*
X21147Y321263D01*
X21133Y321291D01*
X21071Y321352D01*
X21035Y321438D01*
X21018Y321466D01*
X20981Y321544D01*
X20945Y321604D01*
X20944Y321608D01*
X20898Y321769D01*
X19975Y323998D01*
X19958Y324025D01*
X19948Y324055D01*
X19896Y324125D01*
X19875Y324215D01*
X19862Y324246D01*
X19838Y324329D01*
X19811Y324393D01*
X19812Y324398D01*
X19791Y324564D01*
X19228Y326909D01*
X19215Y326939D01*
X19210Y326970D01*
X19170Y327048D01*
X19163Y327140D01*
X19155Y327172D01*
X19144Y327258D01*
X19128Y327326D01*
X19129Y327330D01*
X19135Y327498D01*
X18945Y329902D01*
X18938Y329933D01*
X18938Y329965D01*
X18910Y330048D01*
X18917Y330140D01*
X18914Y330173D01*
X18917Y330260D01*
X18912Y330329D01*
X18914Y330333D01*
X18945Y330498D01*
X19135Y332902D01*
X19132Y332934D01*
X19137Y332966D01*
X19122Y333052D01*
X19144Y333142D01*
X19146Y333175D01*
X19163Y333260D01*
X19168Y333329D01*
X19171Y333333D01*
X19228Y333491D01*
X19791Y335836D01*
X19793Y335868D01*
X19803Y335898D01*
X19802Y335985D01*
X19838Y336071D01*
X19845Y336103D01*
X19859Y336141D01*
X19869Y336162D01*
X19870Y336171D01*
X19875Y336185D01*
X19891Y336252D01*
X19894Y336256D01*
X19975Y336402D01*
X20898Y338631D01*
X20905Y338662D01*
X20919Y338690D01*
X20932Y338776D01*
X20981Y338856D01*
X20993Y338886D01*
X21035Y338962D01*
X21062Y339026D01*
X21065Y339029D01*
X21168Y339162D01*
X22428Y341218D01*
X22440Y341247D01*
X22459Y341273D01*
X22485Y341357D01*
X22546Y341427D01*
X22563Y341455D01*
X22616Y341524D01*
X22652Y341583D01*
X22656Y341585D01*
X22779Y341700D01*
X24345Y343534D01*
X24361Y343561D01*
X24384Y343583D01*
X24423Y343662D01*
X24493Y343722D01*
X24515Y343747D01*
X24578Y343807D01*
X24623Y343859D01*
X24628Y343861D01*
X24766Y343955D01*
X26600Y345521D01*
X26621Y345546D01*
X26646Y345564D01*
X26697Y345636D01*
X26776Y345684D01*
X26801Y345706D01*
X26873Y345754D01*
X26926Y345799D01*
X26930Y345800D01*
X27082Y345872D01*
X29138Y347132D01*
X29163Y347153D01*
X29191Y347167D01*
X29252Y347229D01*
X29338Y347265D01*
X29366Y347282D01*
X29444Y347319D01*
X29504Y347355D01*
X29508Y347356D01*
X29669Y347402D01*
X31898Y348325D01*
X31925Y348342D01*
X31955Y348352D01*
X32025Y348404D01*
X32115Y348425D01*
X32146Y348438D01*
X32229Y348462D01*
X32293Y348489D01*
X32298Y348488D01*
X32464Y348509D01*
X34809Y349072D01*
X34839Y349085D01*
X34870Y349090D01*
X34948Y349130D01*
X35040Y349137D01*
X35072Y349145D01*
X35158Y349156D01*
X35226Y349172D01*
X35230Y349171D01*
X35398Y349165D01*
X37763Y349352D01*
X37823Y349366D01*
X37885Y349371D01*
X37900Y349378D01*
X38065Y349378D01*
X38087Y349381D01*
X38125Y349380D01*
X38290Y349393D01*
X38352Y349386D01*
X38384Y349379D01*
X38401Y349381D01*
X38428Y349378D01*
X113972Y349378D01*
X114033Y349388D01*
X114094Y349388D01*
X114111Y349393D01*
X114275Y349380D01*
X114297Y349382D01*
X114335Y349378D01*
X114500Y349378D01*
X114562Y349366D01*
X114593Y349356D01*
X114610Y349357D01*
X114637Y349352D01*
X117002Y349165D01*
X117034Y349168D01*
X117066Y349163D01*
X117152Y349178D01*
X117242Y349156D01*
X117275Y349154D01*
X117360Y349137D01*
X117429Y349132D01*
X117433Y349129D01*
X117591Y349072D01*
X119936Y348509D01*
X119968Y348507D01*
X119998Y348497D01*
X120085Y348498D01*
X120171Y348462D01*
X120203Y348455D01*
X120285Y348425D01*
X120352Y348409D01*
X120356Y348406D01*
X120502Y348325D01*
X122731Y347402D01*
X122762Y347395D01*
X122790Y347381D01*
X122876Y347368D01*
X122956Y347319D01*
X122986Y347307D01*
X123062Y347265D01*
X123126Y347238D01*
X123129Y347235D01*
X123262Y347132D01*
X125318Y345872D01*
X125347Y345860D01*
X125373Y345841D01*
X125457Y345815D01*
X125527Y345754D01*
X125555Y345737D01*
X125624Y345684D01*
X125683Y345648D01*
X125685Y345644D01*
X125800Y345521D01*
X127634Y343955D01*
X127661Y343939D01*
X127683Y343916D01*
X127762Y343877D01*
X127822Y343807D01*
X127847Y343785D01*
X127907Y343722D01*
X127959Y343677D01*
X127961Y343672D01*
X128055Y343534D01*
X129621Y341700D01*
X129646Y341679D01*
X129664Y341654D01*
X129736Y341603D01*
X129784Y341524D01*
X129806Y341499D01*
X129854Y341427D01*
X129899Y341374D01*
X129900Y341370D01*
X129972Y341218D01*
X131232Y339162D01*
X131253Y339137D01*
X131267Y339109D01*
X131329Y339048D01*
X131365Y338962D01*
X131382Y338934D01*
X131419Y338856D01*
X131455Y338796D01*
X131456Y338792D01*
X131502Y338631D01*
X132425Y336402D01*
X132442Y336375D01*
X132452Y336345D01*
X132504Y336275D01*
X132525Y336185D01*
X132538Y336154D01*
X132553Y336102D01*
X132557Y336087D01*
X132559Y336084D01*
X132562Y336071D01*
X132589Y336007D01*
X132588Y336002D01*
X132609Y335836D01*
X133172Y333491D01*
X133185Y333461D01*
X133190Y333430D01*
X133230Y333352D01*
X133237Y333260D01*
X133245Y333228D01*
X133256Y333142D01*
X133272Y333074D01*
X133271Y333070D01*
X133265Y332902D01*
X133455Y330498D01*
X133462Y330467D01*
X133462Y330435D01*
X133490Y330352D01*
X133483Y330260D01*
X133486Y330227D01*
X133483Y330140D01*
X133488Y330071D01*
X133486Y330067D01*
X133455Y329902D01*
X133265Y327498D01*
X133268Y327466D01*
X133263Y327435D01*
X133278Y327348D01*
X133256Y327258D01*
X133254Y327225D01*
X133237Y327140D01*
X133232Y327071D01*
X133229Y327067D01*
X133172Y326909D01*
X132609Y324564D01*
X132607Y324533D01*
X132597Y324502D01*
X132598Y324415D01*
X132562Y324329D01*
X132555Y324297D01*
X132525Y324215D01*
X132509Y324148D01*
X132506Y324144D01*
X132425Y323998D01*
X131502Y321769D01*
X131495Y321738D01*
X131481Y321710D01*
X131468Y321624D01*
X131419Y321545D01*
X131407Y321514D01*
X131365Y321438D01*
X131338Y321374D01*
X131335Y321371D01*
X131232Y321238D01*
X129972Y319182D01*
X129960Y319153D01*
X129941Y319127D01*
X129915Y319043D01*
X129854Y318973D01*
X129837Y318945D01*
X129784Y318876D01*
X129748Y318817D01*
X129744Y318815D01*
X129621Y318700D01*
X128055Y316866D01*
X128039Y316839D01*
X128016Y316817D01*
X127977Y316738D01*
X127907Y316678D01*
X127885Y316653D01*
X127822Y316593D01*
X127777Y316541D01*
X127772Y316539D01*
X127634Y316445D01*
X125800Y314879D01*
X125779Y314854D01*
X125753Y314836D01*
X125703Y314764D01*
X125624Y314716D01*
X125599Y314694D01*
X125527Y314646D01*
X125474Y314601D01*
X125470Y314600D01*
X125318Y314528D01*
X123262Y313268D01*
X123237Y313248D01*
X123209Y313233D01*
X123148Y313171D01*
X123062Y313135D01*
X123034Y313118D01*
X122956Y313081D01*
X122896Y313045D01*
X122892Y313045D01*
X122731Y312998D01*
X120502Y312075D01*
X120475Y312058D01*
X120445Y312048D01*
X120375Y311996D01*
X120285Y311975D01*
X120254Y311962D01*
X120171Y311938D01*
X120107Y311911D01*
X120102Y311912D01*
X119936Y311891D01*
X117591Y311328D01*
X117561Y311315D01*
X117530Y311310D01*
X117452Y311270D01*
X117360Y311263D01*
X117328Y311255D01*
X117242Y311244D01*
X117174Y311228D01*
X117170Y311229D01*
X117002Y311235D01*
X114637Y311048D01*
X114577Y311034D01*
X114515Y311029D01*
X114500Y311022D01*
X114335Y311022D01*
X114313Y311019D01*
X114275Y311020D01*
X114110Y311007D01*
X114048Y311014D01*
G37*
%LPD*%
G36*
X291373Y41033D02*
X291373Y41033D01*
X291445Y41035D01*
X291494Y41053D01*
X291545Y41061D01*
X291609Y41095D01*
X291676Y41120D01*
X291717Y41152D01*
X291763Y41177D01*
X291812Y41229D01*
X291868Y41273D01*
X291896Y41317D01*
X291932Y41355D01*
X291962Y41420D01*
X292001Y41480D01*
X292014Y41531D01*
X292036Y41578D01*
X292044Y41649D01*
X292061Y41719D01*
X292057Y41771D01*
X292063Y41822D01*
X292048Y41893D01*
X292042Y41964D01*
X292022Y42012D01*
X292011Y42063D01*
X291974Y42124D01*
X291946Y42190D01*
X291901Y42246D01*
X291884Y42274D01*
X291867Y42289D01*
X291841Y42321D01*
X287781Y46381D01*
X287781Y55219D01*
X294031Y61469D01*
X302869Y61469D01*
X309119Y55219D01*
X309119Y46381D01*
X305059Y42321D01*
X305017Y42263D01*
X304968Y42211D01*
X304946Y42164D01*
X304916Y42122D01*
X304894Y42053D01*
X304864Y41988D01*
X304859Y41936D01*
X304843Y41886D01*
X304845Y41815D01*
X304837Y41744D01*
X304848Y41693D01*
X304850Y41641D01*
X304874Y41573D01*
X304889Y41503D01*
X304916Y41458D01*
X304934Y41410D01*
X304979Y41354D01*
X305016Y41292D01*
X305055Y41258D01*
X305088Y41218D01*
X305148Y41179D01*
X305203Y41132D01*
X305251Y41113D01*
X305295Y41085D01*
X305364Y41067D01*
X305431Y41040D01*
X305502Y41032D01*
X305533Y41024D01*
X305556Y41026D01*
X305597Y41022D01*
X316703Y41022D01*
X316773Y41033D01*
X316845Y41035D01*
X316894Y41053D01*
X316945Y41061D01*
X317009Y41095D01*
X317076Y41120D01*
X317117Y41152D01*
X317163Y41177D01*
X317212Y41229D01*
X317268Y41273D01*
X317296Y41317D01*
X317332Y41355D01*
X317362Y41420D01*
X317401Y41480D01*
X317414Y41531D01*
X317436Y41578D01*
X317444Y41649D01*
X317461Y41719D01*
X317457Y41771D01*
X317463Y41822D01*
X317448Y41893D01*
X317442Y41964D01*
X317422Y42012D01*
X317411Y42063D01*
X317374Y42124D01*
X317346Y42190D01*
X317301Y42246D01*
X317284Y42274D01*
X317267Y42289D01*
X317241Y42321D01*
X313181Y46381D01*
X313181Y55219D01*
X317530Y59568D01*
X317583Y59642D01*
X317643Y59712D01*
X317655Y59742D01*
X317674Y59768D01*
X317701Y59855D01*
X317735Y59940D01*
X317739Y59981D01*
X317746Y60003D01*
X317745Y60035D01*
X317753Y60106D01*
X317753Y88900D01*
X317750Y88922D01*
X317751Y88960D01*
X317601Y90867D01*
X317599Y90873D01*
X317600Y90878D01*
X317566Y91042D01*
X316387Y94670D01*
X316371Y94702D01*
X316362Y94737D01*
X316279Y94883D01*
X314037Y97969D01*
X314011Y97994D01*
X313993Y98024D01*
X313869Y98137D01*
X310783Y100379D01*
X310751Y100395D01*
X310723Y100418D01*
X310570Y100487D01*
X306943Y101666D01*
X306937Y101667D01*
X306932Y101669D01*
X306767Y101701D01*
X304860Y101851D01*
X304838Y101849D01*
X304800Y101853D01*
X275417Y101853D01*
X267841Y104315D01*
X261397Y108997D01*
X256715Y115441D01*
X255232Y120005D01*
X255230Y120009D01*
X255229Y120013D01*
X255174Y120117D01*
X255119Y120224D01*
X255116Y120226D01*
X255114Y120230D01*
X255028Y120312D01*
X254943Y120395D01*
X254939Y120397D01*
X254936Y120399D01*
X254828Y120450D01*
X254721Y120501D01*
X254717Y120501D01*
X254713Y120503D01*
X254595Y120516D01*
X254476Y120530D01*
X254472Y120530D01*
X254469Y120530D01*
X254351Y120505D01*
X254236Y120481D01*
X254232Y120479D01*
X254228Y120478D01*
X254126Y120416D01*
X254023Y120357D01*
X254020Y120354D01*
X254017Y120352D01*
X253939Y120260D01*
X253861Y120171D01*
X253860Y120168D01*
X253857Y120165D01*
X253812Y120052D01*
X253767Y119944D01*
X253767Y119940D01*
X253765Y119937D01*
X253747Y119770D01*
X253747Y57150D01*
X253750Y57128D01*
X253749Y57090D01*
X253938Y54686D01*
X253940Y54681D01*
X253939Y54675D01*
X253973Y54511D01*
X255459Y49938D01*
X255475Y49906D01*
X255484Y49872D01*
X255567Y49726D01*
X258393Y45836D01*
X258418Y45811D01*
X258437Y45781D01*
X258561Y45668D01*
X262451Y42842D01*
X262483Y42826D01*
X262510Y42803D01*
X262663Y42734D01*
X267236Y41248D01*
X267241Y41247D01*
X267247Y41245D01*
X267411Y41213D01*
X269815Y41024D01*
X269837Y41026D01*
X269875Y41022D01*
X291303Y41022D01*
X291373Y41033D01*
G37*
%LPC*%
G36*
X334866Y446785D02*
X334866Y446785D01*
X332485Y449166D01*
X332485Y465234D01*
X334866Y467615D01*
X363634Y467615D01*
X366015Y465234D01*
X366015Y464058D01*
X366018Y464038D01*
X366016Y464019D01*
X366038Y463917D01*
X366054Y463815D01*
X366064Y463798D01*
X366068Y463778D01*
X366121Y463689D01*
X366170Y463598D01*
X366184Y463584D01*
X366194Y463567D01*
X366273Y463500D01*
X366348Y463428D01*
X366366Y463420D01*
X366381Y463407D01*
X366477Y463368D01*
X366571Y463325D01*
X366591Y463323D01*
X366609Y463315D01*
X366776Y463297D01*
X400050Y463297D01*
X400076Y463301D01*
X400125Y463300D01*
X401264Y463413D01*
X401292Y463420D01*
X401320Y463420D01*
X401481Y463467D01*
X403587Y464339D01*
X403643Y464374D01*
X403703Y464399D01*
X403768Y464451D01*
X403796Y464469D01*
X403808Y464484D01*
X403834Y464504D01*
X405446Y466116D01*
X405484Y466169D01*
X405530Y466216D01*
X405570Y466289D01*
X405589Y466316D01*
X405595Y466334D01*
X405611Y466363D01*
X406483Y468469D01*
X406490Y468497D01*
X406503Y468522D01*
X406537Y468686D01*
X406650Y469825D01*
X406648Y469852D01*
X406653Y469900D01*
X406653Y477774D01*
X406650Y477794D01*
X406652Y477813D01*
X406630Y477915D01*
X406614Y478017D01*
X406604Y478034D01*
X406600Y478054D01*
X406547Y478143D01*
X406498Y478234D01*
X406484Y478248D01*
X406474Y478265D01*
X406395Y478332D01*
X406320Y478404D01*
X406302Y478412D01*
X406287Y478425D01*
X406191Y478464D01*
X406097Y478507D01*
X406077Y478509D01*
X406059Y478517D01*
X405892Y478535D01*
X398366Y478535D01*
X395985Y480916D01*
X395985Y496984D01*
X398366Y499365D01*
X427134Y499365D01*
X429515Y496984D01*
X429515Y480916D01*
X427134Y478535D01*
X419608Y478535D01*
X419588Y478532D01*
X419569Y478534D01*
X419467Y478512D01*
X419365Y478496D01*
X419348Y478486D01*
X419328Y478482D01*
X419239Y478429D01*
X419148Y478380D01*
X419134Y478366D01*
X419117Y478356D01*
X419050Y478277D01*
X418978Y478202D01*
X418970Y478184D01*
X418957Y478169D01*
X418918Y478073D01*
X418875Y477979D01*
X418873Y477959D01*
X418865Y477941D01*
X418847Y477774D01*
X418847Y466161D01*
X415985Y459252D01*
X410698Y453965D01*
X403789Y451103D01*
X366776Y451103D01*
X366756Y451100D01*
X366737Y451102D01*
X366635Y451080D01*
X366533Y451064D01*
X366516Y451054D01*
X366496Y451050D01*
X366407Y450997D01*
X366316Y450948D01*
X366302Y450934D01*
X366285Y450924D01*
X366218Y450845D01*
X366146Y450770D01*
X366138Y450752D01*
X366125Y450737D01*
X366086Y450641D01*
X366043Y450547D01*
X366041Y450527D01*
X366033Y450509D01*
X366015Y450342D01*
X366015Y449166D01*
X363634Y446785D01*
X334866Y446785D01*
G37*
%LPD*%
%LPC*%
G36*
X522351Y599345D02*
X522351Y599345D01*
X519970Y601726D01*
X519970Y625094D01*
X522351Y627475D01*
X545719Y627475D01*
X546197Y626997D01*
X546213Y626985D01*
X546225Y626969D01*
X546312Y626914D01*
X546396Y626853D01*
X546415Y626847D01*
X546432Y626836D01*
X546533Y626811D01*
X546632Y626781D01*
X546651Y626781D01*
X546671Y626776D01*
X546774Y626784D01*
X546877Y626787D01*
X546896Y626794D01*
X546916Y626796D01*
X547011Y626836D01*
X547108Y626872D01*
X547124Y626884D01*
X547142Y626892D01*
X547273Y626997D01*
X547751Y627475D01*
X571119Y627475D01*
X573500Y625094D01*
X573500Y601726D01*
X571119Y599345D01*
X547751Y599345D01*
X547273Y599823D01*
X547257Y599835D01*
X547245Y599851D01*
X547157Y599907D01*
X547074Y599967D01*
X547055Y599973D01*
X547038Y599984D01*
X546937Y600009D01*
X546838Y600039D01*
X546819Y600039D01*
X546799Y600044D01*
X546696Y600036D01*
X546593Y600033D01*
X546574Y600026D01*
X546554Y600024D01*
X546459Y599984D01*
X546362Y599948D01*
X546346Y599936D01*
X546328Y599928D01*
X546197Y599823D01*
X545719Y599345D01*
X522351Y599345D01*
G37*
%LPD*%
%LPC*%
G36*
X74396Y640315D02*
X74396Y640315D01*
X72015Y642696D01*
X72015Y661304D01*
X74396Y663685D01*
X93004Y663685D01*
X95385Y661304D01*
X95385Y642696D01*
X93004Y640315D01*
X74396Y640315D01*
G37*
%LPD*%
%LPC*%
G36*
X553802Y470534D02*
X553802Y470534D01*
X546734Y477602D01*
X546734Y487598D01*
X553802Y494666D01*
X563798Y494666D01*
X570866Y487598D01*
X570866Y477602D01*
X563798Y470534D01*
X553802Y470534D01*
G37*
%LPD*%
%LPC*%
G36*
X652227Y470534D02*
X652227Y470534D01*
X645159Y477602D01*
X645159Y487598D01*
X652227Y494666D01*
X662223Y494666D01*
X669291Y487598D01*
X669291Y477602D01*
X662223Y470534D01*
X652227Y470534D01*
G37*
%LPD*%
%LPC*%
G36*
X553802Y559434D02*
X553802Y559434D01*
X546734Y566502D01*
X546734Y576498D01*
X553802Y583566D01*
X563798Y583566D01*
X570866Y576498D01*
X570866Y566502D01*
X563798Y559434D01*
X553802Y559434D01*
G37*
%LPD*%
%LPC*%
G36*
X652227Y559434D02*
X652227Y559434D01*
X645159Y566502D01*
X645159Y576498D01*
X652227Y583566D01*
X662223Y583566D01*
X669291Y576498D01*
X669291Y566502D01*
X662223Y559434D01*
X652227Y559434D01*
G37*
%LPD*%
%LPC*%
G36*
X451926Y23820D02*
X451926Y23820D01*
X449545Y26201D01*
X449545Y43649D01*
X451926Y46030D01*
X469374Y46030D01*
X471755Y43649D01*
X471755Y26201D01*
X469374Y23820D01*
X451926Y23820D01*
G37*
%LPD*%
%LPC*%
G36*
X197926Y23820D02*
X197926Y23820D01*
X195545Y26201D01*
X195545Y43649D01*
X197926Y46030D01*
X215374Y46030D01*
X217755Y43649D01*
X217755Y26201D01*
X215374Y23820D01*
X197926Y23820D01*
G37*
%LPD*%
%LPC*%
G36*
X513042Y665733D02*
X513042Y665733D01*
X508747Y667512D01*
X505460Y670799D01*
X503681Y675094D01*
X503681Y679742D01*
X505460Y684037D01*
X508747Y687324D01*
X513042Y689103D01*
X517690Y689103D01*
X521985Y687324D01*
X525272Y684037D01*
X527051Y679742D01*
X527051Y675094D01*
X525272Y670799D01*
X521985Y667512D01*
X517690Y665733D01*
X513042Y665733D01*
G37*
%LPD*%
%LPC*%
G36*
X563842Y665733D02*
X563842Y665733D01*
X559547Y667512D01*
X556260Y670799D01*
X554481Y675094D01*
X554481Y679742D01*
X556260Y684037D01*
X559547Y687324D01*
X563842Y689103D01*
X568490Y689103D01*
X572785Y687324D01*
X576072Y684037D01*
X577851Y679742D01*
X577851Y675094D01*
X576072Y670799D01*
X572785Y667512D01*
X568490Y665733D01*
X563842Y665733D01*
G37*
%LPD*%
%LPC*%
G36*
X81242Y665733D02*
X81242Y665733D01*
X76947Y667512D01*
X73660Y670799D01*
X71881Y675094D01*
X71881Y679742D01*
X73660Y684037D01*
X76947Y687324D01*
X81242Y689103D01*
X85890Y689103D01*
X90185Y687324D01*
X93472Y684037D01*
X95251Y679742D01*
X95251Y675094D01*
X93472Y670799D01*
X90185Y667512D01*
X85890Y665733D01*
X81242Y665733D01*
G37*
%LPD*%
%LPC*%
G36*
X132042Y665733D02*
X132042Y665733D01*
X127747Y667512D01*
X124460Y670799D01*
X122681Y675094D01*
X122681Y679742D01*
X124460Y684037D01*
X127747Y687324D01*
X132042Y689103D01*
X136690Y689103D01*
X140985Y687324D01*
X144272Y684037D01*
X146051Y679742D01*
X146051Y675094D01*
X144272Y670799D01*
X140985Y667512D01*
X136690Y665733D01*
X132042Y665733D01*
G37*
%LPD*%
%LPC*%
G36*
X462242Y640333D02*
X462242Y640333D01*
X457947Y642112D01*
X454660Y645399D01*
X452881Y649694D01*
X452881Y654342D01*
X454660Y658637D01*
X457947Y661924D01*
X462242Y663703D01*
X466890Y663703D01*
X471185Y661924D01*
X474472Y658637D01*
X476251Y654342D01*
X476251Y649694D01*
X474472Y645399D01*
X471185Y642112D01*
X466890Y640333D01*
X462242Y640333D01*
G37*
%LPD*%
%LPC*%
G36*
X436842Y640333D02*
X436842Y640333D01*
X432547Y642112D01*
X429260Y645399D01*
X427481Y649694D01*
X427481Y654342D01*
X429260Y658637D01*
X432547Y661924D01*
X436842Y663703D01*
X441490Y663703D01*
X445785Y661924D01*
X449072Y658637D01*
X450851Y654342D01*
X450851Y649694D01*
X449072Y645399D01*
X445785Y642112D01*
X441490Y640333D01*
X436842Y640333D01*
G37*
%LPD*%
%LPC*%
G36*
X411442Y640333D02*
X411442Y640333D01*
X407147Y642112D01*
X403860Y645399D01*
X402081Y649694D01*
X402081Y654342D01*
X403860Y658637D01*
X407147Y661924D01*
X411442Y663703D01*
X416090Y663703D01*
X420385Y661924D01*
X423672Y658637D01*
X425451Y654342D01*
X425451Y649694D01*
X423672Y645399D01*
X420385Y642112D01*
X416090Y640333D01*
X411442Y640333D01*
G37*
%LPD*%
%LPC*%
G36*
X360642Y640333D02*
X360642Y640333D01*
X356347Y642112D01*
X353060Y645399D01*
X351281Y649694D01*
X351281Y654342D01*
X353060Y658637D01*
X356347Y661924D01*
X360642Y663703D01*
X365290Y663703D01*
X369585Y661924D01*
X372872Y658637D01*
X374651Y654342D01*
X374651Y649694D01*
X372872Y645399D01*
X369585Y642112D01*
X365290Y640333D01*
X360642Y640333D01*
G37*
%LPD*%
%LPC*%
G36*
X309842Y640333D02*
X309842Y640333D01*
X305547Y642112D01*
X302260Y645399D01*
X300481Y649694D01*
X300481Y654342D01*
X302260Y658637D01*
X305547Y661924D01*
X309842Y663703D01*
X314490Y663703D01*
X318785Y661924D01*
X322072Y658637D01*
X323851Y654342D01*
X323851Y649694D01*
X322072Y645399D01*
X318785Y642112D01*
X314490Y640333D01*
X309842Y640333D01*
G37*
%LPD*%
%LPC*%
G36*
X208242Y640333D02*
X208242Y640333D01*
X203947Y642112D01*
X200660Y645399D01*
X198881Y649694D01*
X198881Y654342D01*
X200660Y658637D01*
X203947Y661924D01*
X208242Y663703D01*
X212890Y663703D01*
X217185Y661924D01*
X220472Y658637D01*
X222251Y654342D01*
X222251Y649694D01*
X220472Y645399D01*
X217185Y642112D01*
X212890Y640333D01*
X208242Y640333D01*
G37*
%LPD*%
%LPC*%
G36*
X284442Y640333D02*
X284442Y640333D01*
X280147Y642112D01*
X276860Y645399D01*
X275081Y649694D01*
X275081Y654342D01*
X276860Y658637D01*
X280147Y661924D01*
X284442Y663703D01*
X289090Y663703D01*
X293385Y661924D01*
X296672Y658637D01*
X298451Y654342D01*
X298451Y649694D01*
X296672Y645399D01*
X293385Y642112D01*
X289090Y640333D01*
X284442Y640333D01*
G37*
%LPD*%
%LPC*%
G36*
X487642Y640333D02*
X487642Y640333D01*
X483347Y642112D01*
X480060Y645399D01*
X478281Y649694D01*
X478281Y654342D01*
X480060Y658637D01*
X483347Y661924D01*
X487642Y663703D01*
X492290Y663703D01*
X496585Y661924D01*
X499872Y658637D01*
X501651Y654342D01*
X501651Y649694D01*
X499872Y645399D01*
X496585Y642112D01*
X492290Y640333D01*
X487642Y640333D01*
G37*
%LPD*%
%LPC*%
G36*
X157442Y640333D02*
X157442Y640333D01*
X153147Y642112D01*
X149860Y645399D01*
X148081Y649694D01*
X148081Y654342D01*
X149860Y658637D01*
X153147Y661924D01*
X157442Y663703D01*
X162090Y663703D01*
X166385Y661924D01*
X169672Y658637D01*
X171451Y654342D01*
X171451Y649694D01*
X169672Y645399D01*
X166385Y642112D01*
X162090Y640333D01*
X157442Y640333D01*
G37*
%LPD*%
%LPC*%
G36*
X335242Y640333D02*
X335242Y640333D01*
X330947Y642112D01*
X327660Y645399D01*
X325881Y649694D01*
X325881Y654342D01*
X327660Y658637D01*
X330947Y661924D01*
X335242Y663703D01*
X339890Y663703D01*
X344185Y661924D01*
X347472Y658637D01*
X349251Y654342D01*
X349251Y649694D01*
X347472Y645399D01*
X344185Y642112D01*
X339890Y640333D01*
X335242Y640333D01*
G37*
%LPD*%
%LPC*%
G36*
X538442Y640333D02*
X538442Y640333D01*
X534147Y642112D01*
X530860Y645399D01*
X529081Y649694D01*
X529081Y654342D01*
X530860Y658637D01*
X534147Y661924D01*
X538442Y663703D01*
X543090Y663703D01*
X547385Y661924D01*
X550672Y658637D01*
X552451Y654342D01*
X552451Y649694D01*
X550672Y645399D01*
X547385Y642112D01*
X543090Y640333D01*
X538442Y640333D01*
G37*
%LPD*%
%LPC*%
G36*
X513042Y640333D02*
X513042Y640333D01*
X508747Y642112D01*
X505460Y645399D01*
X503681Y649694D01*
X503681Y654342D01*
X505460Y658637D01*
X508747Y661924D01*
X513042Y663703D01*
X517690Y663703D01*
X521985Y661924D01*
X525272Y658637D01*
X527051Y654342D01*
X527051Y649694D01*
X525272Y645399D01*
X521985Y642112D01*
X517690Y640333D01*
X513042Y640333D01*
G37*
%LPD*%
%LPC*%
G36*
X563842Y640333D02*
X563842Y640333D01*
X559547Y642112D01*
X556260Y645399D01*
X554481Y649694D01*
X554481Y654342D01*
X556260Y658637D01*
X559547Y661924D01*
X563842Y663703D01*
X568490Y663703D01*
X572785Y661924D01*
X576072Y658637D01*
X577851Y654342D01*
X577851Y649694D01*
X576072Y645399D01*
X572785Y642112D01*
X568490Y640333D01*
X563842Y640333D01*
G37*
%LPD*%
%LPC*%
G36*
X233642Y640333D02*
X233642Y640333D01*
X229347Y642112D01*
X226060Y645399D01*
X224281Y649694D01*
X224281Y654342D01*
X226060Y658637D01*
X229347Y661924D01*
X233642Y663703D01*
X238290Y663703D01*
X242585Y661924D01*
X245872Y658637D01*
X247651Y654342D01*
X247651Y649694D01*
X245872Y645399D01*
X242585Y642112D01*
X238290Y640333D01*
X233642Y640333D01*
G37*
%LPD*%
%LPC*%
G36*
X132042Y640333D02*
X132042Y640333D01*
X127747Y642112D01*
X124460Y645399D01*
X122681Y649694D01*
X122681Y654342D01*
X124460Y658637D01*
X127747Y661924D01*
X132042Y663703D01*
X136690Y663703D01*
X140985Y661924D01*
X144272Y658637D01*
X146051Y654342D01*
X146051Y649694D01*
X144272Y645399D01*
X140985Y642112D01*
X136690Y640333D01*
X132042Y640333D01*
G37*
%LPD*%
%LPC*%
G36*
X182842Y640333D02*
X182842Y640333D01*
X178547Y642112D01*
X175260Y645399D01*
X173481Y649694D01*
X173481Y654342D01*
X175260Y658637D01*
X178547Y661924D01*
X182842Y663703D01*
X187490Y663703D01*
X191785Y661924D01*
X195072Y658637D01*
X196851Y654342D01*
X196851Y649694D01*
X195072Y645399D01*
X191785Y642112D01*
X187490Y640333D01*
X182842Y640333D01*
G37*
%LPD*%
%LPC*%
G36*
X106642Y640333D02*
X106642Y640333D01*
X102347Y642112D01*
X99060Y645399D01*
X97281Y649694D01*
X97281Y654342D01*
X99060Y658637D01*
X102347Y661924D01*
X106642Y663703D01*
X111290Y663703D01*
X115585Y661924D01*
X118872Y658637D01*
X120651Y654342D01*
X120651Y649694D01*
X118872Y645399D01*
X115585Y642112D01*
X111290Y640333D01*
X106642Y640333D01*
G37*
%LPD*%
%LPC*%
G36*
X233642Y665733D02*
X233642Y665733D01*
X229347Y667512D01*
X226060Y670799D01*
X224281Y675094D01*
X224281Y679742D01*
X226060Y684037D01*
X229347Y687324D01*
X233642Y689103D01*
X238290Y689103D01*
X242585Y687324D01*
X245872Y684037D01*
X247651Y679742D01*
X247651Y675094D01*
X245872Y670799D01*
X242585Y667512D01*
X238290Y665733D01*
X233642Y665733D01*
G37*
%LPD*%
%LPC*%
G36*
X106642Y665733D02*
X106642Y665733D01*
X102347Y667512D01*
X99060Y670799D01*
X97281Y675094D01*
X97281Y679742D01*
X99060Y684037D01*
X102347Y687324D01*
X106642Y689103D01*
X111290Y689103D01*
X115585Y687324D01*
X118872Y684037D01*
X120651Y679742D01*
X120651Y675094D01*
X118872Y670799D01*
X115585Y667512D01*
X111290Y665733D01*
X106642Y665733D01*
G37*
%LPD*%
%LPC*%
G36*
X157442Y665733D02*
X157442Y665733D01*
X153147Y667512D01*
X149860Y670799D01*
X148081Y675094D01*
X148081Y679742D01*
X149860Y684037D01*
X153147Y687324D01*
X157442Y689103D01*
X162090Y689103D01*
X166385Y687324D01*
X169672Y684037D01*
X171451Y679742D01*
X171451Y675094D01*
X169672Y670799D01*
X166385Y667512D01*
X162090Y665733D01*
X157442Y665733D01*
G37*
%LPD*%
%LPC*%
G36*
X411442Y665733D02*
X411442Y665733D01*
X407147Y667512D01*
X403860Y670799D01*
X402081Y675094D01*
X402081Y679742D01*
X403860Y684037D01*
X407147Y687324D01*
X411442Y689103D01*
X416090Y689103D01*
X420385Y687324D01*
X423672Y684037D01*
X425451Y679742D01*
X425451Y675094D01*
X423672Y670799D01*
X420385Y667512D01*
X416090Y665733D01*
X411442Y665733D01*
G37*
%LPD*%
%LPC*%
G36*
X436842Y665733D02*
X436842Y665733D01*
X432547Y667512D01*
X429260Y670799D01*
X427481Y675094D01*
X427481Y679742D01*
X429260Y684037D01*
X432547Y687324D01*
X436842Y689103D01*
X441490Y689103D01*
X445785Y687324D01*
X449072Y684037D01*
X450851Y679742D01*
X450851Y675094D01*
X449072Y670799D01*
X445785Y667512D01*
X441490Y665733D01*
X436842Y665733D01*
G37*
%LPD*%
%LPC*%
G36*
X309842Y665733D02*
X309842Y665733D01*
X305547Y667512D01*
X302260Y670799D01*
X300481Y675094D01*
X300481Y679742D01*
X302260Y684037D01*
X305547Y687324D01*
X309842Y689103D01*
X314490Y689103D01*
X318785Y687324D01*
X322072Y684037D01*
X323851Y679742D01*
X323851Y675094D01*
X322072Y670799D01*
X318785Y667512D01*
X314490Y665733D01*
X309842Y665733D01*
G37*
%LPD*%
%LPC*%
G36*
X538442Y665733D02*
X538442Y665733D01*
X534147Y667512D01*
X530860Y670799D01*
X529081Y675094D01*
X529081Y679742D01*
X530860Y684037D01*
X534147Y687324D01*
X538442Y689103D01*
X543090Y689103D01*
X547385Y687324D01*
X550672Y684037D01*
X552451Y679742D01*
X552451Y675094D01*
X550672Y670799D01*
X547385Y667512D01*
X543090Y665733D01*
X538442Y665733D01*
G37*
%LPD*%
%LPC*%
G36*
X182842Y665733D02*
X182842Y665733D01*
X178547Y667512D01*
X175260Y670799D01*
X173481Y675094D01*
X173481Y679742D01*
X175260Y684037D01*
X178547Y687324D01*
X182842Y689103D01*
X187490Y689103D01*
X191785Y687324D01*
X195072Y684037D01*
X196851Y679742D01*
X196851Y675094D01*
X195072Y670799D01*
X191785Y667512D01*
X187490Y665733D01*
X182842Y665733D01*
G37*
%LPD*%
%LPC*%
G36*
X208242Y665733D02*
X208242Y665733D01*
X203947Y667512D01*
X200660Y670799D01*
X198881Y675094D01*
X198881Y679742D01*
X200660Y684037D01*
X203947Y687324D01*
X208242Y689103D01*
X212890Y689103D01*
X217185Y687324D01*
X220472Y684037D01*
X222251Y679742D01*
X222251Y675094D01*
X220472Y670799D01*
X217185Y667512D01*
X212890Y665733D01*
X208242Y665733D01*
G37*
%LPD*%
%LPC*%
G36*
X259042Y665733D02*
X259042Y665733D01*
X254747Y667512D01*
X251460Y670799D01*
X249681Y675094D01*
X249681Y679742D01*
X251460Y684037D01*
X254747Y687324D01*
X259042Y689103D01*
X263690Y689103D01*
X267985Y687324D01*
X271272Y684037D01*
X273051Y679742D01*
X273051Y675094D01*
X271272Y670799D01*
X267985Y667512D01*
X263690Y665733D01*
X259042Y665733D01*
G37*
%LPD*%
%LPC*%
G36*
X284442Y665733D02*
X284442Y665733D01*
X280147Y667512D01*
X276860Y670799D01*
X275081Y675094D01*
X275081Y679742D01*
X276860Y684037D01*
X280147Y687324D01*
X284442Y689103D01*
X289090Y689103D01*
X293385Y687324D01*
X296672Y684037D01*
X298451Y679742D01*
X298451Y675094D01*
X296672Y670799D01*
X293385Y667512D01*
X289090Y665733D01*
X284442Y665733D01*
G37*
%LPD*%
%LPC*%
G36*
X487642Y665733D02*
X487642Y665733D01*
X483347Y667512D01*
X480060Y670799D01*
X478281Y675094D01*
X478281Y679742D01*
X480060Y684037D01*
X483347Y687324D01*
X487642Y689103D01*
X492290Y689103D01*
X496585Y687324D01*
X499872Y684037D01*
X501651Y679742D01*
X501651Y675094D01*
X499872Y670799D01*
X496585Y667512D01*
X492290Y665733D01*
X487642Y665733D01*
G37*
%LPD*%
%LPC*%
G36*
X462242Y665733D02*
X462242Y665733D01*
X457947Y667512D01*
X454660Y670799D01*
X452881Y675094D01*
X452881Y679742D01*
X454660Y684037D01*
X457947Y687324D01*
X462242Y689103D01*
X466890Y689103D01*
X471185Y687324D01*
X474472Y684037D01*
X476251Y679742D01*
X476251Y675094D01*
X474472Y670799D01*
X471185Y667512D01*
X466890Y665733D01*
X462242Y665733D01*
G37*
%LPD*%
%LPC*%
G36*
X335242Y665733D02*
X335242Y665733D01*
X330947Y667512D01*
X327660Y670799D01*
X325881Y675094D01*
X325881Y679742D01*
X327660Y684037D01*
X330947Y687324D01*
X335242Y689103D01*
X339890Y689103D01*
X344185Y687324D01*
X347472Y684037D01*
X349251Y679742D01*
X349251Y675094D01*
X347472Y670799D01*
X344185Y667512D01*
X339890Y665733D01*
X335242Y665733D01*
G37*
%LPD*%
%LPC*%
G36*
X360642Y665733D02*
X360642Y665733D01*
X356347Y667512D01*
X353060Y670799D01*
X351281Y675094D01*
X351281Y679742D01*
X353060Y684037D01*
X356347Y687324D01*
X360642Y689103D01*
X365290Y689103D01*
X369585Y687324D01*
X372872Y684037D01*
X374651Y679742D01*
X374651Y675094D01*
X372872Y670799D01*
X369585Y667512D01*
X365290Y665733D01*
X360642Y665733D01*
G37*
%LPD*%
%LPC*%
G36*
X386042Y665733D02*
X386042Y665733D01*
X381747Y667512D01*
X378460Y670799D01*
X376681Y675094D01*
X376681Y679742D01*
X378460Y684037D01*
X381747Y687324D01*
X386042Y689103D01*
X390690Y689103D01*
X394985Y687324D01*
X398272Y684037D01*
X400051Y679742D01*
X400051Y675094D01*
X398272Y670799D01*
X394985Y667512D01*
X390690Y665733D01*
X386042Y665733D01*
G37*
%LPD*%
%LPC*%
G36*
X790348Y90423D02*
X790348Y90423D01*
X790348Y113211D01*
X791977Y112953D01*
X793993Y112298D01*
X795881Y111336D01*
X797595Y110091D01*
X799094Y108592D01*
X800339Y106878D01*
X801301Y104990D01*
X801956Y102974D01*
X802288Y100882D01*
X802288Y90423D01*
X790348Y90423D01*
G37*
%LPD*%
%LPC*%
G36*
X760348Y42423D02*
X760348Y42423D01*
X760348Y54363D01*
X770807Y54363D01*
X772899Y54031D01*
X774915Y53376D01*
X776803Y52414D01*
X778517Y51169D01*
X780016Y49670D01*
X781261Y47956D01*
X782223Y46068D01*
X782878Y44052D01*
X783136Y42423D01*
X760348Y42423D01*
G37*
%LPD*%
%LPC*%
G36*
X734514Y42423D02*
X734514Y42423D01*
X734772Y44052D01*
X735427Y46068D01*
X736389Y47956D01*
X737634Y49670D01*
X739133Y51169D01*
X740847Y52414D01*
X742735Y53376D01*
X744751Y54031D01*
X746843Y54363D01*
X757302Y54363D01*
X757302Y42423D01*
X734514Y42423D01*
G37*
%LPD*%
%LPC*%
G36*
X790348Y87377D02*
X790348Y87377D01*
X802288Y87377D01*
X802288Y76918D01*
X801956Y74826D01*
X801301Y72810D01*
X800339Y70922D01*
X799094Y69208D01*
X797595Y67709D01*
X795881Y66464D01*
X793993Y65502D01*
X791977Y64847D01*
X790348Y64589D01*
X790348Y87377D01*
G37*
%LPD*%
%LPC*%
G36*
X775362Y90423D02*
X775362Y90423D01*
X775362Y100882D01*
X775694Y102974D01*
X776349Y104990D01*
X777311Y106878D01*
X778556Y108592D01*
X780055Y110091D01*
X781769Y111336D01*
X783657Y112298D01*
X785673Y112953D01*
X787302Y113211D01*
X787302Y90423D01*
X775362Y90423D01*
G37*
%LPD*%
%LPC*%
G36*
X760348Y27437D02*
X760348Y27437D01*
X760348Y39377D01*
X783136Y39377D01*
X782878Y37748D01*
X782223Y35732D01*
X781261Y33844D01*
X780016Y32130D01*
X778517Y30631D01*
X776803Y29386D01*
X774915Y28424D01*
X772899Y27769D01*
X770807Y27437D01*
X760348Y27437D01*
G37*
%LPD*%
%LPC*%
G36*
X785673Y64847D02*
X785673Y64847D01*
X783657Y65502D01*
X781769Y66464D01*
X780055Y67709D01*
X778556Y69208D01*
X777311Y70922D01*
X776349Y72810D01*
X775694Y74826D01*
X775362Y76918D01*
X775362Y87377D01*
X787302Y87377D01*
X787302Y64589D01*
X785673Y64847D01*
G37*
%LPD*%
%LPC*%
G36*
X746843Y27437D02*
X746843Y27437D01*
X744751Y27769D01*
X742735Y28424D01*
X740847Y29386D01*
X739133Y30631D01*
X737634Y32130D01*
X736389Y33844D01*
X735427Y35732D01*
X734772Y37748D01*
X734514Y39377D01*
X757302Y39377D01*
X757302Y27437D01*
X746843Y27437D01*
G37*
%LPD*%
%LPC*%
G36*
X642238Y429513D02*
X642238Y429513D01*
X642238Y440446D01*
X643652Y440222D01*
X645529Y439612D01*
X647288Y438716D01*
X648885Y437556D01*
X650281Y436160D01*
X651441Y434563D01*
X652337Y432804D01*
X652691Y431714D01*
X652695Y431707D01*
X652696Y431699D01*
X652751Y431598D01*
X652804Y431496D01*
X652809Y431490D01*
X652813Y431483D01*
X652898Y431404D01*
X652980Y431325D01*
X652988Y431321D01*
X652993Y431316D01*
X653098Y431268D01*
X653202Y431219D01*
X653210Y431218D01*
X653218Y431214D01*
X653332Y431203D01*
X653447Y431189D01*
X653454Y431191D01*
X653462Y431190D01*
X653575Y431216D01*
X653687Y431239D01*
X653694Y431243D01*
X653702Y431244D01*
X653801Y431305D01*
X653900Y431363D01*
X653905Y431369D01*
X653912Y431373D01*
X653987Y431462D01*
X654062Y431548D01*
X654065Y431555D01*
X654070Y431561D01*
X654139Y431714D01*
X654493Y432804D01*
X655389Y434563D01*
X656549Y436160D01*
X657945Y437556D01*
X659542Y438716D01*
X661301Y439612D01*
X663178Y440222D01*
X664592Y440446D01*
X664592Y429513D01*
X642238Y429513D01*
G37*
%LPD*%
%LPC*%
G36*
X642238Y614933D02*
X642238Y614933D01*
X642238Y625866D01*
X643652Y625642D01*
X645529Y625032D01*
X647288Y624136D01*
X648885Y622976D01*
X650281Y621580D01*
X651441Y619983D01*
X652337Y618224D01*
X652691Y617134D01*
X652695Y617127D01*
X652696Y617119D01*
X652751Y617019D01*
X652804Y616916D01*
X652810Y616910D01*
X652813Y616903D01*
X652898Y616825D01*
X652980Y616744D01*
X652988Y616741D01*
X652994Y616736D01*
X653098Y616688D01*
X653202Y616639D01*
X653210Y616638D01*
X653218Y616634D01*
X653332Y616623D01*
X653447Y616609D01*
X653454Y616611D01*
X653462Y616610D01*
X653575Y616635D01*
X653687Y616659D01*
X653694Y616663D01*
X653702Y616664D01*
X653800Y616724D01*
X653900Y616783D01*
X653905Y616789D01*
X653912Y616793D01*
X653986Y616881D01*
X654062Y616968D01*
X654065Y616975D01*
X654070Y616981D01*
X654139Y617134D01*
X654493Y618224D01*
X655389Y619983D01*
X656549Y621580D01*
X657945Y622976D01*
X659542Y624136D01*
X661301Y625032D01*
X663178Y625642D01*
X664592Y625866D01*
X664592Y614933D01*
X642238Y614933D01*
G37*
%LPD*%
%LPC*%
G36*
X663178Y601178D02*
X663178Y601178D01*
X661301Y601788D01*
X659542Y602684D01*
X657945Y603844D01*
X656549Y605240D01*
X655389Y606837D01*
X654493Y608596D01*
X654139Y609686D01*
X654135Y609693D01*
X654134Y609701D01*
X654079Y609802D01*
X654026Y609904D01*
X654021Y609910D01*
X654017Y609917D01*
X653932Y609995D01*
X653850Y610075D01*
X653842Y610079D01*
X653837Y610084D01*
X653732Y610132D01*
X653628Y610181D01*
X653620Y610182D01*
X653612Y610186D01*
X653498Y610197D01*
X653383Y610211D01*
X653376Y610209D01*
X653368Y610210D01*
X653255Y610184D01*
X653143Y610161D01*
X653136Y610157D01*
X653128Y610156D01*
X653029Y610095D01*
X652930Y610037D01*
X652925Y610031D01*
X652918Y610027D01*
X652843Y609938D01*
X652768Y609852D01*
X652765Y609845D01*
X652760Y609839D01*
X652691Y609686D01*
X652337Y608596D01*
X651441Y606837D01*
X650281Y605240D01*
X648885Y603844D01*
X647288Y602684D01*
X645529Y601788D01*
X643652Y601178D01*
X642238Y600954D01*
X642238Y611887D01*
X664592Y611887D01*
X664592Y600954D01*
X663178Y601178D01*
G37*
%LPD*%
%LPC*%
G36*
X663178Y415758D02*
X663178Y415758D01*
X661301Y416368D01*
X659542Y417264D01*
X657945Y418424D01*
X656549Y419820D01*
X655389Y421417D01*
X654493Y423176D01*
X654139Y424266D01*
X654135Y424273D01*
X654134Y424281D01*
X654079Y424383D01*
X654026Y424484D01*
X654021Y424490D01*
X654017Y424497D01*
X653932Y424576D01*
X653850Y424656D01*
X653842Y424659D01*
X653837Y424664D01*
X653731Y424712D01*
X653628Y424761D01*
X653620Y424762D01*
X653612Y424766D01*
X653498Y424777D01*
X653383Y424791D01*
X653376Y424789D01*
X653368Y424790D01*
X653255Y424765D01*
X653143Y424741D01*
X653136Y424737D01*
X653128Y424736D01*
X653029Y424675D01*
X652930Y424617D01*
X652925Y424611D01*
X652918Y424607D01*
X652843Y424517D01*
X652768Y424432D01*
X652765Y424425D01*
X652760Y424419D01*
X652691Y424266D01*
X652337Y423176D01*
X651441Y421417D01*
X650281Y419820D01*
X648885Y418424D01*
X647288Y417264D01*
X645529Y416368D01*
X643652Y415758D01*
X642238Y415534D01*
X642238Y426467D01*
X664592Y426467D01*
X664592Y415534D01*
X663178Y415758D01*
G37*
%LPD*%
%LPC*%
G36*
X148173Y63948D02*
X148173Y63948D01*
X148173Y74716D01*
X151741Y74716D01*
X158941Y67516D01*
X158941Y63948D01*
X148173Y63948D01*
G37*
%LPD*%
%LPC*%
G36*
X402173Y63948D02*
X402173Y63948D01*
X402173Y74716D01*
X405741Y74716D01*
X412941Y67516D01*
X412941Y63948D01*
X402173Y63948D01*
G37*
%LPD*%
%LPC*%
G36*
X477173Y63948D02*
X477173Y63948D01*
X477173Y74716D01*
X480741Y74716D01*
X487941Y67516D01*
X487941Y63948D01*
X477173Y63948D01*
G37*
%LPD*%
%LPC*%
G36*
X223173Y63948D02*
X223173Y63948D01*
X223173Y74716D01*
X226741Y74716D01*
X233941Y67516D01*
X233941Y63948D01*
X223173Y63948D01*
G37*
%LPD*%
%LPC*%
G36*
X477173Y50134D02*
X477173Y50134D01*
X477173Y60902D01*
X487941Y60902D01*
X487941Y57334D01*
X480741Y50134D01*
X477173Y50134D01*
G37*
%LPD*%
%LPC*%
G36*
X463359Y63948D02*
X463359Y63948D01*
X463359Y67516D01*
X470559Y74716D01*
X474127Y74716D01*
X474127Y63948D01*
X463359Y63948D01*
G37*
%LPD*%
%LPC*%
G36*
X388359Y63948D02*
X388359Y63948D01*
X388359Y67516D01*
X395559Y74716D01*
X399127Y74716D01*
X399127Y63948D01*
X388359Y63948D01*
G37*
%LPD*%
%LPC*%
G36*
X209359Y63948D02*
X209359Y63948D01*
X209359Y67516D01*
X216559Y74716D01*
X220127Y74716D01*
X220127Y63948D01*
X209359Y63948D01*
G37*
%LPD*%
%LPC*%
G36*
X134359Y63948D02*
X134359Y63948D01*
X134359Y67516D01*
X141559Y74716D01*
X145127Y74716D01*
X145127Y63948D01*
X134359Y63948D01*
G37*
%LPD*%
%LPC*%
G36*
X148173Y50134D02*
X148173Y50134D01*
X148173Y60902D01*
X158941Y60902D01*
X158941Y57334D01*
X151741Y50134D01*
X148173Y50134D01*
G37*
%LPD*%
%LPC*%
G36*
X223173Y50134D02*
X223173Y50134D01*
X223173Y60902D01*
X233941Y60902D01*
X233941Y57334D01*
X226741Y50134D01*
X223173Y50134D01*
G37*
%LPD*%
%LPC*%
G36*
X402173Y50134D02*
X402173Y50134D01*
X402173Y60902D01*
X412941Y60902D01*
X412941Y57334D01*
X405741Y50134D01*
X402173Y50134D01*
G37*
%LPD*%
%LPC*%
G36*
X395559Y50134D02*
X395559Y50134D01*
X388359Y57334D01*
X388359Y60902D01*
X399127Y60902D01*
X399127Y50134D01*
X395559Y50134D01*
G37*
%LPD*%
%LPC*%
G36*
X216559Y50134D02*
X216559Y50134D01*
X209359Y57334D01*
X209359Y60902D01*
X220127Y60902D01*
X220127Y50134D01*
X216559Y50134D01*
G37*
%LPD*%
%LPC*%
G36*
X141559Y50134D02*
X141559Y50134D01*
X134359Y57334D01*
X134359Y60902D01*
X145127Y60902D01*
X145127Y50134D01*
X141559Y50134D01*
G37*
%LPD*%
%LPC*%
G36*
X470559Y50134D02*
X470559Y50134D01*
X463359Y57334D01*
X463359Y60902D01*
X474127Y60902D01*
X474127Y50134D01*
X470559Y50134D01*
G37*
%LPD*%
%LPC*%
G36*
X667638Y614933D02*
X667638Y614933D01*
X667638Y625866D01*
X669052Y625642D01*
X670929Y625032D01*
X672688Y624136D01*
X674285Y622976D01*
X675681Y621580D01*
X676841Y619983D01*
X677737Y618224D01*
X678347Y616347D01*
X678571Y614933D01*
X667638Y614933D01*
G37*
%LPD*%
%LPC*%
G36*
X667638Y429513D02*
X667638Y429513D01*
X667638Y440446D01*
X669052Y440222D01*
X670929Y439612D01*
X672688Y438716D01*
X674285Y437556D01*
X675681Y436160D01*
X676841Y434563D01*
X677737Y432804D01*
X678347Y430927D01*
X678571Y429513D01*
X667638Y429513D01*
G37*
%LPD*%
%LPC*%
G36*
X667638Y426467D02*
X667638Y426467D01*
X678571Y426467D01*
X678347Y425053D01*
X677737Y423176D01*
X676841Y421417D01*
X675681Y419820D01*
X674285Y418424D01*
X672688Y417264D01*
X670929Y416368D01*
X669052Y415758D01*
X667638Y415534D01*
X667638Y426467D01*
G37*
%LPD*%
%LPC*%
G36*
X667638Y611887D02*
X667638Y611887D01*
X678571Y611887D01*
X678347Y610473D01*
X677737Y608596D01*
X676841Y606837D01*
X675681Y605240D01*
X674285Y603844D01*
X672688Y602684D01*
X670929Y601788D01*
X669052Y601178D01*
X667638Y600954D01*
X667638Y611887D01*
G37*
%LPD*%
%LPC*%
G36*
X628259Y614933D02*
X628259Y614933D01*
X628483Y616347D01*
X629093Y618224D01*
X629989Y619983D01*
X631149Y621580D01*
X632545Y622976D01*
X634142Y624136D01*
X635901Y625032D01*
X637778Y625642D01*
X639192Y625866D01*
X639192Y614933D01*
X628259Y614933D01*
G37*
%LPD*%
%LPC*%
G36*
X628259Y429513D02*
X628259Y429513D01*
X628483Y430927D01*
X629093Y432804D01*
X629989Y434563D01*
X631149Y436160D01*
X632545Y437556D01*
X634142Y438716D01*
X635901Y439612D01*
X637778Y440222D01*
X639192Y440446D01*
X639192Y429513D01*
X628259Y429513D01*
G37*
%LPD*%
%LPC*%
G36*
X637778Y415758D02*
X637778Y415758D01*
X635901Y416368D01*
X634142Y417264D01*
X632545Y418424D01*
X631149Y419820D01*
X629989Y421417D01*
X629093Y423176D01*
X628483Y425053D01*
X628259Y426467D01*
X639192Y426467D01*
X639192Y415534D01*
X637778Y415758D01*
G37*
%LPD*%
%LPC*%
G36*
X637778Y601178D02*
X637778Y601178D01*
X635901Y601788D01*
X634142Y602684D01*
X632545Y603844D01*
X631149Y605240D01*
X629989Y606837D01*
X629093Y608596D01*
X628483Y610473D01*
X628259Y611887D01*
X639192Y611887D01*
X639192Y600954D01*
X637778Y601178D01*
G37*
%LPD*%
%LPC*%
G36*
X389889Y653541D02*
X389889Y653541D01*
X389889Y662064D01*
X390745Y661929D01*
X392266Y661434D01*
X393691Y660708D01*
X394985Y659768D01*
X396116Y658637D01*
X397056Y657343D01*
X397782Y655918D01*
X398277Y654397D01*
X398412Y653541D01*
X389889Y653541D01*
G37*
%LPD*%
%LPC*%
G36*
X389889Y650495D02*
X389889Y650495D01*
X398412Y650495D01*
X398277Y649639D01*
X397782Y648118D01*
X397056Y646693D01*
X396116Y645399D01*
X394985Y644268D01*
X393691Y643328D01*
X392266Y642602D01*
X390745Y642107D01*
X389889Y641972D01*
X389889Y650495D01*
G37*
%LPD*%
%LPC*%
G36*
X378320Y653541D02*
X378320Y653541D01*
X378455Y654397D01*
X378950Y655918D01*
X379676Y657343D01*
X380616Y658637D01*
X381747Y659768D01*
X383041Y660708D01*
X384466Y661434D01*
X385987Y661929D01*
X386843Y662064D01*
X386843Y653541D01*
X378320Y653541D01*
G37*
%LPD*%
%LPC*%
G36*
X385987Y642107D02*
X385987Y642107D01*
X384466Y642602D01*
X383041Y643328D01*
X381747Y644268D01*
X380616Y645399D01*
X379676Y646693D01*
X378950Y648118D01*
X378455Y649639D01*
X378320Y650495D01*
X386843Y650495D01*
X386843Y641972D01*
X385987Y642107D01*
G37*
%LPD*%
%LPC*%
G36*
X666114Y427989D02*
X666114Y427989D01*
X666114Y427991D01*
X666116Y427991D01*
X666116Y427989D01*
X666114Y427989D01*
G37*
%LPD*%
%LPC*%
G36*
X640714Y427989D02*
X640714Y427989D01*
X640714Y427991D01*
X640716Y427991D01*
X640716Y427989D01*
X640714Y427989D01*
G37*
%LPD*%
%LPC*%
G36*
X640714Y613409D02*
X640714Y613409D01*
X640714Y613411D01*
X640716Y613411D01*
X640716Y613409D01*
X640714Y613409D01*
G37*
%LPD*%
%LPC*%
G36*
X475649Y62424D02*
X475649Y62424D01*
X475649Y62426D01*
X475651Y62426D01*
X475651Y62424D01*
X475649Y62424D01*
G37*
%LPD*%
%LPC*%
G36*
X146649Y62424D02*
X146649Y62424D01*
X146649Y62426D01*
X146651Y62426D01*
X146651Y62424D01*
X146649Y62424D01*
G37*
%LPD*%
%LPC*%
G36*
X788824Y88899D02*
X788824Y88899D01*
X788824Y88901D01*
X788826Y88901D01*
X788826Y88899D01*
X788824Y88899D01*
G37*
%LPD*%
%LPC*%
G36*
X221649Y62424D02*
X221649Y62424D01*
X221649Y62426D01*
X221651Y62426D01*
X221651Y62424D01*
X221649Y62424D01*
G37*
%LPD*%
%LPC*%
G36*
X666114Y613409D02*
X666114Y613409D01*
X666114Y613411D01*
X666116Y613411D01*
X666116Y613409D01*
X666114Y613409D01*
G37*
%LPD*%
%LPC*%
G36*
X400649Y62424D02*
X400649Y62424D01*
X400649Y62426D01*
X400651Y62426D01*
X400651Y62424D01*
X400649Y62424D01*
G37*
%LPD*%
%LPC*%
G36*
X388365Y652017D02*
X388365Y652017D01*
X388365Y652019D01*
X388367Y652019D01*
X388367Y652017D01*
X388365Y652017D01*
G37*
%LPD*%
%LPC*%
G36*
X758824Y40899D02*
X758824Y40899D01*
X758824Y40901D01*
X758826Y40901D01*
X758826Y40899D01*
X758824Y40899D01*
G37*
%LPD*%
D10*
X83700Y652000D03*
D11*
X83566Y677418D03*
X108966Y652018D03*
X108966Y677418D03*
X134366Y652018D03*
X134366Y677418D03*
X159766Y652018D03*
X159766Y677418D03*
X185166Y652018D03*
X185166Y677418D03*
X210566Y652018D03*
X210566Y677418D03*
X235966Y652018D03*
X235966Y677418D03*
X261366Y652018D03*
X261366Y677418D03*
X286766Y652018D03*
X286766Y677418D03*
X312166Y652018D03*
X312166Y677418D03*
X337566Y652018D03*
X337566Y677418D03*
X362966Y652018D03*
X362966Y677418D03*
X388366Y652018D03*
X388366Y677418D03*
X413766Y652018D03*
X413766Y677418D03*
X439166Y652018D03*
X439166Y677418D03*
X464566Y652018D03*
X464566Y677418D03*
X489966Y652018D03*
X489966Y677418D03*
X515366Y652018D03*
X515366Y677418D03*
X540766Y652018D03*
X540766Y677418D03*
X566166Y652018D03*
X566166Y677418D03*
D12*
X415650Y34925D03*
X460650Y34925D03*
D13*
X475650Y62425D03*
X400650Y62425D03*
D12*
X161650Y34925D03*
X206650Y34925D03*
D13*
X221650Y62425D03*
X146650Y62425D03*
D10*
X162550Y621250D03*
D11*
X187950Y621250D03*
D14*
X747903Y40900D02*
X769747Y40900D01*
X788825Y77978D02*
X788825Y99822D01*
X728825Y99822D02*
X728825Y77978D01*
D15*
X323850Y50800D03*
X298450Y50800D03*
D16*
X666115Y427990D03*
D17*
X534035Y427990D03*
D16*
X666115Y613410D03*
X640715Y427990D03*
X640715Y613410D03*
D17*
X559435Y427990D03*
X534035Y613410D03*
X559435Y613410D03*
D18*
X349250Y381000D03*
X349250Y406400D03*
X298450Y393700D03*
X298450Y444500D03*
X349250Y431800D03*
X349250Y457200D03*
X412750Y565150D03*
X412750Y539750D03*
X361950Y501650D03*
X361950Y552450D03*
X412750Y514350D03*
X412750Y488950D03*
D19*
X657225Y571500D03*
X657225Y482600D03*
X558800Y571500D03*
X558800Y482600D03*
D20*
X692150Y38100D03*
X527050Y82550D03*
X368300Y120650D03*
X298450Y82550D03*
X88900Y107950D03*
X44450Y260350D03*
X203200Y323850D03*
X203200Y209550D03*
X393700Y323850D03*
X615950Y266700D03*
X539750Y527050D03*
X660400Y660400D03*
X400050Y628650D03*
X196850Y419100D03*
X44450Y577850D03*
X146050Y577850D03*
X209550Y577850D03*
D21*
X323850Y88900D02*
X323850Y50800D01*
X323850Y88900D02*
X323844Y89360D01*
X323828Y89820D01*
X323800Y90280D01*
X323761Y90739D01*
X323711Y91196D01*
X323650Y91653D01*
X323578Y92107D01*
X323495Y92560D01*
X323401Y93011D01*
X323296Y93459D01*
X323181Y93905D01*
X323055Y94347D01*
X322918Y94787D01*
X322770Y95223D01*
X322612Y95655D01*
X322444Y96084D01*
X322265Y96508D01*
X322076Y96928D01*
X321877Y97343D01*
X321668Y97753D01*
X321449Y98158D01*
X321221Y98558D01*
X320982Y98952D01*
X320735Y99340D01*
X320478Y99722D01*
X320212Y100097D01*
X319937Y100466D01*
X319653Y100829D01*
X319360Y101184D01*
X319059Y101532D01*
X318750Y101873D01*
X318432Y102207D01*
X318107Y102532D01*
X317773Y102850D01*
X317432Y103159D01*
X317084Y103460D01*
X316729Y103753D01*
X316366Y104037D01*
X315997Y104312D01*
X315622Y104578D01*
X315240Y104835D01*
X314852Y105082D01*
X314458Y105321D01*
X314058Y105549D01*
X313653Y105768D01*
X313243Y105977D01*
X312828Y106176D01*
X312408Y106365D01*
X311984Y106544D01*
X311555Y106712D01*
X311123Y106870D01*
X310687Y107018D01*
X310247Y107155D01*
X309805Y107281D01*
X309359Y107396D01*
X308911Y107501D01*
X308460Y107595D01*
X308007Y107678D01*
X307553Y107750D01*
X307096Y107811D01*
X306639Y107861D01*
X306180Y107900D01*
X305720Y107928D01*
X305260Y107944D01*
X304800Y107950D01*
X279400Y107950D01*
X278940Y107956D01*
X278480Y107972D01*
X278020Y108000D01*
X277561Y108039D01*
X277104Y108089D01*
X276647Y108150D01*
X276193Y108222D01*
X275740Y108305D01*
X275289Y108399D01*
X274841Y108504D01*
X274395Y108619D01*
X273953Y108745D01*
X273513Y108882D01*
X273077Y109030D01*
X272645Y109188D01*
X272216Y109356D01*
X271792Y109535D01*
X271372Y109724D01*
X270957Y109923D01*
X270547Y110132D01*
X270142Y110351D01*
X269742Y110579D01*
X269348Y110818D01*
X268960Y111065D01*
X268578Y111322D01*
X268203Y111588D01*
X267834Y111863D01*
X267471Y112147D01*
X267116Y112440D01*
X266768Y112741D01*
X266427Y113050D01*
X266093Y113368D01*
X265768Y113693D01*
X265450Y114027D01*
X265141Y114368D01*
X264840Y114716D01*
X264547Y115071D01*
X264263Y115434D01*
X263988Y115803D01*
X263722Y116178D01*
X263465Y116560D01*
X263218Y116948D01*
X262979Y117342D01*
X262751Y117742D01*
X262532Y118147D01*
X262323Y118557D01*
X262124Y118972D01*
X261935Y119392D01*
X261756Y119816D01*
X261588Y120245D01*
X261430Y120677D01*
X261282Y121113D01*
X261145Y121553D01*
X261019Y121995D01*
X260904Y122441D01*
X260799Y122889D01*
X260705Y123340D01*
X260622Y123793D01*
X260550Y124247D01*
X260489Y124704D01*
X260439Y125161D01*
X260400Y125620D01*
X260372Y126080D01*
X260356Y126540D01*
X260350Y127000D01*
X260350Y651002D01*
X260352Y651063D01*
X260357Y651124D01*
X260367Y651185D01*
X260380Y651245D01*
X260396Y651304D01*
X260416Y651362D01*
X260440Y651419D01*
X260466Y651474D01*
X260497Y651528D01*
X260530Y651579D01*
X260566Y651629D01*
X260606Y651676D01*
X260648Y651720D01*
X260692Y651762D01*
X260739Y651802D01*
X260789Y651838D01*
X260840Y651871D01*
X260894Y651902D01*
X260949Y651928D01*
X261006Y651952D01*
X261064Y651972D01*
X261123Y651988D01*
X261183Y652001D01*
X261244Y652011D01*
X261305Y652016D01*
X261366Y652018D01*
X161925Y34925D02*
X161650Y34925D01*
X161925Y34925D02*
X162155Y34928D01*
X162385Y34936D01*
X162615Y34950D01*
X162844Y34969D01*
X163073Y34994D01*
X163301Y35025D01*
X163529Y35061D01*
X163755Y35102D01*
X163980Y35149D01*
X164204Y35202D01*
X164427Y35260D01*
X164649Y35323D01*
X164868Y35391D01*
X165086Y35465D01*
X165303Y35544D01*
X165517Y35628D01*
X165729Y35718D01*
X165939Y35812D01*
X166146Y35912D01*
X166351Y36016D01*
X166554Y36125D01*
X166754Y36240D01*
X166951Y36359D01*
X167145Y36483D01*
X167336Y36611D01*
X167524Y36744D01*
X167708Y36882D01*
X167889Y37024D01*
X168067Y37170D01*
X168241Y37320D01*
X168412Y37475D01*
X168578Y37634D01*
X168741Y37797D01*
X168900Y37963D01*
X169055Y38134D01*
X169205Y38308D01*
X169351Y38486D01*
X169493Y38667D01*
X169631Y38851D01*
X169764Y39039D01*
X169892Y39230D01*
X170016Y39424D01*
X170135Y39621D01*
X170250Y39821D01*
X170359Y40024D01*
X170463Y40229D01*
X170563Y40436D01*
X170657Y40646D01*
X170747Y40858D01*
X170831Y41072D01*
X170910Y41289D01*
X170984Y41507D01*
X171052Y41726D01*
X171115Y41948D01*
X171173Y42171D01*
X171226Y42395D01*
X171273Y42620D01*
X171314Y42846D01*
X171350Y43074D01*
X171381Y43302D01*
X171406Y43531D01*
X171425Y43760D01*
X171439Y43990D01*
X171447Y44220D01*
X171450Y44450D01*
X171450Y612350D02*
X171447Y612565D01*
X171440Y612780D01*
X171427Y612995D01*
X171408Y613209D01*
X171385Y613423D01*
X171357Y613636D01*
X171323Y613848D01*
X171284Y614060D01*
X171240Y614270D01*
X171191Y614480D01*
X171137Y614688D01*
X171078Y614895D01*
X171014Y615100D01*
X170945Y615304D01*
X170872Y615506D01*
X170793Y615706D01*
X170709Y615904D01*
X170621Y616100D01*
X170528Y616294D01*
X170431Y616486D01*
X170328Y616675D01*
X170222Y616862D01*
X170110Y617046D01*
X169995Y617227D01*
X169875Y617406D01*
X169750Y617581D01*
X169622Y617754D01*
X169489Y617923D01*
X169352Y618089D01*
X169212Y618252D01*
X169067Y618411D01*
X168919Y618567D01*
X168767Y618719D01*
X168611Y618867D01*
X168452Y619012D01*
X168289Y619152D01*
X168123Y619289D01*
X167954Y619422D01*
X167781Y619550D01*
X167606Y619675D01*
X167427Y619795D01*
X167246Y619910D01*
X167062Y620022D01*
X166875Y620128D01*
X166686Y620231D01*
X166494Y620328D01*
X166300Y620421D01*
X166104Y620509D01*
X165906Y620593D01*
X165706Y620672D01*
X165504Y620745D01*
X165300Y620814D01*
X165095Y620878D01*
X164888Y620937D01*
X164680Y620991D01*
X164470Y621040D01*
X164260Y621084D01*
X164048Y621123D01*
X163836Y621157D01*
X163623Y621185D01*
X163409Y621208D01*
X163195Y621227D01*
X162980Y621240D01*
X162765Y621247D01*
X162550Y621250D01*
X171450Y612350D02*
X171450Y44450D01*
X269875Y34925D02*
X415650Y34925D01*
X269875Y34925D02*
X269338Y34931D01*
X268801Y34951D01*
X268265Y34983D01*
X267730Y35029D01*
X267196Y35087D01*
X266664Y35158D01*
X266133Y35242D01*
X265605Y35339D01*
X265079Y35449D01*
X264556Y35571D01*
X264036Y35706D01*
X263520Y35853D01*
X263007Y36013D01*
X262498Y36185D01*
X261994Y36369D01*
X261494Y36566D01*
X260999Y36774D01*
X260509Y36995D01*
X260025Y37227D01*
X259547Y37471D01*
X259074Y37726D01*
X258608Y37993D01*
X258148Y38271D01*
X257695Y38559D01*
X257250Y38859D01*
X256811Y39170D01*
X256381Y39491D01*
X255958Y39822D01*
X255543Y40163D01*
X255137Y40514D01*
X254739Y40875D01*
X254351Y41246D01*
X253971Y41626D01*
X253600Y42014D01*
X253239Y42412D01*
X252888Y42818D01*
X252547Y43233D01*
X252216Y43656D01*
X251895Y44086D01*
X251584Y44525D01*
X251284Y44970D01*
X250996Y45423D01*
X250718Y45883D01*
X250451Y46349D01*
X250196Y46822D01*
X249952Y47300D01*
X249720Y47784D01*
X249499Y48274D01*
X249291Y48769D01*
X249094Y49269D01*
X248910Y49773D01*
X248738Y50282D01*
X248578Y50795D01*
X248431Y51311D01*
X248296Y51831D01*
X248174Y52354D01*
X248064Y52880D01*
X247967Y53408D01*
X247883Y53939D01*
X247812Y54471D01*
X247754Y55005D01*
X247708Y55540D01*
X247676Y56076D01*
X247656Y56613D01*
X247650Y57150D01*
X247650Y603250D01*
X247644Y603710D01*
X247628Y604170D01*
X247600Y604630D01*
X247561Y605089D01*
X247511Y605546D01*
X247450Y606003D01*
X247378Y606457D01*
X247295Y606910D01*
X247201Y607361D01*
X247096Y607809D01*
X246981Y608255D01*
X246855Y608697D01*
X246718Y609137D01*
X246570Y609573D01*
X246412Y610005D01*
X246244Y610434D01*
X246065Y610858D01*
X245876Y611278D01*
X245677Y611693D01*
X245468Y612103D01*
X245249Y612508D01*
X245021Y612908D01*
X244782Y613302D01*
X244535Y613690D01*
X244278Y614072D01*
X244012Y614447D01*
X243737Y614816D01*
X243453Y615179D01*
X243160Y615534D01*
X242859Y615882D01*
X242550Y616223D01*
X242232Y616557D01*
X241907Y616882D01*
X241573Y617200D01*
X241232Y617509D01*
X240884Y617810D01*
X240529Y618103D01*
X240166Y618387D01*
X239797Y618662D01*
X239422Y618928D01*
X239040Y619185D01*
X238652Y619432D01*
X238258Y619671D01*
X237858Y619899D01*
X237453Y620118D01*
X237043Y620327D01*
X236628Y620526D01*
X236208Y620715D01*
X235784Y620894D01*
X235355Y621062D01*
X234923Y621220D01*
X234487Y621368D01*
X234047Y621505D01*
X233605Y621631D01*
X233159Y621746D01*
X232711Y621851D01*
X232260Y621945D01*
X231807Y622028D01*
X231353Y622100D01*
X230896Y622161D01*
X230439Y622211D01*
X229980Y622250D01*
X229520Y622278D01*
X229060Y622294D01*
X228600Y622300D01*
X189000Y622300D01*
X188937Y622298D01*
X188873Y622292D01*
X188811Y622283D01*
X188749Y622269D01*
X188688Y622252D01*
X188628Y622232D01*
X188569Y622207D01*
X188512Y622180D01*
X188457Y622149D01*
X188404Y622114D01*
X188352Y622077D01*
X188304Y622036D01*
X188258Y621992D01*
X188214Y621946D01*
X188173Y621898D01*
X188136Y621846D01*
X188101Y621793D01*
X188070Y621738D01*
X188043Y621681D01*
X188018Y621622D01*
X187998Y621562D01*
X187981Y621501D01*
X187967Y621439D01*
X187958Y621377D01*
X187952Y621313D01*
X187950Y621250D01*
D22*
X622300Y88900D02*
X728825Y88900D01*
X622300Y88900D02*
X620152Y88926D01*
X618005Y89004D01*
X615861Y89134D01*
X613720Y89315D01*
X611584Y89548D01*
X609455Y89833D01*
X607333Y90169D01*
X605220Y90556D01*
X603117Y90994D01*
X601025Y91483D01*
X598945Y92023D01*
X596879Y92612D01*
X594828Y93251D01*
X592793Y93940D01*
X590776Y94677D01*
X588776Y95463D01*
X586796Y96297D01*
X584837Y97179D01*
X582900Y98108D01*
X580986Y99083D01*
X579096Y100104D01*
X577231Y101171D01*
X575393Y102282D01*
X573582Y103438D01*
X571799Y104637D01*
X570046Y105878D01*
X568323Y107162D01*
X566632Y108487D01*
X564974Y109852D01*
X563348Y111257D01*
X561758Y112701D01*
X560202Y114183D01*
X558683Y115702D01*
X557201Y117258D01*
X555757Y118848D01*
X554352Y120474D01*
X552987Y122132D01*
X551662Y123823D01*
X550378Y125546D01*
X549137Y127299D01*
X547938Y129082D01*
X546782Y130893D01*
X545671Y132731D01*
X544604Y134596D01*
X543583Y136486D01*
X542608Y138400D01*
X541679Y140337D01*
X540797Y142296D01*
X539963Y144276D01*
X539177Y146276D01*
X538440Y148293D01*
X537751Y150328D01*
X537112Y152379D01*
X536523Y154445D01*
X535983Y156525D01*
X535494Y158617D01*
X535056Y160720D01*
X534669Y162833D01*
X534333Y164955D01*
X534048Y167084D01*
X533815Y169220D01*
X533634Y171361D01*
X533504Y173505D01*
X533426Y175652D01*
X533400Y177800D01*
X533400Y427355D01*
X533402Y427402D01*
X533407Y427450D01*
X533416Y427496D01*
X533428Y427542D01*
X533444Y427587D01*
X533463Y427631D01*
X533485Y427673D01*
X533510Y427713D01*
X533539Y427751D01*
X533570Y427787D01*
X533603Y427820D01*
X533639Y427851D01*
X533677Y427880D01*
X533718Y427905D01*
X533759Y427927D01*
X533803Y427946D01*
X533848Y427962D01*
X533894Y427974D01*
X533940Y427983D01*
X533988Y427988D01*
X534035Y427990D01*
X559435Y427990D01*
D21*
X463550Y552450D02*
X463546Y552757D01*
X463535Y553064D01*
X463517Y553370D01*
X463491Y553676D01*
X463457Y553981D01*
X463417Y554285D01*
X463369Y554588D01*
X463313Y554890D01*
X463251Y555190D01*
X463181Y555489D01*
X463104Y555786D01*
X463020Y556082D01*
X462928Y556375D01*
X462830Y556665D01*
X462725Y556953D01*
X462612Y557239D01*
X462493Y557522D01*
X462367Y557802D01*
X462235Y558079D01*
X462095Y558352D01*
X461949Y558622D01*
X461797Y558888D01*
X461638Y559151D01*
X461473Y559410D01*
X461302Y559664D01*
X461125Y559915D01*
X460941Y560161D01*
X460752Y560403D01*
X460557Y560639D01*
X460356Y560872D01*
X460150Y561099D01*
X459938Y561321D01*
X459721Y561538D01*
X459499Y561750D01*
X459272Y561956D01*
X459039Y562157D01*
X458803Y562352D01*
X458561Y562541D01*
X458315Y562725D01*
X458064Y562902D01*
X457810Y563073D01*
X457551Y563238D01*
X457288Y563397D01*
X457022Y563549D01*
X456752Y563695D01*
X456479Y563835D01*
X456202Y563967D01*
X455922Y564093D01*
X455639Y564212D01*
X455353Y564325D01*
X455065Y564430D01*
X454775Y564528D01*
X454482Y564620D01*
X454186Y564704D01*
X453889Y564781D01*
X453590Y564851D01*
X453290Y564913D01*
X452988Y564969D01*
X452685Y565017D01*
X452381Y565057D01*
X452076Y565091D01*
X451770Y565117D01*
X451464Y565135D01*
X451157Y565146D01*
X450850Y565150D01*
X463550Y552450D02*
X463550Y393700D01*
X463546Y393393D01*
X463535Y393086D01*
X463517Y392780D01*
X463491Y392474D01*
X463457Y392169D01*
X463417Y391865D01*
X463369Y391562D01*
X463313Y391260D01*
X463251Y390960D01*
X463181Y390661D01*
X463104Y390364D01*
X463020Y390068D01*
X462928Y389775D01*
X462830Y389485D01*
X462725Y389197D01*
X462612Y388911D01*
X462493Y388628D01*
X462367Y388348D01*
X462235Y388071D01*
X462095Y387798D01*
X461949Y387528D01*
X461797Y387262D01*
X461638Y386999D01*
X461473Y386740D01*
X461302Y386486D01*
X461125Y386235D01*
X460941Y385989D01*
X460752Y385747D01*
X460557Y385511D01*
X460356Y385278D01*
X460150Y385051D01*
X459938Y384829D01*
X459721Y384612D01*
X459499Y384400D01*
X459272Y384194D01*
X459039Y383993D01*
X458803Y383798D01*
X458561Y383609D01*
X458315Y383425D01*
X458064Y383248D01*
X457810Y383077D01*
X457551Y382912D01*
X457288Y382753D01*
X457022Y382601D01*
X456752Y382455D01*
X456479Y382315D01*
X456202Y382183D01*
X455922Y382057D01*
X455639Y381938D01*
X455353Y381825D01*
X455065Y381720D01*
X454775Y381622D01*
X454482Y381530D01*
X454186Y381446D01*
X453889Y381369D01*
X453590Y381299D01*
X453290Y381237D01*
X452988Y381181D01*
X452685Y381133D01*
X452381Y381093D01*
X452076Y381059D01*
X451770Y381033D01*
X451464Y381015D01*
X451157Y381004D01*
X450850Y381000D01*
X349250Y381000D01*
X412750Y565150D02*
X450850Y565150D01*
X438150Y406400D02*
X349250Y406400D01*
X438150Y406400D02*
X438457Y406404D01*
X438764Y406415D01*
X439070Y406433D01*
X439376Y406459D01*
X439681Y406493D01*
X439985Y406533D01*
X440288Y406581D01*
X440590Y406637D01*
X440890Y406699D01*
X441189Y406769D01*
X441486Y406846D01*
X441782Y406930D01*
X442075Y407022D01*
X442365Y407120D01*
X442653Y407225D01*
X442939Y407338D01*
X443222Y407457D01*
X443502Y407583D01*
X443779Y407715D01*
X444052Y407855D01*
X444322Y408001D01*
X444588Y408153D01*
X444851Y408312D01*
X445110Y408477D01*
X445364Y408648D01*
X445615Y408825D01*
X445861Y409009D01*
X446103Y409198D01*
X446339Y409393D01*
X446572Y409594D01*
X446799Y409800D01*
X447021Y410012D01*
X447238Y410229D01*
X447450Y410451D01*
X447656Y410678D01*
X447857Y410911D01*
X448052Y411147D01*
X448241Y411389D01*
X448425Y411635D01*
X448602Y411886D01*
X448773Y412140D01*
X448938Y412399D01*
X449097Y412662D01*
X449249Y412928D01*
X449395Y413198D01*
X449535Y413471D01*
X449667Y413748D01*
X449793Y414028D01*
X449912Y414311D01*
X450025Y414597D01*
X450130Y414885D01*
X450228Y415175D01*
X450320Y415468D01*
X450404Y415764D01*
X450481Y416061D01*
X450551Y416360D01*
X450613Y416660D01*
X450669Y416962D01*
X450717Y417265D01*
X450757Y417569D01*
X450791Y417874D01*
X450817Y418180D01*
X450835Y418486D01*
X450846Y418793D01*
X450850Y419100D01*
X450850Y527050D01*
X450846Y527357D01*
X450835Y527664D01*
X450817Y527970D01*
X450791Y528276D01*
X450757Y528581D01*
X450717Y528885D01*
X450669Y529188D01*
X450613Y529490D01*
X450551Y529790D01*
X450481Y530089D01*
X450404Y530386D01*
X450320Y530682D01*
X450228Y530975D01*
X450130Y531265D01*
X450025Y531553D01*
X449912Y531839D01*
X449793Y532122D01*
X449667Y532402D01*
X449535Y532679D01*
X449395Y532952D01*
X449249Y533222D01*
X449097Y533488D01*
X448938Y533751D01*
X448773Y534010D01*
X448602Y534264D01*
X448425Y534515D01*
X448241Y534761D01*
X448052Y535003D01*
X447857Y535239D01*
X447656Y535472D01*
X447450Y535699D01*
X447238Y535921D01*
X447021Y536138D01*
X446799Y536350D01*
X446572Y536556D01*
X446339Y536757D01*
X446103Y536952D01*
X445861Y537141D01*
X445615Y537325D01*
X445364Y537502D01*
X445110Y537673D01*
X444851Y537838D01*
X444588Y537997D01*
X444322Y538149D01*
X444052Y538295D01*
X443779Y538435D01*
X443502Y538567D01*
X443222Y538693D01*
X442939Y538812D01*
X442653Y538925D01*
X442365Y539030D01*
X442075Y539128D01*
X441782Y539220D01*
X441486Y539304D01*
X441189Y539381D01*
X440890Y539451D01*
X440590Y539513D01*
X440288Y539569D01*
X439985Y539617D01*
X439681Y539657D01*
X439376Y539691D01*
X439070Y539717D01*
X438764Y539735D01*
X438457Y539746D01*
X438150Y539750D01*
X412750Y539750D01*
X298450Y501650D02*
X298450Y393700D01*
X298450Y501650D02*
X361950Y501650D01*
X361950Y552450D02*
X311150Y552450D01*
X310843Y552446D01*
X310536Y552435D01*
X310230Y552417D01*
X309924Y552391D01*
X309619Y552357D01*
X309315Y552317D01*
X309012Y552269D01*
X308710Y552213D01*
X308410Y552151D01*
X308111Y552081D01*
X307814Y552004D01*
X307518Y551920D01*
X307225Y551828D01*
X306935Y551730D01*
X306647Y551625D01*
X306361Y551512D01*
X306078Y551393D01*
X305798Y551267D01*
X305521Y551135D01*
X305248Y550995D01*
X304978Y550849D01*
X304712Y550697D01*
X304449Y550538D01*
X304190Y550373D01*
X303936Y550202D01*
X303685Y550025D01*
X303439Y549841D01*
X303197Y549652D01*
X302961Y549457D01*
X302728Y549256D01*
X302501Y549050D01*
X302279Y548838D01*
X302062Y548621D01*
X301850Y548399D01*
X301644Y548172D01*
X301443Y547939D01*
X301248Y547703D01*
X301059Y547461D01*
X300875Y547215D01*
X300698Y546964D01*
X300527Y546710D01*
X300362Y546451D01*
X300203Y546188D01*
X300051Y545922D01*
X299905Y545652D01*
X299765Y545379D01*
X299633Y545102D01*
X299507Y544822D01*
X299388Y544539D01*
X299275Y544253D01*
X299170Y543965D01*
X299072Y543675D01*
X298980Y543382D01*
X298896Y543086D01*
X298819Y542789D01*
X298749Y542490D01*
X298687Y542190D01*
X298631Y541888D01*
X298583Y541585D01*
X298543Y541281D01*
X298509Y540976D01*
X298483Y540670D01*
X298465Y540364D01*
X298454Y540057D01*
X298450Y539750D01*
X298450Y444500D01*
X349250Y431800D02*
X425450Y431800D01*
X425757Y431804D01*
X426064Y431815D01*
X426370Y431833D01*
X426676Y431859D01*
X426981Y431893D01*
X427285Y431933D01*
X427588Y431981D01*
X427890Y432037D01*
X428190Y432099D01*
X428489Y432169D01*
X428786Y432246D01*
X429082Y432330D01*
X429375Y432422D01*
X429665Y432520D01*
X429953Y432625D01*
X430239Y432738D01*
X430522Y432857D01*
X430802Y432983D01*
X431079Y433115D01*
X431352Y433255D01*
X431622Y433401D01*
X431888Y433553D01*
X432151Y433712D01*
X432410Y433877D01*
X432664Y434048D01*
X432915Y434225D01*
X433161Y434409D01*
X433403Y434598D01*
X433639Y434793D01*
X433872Y434994D01*
X434099Y435200D01*
X434321Y435412D01*
X434538Y435629D01*
X434750Y435851D01*
X434956Y436078D01*
X435157Y436311D01*
X435352Y436547D01*
X435541Y436789D01*
X435725Y437035D01*
X435902Y437286D01*
X436073Y437540D01*
X436238Y437799D01*
X436397Y438062D01*
X436549Y438328D01*
X436695Y438598D01*
X436835Y438871D01*
X436967Y439148D01*
X437093Y439428D01*
X437212Y439711D01*
X437325Y439997D01*
X437430Y440285D01*
X437528Y440575D01*
X437620Y440868D01*
X437704Y441164D01*
X437781Y441461D01*
X437851Y441760D01*
X437913Y442060D01*
X437969Y442362D01*
X438017Y442665D01*
X438057Y442969D01*
X438091Y443274D01*
X438117Y443580D01*
X438135Y443886D01*
X438146Y444193D01*
X438150Y444500D01*
X438150Y508000D01*
X438148Y508158D01*
X438142Y508317D01*
X438132Y508475D01*
X438118Y508632D01*
X438101Y508790D01*
X438079Y508946D01*
X438054Y509103D01*
X438024Y509258D01*
X437991Y509413D01*
X437954Y509567D01*
X437913Y509720D01*
X437868Y509872D01*
X437819Y510022D01*
X437767Y510172D01*
X437711Y510320D01*
X437651Y510467D01*
X437588Y510612D01*
X437521Y510755D01*
X437451Y510897D01*
X437377Y511037D01*
X437299Y511175D01*
X437218Y511311D01*
X437134Y511445D01*
X437047Y511577D01*
X436956Y511707D01*
X436862Y511834D01*
X436765Y511959D01*
X436664Y512082D01*
X436561Y512202D01*
X436455Y512319D01*
X436346Y512434D01*
X436234Y512546D01*
X436119Y512655D01*
X436002Y512761D01*
X435882Y512864D01*
X435759Y512965D01*
X435634Y513062D01*
X435507Y513156D01*
X435377Y513247D01*
X435245Y513334D01*
X435111Y513418D01*
X434975Y513499D01*
X434837Y513577D01*
X434697Y513651D01*
X434555Y513721D01*
X434412Y513788D01*
X434267Y513851D01*
X434120Y513911D01*
X433972Y513967D01*
X433822Y514019D01*
X433672Y514068D01*
X433520Y514113D01*
X433367Y514154D01*
X433213Y514191D01*
X433058Y514224D01*
X432903Y514254D01*
X432746Y514279D01*
X432590Y514301D01*
X432432Y514318D01*
X432275Y514332D01*
X432117Y514342D01*
X431958Y514348D01*
X431800Y514350D01*
X412750Y514350D01*
X400050Y457200D02*
X349250Y457200D01*
X400050Y457200D02*
X400357Y457204D01*
X400664Y457215D01*
X400970Y457233D01*
X401276Y457259D01*
X401581Y457293D01*
X401885Y457333D01*
X402188Y457381D01*
X402490Y457437D01*
X402790Y457499D01*
X403089Y457569D01*
X403386Y457646D01*
X403682Y457730D01*
X403975Y457822D01*
X404265Y457920D01*
X404553Y458025D01*
X404839Y458138D01*
X405122Y458257D01*
X405402Y458383D01*
X405679Y458515D01*
X405952Y458655D01*
X406222Y458801D01*
X406488Y458953D01*
X406751Y459112D01*
X407010Y459277D01*
X407264Y459448D01*
X407515Y459625D01*
X407761Y459809D01*
X408003Y459998D01*
X408239Y460193D01*
X408472Y460394D01*
X408699Y460600D01*
X408921Y460812D01*
X409138Y461029D01*
X409350Y461251D01*
X409556Y461478D01*
X409757Y461711D01*
X409952Y461947D01*
X410141Y462189D01*
X410325Y462435D01*
X410502Y462686D01*
X410673Y462940D01*
X410838Y463199D01*
X410997Y463462D01*
X411149Y463728D01*
X411295Y463998D01*
X411435Y464271D01*
X411567Y464548D01*
X411693Y464828D01*
X411812Y465111D01*
X411925Y465397D01*
X412030Y465685D01*
X412128Y465975D01*
X412220Y466268D01*
X412304Y466564D01*
X412381Y466861D01*
X412451Y467160D01*
X412513Y467460D01*
X412569Y467762D01*
X412617Y468065D01*
X412657Y468369D01*
X412691Y468674D01*
X412717Y468980D01*
X412735Y469286D01*
X412746Y469593D01*
X412750Y469900D01*
X412750Y488950D01*
M02*
