G04 EAGLE Gerber RS-274X export*
G75*
%MOMM*%
%FSLAX34Y34*%
%LPD*%
%INTop Copper*%
%IPPOS*%
%AMOC8*
5,1,8,0,0,1.08239X$1,22.5*%
G01*
%ADD10R,1.524000X1.524000*%
%ADD11C,1.524000*%
%ADD12R,1.408000X1.408000*%
%ADD13P,2.110661X8X22.500000*%
%ADD14R,1.500000X1.300000*%
%ADD15C,2.184400*%
%ADD16P,1.429621X8X202.500000*%
%ADD17R,1.600000X1.300000*%
%ADD18C,2.000000*%
%ADD19R,2.000000X2.000000*%
%ADD20R,5.080000X2.540000*%
%ADD21R,2.540000X1.270000*%
%ADD22P,1.732040X8X22.500000*%
%ADD23C,0.406400*%
%ADD24C,0.756400*%
%ADD25C,1.016000*%

G36*
X806724Y21213D02*
X806724Y21213D01*
X806743Y21211D01*
X806845Y21233D01*
X806947Y21249D01*
X806964Y21259D01*
X806984Y21263D01*
X807073Y21316D01*
X807164Y21365D01*
X807178Y21379D01*
X807195Y21389D01*
X807262Y21468D01*
X807334Y21543D01*
X807342Y21561D01*
X807355Y21576D01*
X807394Y21672D01*
X807437Y21766D01*
X807439Y21786D01*
X807447Y21804D01*
X807465Y21971D01*
X807465Y139954D01*
X807462Y139974D01*
X807464Y139993D01*
X807442Y140095D01*
X807426Y140197D01*
X807416Y140214D01*
X807412Y140234D01*
X807359Y140323D01*
X807310Y140414D01*
X807296Y140428D01*
X807286Y140445D01*
X807207Y140512D01*
X807132Y140584D01*
X807114Y140592D01*
X807099Y140605D01*
X807003Y140644D01*
X806909Y140687D01*
X806889Y140689D01*
X806871Y140697D01*
X806704Y140715D01*
X674127Y140715D01*
X674085Y140708D01*
X674041Y140710D01*
X673897Y140677D01*
X673885Y140676D01*
X673882Y140674D01*
X673878Y140673D01*
X673846Y140662D01*
X672966Y140714D01*
X672949Y140712D01*
X672921Y140715D01*
X672039Y140715D01*
X672008Y140728D01*
X671966Y140738D01*
X671926Y140757D01*
X671780Y140782D01*
X671768Y140784D01*
X671765Y140784D01*
X671761Y140785D01*
X667669Y141026D01*
X658120Y144761D01*
X650193Y151265D01*
X646532Y156983D01*
X646474Y157047D01*
X646422Y157117D01*
X646392Y157138D01*
X646367Y157166D01*
X646292Y157208D01*
X646220Y157258D01*
X646185Y157269D01*
X646153Y157287D01*
X646068Y157303D01*
X645984Y157328D01*
X645948Y157326D01*
X645912Y157333D01*
X645825Y157321D01*
X645739Y157318D01*
X645704Y157305D01*
X645668Y157300D01*
X645590Y157261D01*
X645509Y157231D01*
X645480Y157207D01*
X645447Y157191D01*
X645386Y157130D01*
X645319Y157074D01*
X645292Y157036D01*
X645273Y157017D01*
X645259Y156990D01*
X645222Y156937D01*
X644698Y155976D01*
X644685Y155941D01*
X644665Y155909D01*
X644648Y155837D01*
X644584Y155752D01*
X644569Y155723D01*
X644525Y155660D01*
X644486Y155588D01*
X644484Y155587D01*
X644369Y155464D01*
X641731Y151940D01*
X641714Y151907D01*
X641689Y151879D01*
X641661Y151809D01*
X641587Y151735D01*
X641568Y151708D01*
X641516Y151653D01*
X641466Y151586D01*
X641463Y151585D01*
X641332Y151480D01*
X638220Y148368D01*
X638198Y148337D01*
X638170Y148313D01*
X638132Y148248D01*
X638048Y148185D01*
X638047Y148184D01*
X638046Y148184D01*
X638025Y148161D01*
X637965Y148113D01*
X637907Y148055D01*
X637904Y148054D01*
X637760Y147969D01*
X634236Y145331D01*
X634210Y145304D01*
X634179Y145284D01*
X634132Y145225D01*
X634040Y145175D01*
X634014Y145154D01*
X633948Y145116D01*
X633882Y145066D01*
X633879Y145066D01*
X633724Y145002D01*
X629860Y142893D01*
X629831Y142870D01*
X629797Y142854D01*
X629743Y142802D01*
X629644Y142765D01*
X629615Y142749D01*
X629545Y142720D01*
X629472Y142681D01*
X629470Y142681D01*
X629307Y142640D01*
X625182Y141101D01*
X625150Y141083D01*
X625114Y141072D01*
X625053Y141029D01*
X624950Y141006D01*
X624919Y140994D01*
X624846Y140976D01*
X624768Y140947D01*
X624766Y140947D01*
X624599Y140930D01*
X624594Y140929D01*
X620297Y139994D01*
X620263Y139981D01*
X620226Y139975D01*
X620159Y139941D01*
X620054Y139933D01*
X620022Y139926D01*
X619946Y139918D01*
X619865Y139900D01*
X619863Y139901D01*
X619695Y139908D01*
X615304Y139594D01*
X615268Y139585D01*
X615231Y139585D01*
X615160Y139561D01*
X615054Y139568D01*
X615022Y139565D01*
X614946Y139568D01*
X614863Y139562D01*
X614861Y139563D01*
X614696Y139594D01*
X610305Y139908D01*
X610268Y139904D01*
X610231Y139909D01*
X610157Y139895D01*
X610054Y139918D01*
X610021Y139920D01*
X609946Y139933D01*
X609864Y139939D01*
X609862Y139941D01*
X609703Y139994D01*
X606424Y140708D01*
X605401Y140930D01*
X605364Y140932D01*
X605328Y140942D01*
X605254Y140939D01*
X605154Y140976D01*
X605122Y140982D01*
X605050Y141006D01*
X604969Y141024D01*
X604967Y141026D01*
X604818Y141101D01*
X600693Y142640D01*
X600657Y142647D01*
X600623Y142662D01*
X600548Y142670D01*
X600455Y142720D01*
X600424Y142731D01*
X600356Y142765D01*
X600279Y142794D01*
X600277Y142796D01*
X600140Y142893D01*
X596276Y145002D01*
X596241Y145015D01*
X596209Y145035D01*
X596137Y145052D01*
X596052Y145116D01*
X596023Y145131D01*
X595960Y145175D01*
X595888Y145214D01*
X595887Y145216D01*
X595764Y145331D01*
X592240Y147969D01*
X592207Y147986D01*
X592179Y148011D01*
X592109Y148039D01*
X592035Y148113D01*
X592008Y148132D01*
X591952Y148185D01*
X591886Y148234D01*
X591885Y148237D01*
X591780Y148368D01*
X588668Y151480D01*
X588637Y151502D01*
X588613Y151530D01*
X588548Y151568D01*
X588485Y151652D01*
X588461Y151675D01*
X588413Y151735D01*
X588355Y151793D01*
X588354Y151796D01*
X588269Y151940D01*
X585631Y155464D01*
X585604Y155490D01*
X585584Y155521D01*
X585525Y155568D01*
X585475Y155660D01*
X585454Y155686D01*
X585416Y155752D01*
X585366Y155818D01*
X585366Y155821D01*
X585302Y155976D01*
X583193Y159840D01*
X583170Y159869D01*
X583154Y159903D01*
X583102Y159957D01*
X583065Y160056D01*
X583049Y160085D01*
X583020Y160155D01*
X582981Y160228D01*
X582981Y160230D01*
X582940Y160393D01*
X581401Y164518D01*
X581383Y164550D01*
X581372Y164586D01*
X581329Y164647D01*
X581306Y164750D01*
X581294Y164781D01*
X581276Y164854D01*
X581247Y164932D01*
X581247Y164934D01*
X581230Y165101D01*
X580294Y169403D01*
X580281Y169437D01*
X580275Y169475D01*
X580241Y169541D01*
X580233Y169646D01*
X580226Y169678D01*
X580218Y169754D01*
X580200Y169835D01*
X580201Y169837D01*
X580208Y170005D01*
X579894Y174396D01*
X579885Y174432D01*
X579885Y174469D01*
X579861Y174540D01*
X579868Y174646D01*
X579865Y174678D01*
X579868Y174754D01*
X579862Y174837D01*
X579863Y174839D01*
X579894Y175004D01*
X580208Y179395D01*
X580204Y179432D01*
X580209Y179469D01*
X580195Y179543D01*
X580218Y179646D01*
X580220Y179679D01*
X580233Y179754D01*
X580239Y179836D01*
X580241Y179838D01*
X580294Y179997D01*
X581230Y184299D01*
X581232Y184336D01*
X581242Y184372D01*
X581239Y184446D01*
X581276Y184546D01*
X581282Y184578D01*
X581306Y184650D01*
X581324Y184731D01*
X581326Y184733D01*
X581401Y184882D01*
X582940Y189007D01*
X582947Y189043D01*
X582962Y189077D01*
X582970Y189152D01*
X583020Y189245D01*
X583031Y189276D01*
X583065Y189344D01*
X583094Y189421D01*
X583096Y189423D01*
X583193Y189560D01*
X585302Y193424D01*
X585315Y193459D01*
X585335Y193491D01*
X585352Y193563D01*
X585416Y193648D01*
X585431Y193677D01*
X585475Y193740D01*
X585514Y193812D01*
X585516Y193813D01*
X585631Y193936D01*
X588269Y197460D01*
X588286Y197493D01*
X588311Y197521D01*
X588339Y197591D01*
X588413Y197665D01*
X588432Y197692D01*
X588485Y197748D01*
X588534Y197814D01*
X588537Y197815D01*
X588668Y197920D01*
X591780Y201032D01*
X591802Y201063D01*
X591830Y201087D01*
X591868Y201152D01*
X591952Y201215D01*
X591975Y201239D01*
X592035Y201287D01*
X592093Y201345D01*
X592096Y201346D01*
X592240Y201431D01*
X595764Y204069D01*
X595790Y204096D01*
X595821Y204116D01*
X595868Y204175D01*
X595960Y204225D01*
X595986Y204246D01*
X596052Y204284D01*
X596118Y204334D01*
X596121Y204334D01*
X596276Y204398D01*
X600140Y206507D01*
X600169Y206530D01*
X600203Y206546D01*
X600257Y206598D01*
X600356Y206635D01*
X600385Y206651D01*
X600455Y206680D01*
X600528Y206719D01*
X600530Y206719D01*
X600693Y206760D01*
X604818Y208299D01*
X604850Y208317D01*
X604886Y208328D01*
X604947Y208371D01*
X605050Y208394D01*
X605081Y208406D01*
X605154Y208424D01*
X605232Y208453D01*
X605234Y208453D01*
X605401Y208470D01*
X605406Y208471D01*
X609703Y209406D01*
X609737Y209419D01*
X609775Y209425D01*
X609841Y209459D01*
X609946Y209467D01*
X609978Y209474D01*
X610054Y209482D01*
X610135Y209500D01*
X610137Y209499D01*
X610305Y209492D01*
X614696Y209806D01*
X614732Y209815D01*
X614769Y209815D01*
X614840Y209839D01*
X614946Y209832D01*
X614978Y209835D01*
X615054Y209832D01*
X615137Y209838D01*
X615139Y209837D01*
X615304Y209806D01*
X619695Y209492D01*
X619732Y209496D01*
X619769Y209491D01*
X619843Y209505D01*
X619946Y209482D01*
X619979Y209480D01*
X620054Y209467D01*
X620136Y209461D01*
X620138Y209459D01*
X620297Y209406D01*
X620981Y209257D01*
X624599Y208470D01*
X624636Y208468D01*
X624672Y208458D01*
X624746Y208461D01*
X624846Y208424D01*
X624878Y208418D01*
X624950Y208394D01*
X625031Y208376D01*
X625033Y208374D01*
X625182Y208299D01*
X629307Y206760D01*
X629343Y206753D01*
X629377Y206738D01*
X629452Y206730D01*
X629545Y206680D01*
X629576Y206669D01*
X629644Y206635D01*
X629721Y206606D01*
X629723Y206604D01*
X629860Y206507D01*
X633724Y204398D01*
X633759Y204385D01*
X633791Y204365D01*
X633863Y204348D01*
X633948Y204284D01*
X633977Y204269D01*
X634040Y204225D01*
X634112Y204186D01*
X634113Y204184D01*
X634236Y204069D01*
X637760Y201431D01*
X637793Y201414D01*
X637821Y201389D01*
X637891Y201361D01*
X637965Y201287D01*
X637992Y201268D01*
X638048Y201215D01*
X638114Y201166D01*
X638115Y201163D01*
X638220Y201032D01*
X641066Y198186D01*
X641124Y198144D01*
X641176Y198095D01*
X641223Y198073D01*
X641265Y198043D01*
X641334Y198022D01*
X641399Y197991D01*
X641451Y197986D01*
X641501Y197970D01*
X641572Y197972D01*
X641643Y197964D01*
X641694Y197975D01*
X641746Y197977D01*
X641814Y198001D01*
X641884Y198017D01*
X641928Y198043D01*
X641977Y198061D01*
X642033Y198106D01*
X642095Y198143D01*
X642129Y198182D01*
X642169Y198215D01*
X642208Y198275D01*
X642255Y198330D01*
X642274Y198378D01*
X642302Y198422D01*
X642320Y198491D01*
X642347Y198558D01*
X642355Y198629D01*
X642363Y198660D01*
X642361Y198684D01*
X642365Y198725D01*
X642365Y322368D01*
X645374Y331627D01*
X651096Y339504D01*
X658973Y345226D01*
X668232Y348235D01*
X679704Y348235D01*
X679724Y348238D01*
X679743Y348236D01*
X679845Y348258D01*
X679947Y348274D01*
X679964Y348284D01*
X679984Y348288D01*
X680073Y348341D01*
X680164Y348390D01*
X680178Y348404D01*
X680195Y348414D01*
X680262Y348493D01*
X680334Y348568D01*
X680342Y348586D01*
X680355Y348601D01*
X680394Y348697D01*
X680437Y348791D01*
X680439Y348811D01*
X680447Y348829D01*
X680465Y348996D01*
X680465Y673100D01*
X680462Y673122D01*
X680463Y673160D01*
X680225Y676180D01*
X680224Y676185D01*
X680224Y676191D01*
X680190Y676355D01*
X678324Y682099D01*
X678308Y682131D01*
X678299Y682166D01*
X678216Y682311D01*
X674666Y687197D01*
X674640Y687223D01*
X674621Y687253D01*
X674497Y687366D01*
X669611Y690916D01*
X669579Y690932D01*
X669552Y690955D01*
X669399Y691024D01*
X663655Y692890D01*
X663649Y692891D01*
X663644Y692894D01*
X663480Y692925D01*
X660460Y693163D01*
X660438Y693161D01*
X660400Y693165D01*
X637730Y693165D01*
X637728Y693165D01*
X637725Y693165D01*
X637606Y693145D01*
X637487Y693126D01*
X637485Y693124D01*
X637483Y693124D01*
X637373Y693065D01*
X637270Y693010D01*
X637268Y693009D01*
X637266Y693007D01*
X637181Y692917D01*
X637101Y692832D01*
X637100Y692830D01*
X637098Y692828D01*
X637048Y692718D01*
X636997Y692609D01*
X636997Y692607D01*
X636996Y692604D01*
X636983Y692483D01*
X636970Y692365D01*
X636970Y692362D01*
X636970Y692360D01*
X636997Y692242D01*
X637022Y692124D01*
X637023Y692122D01*
X637024Y692120D01*
X637087Y692016D01*
X637148Y691913D01*
X637150Y691911D01*
X637151Y691909D01*
X637274Y691795D01*
X637760Y691431D01*
X637793Y691414D01*
X637821Y691389D01*
X637891Y691361D01*
X637965Y691287D01*
X637992Y691268D01*
X638048Y691215D01*
X638114Y691166D01*
X638115Y691163D01*
X638220Y691032D01*
X641332Y687920D01*
X641363Y687898D01*
X641387Y687870D01*
X641452Y687832D01*
X641515Y687748D01*
X641539Y687725D01*
X641587Y687665D01*
X641645Y687607D01*
X641646Y687604D01*
X641731Y687460D01*
X644369Y683936D01*
X644396Y683910D01*
X644416Y683879D01*
X644475Y683832D01*
X644525Y683740D01*
X644546Y683714D01*
X644584Y683648D01*
X644634Y683582D01*
X644634Y683579D01*
X644698Y683424D01*
X646807Y679560D01*
X646830Y679531D01*
X646846Y679497D01*
X646898Y679443D01*
X646935Y679344D01*
X646951Y679315D01*
X646980Y679245D01*
X647019Y679172D01*
X647019Y679170D01*
X647060Y679007D01*
X648599Y674883D01*
X648617Y674850D01*
X648628Y674815D01*
X648671Y674753D01*
X648694Y674650D01*
X648706Y674619D01*
X648724Y674546D01*
X648753Y674468D01*
X648753Y674466D01*
X648770Y674299D01*
X649706Y669997D01*
X649719Y669963D01*
X649725Y669926D01*
X649759Y669859D01*
X649767Y669754D01*
X649774Y669722D01*
X649782Y669646D01*
X649800Y669565D01*
X649799Y669563D01*
X649792Y669395D01*
X650106Y665004D01*
X650115Y664968D01*
X650115Y664931D01*
X650139Y664860D01*
X650132Y664754D01*
X650135Y664722D01*
X650132Y664646D01*
X650138Y664563D01*
X650137Y664561D01*
X650106Y664396D01*
X649792Y660005D01*
X649796Y659968D01*
X649791Y659931D01*
X649805Y659857D01*
X649782Y659754D01*
X649780Y659721D01*
X649767Y659646D01*
X649761Y659564D01*
X649759Y659562D01*
X649706Y659403D01*
X648770Y655101D01*
X648768Y655064D01*
X648758Y655028D01*
X648761Y654954D01*
X648724Y654854D01*
X648718Y654822D01*
X648706Y654787D01*
X648700Y654775D01*
X648699Y654768D01*
X648694Y654750D01*
X648676Y654669D01*
X648674Y654667D01*
X648599Y654518D01*
X647060Y650393D01*
X647053Y650357D01*
X647038Y650323D01*
X647030Y650248D01*
X646980Y650155D01*
X646969Y650124D01*
X646935Y650056D01*
X646906Y649979D01*
X646904Y649977D01*
X646807Y649840D01*
X644698Y645976D01*
X644685Y645941D01*
X644665Y645909D01*
X644648Y645837D01*
X644584Y645752D01*
X644569Y645723D01*
X644525Y645660D01*
X644486Y645588D01*
X644484Y645587D01*
X644369Y645464D01*
X641731Y641940D01*
X641714Y641907D01*
X641689Y641879D01*
X641661Y641809D01*
X641587Y641735D01*
X641568Y641708D01*
X641516Y641653D01*
X641466Y641586D01*
X641463Y641585D01*
X641332Y641480D01*
X638220Y638368D01*
X638198Y638337D01*
X638170Y638313D01*
X638143Y638267D01*
X638127Y638250D01*
X638123Y638241D01*
X638048Y638185D01*
X638025Y638161D01*
X637965Y638113D01*
X637907Y638055D01*
X637904Y638054D01*
X637760Y637969D01*
X634236Y635331D01*
X634210Y635304D01*
X634179Y635284D01*
X634132Y635225D01*
X634040Y635175D01*
X634014Y635154D01*
X633948Y635116D01*
X633882Y635066D01*
X633879Y635066D01*
X633724Y635002D01*
X629860Y632893D01*
X629831Y632870D01*
X629797Y632854D01*
X629743Y632802D01*
X629644Y632765D01*
X629615Y632749D01*
X629545Y632720D01*
X629472Y632681D01*
X629470Y632681D01*
X629307Y632640D01*
X625182Y631101D01*
X625150Y631083D01*
X625114Y631072D01*
X625053Y631029D01*
X624950Y631006D01*
X624919Y630994D01*
X624846Y630976D01*
X624768Y630947D01*
X624766Y630947D01*
X624599Y630930D01*
X624594Y630929D01*
X620297Y629994D01*
X620263Y629981D01*
X620226Y629975D01*
X620159Y629941D01*
X620054Y629933D01*
X620022Y629926D01*
X619946Y629918D01*
X619865Y629900D01*
X619863Y629901D01*
X619695Y629908D01*
X615304Y629594D01*
X615268Y629585D01*
X615231Y629585D01*
X615160Y629561D01*
X615054Y629568D01*
X615022Y629565D01*
X614946Y629568D01*
X614863Y629562D01*
X614861Y629563D01*
X614696Y629594D01*
X610305Y629908D01*
X610268Y629904D01*
X610231Y629909D01*
X610157Y629895D01*
X610054Y629918D01*
X610021Y629920D01*
X609946Y629933D01*
X609864Y629939D01*
X609862Y629941D01*
X609703Y629994D01*
X605401Y630930D01*
X605364Y630932D01*
X605328Y630942D01*
X605254Y630939D01*
X605154Y630976D01*
X605122Y630982D01*
X605050Y631006D01*
X604969Y631024D01*
X604967Y631026D01*
X604818Y631101D01*
X600693Y632640D01*
X600657Y632647D01*
X600623Y632662D01*
X600548Y632670D01*
X600455Y632720D01*
X600424Y632731D01*
X600356Y632765D01*
X600279Y632794D01*
X600277Y632796D01*
X600140Y632893D01*
X596276Y635002D01*
X596241Y635015D01*
X596209Y635035D01*
X596137Y635052D01*
X596052Y635116D01*
X596023Y635131D01*
X595960Y635175D01*
X595888Y635214D01*
X595887Y635216D01*
X595764Y635331D01*
X592240Y637969D01*
X592207Y637986D01*
X592179Y638011D01*
X592109Y638039D01*
X592035Y638113D01*
X592008Y638132D01*
X591952Y638185D01*
X591886Y638234D01*
X591885Y638237D01*
X591827Y638309D01*
X591825Y638313D01*
X591822Y638316D01*
X591780Y638368D01*
X588668Y641480D01*
X588637Y641502D01*
X588613Y641530D01*
X588548Y641568D01*
X588485Y641652D01*
X588461Y641675D01*
X588413Y641735D01*
X588355Y641793D01*
X588354Y641796D01*
X588269Y641940D01*
X585631Y645464D01*
X585604Y645490D01*
X585584Y645521D01*
X585525Y645568D01*
X585475Y645660D01*
X585454Y645686D01*
X585416Y645752D01*
X585366Y645818D01*
X585366Y645821D01*
X585302Y645976D01*
X583193Y649840D01*
X583170Y649869D01*
X583154Y649903D01*
X583102Y649957D01*
X583065Y650056D01*
X583049Y650085D01*
X583020Y650155D01*
X582981Y650228D01*
X582981Y650230D01*
X582940Y650393D01*
X581401Y654518D01*
X581383Y654550D01*
X581372Y654586D01*
X581329Y654647D01*
X581306Y654750D01*
X581294Y654781D01*
X581276Y654854D01*
X581247Y654932D01*
X581247Y654934D01*
X581230Y655101D01*
X580294Y659403D01*
X580281Y659437D01*
X580275Y659474D01*
X580241Y659541D01*
X580233Y659646D01*
X580226Y659678D01*
X580218Y659754D01*
X580200Y659835D01*
X580201Y659837D01*
X580208Y660005D01*
X579894Y664396D01*
X579885Y664432D01*
X579885Y664469D01*
X579861Y664540D01*
X579868Y664646D01*
X579865Y664678D01*
X579868Y664754D01*
X579862Y664837D01*
X579863Y664839D01*
X579894Y665004D01*
X580208Y669395D01*
X580204Y669432D01*
X580209Y669469D01*
X580195Y669543D01*
X580218Y669646D01*
X580220Y669679D01*
X580233Y669754D01*
X580239Y669836D01*
X580241Y669838D01*
X580294Y669997D01*
X581230Y674299D01*
X581232Y674336D01*
X581242Y674372D01*
X581239Y674446D01*
X581276Y674546D01*
X581282Y674578D01*
X581306Y674650D01*
X581324Y674731D01*
X581326Y674733D01*
X581401Y674882D01*
X582940Y679007D01*
X582947Y679043D01*
X582962Y679077D01*
X582970Y679152D01*
X583020Y679245D01*
X583031Y679276D01*
X583065Y679344D01*
X583094Y679421D01*
X583096Y679423D01*
X583193Y679560D01*
X585302Y683424D01*
X585315Y683459D01*
X585335Y683491D01*
X585352Y683563D01*
X585416Y683648D01*
X585431Y683677D01*
X585475Y683740D01*
X585514Y683812D01*
X585516Y683813D01*
X585631Y683936D01*
X588269Y687460D01*
X588286Y687493D01*
X588311Y687521D01*
X588339Y687591D01*
X588413Y687665D01*
X588432Y687692D01*
X588485Y687748D01*
X588534Y687814D01*
X588537Y687815D01*
X588668Y687920D01*
X591780Y691032D01*
X591802Y691063D01*
X591830Y691087D01*
X591868Y691152D01*
X591952Y691215D01*
X591975Y691239D01*
X592035Y691287D01*
X592093Y691345D01*
X592096Y691346D01*
X592240Y691431D01*
X592726Y691795D01*
X592728Y691796D01*
X592730Y691798D01*
X592813Y691885D01*
X592897Y691972D01*
X592898Y691974D01*
X592899Y691976D01*
X592950Y692085D01*
X593002Y692194D01*
X593002Y692197D01*
X593003Y692199D01*
X593016Y692318D01*
X593030Y692439D01*
X593030Y692441D01*
X593030Y692443D01*
X593004Y692562D01*
X592980Y692679D01*
X592978Y692681D01*
X592978Y692684D01*
X592915Y692789D01*
X592855Y692891D01*
X592853Y692893D01*
X592852Y692895D01*
X592758Y692975D01*
X592669Y693052D01*
X592667Y693053D01*
X592665Y693055D01*
X592551Y693101D01*
X592441Y693146D01*
X592439Y693146D01*
X592437Y693147D01*
X592270Y693165D01*
X57730Y693165D01*
X57728Y693165D01*
X57725Y693165D01*
X57606Y693145D01*
X57487Y693126D01*
X57485Y693124D01*
X57483Y693124D01*
X57373Y693065D01*
X57270Y693010D01*
X57268Y693009D01*
X57266Y693007D01*
X57181Y692917D01*
X57101Y692832D01*
X57100Y692830D01*
X57098Y692828D01*
X57048Y692718D01*
X56997Y692609D01*
X56997Y692607D01*
X56996Y692604D01*
X56983Y692483D01*
X56970Y692365D01*
X56970Y692362D01*
X56970Y692360D01*
X56997Y692242D01*
X57022Y692124D01*
X57023Y692122D01*
X57024Y692120D01*
X57087Y692016D01*
X57148Y691913D01*
X57150Y691911D01*
X57151Y691909D01*
X57274Y691795D01*
X57760Y691431D01*
X57793Y691414D01*
X57821Y691389D01*
X57891Y691361D01*
X57965Y691287D01*
X57992Y691268D01*
X58048Y691215D01*
X58114Y691166D01*
X58115Y691163D01*
X58220Y691032D01*
X61332Y687920D01*
X61363Y687898D01*
X61387Y687870D01*
X61452Y687832D01*
X61515Y687748D01*
X61539Y687725D01*
X61587Y687665D01*
X61645Y687607D01*
X61646Y687604D01*
X61731Y687460D01*
X64369Y683936D01*
X64396Y683910D01*
X64416Y683879D01*
X64475Y683832D01*
X64526Y683739D01*
X64546Y683714D01*
X64584Y683648D01*
X64634Y683582D01*
X64634Y683579D01*
X64698Y683424D01*
X66807Y679560D01*
X66830Y679531D01*
X66846Y679497D01*
X66898Y679443D01*
X66935Y679344D01*
X66951Y679315D01*
X66980Y679245D01*
X67019Y679172D01*
X67019Y679170D01*
X67060Y679007D01*
X68599Y674882D01*
X68617Y674850D01*
X68628Y674814D01*
X68671Y674753D01*
X68694Y674650D01*
X68706Y674619D01*
X68724Y674546D01*
X68753Y674468D01*
X68753Y674466D01*
X68770Y674299D01*
X69706Y669997D01*
X69719Y669963D01*
X69725Y669926D01*
X69759Y669859D01*
X69767Y669754D01*
X69774Y669722D01*
X69782Y669646D01*
X69800Y669565D01*
X69799Y669563D01*
X69792Y669395D01*
X70106Y665004D01*
X70115Y664968D01*
X70115Y664931D01*
X70139Y664860D01*
X70132Y664754D01*
X70135Y664722D01*
X70132Y664646D01*
X70138Y664563D01*
X70137Y664561D01*
X70106Y664396D01*
X69792Y660005D01*
X69796Y659968D01*
X69791Y659931D01*
X69805Y659857D01*
X69782Y659754D01*
X69780Y659721D01*
X69767Y659646D01*
X69761Y659564D01*
X69759Y659562D01*
X69706Y659403D01*
X68770Y655101D01*
X68768Y655064D01*
X68758Y655028D01*
X68761Y654954D01*
X68724Y654854D01*
X68718Y654822D01*
X68706Y654787D01*
X68700Y654775D01*
X68699Y654768D01*
X68694Y654750D01*
X68676Y654669D01*
X68674Y654667D01*
X68599Y654518D01*
X67060Y650393D01*
X67053Y650357D01*
X67038Y650323D01*
X67030Y650248D01*
X66980Y650155D01*
X66969Y650124D01*
X66935Y650056D01*
X66906Y649979D01*
X66904Y649977D01*
X66807Y649840D01*
X64698Y645976D01*
X64685Y645941D01*
X64665Y645909D01*
X64648Y645837D01*
X64584Y645752D01*
X64569Y645723D01*
X64525Y645660D01*
X64486Y645588D01*
X64484Y645587D01*
X64369Y645464D01*
X61731Y641940D01*
X61714Y641907D01*
X61689Y641879D01*
X61661Y641809D01*
X61587Y641735D01*
X61568Y641708D01*
X61516Y641653D01*
X61466Y641586D01*
X61463Y641585D01*
X61332Y641480D01*
X58220Y638368D01*
X58198Y638337D01*
X58170Y638313D01*
X58143Y638267D01*
X58127Y638250D01*
X58123Y638241D01*
X58048Y638185D01*
X58025Y638161D01*
X57965Y638113D01*
X57907Y638055D01*
X57904Y638054D01*
X57760Y637969D01*
X54236Y635331D01*
X54210Y635304D01*
X54179Y635284D01*
X54132Y635225D01*
X54040Y635175D01*
X54014Y635154D01*
X53948Y635116D01*
X53882Y635066D01*
X53879Y635066D01*
X53724Y635002D01*
X49860Y632893D01*
X49831Y632870D01*
X49797Y632854D01*
X49743Y632802D01*
X49644Y632765D01*
X49615Y632749D01*
X49545Y632720D01*
X49472Y632681D01*
X49470Y632681D01*
X49307Y632640D01*
X45182Y631101D01*
X45150Y631083D01*
X45114Y631072D01*
X45053Y631029D01*
X44950Y631006D01*
X44919Y630994D01*
X44846Y630976D01*
X44768Y630947D01*
X44766Y630947D01*
X44599Y630930D01*
X44594Y630929D01*
X40297Y629994D01*
X40263Y629981D01*
X40226Y629975D01*
X40159Y629941D01*
X40054Y629933D01*
X40022Y629926D01*
X39946Y629918D01*
X39865Y629900D01*
X39863Y629901D01*
X39695Y629908D01*
X35304Y629594D01*
X35268Y629585D01*
X35231Y629585D01*
X35160Y629561D01*
X35054Y629568D01*
X35022Y629565D01*
X34946Y629568D01*
X34863Y629562D01*
X34861Y629563D01*
X34696Y629594D01*
X30305Y629908D01*
X30268Y629904D01*
X30231Y629909D01*
X30157Y629895D01*
X30054Y629918D01*
X30021Y629920D01*
X29946Y629933D01*
X29864Y629939D01*
X29862Y629941D01*
X29703Y629994D01*
X28797Y630191D01*
X25401Y630930D01*
X25364Y630932D01*
X25328Y630942D01*
X25254Y630939D01*
X25154Y630976D01*
X25122Y630982D01*
X25050Y631006D01*
X24969Y631024D01*
X24967Y631026D01*
X24818Y631101D01*
X20693Y632640D01*
X20657Y632647D01*
X20623Y632662D01*
X20548Y632670D01*
X20455Y632720D01*
X20424Y632731D01*
X20356Y632765D01*
X20279Y632794D01*
X20277Y632796D01*
X20140Y632893D01*
X16276Y635002D01*
X16241Y635015D01*
X16209Y635035D01*
X16137Y635052D01*
X16052Y635116D01*
X16023Y635131D01*
X15960Y635175D01*
X15888Y635214D01*
X15887Y635216D01*
X15764Y635331D01*
X12240Y637969D01*
X12207Y637986D01*
X12179Y638011D01*
X12109Y638039D01*
X12035Y638113D01*
X12008Y638132D01*
X11952Y638185D01*
X11886Y638234D01*
X11885Y638237D01*
X11827Y638309D01*
X11825Y638313D01*
X11822Y638316D01*
X11780Y638368D01*
X8668Y641480D01*
X8637Y641502D01*
X8613Y641530D01*
X8548Y641568D01*
X8485Y641652D01*
X8461Y641675D01*
X8413Y641735D01*
X8355Y641793D01*
X8354Y641796D01*
X8269Y641940D01*
X6705Y644029D01*
X6704Y644031D01*
X6702Y644033D01*
X6615Y644116D01*
X6528Y644200D01*
X6526Y644201D01*
X6524Y644202D01*
X6415Y644253D01*
X6306Y644305D01*
X6303Y644305D01*
X6301Y644306D01*
X6182Y644319D01*
X6061Y644333D01*
X6059Y644333D01*
X6057Y644333D01*
X5938Y644307D01*
X5821Y644283D01*
X5819Y644281D01*
X5816Y644281D01*
X5712Y644219D01*
X5609Y644158D01*
X5607Y644156D01*
X5605Y644155D01*
X5526Y644062D01*
X5448Y643972D01*
X5447Y643970D01*
X5445Y643968D01*
X5399Y643854D01*
X5354Y643745D01*
X5354Y643742D01*
X5353Y643740D01*
X5335Y643573D01*
X5335Y508000D01*
X5338Y507981D01*
X5336Y507950D01*
X5610Y503773D01*
X5616Y503750D01*
X5634Y503626D01*
X7797Y495556D01*
X7803Y495541D01*
X7806Y495526D01*
X7873Y495372D01*
X12050Y488137D01*
X12060Y488124D01*
X12066Y488110D01*
X12171Y487979D01*
X18079Y482071D01*
X18092Y482062D01*
X18101Y482050D01*
X18237Y481950D01*
X25472Y477773D01*
X25487Y477767D01*
X25499Y477758D01*
X25656Y477697D01*
X33726Y475534D01*
X33749Y475532D01*
X33873Y475510D01*
X38050Y475236D01*
X38069Y475238D01*
X38100Y475235D01*
X131868Y475235D01*
X141127Y472226D01*
X149004Y466504D01*
X154726Y458627D01*
X157735Y449368D01*
X157735Y388832D01*
X154726Y379573D01*
X149004Y371696D01*
X141127Y365974D01*
X131868Y362965D01*
X38100Y362965D01*
X38082Y362962D01*
X38050Y362964D01*
X33873Y362690D01*
X33850Y362684D01*
X33726Y362666D01*
X25656Y360503D01*
X25641Y360497D01*
X25626Y360494D01*
X25472Y360427D01*
X18237Y356250D01*
X18224Y356240D01*
X18210Y356234D01*
X18079Y356129D01*
X12171Y350221D01*
X12162Y350208D01*
X12150Y350199D01*
X12050Y350063D01*
X7873Y342828D01*
X7867Y342813D01*
X7858Y342801D01*
X7797Y342644D01*
X5634Y334574D01*
X5632Y334551D01*
X5610Y334427D01*
X5336Y330250D01*
X5338Y330231D01*
X5335Y330200D01*
X5335Y195827D01*
X5335Y195825D01*
X5335Y195822D01*
X5355Y195703D01*
X5374Y195584D01*
X5376Y195582D01*
X5376Y195580D01*
X5435Y195470D01*
X5490Y195367D01*
X5491Y195365D01*
X5493Y195363D01*
X5583Y195278D01*
X5668Y195198D01*
X5670Y195196D01*
X5672Y195195D01*
X5782Y195145D01*
X5891Y195094D01*
X5893Y195094D01*
X5896Y195093D01*
X6017Y195080D01*
X6135Y195067D01*
X6138Y195067D01*
X6140Y195067D01*
X6258Y195094D01*
X6376Y195119D01*
X6378Y195120D01*
X6380Y195121D01*
X6484Y195184D01*
X6587Y195245D01*
X6589Y195247D01*
X6591Y195248D01*
X6705Y195371D01*
X8269Y197460D01*
X8286Y197493D01*
X8311Y197521D01*
X8339Y197591D01*
X8413Y197665D01*
X8432Y197692D01*
X8485Y197748D01*
X8534Y197814D01*
X8537Y197815D01*
X8668Y197920D01*
X11780Y201032D01*
X11802Y201063D01*
X11830Y201087D01*
X11868Y201152D01*
X11952Y201215D01*
X11975Y201239D01*
X12035Y201287D01*
X12093Y201345D01*
X12096Y201346D01*
X12240Y201431D01*
X15764Y204069D01*
X15790Y204096D01*
X15821Y204116D01*
X15868Y204175D01*
X15960Y204225D01*
X15986Y204246D01*
X16052Y204284D01*
X16118Y204334D01*
X16121Y204334D01*
X16276Y204398D01*
X20140Y206507D01*
X20169Y206530D01*
X20203Y206546D01*
X20257Y206598D01*
X20356Y206635D01*
X20385Y206651D01*
X20455Y206680D01*
X20528Y206719D01*
X20530Y206719D01*
X20693Y206760D01*
X24818Y208299D01*
X24850Y208317D01*
X24886Y208328D01*
X24947Y208371D01*
X25050Y208394D01*
X25081Y208406D01*
X25154Y208424D01*
X25232Y208453D01*
X25234Y208453D01*
X25401Y208470D01*
X25406Y208471D01*
X29703Y209406D01*
X29737Y209419D01*
X29775Y209425D01*
X29841Y209459D01*
X29946Y209467D01*
X29978Y209474D01*
X30054Y209482D01*
X30135Y209500D01*
X30137Y209499D01*
X30305Y209492D01*
X34696Y209806D01*
X34732Y209815D01*
X34770Y209815D01*
X34840Y209839D01*
X34946Y209832D01*
X34978Y209835D01*
X35054Y209832D01*
X35137Y209838D01*
X35139Y209837D01*
X35304Y209806D01*
X39695Y209492D01*
X39732Y209496D01*
X39769Y209491D01*
X39843Y209505D01*
X39946Y209482D01*
X39979Y209480D01*
X40054Y209467D01*
X40136Y209461D01*
X40138Y209459D01*
X40297Y209406D01*
X40981Y209257D01*
X44599Y208470D01*
X44636Y208468D01*
X44672Y208458D01*
X44746Y208461D01*
X44846Y208424D01*
X44878Y208418D01*
X44950Y208394D01*
X45031Y208376D01*
X45033Y208374D01*
X45182Y208299D01*
X49307Y206760D01*
X49343Y206753D01*
X49377Y206738D01*
X49452Y206730D01*
X49545Y206680D01*
X49576Y206669D01*
X49644Y206635D01*
X49721Y206606D01*
X49723Y206604D01*
X49860Y206507D01*
X53724Y204398D01*
X53759Y204385D01*
X53791Y204365D01*
X53863Y204348D01*
X53948Y204284D01*
X53977Y204269D01*
X54040Y204225D01*
X54112Y204186D01*
X54113Y204184D01*
X54236Y204069D01*
X57760Y201431D01*
X57793Y201414D01*
X57821Y201389D01*
X57891Y201361D01*
X57965Y201287D01*
X57992Y201268D01*
X58047Y201216D01*
X58114Y201166D01*
X58115Y201163D01*
X58220Y201032D01*
X61332Y197920D01*
X61363Y197898D01*
X61387Y197870D01*
X61452Y197832D01*
X61515Y197748D01*
X61539Y197725D01*
X61587Y197665D01*
X61645Y197607D01*
X61646Y197604D01*
X61731Y197460D01*
X64369Y193936D01*
X64396Y193910D01*
X64416Y193879D01*
X64475Y193832D01*
X64525Y193740D01*
X64546Y193714D01*
X64584Y193648D01*
X64634Y193582D01*
X64634Y193579D01*
X64698Y193424D01*
X66807Y189560D01*
X66830Y189531D01*
X66846Y189497D01*
X66898Y189443D01*
X66935Y189344D01*
X66951Y189315D01*
X66980Y189245D01*
X67019Y189172D01*
X67019Y189170D01*
X67060Y189007D01*
X68599Y184882D01*
X68617Y184850D01*
X68628Y184814D01*
X68671Y184753D01*
X68694Y184650D01*
X68706Y184619D01*
X68724Y184546D01*
X68753Y184468D01*
X68753Y184466D01*
X68770Y184299D01*
X69706Y179997D01*
X69719Y179963D01*
X69725Y179926D01*
X69759Y179859D01*
X69767Y179754D01*
X69774Y179722D01*
X69782Y179646D01*
X69800Y179565D01*
X69799Y179563D01*
X69792Y179395D01*
X70106Y175004D01*
X70115Y174968D01*
X70115Y174931D01*
X70139Y174860D01*
X70132Y174754D01*
X70135Y174722D01*
X70132Y174646D01*
X70138Y174563D01*
X70137Y174561D01*
X70106Y174396D01*
X69792Y170005D01*
X69796Y169968D01*
X69791Y169931D01*
X69805Y169857D01*
X69782Y169754D01*
X69780Y169721D01*
X69767Y169646D01*
X69761Y169564D01*
X69759Y169562D01*
X69706Y169403D01*
X68770Y165101D01*
X68768Y165064D01*
X68758Y165028D01*
X68761Y164954D01*
X68724Y164854D01*
X68718Y164822D01*
X68694Y164750D01*
X68676Y164669D01*
X68674Y164667D01*
X68599Y164518D01*
X67060Y160393D01*
X67053Y160357D01*
X67038Y160323D01*
X67030Y160248D01*
X66980Y160155D01*
X66969Y160124D01*
X66935Y160056D01*
X66906Y159979D01*
X66904Y159977D01*
X66807Y159840D01*
X64698Y155976D01*
X64685Y155941D01*
X64665Y155909D01*
X64648Y155837D01*
X64584Y155752D01*
X64569Y155723D01*
X64525Y155660D01*
X64486Y155588D01*
X64484Y155587D01*
X64369Y155464D01*
X61731Y151940D01*
X61714Y151907D01*
X61689Y151879D01*
X61661Y151809D01*
X61587Y151735D01*
X61568Y151708D01*
X61515Y151652D01*
X61466Y151586D01*
X61463Y151585D01*
X61332Y151480D01*
X58220Y148368D01*
X58198Y148337D01*
X58170Y148313D01*
X58132Y148248D01*
X58048Y148185D01*
X58047Y148184D01*
X58046Y148184D01*
X58025Y148161D01*
X57965Y148113D01*
X57907Y148055D01*
X57904Y148054D01*
X57760Y147969D01*
X54236Y145331D01*
X54210Y145304D01*
X54179Y145284D01*
X54132Y145225D01*
X54040Y145175D01*
X54014Y145154D01*
X53948Y145116D01*
X53882Y145066D01*
X53879Y145066D01*
X53724Y145002D01*
X49860Y142893D01*
X49831Y142870D01*
X49797Y142854D01*
X49743Y142802D01*
X49644Y142765D01*
X49615Y142749D01*
X49545Y142720D01*
X49472Y142681D01*
X49470Y142681D01*
X49307Y142640D01*
X45182Y141101D01*
X45150Y141083D01*
X45114Y141072D01*
X45053Y141029D01*
X44950Y141006D01*
X44919Y140994D01*
X44846Y140976D01*
X44768Y140947D01*
X44766Y140947D01*
X44599Y140930D01*
X44594Y140929D01*
X40297Y139994D01*
X40263Y139981D01*
X40225Y139975D01*
X40159Y139941D01*
X40054Y139933D01*
X40022Y139926D01*
X39946Y139918D01*
X39865Y139900D01*
X39863Y139901D01*
X39695Y139908D01*
X35304Y139594D01*
X35268Y139585D01*
X35231Y139585D01*
X35160Y139561D01*
X35054Y139568D01*
X35022Y139565D01*
X34946Y139568D01*
X34863Y139562D01*
X34861Y139563D01*
X34696Y139594D01*
X30305Y139908D01*
X30268Y139904D01*
X30231Y139909D01*
X30157Y139895D01*
X30054Y139918D01*
X30021Y139920D01*
X29946Y139933D01*
X29864Y139939D01*
X29862Y139941D01*
X29703Y139994D01*
X25401Y140930D01*
X25364Y140932D01*
X25328Y140942D01*
X25254Y140939D01*
X25154Y140976D01*
X25122Y140982D01*
X25050Y141006D01*
X24969Y141024D01*
X24967Y141026D01*
X24818Y141101D01*
X20693Y142640D01*
X20657Y142647D01*
X20623Y142662D01*
X20548Y142670D01*
X20455Y142720D01*
X20424Y142731D01*
X20356Y142765D01*
X20279Y142794D01*
X20277Y142796D01*
X20140Y142893D01*
X16276Y145002D01*
X16241Y145015D01*
X16209Y145035D01*
X16137Y145052D01*
X16052Y145116D01*
X16023Y145131D01*
X15960Y145175D01*
X15888Y145214D01*
X15887Y145216D01*
X15764Y145331D01*
X12240Y147969D01*
X12207Y147986D01*
X12179Y148011D01*
X12109Y148039D01*
X12035Y148113D01*
X12008Y148132D01*
X11952Y148185D01*
X11886Y148234D01*
X11885Y148237D01*
X11780Y148368D01*
X8668Y151480D01*
X8637Y151502D01*
X8613Y151530D01*
X8548Y151568D01*
X8485Y151652D01*
X8461Y151675D01*
X8413Y151735D01*
X8355Y151793D01*
X8354Y151796D01*
X8269Y151940D01*
X6705Y154029D01*
X6704Y154031D01*
X6702Y154033D01*
X6615Y154116D01*
X6528Y154200D01*
X6526Y154201D01*
X6524Y154202D01*
X6415Y154253D01*
X6306Y154305D01*
X6303Y154305D01*
X6301Y154306D01*
X6182Y154319D01*
X6061Y154333D01*
X6059Y154333D01*
X6057Y154333D01*
X5938Y154307D01*
X5821Y154283D01*
X5819Y154281D01*
X5816Y154281D01*
X5712Y154219D01*
X5609Y154158D01*
X5607Y154156D01*
X5605Y154155D01*
X5526Y154062D01*
X5448Y153972D01*
X5447Y153970D01*
X5445Y153968D01*
X5398Y153852D01*
X5354Y153745D01*
X5354Y153742D01*
X5353Y153740D01*
X5335Y153573D01*
X5335Y76200D01*
X5338Y76178D01*
X5337Y76140D01*
X5575Y73120D01*
X5576Y73115D01*
X5576Y73109D01*
X5610Y72945D01*
X7476Y67201D01*
X7492Y67169D01*
X7501Y67134D01*
X7584Y66989D01*
X11134Y62103D01*
X11160Y62077D01*
X11179Y62047D01*
X11303Y61934D01*
X16189Y58384D01*
X16221Y58368D01*
X16248Y58345D01*
X16401Y58276D01*
X22145Y56410D01*
X22151Y56409D01*
X22156Y56406D01*
X22320Y56375D01*
X25340Y56137D01*
X25362Y56139D01*
X25400Y56135D01*
X86412Y56135D01*
X93759Y53748D01*
X100008Y49208D01*
X104548Y42959D01*
X106935Y35612D01*
X106935Y21971D01*
X106938Y21951D01*
X106936Y21932D01*
X106958Y21830D01*
X106974Y21728D01*
X106984Y21711D01*
X106988Y21691D01*
X107041Y21602D01*
X107090Y21511D01*
X107104Y21497D01*
X107114Y21480D01*
X107193Y21413D01*
X107268Y21341D01*
X107286Y21333D01*
X107301Y21320D01*
X107397Y21281D01*
X107491Y21238D01*
X107511Y21236D01*
X107529Y21228D01*
X107696Y21210D01*
X806704Y21210D01*
X806724Y21213D01*
G37*
%LPC*%
G36*
X197926Y23820D02*
X197926Y23820D01*
X195545Y26201D01*
X195545Y33033D01*
X195531Y33123D01*
X195523Y33214D01*
X195511Y33244D01*
X195506Y33276D01*
X195463Y33356D01*
X195427Y33440D01*
X195401Y33472D01*
X195390Y33493D01*
X195367Y33515D01*
X195322Y33571D01*
X193173Y35720D01*
X190753Y41563D01*
X190753Y83949D01*
X190750Y83969D01*
X190752Y83988D01*
X190730Y84090D01*
X190714Y84192D01*
X190704Y84209D01*
X190700Y84229D01*
X190647Y84318D01*
X190598Y84409D01*
X190584Y84423D01*
X190574Y84440D01*
X190495Y84507D01*
X190420Y84579D01*
X190402Y84587D01*
X190387Y84600D01*
X190291Y84639D01*
X190197Y84682D01*
X190177Y84684D01*
X190159Y84692D01*
X189992Y84710D01*
X187666Y84710D01*
X185285Y87091D01*
X185285Y103459D01*
X186063Y104237D01*
X186075Y104253D01*
X186091Y104265D01*
X186147Y104353D01*
X186207Y104436D01*
X186213Y104455D01*
X186224Y104472D01*
X186249Y104573D01*
X186279Y104672D01*
X186279Y104691D01*
X186284Y104711D01*
X186276Y104814D01*
X186273Y104917D01*
X186266Y104936D01*
X186264Y104956D01*
X186224Y105051D01*
X186188Y105148D01*
X186176Y105164D01*
X186168Y105182D01*
X186063Y105313D01*
X185285Y106091D01*
X185285Y122459D01*
X187666Y124840D01*
X189992Y124840D01*
X190012Y124843D01*
X190031Y124841D01*
X190133Y124863D01*
X190235Y124879D01*
X190252Y124889D01*
X190272Y124893D01*
X190361Y124946D01*
X190452Y124995D01*
X190466Y125009D01*
X190483Y125019D01*
X190550Y125098D01*
X190622Y125173D01*
X190630Y125191D01*
X190643Y125206D01*
X190682Y125302D01*
X190725Y125396D01*
X190727Y125416D01*
X190735Y125434D01*
X190753Y125601D01*
X190753Y131486D01*
X193526Y140018D01*
X198799Y147276D01*
X206057Y152549D01*
X214589Y155322D01*
X234442Y155322D01*
X234462Y155325D01*
X234481Y155323D01*
X234583Y155345D01*
X234685Y155361D01*
X234702Y155371D01*
X234722Y155375D01*
X234811Y155428D01*
X234902Y155477D01*
X234916Y155491D01*
X234933Y155501D01*
X235000Y155580D01*
X235072Y155655D01*
X235080Y155673D01*
X235093Y155688D01*
X235132Y155784D01*
X235175Y155878D01*
X235177Y155898D01*
X235185Y155916D01*
X235203Y156083D01*
X235203Y539750D01*
X235200Y539772D01*
X235201Y539810D01*
X235051Y541717D01*
X235049Y541723D01*
X235050Y541728D01*
X235016Y541892D01*
X233837Y545520D01*
X233821Y545552D01*
X233812Y545587D01*
X233729Y545732D01*
X231487Y548819D01*
X231461Y548844D01*
X231443Y548874D01*
X231318Y548987D01*
X228233Y551229D01*
X228201Y551245D01*
X228173Y551268D01*
X228020Y551337D01*
X224393Y552516D01*
X224387Y552517D01*
X224382Y552519D01*
X224217Y552551D01*
X222310Y552701D01*
X222288Y552699D01*
X222250Y552703D01*
X97617Y552703D01*
X90041Y555165D01*
X83597Y559847D01*
X78915Y566291D01*
X76453Y573867D01*
X76453Y639554D01*
X76450Y639574D01*
X76452Y639593D01*
X76430Y639695D01*
X76414Y639797D01*
X76404Y639814D01*
X76400Y639834D01*
X76347Y639923D01*
X76298Y640014D01*
X76284Y640028D01*
X76274Y640045D01*
X76195Y640112D01*
X76120Y640184D01*
X76102Y640192D01*
X76087Y640205D01*
X75991Y640244D01*
X75897Y640287D01*
X75877Y640289D01*
X75859Y640297D01*
X75692Y640315D01*
X74396Y640315D01*
X72015Y642696D01*
X72015Y661304D01*
X74396Y663685D01*
X89980Y663685D01*
X89999Y663688D01*
X90019Y663686D01*
X90120Y663708D01*
X90222Y663724D01*
X90240Y663734D01*
X90259Y663738D01*
X90348Y663791D01*
X90440Y663840D01*
X90453Y663854D01*
X90470Y663864D01*
X90538Y663943D01*
X90609Y664018D01*
X90617Y664036D01*
X90630Y664051D01*
X90669Y664147D01*
X90713Y664241D01*
X90715Y664261D01*
X90722Y664279D01*
X90741Y664446D01*
X90741Y666603D01*
X90733Y666648D01*
X90735Y666694D01*
X90714Y666769D01*
X90701Y666846D01*
X90680Y666886D01*
X90667Y666931D01*
X90622Y666995D01*
X90586Y667063D01*
X90553Y667095D01*
X90527Y667133D01*
X90464Y667179D01*
X90408Y667233D01*
X90366Y667252D01*
X90329Y667279D01*
X90255Y667303D01*
X90185Y667336D01*
X90139Y667341D01*
X90095Y667356D01*
X90017Y667355D01*
X89940Y667363D01*
X89895Y667354D01*
X89849Y667353D01*
X89718Y667315D01*
X89700Y667311D01*
X89695Y667309D01*
X89688Y667306D01*
X85890Y665733D01*
X81242Y665733D01*
X76947Y667512D01*
X73660Y670799D01*
X71881Y675094D01*
X71881Y679742D01*
X73660Y684037D01*
X76947Y687324D01*
X81242Y689103D01*
X85890Y689103D01*
X90185Y687324D01*
X93472Y684037D01*
X93493Y683985D01*
X93555Y683885D01*
X93615Y683785D01*
X93620Y683781D01*
X93623Y683776D01*
X93713Y683701D01*
X93802Y683625D01*
X93808Y683623D01*
X93813Y683619D01*
X93921Y683577D01*
X94030Y683533D01*
X94038Y683532D01*
X94042Y683531D01*
X94060Y683530D01*
X94197Y683515D01*
X98335Y683515D01*
X98450Y683534D01*
X98566Y683551D01*
X98572Y683553D01*
X98578Y683554D01*
X98681Y683609D01*
X98785Y683662D01*
X98790Y683667D01*
X98795Y683670D01*
X98876Y683755D01*
X98958Y683838D01*
X98961Y683844D01*
X98965Y683848D01*
X98973Y683865D01*
X99039Y683985D01*
X99060Y684037D01*
X102347Y687324D01*
X106642Y689103D01*
X111290Y689103D01*
X115585Y687324D01*
X118872Y684037D01*
X120651Y679742D01*
X120651Y677481D01*
X120668Y677374D01*
X120682Y677267D01*
X120688Y677253D01*
X120690Y677238D01*
X120741Y677143D01*
X120788Y677045D01*
X120800Y677031D01*
X120806Y677021D01*
X120827Y677001D01*
X120899Y676919D01*
X121407Y676455D01*
X121452Y676425D01*
X121492Y676388D01*
X121555Y676359D01*
X121613Y676321D01*
X121666Y676307D01*
X121715Y676284D01*
X121784Y676276D01*
X121851Y676259D01*
X121905Y676263D01*
X121959Y676257D01*
X122027Y676272D01*
X122096Y676277D01*
X122146Y676298D01*
X122200Y676309D01*
X122259Y676345D01*
X122323Y676372D01*
X122364Y676407D01*
X122411Y676435D01*
X122456Y676488D01*
X122508Y676534D01*
X122535Y676581D01*
X122571Y676622D01*
X122597Y676687D01*
X122631Y676747D01*
X122642Y676800D01*
X122663Y676851D01*
X122675Y676959D01*
X122681Y676988D01*
X122679Y676999D01*
X122681Y677017D01*
X122681Y679742D01*
X124460Y684037D01*
X127747Y687324D01*
X132042Y689103D01*
X136690Y689103D01*
X140985Y687324D01*
X144272Y684037D01*
X146051Y679742D01*
X146051Y675094D01*
X144272Y670799D01*
X140985Y667512D01*
X136690Y665733D01*
X132042Y665733D01*
X128225Y667314D01*
X128147Y667332D01*
X128072Y667359D01*
X128028Y667360D01*
X127986Y667370D01*
X127906Y667363D01*
X127826Y667364D01*
X127784Y667351D01*
X127741Y667347D01*
X127668Y667314D01*
X127591Y667290D01*
X127556Y667265D01*
X127516Y667247D01*
X127457Y667193D01*
X127392Y667146D01*
X127367Y667110D01*
X127335Y667081D01*
X127296Y667010D01*
X127250Y666945D01*
X127238Y666903D01*
X127217Y666865D01*
X127202Y666786D01*
X127179Y666709D01*
X127178Y666652D01*
X127173Y666623D01*
X127177Y666595D01*
X127176Y666542D01*
X127421Y663855D01*
X127428Y663825D01*
X127429Y663794D01*
X127476Y663633D01*
X127540Y663476D01*
X127540Y662978D01*
X127548Y662932D01*
X127546Y662886D01*
X127568Y662812D01*
X127580Y662735D01*
X127602Y662694D01*
X127614Y662650D01*
X127659Y662586D01*
X127695Y662517D01*
X127729Y662486D01*
X127755Y662448D01*
X127817Y662402D01*
X127874Y662348D01*
X127915Y662329D01*
X127952Y662301D01*
X128026Y662277D01*
X128097Y662244D01*
X128142Y662239D01*
X128186Y662225D01*
X128264Y662226D01*
X128341Y662217D01*
X128386Y662227D01*
X128432Y662227D01*
X128563Y662266D01*
X128582Y662270D01*
X128586Y662272D01*
X128593Y662274D01*
X132042Y663703D01*
X136690Y663703D01*
X140985Y661924D01*
X144272Y658637D01*
X146051Y654342D01*
X146051Y649694D01*
X144272Y645399D01*
X140985Y642112D01*
X136690Y640333D01*
X132042Y640333D01*
X128593Y641762D01*
X128548Y641772D01*
X128507Y641792D01*
X128429Y641800D01*
X128354Y641818D01*
X128308Y641814D01*
X128262Y641819D01*
X128186Y641802D01*
X128109Y641795D01*
X128067Y641776D01*
X128022Y641766D01*
X127955Y641726D01*
X127884Y641695D01*
X127850Y641664D01*
X127811Y641640D01*
X127760Y641581D01*
X127703Y641528D01*
X127681Y641488D01*
X127651Y641453D01*
X127622Y641381D01*
X127584Y641313D01*
X127576Y641268D01*
X127559Y641225D01*
X127544Y641089D01*
X127541Y641071D01*
X127541Y641066D01*
X127540Y641058D01*
X127540Y609981D01*
X127544Y609961D01*
X127542Y609942D01*
X127564Y609840D01*
X127580Y609738D01*
X127590Y609721D01*
X127594Y609701D01*
X127647Y609612D01*
X127695Y609521D01*
X127710Y609507D01*
X127720Y609490D01*
X127799Y609423D01*
X127874Y609351D01*
X127892Y609343D01*
X127907Y609330D01*
X128003Y609291D01*
X128097Y609248D01*
X128116Y609246D01*
X128135Y609238D01*
X128302Y609220D01*
X151754Y609220D01*
X151825Y609231D01*
X151897Y609233D01*
X151945Y609251D01*
X151997Y609259D01*
X152060Y609293D01*
X152128Y609318D01*
X152168Y609350D01*
X152214Y609375D01*
X152264Y609427D01*
X152320Y609471D01*
X152348Y609515D01*
X152384Y609553D01*
X152414Y609618D01*
X152453Y609678D01*
X152465Y609729D01*
X152487Y609776D01*
X152495Y609847D01*
X152513Y609917D01*
X152509Y609969D01*
X152514Y610020D01*
X152499Y610091D01*
X152493Y610162D01*
X152473Y610210D01*
X152462Y610261D01*
X152425Y610322D01*
X152397Y610388D01*
X152352Y610444D01*
X152336Y610472D01*
X152318Y610487D01*
X152292Y610519D01*
X150865Y611946D01*
X150865Y630554D01*
X153246Y632935D01*
X171854Y632935D01*
X174235Y630554D01*
X174235Y611946D01*
X172808Y610519D01*
X172766Y610461D01*
X172716Y610409D01*
X172694Y610362D01*
X172664Y610320D01*
X172643Y610251D01*
X172613Y610186D01*
X172607Y610134D01*
X172592Y610084D01*
X172594Y610013D01*
X172586Y609942D01*
X172597Y609891D01*
X172598Y609839D01*
X172623Y609771D01*
X172638Y609701D01*
X172665Y609656D01*
X172683Y609608D01*
X172727Y609552D01*
X172764Y609490D01*
X172804Y609456D01*
X172836Y609416D01*
X172897Y609377D01*
X172951Y609330D01*
X172999Y609311D01*
X173043Y609283D01*
X173113Y609265D01*
X173179Y609238D01*
X173251Y609230D01*
X173282Y609222D01*
X173305Y609224D01*
X173346Y609220D01*
X182633Y609220D01*
X182729Y609235D01*
X182826Y609245D01*
X182850Y609255D01*
X182876Y609259D01*
X182962Y609305D01*
X183051Y609345D01*
X183070Y609362D01*
X183093Y609375D01*
X183160Y609445D01*
X183232Y609511D01*
X183244Y609534D01*
X183262Y609553D01*
X183303Y609641D01*
X183350Y609727D01*
X183355Y609752D01*
X183366Y609776D01*
X183377Y609873D01*
X183394Y609969D01*
X183390Y609995D01*
X183393Y610020D01*
X183372Y610116D01*
X183358Y610212D01*
X183346Y610235D01*
X183341Y610261D01*
X183291Y610344D01*
X183247Y610431D01*
X183228Y610450D01*
X183215Y610472D01*
X183141Y610535D01*
X183071Y610603D01*
X183043Y610619D01*
X183028Y610632D01*
X182997Y610644D01*
X182924Y610684D01*
X181331Y611344D01*
X178044Y614631D01*
X176265Y618926D01*
X176265Y623574D01*
X178044Y627869D01*
X181331Y631156D01*
X185626Y632935D01*
X190274Y632935D01*
X194569Y631156D01*
X197856Y627869D01*
X199635Y623574D01*
X199635Y618926D01*
X197856Y614631D01*
X194569Y611344D01*
X192976Y610684D01*
X192893Y610633D01*
X192807Y610587D01*
X192789Y610569D01*
X192767Y610555D01*
X192704Y610479D01*
X192638Y610409D01*
X192627Y610385D01*
X192610Y610365D01*
X192575Y610274D01*
X192534Y610186D01*
X192531Y610160D01*
X192522Y610136D01*
X192518Y610038D01*
X192507Y609942D01*
X192512Y609916D01*
X192511Y609890D01*
X192538Y609796D01*
X192559Y609701D01*
X192573Y609679D01*
X192580Y609654D01*
X192635Y609574D01*
X192685Y609490D01*
X192705Y609473D01*
X192720Y609452D01*
X192798Y609393D01*
X192872Y609330D01*
X192896Y609320D01*
X192917Y609305D01*
X193010Y609275D01*
X193100Y609238D01*
X193133Y609235D01*
X193151Y609229D01*
X193184Y609229D01*
X193267Y609220D01*
X519209Y609220D01*
X519229Y609223D01*
X519248Y609221D01*
X519350Y609243D01*
X519452Y609259D01*
X519469Y609269D01*
X519489Y609273D01*
X519578Y609326D01*
X519669Y609375D01*
X519683Y609389D01*
X519700Y609399D01*
X519767Y609478D01*
X519839Y609553D01*
X519847Y609571D01*
X519860Y609586D01*
X519899Y609682D01*
X519942Y609776D01*
X519944Y609796D01*
X519952Y609814D01*
X519970Y609981D01*
X519970Y625094D01*
X522351Y627475D01*
X545719Y627475D01*
X546197Y626997D01*
X546213Y626985D01*
X546225Y626969D01*
X546312Y626914D01*
X546396Y626853D01*
X546415Y626847D01*
X546432Y626836D01*
X546533Y626811D01*
X546632Y626781D01*
X546651Y626781D01*
X546671Y626776D01*
X546774Y626784D01*
X546877Y626787D01*
X546896Y626794D01*
X546916Y626796D01*
X547011Y626836D01*
X547108Y626872D01*
X547124Y626884D01*
X547142Y626892D01*
X547273Y626997D01*
X547751Y627475D01*
X571119Y627475D01*
X573500Y625094D01*
X573500Y601726D01*
X571119Y599345D01*
X547751Y599345D01*
X547273Y599823D01*
X547257Y599835D01*
X547245Y599851D01*
X547157Y599907D01*
X547074Y599967D01*
X547055Y599973D01*
X547038Y599984D01*
X546937Y600009D01*
X546838Y600039D01*
X546819Y600039D01*
X546799Y600044D01*
X546696Y600036D01*
X546593Y600033D01*
X546574Y600026D01*
X546554Y600024D01*
X546459Y599984D01*
X546362Y599948D01*
X546346Y599936D01*
X546328Y599928D01*
X546197Y599823D01*
X545719Y599345D01*
X538656Y599345D01*
X538628Y599341D01*
X538600Y599343D01*
X538507Y599321D01*
X538413Y599306D01*
X538388Y599293D01*
X538361Y599286D01*
X538280Y599235D01*
X538196Y599190D01*
X538176Y599170D01*
X538153Y599155D01*
X538040Y599031D01*
X536794Y597316D01*
X531033Y593131D01*
X524260Y590930D01*
X118894Y590930D01*
X118804Y590916D01*
X118713Y590908D01*
X118683Y590896D01*
X118651Y590891D01*
X118571Y590848D01*
X118487Y590812D01*
X118454Y590786D01*
X118434Y590775D01*
X118412Y590752D01*
X118356Y590707D01*
X117659Y590011D01*
X117647Y589994D01*
X117632Y589982D01*
X117576Y589895D01*
X117516Y589811D01*
X117510Y589792D01*
X117499Y589775D01*
X117474Y589675D01*
X117443Y589576D01*
X117444Y589556D01*
X117439Y589537D01*
X117447Y589434D01*
X117450Y589330D01*
X117456Y589311D01*
X117458Y589291D01*
X117498Y589197D01*
X117534Y589099D01*
X117546Y589083D01*
X117554Y589065D01*
X117659Y588934D01*
X117983Y588610D01*
X118318Y588031D01*
X118491Y587384D01*
X118491Y582073D01*
X108712Y582073D01*
X108692Y582070D01*
X108673Y582072D01*
X108571Y582050D01*
X108469Y582033D01*
X108452Y582024D01*
X108432Y582020D01*
X108343Y581967D01*
X108252Y581918D01*
X108238Y581904D01*
X108221Y581894D01*
X108154Y581815D01*
X108083Y581740D01*
X108074Y581722D01*
X108061Y581707D01*
X108022Y581611D01*
X107979Y581517D01*
X107977Y581497D01*
X107969Y581479D01*
X107951Y581312D01*
X107951Y580549D01*
X107949Y580549D01*
X107949Y581312D01*
X107946Y581332D01*
X107948Y581351D01*
X107926Y581453D01*
X107909Y581555D01*
X107900Y581572D01*
X107896Y581592D01*
X107843Y581681D01*
X107794Y581772D01*
X107780Y581786D01*
X107770Y581803D01*
X107691Y581870D01*
X107616Y581941D01*
X107598Y581950D01*
X107583Y581963D01*
X107487Y582002D01*
X107393Y582045D01*
X107373Y582047D01*
X107355Y582055D01*
X107188Y582073D01*
X97409Y582073D01*
X97409Y587384D01*
X97582Y588031D01*
X97917Y588610D01*
X98241Y588934D01*
X98253Y588950D01*
X98268Y588963D01*
X98324Y589050D01*
X98384Y589134D01*
X98390Y589153D01*
X98401Y589170D01*
X98426Y589270D01*
X98457Y589369D01*
X98456Y589389D01*
X98461Y589408D01*
X98453Y589511D01*
X98450Y589615D01*
X98444Y589634D01*
X98442Y589653D01*
X98402Y589748D01*
X98366Y589846D01*
X98354Y589861D01*
X98346Y589880D01*
X98241Y590011D01*
X95885Y592366D01*
X95885Y594291D01*
X95874Y594358D01*
X95873Y594426D01*
X95855Y594479D01*
X95846Y594534D01*
X95814Y594594D01*
X95791Y594658D01*
X95757Y594702D01*
X95730Y594751D01*
X95682Y594798D01*
X95640Y594851D01*
X95576Y594898D01*
X95552Y594921D01*
X95533Y594930D01*
X95505Y594951D01*
X94066Y595781D01*
X93959Y595822D01*
X93852Y595865D01*
X93842Y595866D01*
X93836Y595868D01*
X93814Y595869D01*
X93685Y595883D01*
X93514Y595883D01*
X93072Y596325D01*
X93059Y596335D01*
X93049Y596347D01*
X92914Y596446D01*
X92800Y596512D01*
X92734Y596627D01*
X92724Y596639D01*
X92718Y596653D01*
X92613Y596784D01*
X91058Y598339D01*
X91058Y599325D01*
X91040Y599438D01*
X91024Y599552D01*
X91020Y599561D01*
X91019Y599567D01*
X91008Y599587D01*
X90956Y599705D01*
X90741Y600078D01*
X90741Y639554D01*
X90738Y639574D01*
X90740Y639593D01*
X90718Y639695D01*
X90701Y639797D01*
X90692Y639814D01*
X90687Y639834D01*
X90634Y639923D01*
X90586Y640014D01*
X90572Y640028D01*
X90561Y640045D01*
X90483Y640112D01*
X90408Y640184D01*
X90390Y640192D01*
X90374Y640205D01*
X90278Y640244D01*
X90185Y640287D01*
X90165Y640289D01*
X90146Y640297D01*
X89980Y640315D01*
X89408Y640315D01*
X89388Y640312D01*
X89369Y640314D01*
X89267Y640292D01*
X89165Y640276D01*
X89148Y640266D01*
X89128Y640262D01*
X89039Y640209D01*
X88948Y640160D01*
X88934Y640146D01*
X88917Y640136D01*
X88850Y640057D01*
X88778Y639982D01*
X88770Y639964D01*
X88757Y639949D01*
X88718Y639853D01*
X88675Y639759D01*
X88673Y639739D01*
X88665Y639721D01*
X88647Y639554D01*
X88647Y577850D01*
X88650Y577828D01*
X88649Y577790D01*
X88799Y575883D01*
X88801Y575877D01*
X88800Y575872D01*
X88834Y575708D01*
X90013Y572080D01*
X90029Y572048D01*
X90038Y572013D01*
X90121Y571867D01*
X92363Y568781D01*
X92389Y568756D01*
X92407Y568726D01*
X92531Y568613D01*
X95617Y566371D01*
X95649Y566355D01*
X95677Y566332D01*
X95830Y566263D01*
X99457Y565084D01*
X99463Y565083D01*
X99468Y565081D01*
X99633Y565049D01*
X101540Y564899D01*
X101562Y564901D01*
X101600Y564897D01*
X226233Y564897D01*
X233809Y562435D01*
X240253Y557753D01*
X244935Y551309D01*
X247397Y543733D01*
X247397Y156083D01*
X247400Y156063D01*
X247398Y156044D01*
X247420Y155942D01*
X247436Y155840D01*
X247446Y155823D01*
X247450Y155803D01*
X247503Y155714D01*
X247552Y155623D01*
X247566Y155609D01*
X247576Y155592D01*
X247655Y155525D01*
X247730Y155453D01*
X247748Y155445D01*
X247763Y155432D01*
X247859Y155393D01*
X247953Y155350D01*
X247973Y155348D01*
X247991Y155340D01*
X248158Y155322D01*
X433111Y155322D01*
X441643Y152549D01*
X448901Y147276D01*
X454174Y140018D01*
X456947Y131486D01*
X456947Y125601D01*
X456950Y125581D01*
X456948Y125562D01*
X456970Y125460D01*
X456986Y125358D01*
X456996Y125341D01*
X457000Y125321D01*
X457053Y125232D01*
X457102Y125141D01*
X457116Y125127D01*
X457126Y125110D01*
X457205Y125043D01*
X457280Y124971D01*
X457298Y124963D01*
X457313Y124950D01*
X457409Y124911D01*
X457503Y124868D01*
X457523Y124866D01*
X457541Y124858D01*
X457708Y124840D01*
X460034Y124840D01*
X462415Y122459D01*
X462415Y106091D01*
X461637Y105313D01*
X461625Y105297D01*
X461609Y105285D01*
X461553Y105197D01*
X461493Y105114D01*
X461487Y105095D01*
X461476Y105078D01*
X461451Y104977D01*
X461421Y104878D01*
X461421Y104859D01*
X461416Y104839D01*
X461424Y104736D01*
X461427Y104633D01*
X461434Y104614D01*
X461436Y104594D01*
X461476Y104499D01*
X461512Y104402D01*
X461524Y104386D01*
X461532Y104368D01*
X461637Y104237D01*
X462415Y103459D01*
X462415Y87091D01*
X460034Y84710D01*
X457708Y84710D01*
X457688Y84707D01*
X457669Y84709D01*
X457567Y84687D01*
X457465Y84671D01*
X457448Y84661D01*
X457428Y84657D01*
X457339Y84604D01*
X457248Y84555D01*
X457234Y84541D01*
X457217Y84531D01*
X457150Y84452D01*
X457078Y84377D01*
X457070Y84359D01*
X457057Y84344D01*
X457018Y84248D01*
X456975Y84154D01*
X456973Y84134D01*
X456965Y84116D01*
X456947Y83949D01*
X456947Y46791D01*
X456950Y46771D01*
X456948Y46752D01*
X456970Y46650D01*
X456986Y46548D01*
X456996Y46531D01*
X457000Y46511D01*
X457053Y46422D01*
X457102Y46331D01*
X457116Y46317D01*
X457126Y46300D01*
X457205Y46233D01*
X457280Y46161D01*
X457298Y46153D01*
X457313Y46140D01*
X457409Y46101D01*
X457503Y46058D01*
X457523Y46056D01*
X457541Y46048D01*
X457708Y46030D01*
X469374Y46030D01*
X471755Y43649D01*
X471755Y26201D01*
X469374Y23820D01*
X451926Y23820D01*
X449545Y26201D01*
X449545Y33033D01*
X449531Y33123D01*
X449523Y33214D01*
X449511Y33244D01*
X449506Y33276D01*
X449463Y33356D01*
X449427Y33440D01*
X449401Y33473D01*
X449390Y33493D01*
X449367Y33515D01*
X449322Y33571D01*
X447173Y35720D01*
X444753Y41563D01*
X444753Y83949D01*
X444750Y83969D01*
X444752Y83988D01*
X444730Y84090D01*
X444714Y84192D01*
X444704Y84209D01*
X444700Y84229D01*
X444647Y84318D01*
X444598Y84409D01*
X444584Y84423D01*
X444574Y84440D01*
X444495Y84507D01*
X444420Y84579D01*
X444402Y84587D01*
X444387Y84600D01*
X444291Y84639D01*
X444197Y84682D01*
X444177Y84684D01*
X444159Y84692D01*
X443992Y84710D01*
X441666Y84710D01*
X439285Y87091D01*
X439285Y103459D01*
X440063Y104237D01*
X440075Y104253D01*
X440091Y104265D01*
X440147Y104353D01*
X440207Y104436D01*
X440213Y104455D01*
X440224Y104472D01*
X440249Y104573D01*
X440279Y104672D01*
X440279Y104691D01*
X440284Y104711D01*
X440276Y104814D01*
X440273Y104917D01*
X440266Y104936D01*
X440264Y104956D01*
X440224Y105051D01*
X440188Y105148D01*
X440176Y105164D01*
X440168Y105182D01*
X440063Y105313D01*
X439285Y106091D01*
X439285Y122459D01*
X441666Y124840D01*
X443992Y124840D01*
X444012Y124843D01*
X444031Y124841D01*
X444133Y124863D01*
X444235Y124879D01*
X444252Y124889D01*
X444272Y124893D01*
X444361Y124946D01*
X444452Y124995D01*
X444466Y125009D01*
X444483Y125019D01*
X444550Y125098D01*
X444622Y125173D01*
X444630Y125191D01*
X444643Y125206D01*
X444682Y125302D01*
X444725Y125396D01*
X444727Y125416D01*
X444735Y125434D01*
X444753Y125601D01*
X444753Y127000D01*
X444750Y127022D01*
X444751Y127060D01*
X444562Y129464D01*
X444560Y129469D01*
X444561Y129475D01*
X444527Y129639D01*
X443041Y134212D01*
X443025Y134244D01*
X443016Y134278D01*
X442933Y134424D01*
X440107Y138314D01*
X440082Y138339D01*
X440063Y138369D01*
X439939Y138482D01*
X436049Y141308D01*
X436017Y141324D01*
X435990Y141347D01*
X435837Y141416D01*
X431264Y142902D01*
X431259Y142903D01*
X431253Y142905D01*
X431089Y142937D01*
X428685Y143126D01*
X428663Y143124D01*
X428625Y143128D01*
X219075Y143128D01*
X219053Y143125D01*
X219015Y143126D01*
X216611Y142937D01*
X216606Y142935D01*
X216600Y142936D01*
X216436Y142902D01*
X211863Y141416D01*
X211831Y141400D01*
X211797Y141391D01*
X211651Y141308D01*
X207761Y138482D01*
X207736Y138457D01*
X207706Y138438D01*
X207593Y138314D01*
X204767Y134424D01*
X204751Y134392D01*
X204728Y134365D01*
X204659Y134212D01*
X203173Y129639D01*
X203172Y129634D01*
X203170Y129628D01*
X203138Y129464D01*
X202949Y127060D01*
X202951Y127038D01*
X202947Y127000D01*
X202947Y125601D01*
X202950Y125581D01*
X202948Y125562D01*
X202970Y125460D01*
X202986Y125358D01*
X202996Y125341D01*
X203000Y125321D01*
X203053Y125232D01*
X203102Y125141D01*
X203116Y125127D01*
X203126Y125110D01*
X203205Y125043D01*
X203280Y124971D01*
X203298Y124963D01*
X203313Y124950D01*
X203409Y124911D01*
X203503Y124868D01*
X203523Y124866D01*
X203541Y124858D01*
X203708Y124840D01*
X206034Y124840D01*
X208415Y122459D01*
X208415Y106091D01*
X207637Y105313D01*
X207625Y105297D01*
X207609Y105285D01*
X207553Y105197D01*
X207493Y105114D01*
X207487Y105095D01*
X207476Y105078D01*
X207451Y104977D01*
X207421Y104878D01*
X207421Y104859D01*
X207416Y104839D01*
X207424Y104736D01*
X207427Y104633D01*
X207434Y104614D01*
X207436Y104594D01*
X207476Y104499D01*
X207512Y104402D01*
X207524Y104386D01*
X207532Y104368D01*
X207637Y104237D01*
X208415Y103459D01*
X208415Y87091D01*
X206034Y84710D01*
X203708Y84710D01*
X203688Y84707D01*
X203669Y84709D01*
X203567Y84687D01*
X203465Y84671D01*
X203448Y84661D01*
X203428Y84657D01*
X203339Y84604D01*
X203248Y84555D01*
X203234Y84541D01*
X203217Y84531D01*
X203150Y84452D01*
X203078Y84377D01*
X203070Y84359D01*
X203057Y84344D01*
X203018Y84248D01*
X202975Y84154D01*
X202973Y84134D01*
X202965Y84116D01*
X202947Y83949D01*
X202947Y46791D01*
X202950Y46771D01*
X202948Y46752D01*
X202970Y46650D01*
X202986Y46548D01*
X202996Y46531D01*
X203000Y46511D01*
X203053Y46422D01*
X203102Y46331D01*
X203116Y46317D01*
X203126Y46300D01*
X203205Y46233D01*
X203280Y46161D01*
X203298Y46153D01*
X203313Y46140D01*
X203409Y46101D01*
X203503Y46058D01*
X203523Y46056D01*
X203541Y46048D01*
X203708Y46030D01*
X215374Y46030D01*
X217755Y43649D01*
X217755Y26201D01*
X215374Y23820D01*
X197926Y23820D01*
G37*
%LPD*%
%LPC*%
G36*
X271366Y370585D02*
X271366Y370585D01*
X268985Y372966D01*
X268985Y389034D01*
X271366Y391415D01*
X300134Y391415D01*
X302515Y389034D01*
X302515Y387858D01*
X302518Y387838D01*
X302516Y387819D01*
X302538Y387717D01*
X302554Y387615D01*
X302564Y387598D01*
X302568Y387578D01*
X302621Y387489D01*
X302670Y387398D01*
X302684Y387384D01*
X302694Y387367D01*
X302773Y387300D01*
X302848Y387228D01*
X302866Y387220D01*
X302881Y387207D01*
X302977Y387168D01*
X303071Y387125D01*
X303091Y387123D01*
X303109Y387115D01*
X303276Y387097D01*
X314325Y387097D01*
X314351Y387101D01*
X314400Y387100D01*
X315539Y387213D01*
X315567Y387220D01*
X315595Y387220D01*
X315756Y387267D01*
X317862Y388139D01*
X317918Y388174D01*
X317978Y388199D01*
X318043Y388251D01*
X318071Y388269D01*
X318083Y388284D01*
X318109Y388304D01*
X319721Y389916D01*
X319759Y389969D01*
X319805Y390016D01*
X319845Y390089D01*
X319864Y390116D01*
X319870Y390134D01*
X319886Y390163D01*
X320758Y392269D01*
X320765Y392297D01*
X320778Y392322D01*
X320812Y392486D01*
X320925Y393625D01*
X320923Y393652D01*
X320928Y393700D01*
X320928Y406808D01*
X320917Y406879D01*
X320915Y406950D01*
X320897Y406999D01*
X320889Y407051D01*
X320855Y407114D01*
X320830Y407181D01*
X320798Y407222D01*
X320773Y407268D01*
X320721Y407317D01*
X320677Y407373D01*
X320633Y407402D01*
X320595Y407437D01*
X320530Y407468D01*
X320470Y407506D01*
X320419Y407519D01*
X320372Y407541D01*
X320301Y407549D01*
X320231Y407566D01*
X320179Y407562D01*
X320128Y407568D01*
X320057Y407553D01*
X319986Y407547D01*
X319938Y407527D01*
X319887Y407516D01*
X319826Y407479D01*
X319760Y407451D01*
X319704Y407406D01*
X319676Y407390D01*
X319661Y407372D01*
X319629Y407346D01*
X315448Y403165D01*
X308539Y400303D01*
X303276Y400303D01*
X303256Y400300D01*
X303237Y400302D01*
X303135Y400280D01*
X303033Y400264D01*
X303016Y400254D01*
X302996Y400250D01*
X302907Y400197D01*
X302816Y400148D01*
X302802Y400134D01*
X302785Y400124D01*
X302718Y400045D01*
X302646Y399970D01*
X302638Y399952D01*
X302625Y399937D01*
X302586Y399841D01*
X302543Y399747D01*
X302541Y399727D01*
X302533Y399709D01*
X302515Y399542D01*
X302515Y398366D01*
X300134Y395985D01*
X271366Y395985D01*
X268985Y398366D01*
X268985Y414434D01*
X271366Y416815D01*
X300134Y416815D01*
X302515Y414434D01*
X302515Y413258D01*
X302518Y413238D01*
X302516Y413219D01*
X302538Y413117D01*
X302554Y413015D01*
X302564Y412998D01*
X302568Y412978D01*
X302621Y412889D01*
X302670Y412798D01*
X302684Y412784D01*
X302694Y412767D01*
X302773Y412700D01*
X302848Y412628D01*
X302866Y412620D01*
X302881Y412607D01*
X302977Y412568D01*
X303071Y412525D01*
X303091Y412523D01*
X303109Y412515D01*
X303276Y412497D01*
X304800Y412497D01*
X304826Y412501D01*
X304875Y412500D01*
X306014Y412613D01*
X306042Y412620D01*
X306070Y412620D01*
X306231Y412667D01*
X308337Y413539D01*
X308393Y413574D01*
X308453Y413599D01*
X308518Y413651D01*
X308546Y413669D01*
X308558Y413684D01*
X308584Y413704D01*
X310196Y415316D01*
X310234Y415369D01*
X310280Y415416D01*
X310320Y415489D01*
X310339Y415516D01*
X310345Y415534D01*
X310361Y415563D01*
X311233Y417669D01*
X311240Y417697D01*
X311253Y417722D01*
X311287Y417886D01*
X311400Y419025D01*
X311398Y419052D01*
X311403Y419100D01*
X311403Y428488D01*
X311401Y428504D01*
X311402Y428518D01*
X311391Y428568D01*
X311390Y428631D01*
X311372Y428680D01*
X311364Y428731D01*
X311351Y428755D01*
X311350Y428758D01*
X311341Y428773D01*
X311330Y428794D01*
X311305Y428862D01*
X311273Y428902D01*
X311248Y428948D01*
X311196Y428998D01*
X311152Y429054D01*
X311108Y429082D01*
X311070Y429118D01*
X311005Y429148D01*
X310945Y429187D01*
X310894Y429199D01*
X310847Y429221D01*
X310776Y429229D01*
X310706Y429247D01*
X310654Y429243D01*
X310603Y429248D01*
X310532Y429233D01*
X310461Y429228D01*
X310413Y429207D01*
X310362Y429196D01*
X310301Y429159D01*
X310235Y429131D01*
X310186Y429092D01*
X310172Y429085D01*
X310167Y429079D01*
X310151Y429070D01*
X310136Y429052D01*
X310104Y429026D01*
X308676Y427598D01*
X304101Y425703D01*
X303276Y425703D01*
X303256Y425700D01*
X303237Y425702D01*
X303135Y425680D01*
X303033Y425664D01*
X303016Y425654D01*
X302996Y425650D01*
X302907Y425597D01*
X302816Y425548D01*
X302802Y425534D01*
X302785Y425524D01*
X302718Y425445D01*
X302646Y425370D01*
X302638Y425352D01*
X302625Y425337D01*
X302586Y425241D01*
X302543Y425147D01*
X302541Y425127D01*
X302533Y425109D01*
X302515Y424942D01*
X302515Y423766D01*
X300134Y421385D01*
X271366Y421385D01*
X268985Y423766D01*
X268985Y439834D01*
X271366Y442215D01*
X300134Y442215D01*
X300579Y441770D01*
X300637Y441728D01*
X300689Y441678D01*
X300736Y441656D01*
X300778Y441626D01*
X300847Y441605D01*
X300912Y441575D01*
X300964Y441569D01*
X301014Y441554D01*
X301085Y441556D01*
X301156Y441548D01*
X301207Y441559D01*
X301259Y441560D01*
X301327Y441585D01*
X301397Y441600D01*
X301442Y441627D01*
X301490Y441645D01*
X301546Y441689D01*
X301608Y441726D01*
X301642Y441766D01*
X301682Y441798D01*
X301721Y441859D01*
X301768Y441913D01*
X301787Y441961D01*
X301815Y442005D01*
X301833Y442075D01*
X301860Y442141D01*
X301868Y442212D01*
X301876Y442244D01*
X301874Y442267D01*
X301878Y442308D01*
X301878Y446692D01*
X301867Y446763D01*
X301865Y446835D01*
X301847Y446883D01*
X301839Y446935D01*
X301805Y446998D01*
X301780Y447066D01*
X301748Y447106D01*
X301723Y447152D01*
X301672Y447202D01*
X301627Y447258D01*
X301583Y447286D01*
X301545Y447322D01*
X301480Y447352D01*
X301420Y447391D01*
X301369Y447403D01*
X301322Y447425D01*
X301251Y447433D01*
X301181Y447451D01*
X301129Y447447D01*
X301078Y447452D01*
X301007Y447437D01*
X300936Y447431D01*
X300888Y447411D01*
X300837Y447400D01*
X300776Y447363D01*
X300710Y447335D01*
X300654Y447290D01*
X300626Y447274D01*
X300611Y447256D01*
X300579Y447230D01*
X300134Y446785D01*
X271366Y446785D01*
X268985Y449166D01*
X268985Y465234D01*
X271366Y467615D01*
X278892Y467615D01*
X278912Y467618D01*
X278931Y467616D01*
X279033Y467638D01*
X279135Y467654D01*
X279152Y467664D01*
X279172Y467668D01*
X279261Y467721D01*
X279352Y467770D01*
X279366Y467784D01*
X279383Y467794D01*
X279450Y467873D01*
X279522Y467948D01*
X279530Y467966D01*
X279543Y467981D01*
X279582Y468077D01*
X279625Y468171D01*
X279627Y468191D01*
X279635Y468209D01*
X279653Y468376D01*
X279653Y556189D01*
X282515Y563098D01*
X287802Y568385D01*
X294711Y571247D01*
X420624Y571247D01*
X420644Y571250D01*
X420663Y571248D01*
X420765Y571270D01*
X420867Y571286D01*
X420884Y571296D01*
X420904Y571300D01*
X420993Y571353D01*
X421084Y571402D01*
X421098Y571416D01*
X421115Y571426D01*
X421182Y571505D01*
X421254Y571580D01*
X421262Y571598D01*
X421275Y571613D01*
X421314Y571709D01*
X421357Y571803D01*
X421359Y571823D01*
X421367Y571841D01*
X421385Y572008D01*
X421385Y573184D01*
X423766Y575565D01*
X452534Y575565D01*
X454915Y573184D01*
X454915Y557116D01*
X452534Y554735D01*
X423766Y554735D01*
X421385Y557116D01*
X421385Y558292D01*
X421382Y558312D01*
X421384Y558331D01*
X421362Y558433D01*
X421346Y558535D01*
X421336Y558552D01*
X421332Y558572D01*
X421279Y558661D01*
X421230Y558752D01*
X421216Y558766D01*
X421206Y558783D01*
X421127Y558850D01*
X421052Y558922D01*
X421034Y558930D01*
X421019Y558943D01*
X420923Y558982D01*
X420829Y559025D01*
X420809Y559027D01*
X420791Y559035D01*
X420624Y559053D01*
X298450Y559053D01*
X298424Y559049D01*
X298375Y559050D01*
X297236Y558937D01*
X297208Y558930D01*
X297180Y558930D01*
X297019Y558883D01*
X294913Y558011D01*
X294857Y557976D01*
X294797Y557951D01*
X294732Y557899D01*
X294704Y557881D01*
X294692Y557866D01*
X294666Y557846D01*
X293054Y556234D01*
X293016Y556181D01*
X292970Y556134D01*
X292930Y556061D01*
X292911Y556034D01*
X292905Y556016D01*
X292889Y555987D01*
X292017Y553881D01*
X292010Y553853D01*
X291997Y553828D01*
X291963Y553664D01*
X291850Y552525D01*
X291852Y552498D01*
X291847Y552450D01*
X291847Y468376D01*
X291850Y468356D01*
X291848Y468337D01*
X291870Y468235D01*
X291886Y468133D01*
X291896Y468116D01*
X291900Y468096D01*
X291953Y468007D01*
X292002Y467916D01*
X292016Y467902D01*
X292026Y467885D01*
X292105Y467818D01*
X292180Y467746D01*
X292198Y467738D01*
X292213Y467725D01*
X292309Y467686D01*
X292403Y467643D01*
X292423Y467641D01*
X292441Y467633D01*
X292608Y467615D01*
X300134Y467615D01*
X300579Y467170D01*
X300637Y467128D01*
X300689Y467078D01*
X300736Y467056D01*
X300778Y467026D01*
X300847Y467005D01*
X300912Y466975D01*
X300964Y466969D01*
X301014Y466954D01*
X301085Y466956D01*
X301156Y466948D01*
X301207Y466959D01*
X301259Y466960D01*
X301327Y466985D01*
X301397Y467000D01*
X301442Y467027D01*
X301490Y467045D01*
X301546Y467089D01*
X301608Y467126D01*
X301642Y467166D01*
X301682Y467198D01*
X301721Y467259D01*
X301768Y467313D01*
X301787Y467361D01*
X301815Y467405D01*
X301833Y467475D01*
X301860Y467541D01*
X301868Y467612D01*
X301876Y467644D01*
X301874Y467667D01*
X301878Y467708D01*
X301878Y527355D01*
X304029Y533974D01*
X308120Y539605D01*
X313751Y543696D01*
X320370Y545847D01*
X420624Y545847D01*
X420644Y545850D01*
X420663Y545848D01*
X420765Y545870D01*
X420867Y545886D01*
X420884Y545896D01*
X420904Y545900D01*
X420993Y545953D01*
X421084Y546002D01*
X421098Y546016D01*
X421115Y546026D01*
X421182Y546105D01*
X421254Y546180D01*
X421262Y546198D01*
X421275Y546213D01*
X421314Y546309D01*
X421357Y546403D01*
X421359Y546423D01*
X421367Y546441D01*
X421385Y546608D01*
X421385Y547784D01*
X423766Y550165D01*
X452534Y550165D01*
X454915Y547784D01*
X454915Y531716D01*
X452534Y529335D01*
X423766Y529335D01*
X421385Y531716D01*
X421385Y532892D01*
X421382Y532912D01*
X421384Y532931D01*
X421362Y533033D01*
X421346Y533135D01*
X421336Y533152D01*
X421332Y533172D01*
X421279Y533261D01*
X421230Y533352D01*
X421216Y533366D01*
X421206Y533383D01*
X421127Y533450D01*
X421052Y533522D01*
X421034Y533530D01*
X421019Y533543D01*
X420923Y533582D01*
X420829Y533625D01*
X420809Y533627D01*
X420791Y533635D01*
X420624Y533653D01*
X323850Y533653D01*
X323828Y533650D01*
X323790Y533651D01*
X322380Y533540D01*
X322374Y533539D01*
X322368Y533539D01*
X322204Y533505D01*
X319521Y532633D01*
X319489Y532617D01*
X319455Y532608D01*
X319309Y532525D01*
X317027Y530867D01*
X317001Y530841D01*
X316971Y530822D01*
X316858Y530698D01*
X315200Y528416D01*
X315184Y528384D01*
X315161Y528357D01*
X315092Y528204D01*
X314220Y525521D01*
X314219Y525515D01*
X314217Y525510D01*
X314185Y525345D01*
X314074Y523935D01*
X314076Y523913D01*
X314072Y523875D01*
X314072Y511630D01*
X314073Y511622D01*
X314072Y511614D01*
X314093Y511500D01*
X314111Y511387D01*
X314115Y511380D01*
X314117Y511372D01*
X314173Y511271D01*
X314227Y511170D01*
X314232Y511164D01*
X314236Y511157D01*
X314322Y511079D01*
X314405Y511000D01*
X314412Y510997D01*
X314418Y510992D01*
X314523Y510945D01*
X314628Y510897D01*
X314636Y510896D01*
X314643Y510893D01*
X314758Y510882D01*
X314872Y510870D01*
X314880Y510871D01*
X314888Y510870D01*
X315000Y510897D01*
X315113Y510922D01*
X315120Y510926D01*
X315127Y510928D01*
X315225Y510989D01*
X315324Y511048D01*
X315329Y511054D01*
X315336Y511058D01*
X315449Y511182D01*
X317645Y514205D01*
X323276Y518296D01*
X329895Y520447D01*
X420624Y520447D01*
X420644Y520450D01*
X420663Y520448D01*
X420765Y520470D01*
X420867Y520486D01*
X420884Y520496D01*
X420904Y520500D01*
X420993Y520553D01*
X421084Y520602D01*
X421098Y520616D01*
X421115Y520626D01*
X421182Y520705D01*
X421254Y520780D01*
X421262Y520798D01*
X421275Y520813D01*
X421314Y520909D01*
X421357Y521003D01*
X421359Y521023D01*
X421367Y521041D01*
X421385Y521208D01*
X421385Y522384D01*
X423766Y524765D01*
X452534Y524765D01*
X454915Y522384D01*
X454915Y506316D01*
X452534Y503935D01*
X423766Y503935D01*
X421385Y506316D01*
X421385Y507492D01*
X421382Y507512D01*
X421384Y507531D01*
X421362Y507633D01*
X421346Y507735D01*
X421336Y507752D01*
X421332Y507772D01*
X421279Y507861D01*
X421230Y507952D01*
X421216Y507966D01*
X421206Y507983D01*
X421127Y508050D01*
X421052Y508122D01*
X421034Y508130D01*
X421019Y508143D01*
X420923Y508182D01*
X420829Y508225D01*
X420809Y508227D01*
X420791Y508235D01*
X420624Y508253D01*
X333375Y508253D01*
X333353Y508250D01*
X333315Y508251D01*
X331905Y508140D01*
X331899Y508139D01*
X331893Y508139D01*
X331729Y508105D01*
X329046Y507233D01*
X329014Y507217D01*
X328980Y507208D01*
X328834Y507125D01*
X326552Y505467D01*
X326526Y505441D01*
X326496Y505422D01*
X326383Y505298D01*
X324725Y503016D01*
X324709Y502984D01*
X324686Y502957D01*
X324617Y502804D01*
X323745Y500121D01*
X323744Y500115D01*
X323742Y500110D01*
X323710Y499945D01*
X323599Y498535D01*
X323601Y498513D01*
X323597Y498475D01*
X323597Y488542D01*
X323608Y488471D01*
X323610Y488400D01*
X323628Y488351D01*
X323636Y488299D01*
X323670Y488236D01*
X323695Y488169D01*
X323727Y488128D01*
X323752Y488082D01*
X323804Y488033D01*
X323848Y487977D01*
X323892Y487948D01*
X323930Y487913D01*
X323995Y487882D01*
X324055Y487844D01*
X324106Y487831D01*
X324153Y487809D01*
X324224Y487801D01*
X324294Y487784D01*
X324346Y487788D01*
X324397Y487782D01*
X324468Y487797D01*
X324539Y487803D01*
X324587Y487823D01*
X324638Y487834D01*
X324699Y487871D01*
X324765Y487899D01*
X324821Y487944D01*
X324849Y487960D01*
X324864Y487978D01*
X324896Y488004D01*
X329077Y492185D01*
X335986Y495047D01*
X420624Y495047D01*
X420644Y495050D01*
X420663Y495048D01*
X420765Y495070D01*
X420867Y495086D01*
X420884Y495096D01*
X420904Y495100D01*
X420993Y495153D01*
X421084Y495202D01*
X421098Y495216D01*
X421115Y495226D01*
X421182Y495305D01*
X421254Y495380D01*
X421262Y495398D01*
X421275Y495413D01*
X421314Y495509D01*
X421357Y495603D01*
X421359Y495623D01*
X421367Y495641D01*
X421385Y495808D01*
X421385Y496984D01*
X423766Y499365D01*
X452534Y499365D01*
X454915Y496984D01*
X454915Y480916D01*
X452534Y478535D01*
X423766Y478535D01*
X421385Y480916D01*
X421385Y482092D01*
X421382Y482112D01*
X421384Y482131D01*
X421362Y482233D01*
X421346Y482335D01*
X421336Y482352D01*
X421332Y482372D01*
X421279Y482461D01*
X421230Y482552D01*
X421216Y482566D01*
X421206Y482583D01*
X421127Y482650D01*
X421052Y482722D01*
X421034Y482730D01*
X421019Y482743D01*
X420923Y482782D01*
X420829Y482825D01*
X420809Y482827D01*
X420791Y482835D01*
X420624Y482853D01*
X339725Y482853D01*
X339699Y482849D01*
X339650Y482850D01*
X338511Y482737D01*
X338483Y482730D01*
X338455Y482730D01*
X338294Y482683D01*
X336188Y481811D01*
X336132Y481776D01*
X336072Y481751D01*
X336007Y481699D01*
X335979Y481681D01*
X335967Y481666D01*
X335941Y481646D01*
X334329Y480034D01*
X334291Y479981D01*
X334245Y479934D01*
X334205Y479861D01*
X334186Y479834D01*
X334180Y479816D01*
X334164Y479787D01*
X333292Y477681D01*
X333285Y477653D01*
X333272Y477628D01*
X333238Y477464D01*
X333125Y476325D01*
X333127Y476298D01*
X333122Y476250D01*
X333122Y455008D01*
X333133Y454937D01*
X333135Y454865D01*
X333153Y454817D01*
X333161Y454765D01*
X333195Y454702D01*
X333220Y454634D01*
X333252Y454594D01*
X333277Y454548D01*
X333328Y454498D01*
X333373Y454442D01*
X333417Y454414D01*
X333455Y454378D01*
X333520Y454348D01*
X333580Y454309D01*
X333631Y454297D01*
X333678Y454275D01*
X333749Y454267D01*
X333819Y454249D01*
X333871Y454253D01*
X333922Y454248D01*
X333993Y454263D01*
X334064Y454269D01*
X334112Y454289D01*
X334163Y454300D01*
X334224Y454337D01*
X334290Y454365D01*
X334346Y454410D01*
X334374Y454426D01*
X334389Y454444D01*
X334421Y454470D01*
X334866Y454915D01*
X363634Y454915D01*
X366015Y452534D01*
X366015Y451358D01*
X366018Y451338D01*
X366016Y451319D01*
X366038Y451217D01*
X366054Y451115D01*
X366064Y451098D01*
X366068Y451078D01*
X366121Y450989D01*
X366170Y450898D01*
X366184Y450884D01*
X366194Y450867D01*
X366273Y450800D01*
X366348Y450728D01*
X366366Y450720D01*
X366381Y450707D01*
X366477Y450668D01*
X366571Y450625D01*
X366591Y450623D01*
X366609Y450615D01*
X366776Y450597D01*
X521106Y450597D01*
X527916Y448384D01*
X533710Y444175D01*
X535022Y442369D01*
X535042Y442349D01*
X535056Y442325D01*
X535129Y442263D01*
X535197Y442196D01*
X535222Y442183D01*
X535243Y442165D01*
X535332Y442129D01*
X535418Y442087D01*
X535445Y442084D01*
X535471Y442073D01*
X535638Y442055D01*
X545719Y442055D01*
X546197Y441577D01*
X546213Y441565D01*
X546225Y441549D01*
X546313Y441493D01*
X546396Y441433D01*
X546415Y441427D01*
X546432Y441416D01*
X546533Y441391D01*
X546632Y441361D01*
X546651Y441361D01*
X546671Y441356D01*
X546774Y441364D01*
X546877Y441367D01*
X546896Y441374D01*
X546916Y441376D01*
X547011Y441416D01*
X547108Y441452D01*
X547124Y441464D01*
X547142Y441472D01*
X547273Y441577D01*
X547751Y442055D01*
X571119Y442055D01*
X573500Y439674D01*
X573500Y416306D01*
X571119Y413925D01*
X547751Y413925D01*
X547273Y414403D01*
X547257Y414415D01*
X547245Y414431D01*
X547158Y414486D01*
X547074Y414547D01*
X547055Y414553D01*
X547038Y414564D01*
X546937Y414589D01*
X546838Y414619D01*
X546819Y414619D01*
X546799Y414624D01*
X546696Y414616D01*
X546593Y414613D01*
X546574Y414606D01*
X546554Y414604D01*
X546459Y414564D01*
X546362Y414528D01*
X546346Y414516D01*
X546328Y414508D01*
X546197Y414403D01*
X545719Y413925D01*
X522351Y413925D01*
X519970Y416306D01*
X519970Y437467D01*
X519966Y437490D01*
X519969Y437514D01*
X519947Y437611D01*
X519931Y437709D01*
X519919Y437730D01*
X519914Y437754D01*
X519862Y437839D01*
X519815Y437927D01*
X519798Y437943D01*
X519786Y437964D01*
X519709Y438028D01*
X519637Y438096D01*
X519615Y438106D01*
X519597Y438122D01*
X519444Y438191D01*
X519270Y438247D01*
X519265Y438248D01*
X519259Y438251D01*
X519095Y438282D01*
X517585Y438401D01*
X517563Y438399D01*
X517525Y438403D01*
X366776Y438403D01*
X366756Y438400D01*
X366737Y438402D01*
X366635Y438380D01*
X366533Y438364D01*
X366516Y438354D01*
X366496Y438350D01*
X366407Y438297D01*
X366316Y438248D01*
X366302Y438234D01*
X366285Y438224D01*
X366218Y438145D01*
X366146Y438070D01*
X366138Y438052D01*
X366125Y438037D01*
X366086Y437941D01*
X366043Y437847D01*
X366041Y437827D01*
X366033Y437809D01*
X366015Y437642D01*
X366015Y436466D01*
X363634Y434085D01*
X334866Y434085D01*
X334421Y434530D01*
X334363Y434572D01*
X334311Y434622D01*
X334264Y434644D01*
X334222Y434674D01*
X334153Y434695D01*
X334088Y434725D01*
X334036Y434731D01*
X333986Y434746D01*
X333915Y434744D01*
X333844Y434752D01*
X333793Y434741D01*
X333741Y434740D01*
X333673Y434715D01*
X333603Y434700D01*
X333558Y434673D01*
X333510Y434655D01*
X333454Y434611D01*
X333392Y434574D01*
X333358Y434534D01*
X333318Y434502D01*
X333279Y434441D01*
X333232Y434387D01*
X333213Y434339D01*
X333185Y434295D01*
X333167Y434225D01*
X333140Y434159D01*
X333132Y434088D01*
X333124Y434056D01*
X333126Y434033D01*
X333122Y433992D01*
X333122Y427435D01*
X333130Y427387D01*
X333128Y427339D01*
X333149Y427266D01*
X333161Y427192D01*
X333184Y427149D01*
X333198Y427103D01*
X333241Y427041D01*
X333277Y426974D01*
X333311Y426941D01*
X333339Y426902D01*
X333400Y426857D01*
X333455Y426805D01*
X333499Y426785D01*
X333537Y426756D01*
X333609Y426733D01*
X333678Y426701D01*
X333726Y426696D01*
X333772Y426681D01*
X333847Y426683D01*
X333922Y426674D01*
X333969Y426685D01*
X334018Y426685D01*
X334089Y426710D01*
X334163Y426727D01*
X334204Y426751D01*
X334250Y426767D01*
X334309Y426814D01*
X334374Y426853D01*
X334405Y426889D01*
X334443Y426919D01*
X334491Y426984D01*
X334990Y427483D01*
X335569Y427818D01*
X336216Y427991D01*
X347727Y427991D01*
X347727Y419862D01*
X347730Y419842D01*
X347728Y419823D01*
X347750Y419721D01*
X347767Y419619D01*
X347776Y419602D01*
X347780Y419582D01*
X347833Y419493D01*
X347882Y419402D01*
X347896Y419388D01*
X347906Y419371D01*
X347985Y419304D01*
X348060Y419233D01*
X348078Y419224D01*
X348093Y419211D01*
X348189Y419172D01*
X348283Y419129D01*
X348303Y419127D01*
X348321Y419119D01*
X348488Y419101D01*
X349251Y419101D01*
X349251Y419099D01*
X348488Y419099D01*
X348468Y419096D01*
X348449Y419098D01*
X348347Y419076D01*
X348245Y419059D01*
X348228Y419050D01*
X348208Y419046D01*
X348119Y418993D01*
X348028Y418944D01*
X348014Y418930D01*
X347997Y418920D01*
X347930Y418841D01*
X347859Y418766D01*
X347850Y418748D01*
X347837Y418733D01*
X347798Y418637D01*
X347755Y418543D01*
X347753Y418523D01*
X347745Y418505D01*
X347727Y418338D01*
X347727Y410209D01*
X336216Y410209D01*
X335569Y410382D01*
X334990Y410717D01*
X334499Y411208D01*
X334489Y411226D01*
X334435Y411278D01*
X334387Y411336D01*
X334346Y411362D01*
X334311Y411395D01*
X334242Y411427D01*
X334178Y411467D01*
X334132Y411478D01*
X334088Y411499D01*
X334013Y411507D01*
X333939Y411525D01*
X333891Y411520D01*
X333844Y411526D01*
X333770Y411510D01*
X333694Y411503D01*
X333650Y411484D01*
X333603Y411473D01*
X333538Y411435D01*
X333469Y411404D01*
X333433Y411372D01*
X333392Y411347D01*
X333343Y411290D01*
X333287Y411239D01*
X333263Y411197D01*
X333232Y411160D01*
X333204Y411090D01*
X333167Y411024D01*
X333158Y410977D01*
X333140Y410932D01*
X333126Y410805D01*
X333122Y410782D01*
X333123Y410776D01*
X333122Y410765D01*
X333122Y402035D01*
X333130Y401987D01*
X333128Y401939D01*
X333149Y401866D01*
X333161Y401792D01*
X333184Y401749D01*
X333198Y401703D01*
X333241Y401641D01*
X333277Y401574D01*
X333311Y401541D01*
X333339Y401502D01*
X333400Y401457D01*
X333455Y401405D01*
X333499Y401385D01*
X333537Y401356D01*
X333609Y401333D01*
X333678Y401301D01*
X333726Y401296D01*
X333772Y401281D01*
X333847Y401283D01*
X333922Y401274D01*
X333969Y401285D01*
X334018Y401285D01*
X334089Y401310D01*
X334163Y401327D01*
X334204Y401351D01*
X334250Y401367D01*
X334309Y401414D01*
X334374Y401453D01*
X334405Y401489D01*
X334443Y401519D01*
X334491Y401584D01*
X334990Y402083D01*
X335569Y402418D01*
X336216Y402591D01*
X347727Y402591D01*
X347727Y394462D01*
X347730Y394442D01*
X347728Y394423D01*
X347750Y394321D01*
X347767Y394219D01*
X347776Y394202D01*
X347780Y394182D01*
X347833Y394093D01*
X347882Y394002D01*
X347896Y393988D01*
X347906Y393971D01*
X347985Y393904D01*
X348060Y393833D01*
X348078Y393824D01*
X348093Y393811D01*
X348189Y393772D01*
X348283Y393729D01*
X348303Y393727D01*
X348321Y393719D01*
X348488Y393701D01*
X349251Y393701D01*
X349251Y393699D01*
X348488Y393699D01*
X348468Y393696D01*
X348449Y393698D01*
X348347Y393676D01*
X348245Y393659D01*
X348228Y393650D01*
X348208Y393646D01*
X348119Y393593D01*
X348028Y393544D01*
X348014Y393530D01*
X347997Y393520D01*
X347930Y393441D01*
X347859Y393366D01*
X347850Y393348D01*
X347837Y393333D01*
X347798Y393237D01*
X347755Y393143D01*
X347753Y393123D01*
X347745Y393105D01*
X347727Y392938D01*
X347727Y384809D01*
X336216Y384809D01*
X335569Y384982D01*
X334990Y385317D01*
X334517Y385790D01*
X334182Y386369D01*
X334009Y387016D01*
X334009Y388277D01*
X333994Y388373D01*
X333984Y388470D01*
X333974Y388494D01*
X333970Y388520D01*
X333924Y388606D01*
X333884Y388695D01*
X333867Y388714D01*
X333854Y388737D01*
X333784Y388804D01*
X333718Y388876D01*
X333695Y388888D01*
X333676Y388906D01*
X333588Y388947D01*
X333502Y388994D01*
X333477Y388999D01*
X333453Y389010D01*
X333356Y389021D01*
X333260Y389038D01*
X333234Y389034D01*
X333209Y389037D01*
X333113Y389016D01*
X333017Y389002D01*
X332994Y388990D01*
X332968Y388985D01*
X332885Y388935D01*
X332798Y388891D01*
X332779Y388872D01*
X332757Y388859D01*
X332694Y388785D01*
X332626Y388715D01*
X332610Y388686D01*
X332597Y388672D01*
X332585Y388641D01*
X332545Y388568D01*
X330260Y383053D01*
X324972Y377765D01*
X318064Y374903D01*
X303276Y374903D01*
X303256Y374900D01*
X303237Y374902D01*
X303135Y374880D01*
X303033Y374864D01*
X303016Y374854D01*
X302996Y374850D01*
X302907Y374797D01*
X302816Y374748D01*
X302802Y374734D01*
X302785Y374724D01*
X302718Y374645D01*
X302646Y374570D01*
X302638Y374552D01*
X302625Y374537D01*
X302586Y374441D01*
X302543Y374347D01*
X302541Y374327D01*
X302533Y374309D01*
X302515Y374142D01*
X302515Y372966D01*
X300134Y370585D01*
X271366Y370585D01*
G37*
%LPD*%
%LPC*%
G36*
X114048Y311014D02*
X114048Y311014D01*
X114016Y311021D01*
X113999Y311019D01*
X113972Y311022D01*
X38428Y311022D01*
X38367Y311012D01*
X38306Y311012D01*
X38289Y311007D01*
X38125Y311020D01*
X38103Y311018D01*
X38065Y311022D01*
X37900Y311022D01*
X37838Y311034D01*
X37807Y311044D01*
X37790Y311043D01*
X37763Y311048D01*
X35398Y311235D01*
X35366Y311232D01*
X35334Y311237D01*
X35248Y311222D01*
X35158Y311244D01*
X35125Y311246D01*
X35040Y311263D01*
X34971Y311268D01*
X34967Y311271D01*
X34809Y311328D01*
X32464Y311891D01*
X32432Y311893D01*
X32402Y311903D01*
X32315Y311902D01*
X32229Y311938D01*
X32197Y311945D01*
X32115Y311975D01*
X32048Y311991D01*
X32044Y311994D01*
X31898Y312075D01*
X29669Y312998D01*
X29638Y313005D01*
X29610Y313019D01*
X29524Y313032D01*
X29444Y313081D01*
X29414Y313093D01*
X29338Y313135D01*
X29274Y313162D01*
X29271Y313165D01*
X29138Y313268D01*
X27082Y314528D01*
X27053Y314540D01*
X27027Y314559D01*
X26943Y314585D01*
X26873Y314646D01*
X26845Y314663D01*
X26776Y314716D01*
X26717Y314752D01*
X26715Y314756D01*
X26600Y314879D01*
X24766Y316445D01*
X24739Y316461D01*
X24717Y316484D01*
X24638Y316523D01*
X24578Y316593D01*
X24553Y316615D01*
X24493Y316678D01*
X24441Y316723D01*
X24439Y316728D01*
X24345Y316866D01*
X22779Y318700D01*
X22754Y318721D01*
X22736Y318746D01*
X22664Y318797D01*
X22616Y318876D01*
X22594Y318901D01*
X22546Y318973D01*
X22501Y319026D01*
X22500Y319030D01*
X22428Y319182D01*
X21168Y321238D01*
X21147Y321263D01*
X21133Y321291D01*
X21071Y321352D01*
X21035Y321438D01*
X21018Y321466D01*
X20981Y321544D01*
X20945Y321604D01*
X20944Y321608D01*
X20898Y321769D01*
X19975Y323998D01*
X19958Y324025D01*
X19948Y324055D01*
X19896Y324125D01*
X19875Y324215D01*
X19862Y324246D01*
X19838Y324329D01*
X19811Y324393D01*
X19812Y324398D01*
X19791Y324564D01*
X19228Y326909D01*
X19215Y326939D01*
X19210Y326970D01*
X19170Y327048D01*
X19163Y327140D01*
X19155Y327172D01*
X19144Y327258D01*
X19128Y327326D01*
X19129Y327330D01*
X19135Y327498D01*
X18945Y329902D01*
X18938Y329933D01*
X18938Y329965D01*
X18910Y330048D01*
X18917Y330140D01*
X18914Y330173D01*
X18917Y330260D01*
X18912Y330329D01*
X18914Y330333D01*
X18945Y330498D01*
X19135Y332902D01*
X19132Y332934D01*
X19137Y332966D01*
X19122Y333052D01*
X19144Y333142D01*
X19146Y333175D01*
X19163Y333260D01*
X19168Y333329D01*
X19171Y333333D01*
X19228Y333491D01*
X19791Y335836D01*
X19793Y335868D01*
X19803Y335898D01*
X19802Y335985D01*
X19838Y336071D01*
X19845Y336103D01*
X19859Y336141D01*
X19869Y336162D01*
X19870Y336171D01*
X19875Y336185D01*
X19891Y336252D01*
X19894Y336256D01*
X19975Y336402D01*
X20898Y338631D01*
X20905Y338662D01*
X20919Y338690D01*
X20932Y338776D01*
X20981Y338856D01*
X20993Y338886D01*
X21035Y338962D01*
X21062Y339026D01*
X21065Y339029D01*
X21168Y339162D01*
X22428Y341218D01*
X22440Y341247D01*
X22459Y341273D01*
X22485Y341357D01*
X22546Y341427D01*
X22563Y341455D01*
X22616Y341524D01*
X22652Y341583D01*
X22656Y341585D01*
X22779Y341700D01*
X24345Y343534D01*
X24361Y343561D01*
X24384Y343583D01*
X24423Y343662D01*
X24493Y343722D01*
X24515Y343747D01*
X24578Y343807D01*
X24623Y343859D01*
X24628Y343861D01*
X24766Y343955D01*
X26600Y345521D01*
X26621Y345546D01*
X26646Y345564D01*
X26697Y345636D01*
X26776Y345684D01*
X26801Y345706D01*
X26873Y345754D01*
X26926Y345799D01*
X26930Y345800D01*
X27082Y345872D01*
X29138Y347132D01*
X29163Y347153D01*
X29191Y347167D01*
X29252Y347229D01*
X29338Y347265D01*
X29366Y347282D01*
X29444Y347319D01*
X29504Y347355D01*
X29508Y347356D01*
X29669Y347402D01*
X31898Y348325D01*
X31925Y348342D01*
X31955Y348352D01*
X32025Y348404D01*
X32115Y348425D01*
X32146Y348438D01*
X32229Y348462D01*
X32293Y348489D01*
X32298Y348488D01*
X32464Y348509D01*
X34809Y349072D01*
X34839Y349085D01*
X34870Y349090D01*
X34948Y349130D01*
X35040Y349137D01*
X35072Y349145D01*
X35158Y349156D01*
X35226Y349172D01*
X35230Y349171D01*
X35398Y349165D01*
X37763Y349352D01*
X37823Y349366D01*
X37885Y349371D01*
X37900Y349378D01*
X38065Y349378D01*
X38087Y349381D01*
X38125Y349380D01*
X38290Y349393D01*
X38352Y349386D01*
X38384Y349379D01*
X38401Y349381D01*
X38428Y349378D01*
X113972Y349378D01*
X114033Y349388D01*
X114094Y349388D01*
X114111Y349393D01*
X114275Y349380D01*
X114297Y349382D01*
X114335Y349378D01*
X114500Y349378D01*
X114562Y349366D01*
X114593Y349356D01*
X114610Y349357D01*
X114637Y349352D01*
X117002Y349165D01*
X117034Y349168D01*
X117066Y349163D01*
X117152Y349178D01*
X117242Y349156D01*
X117275Y349154D01*
X117360Y349137D01*
X117429Y349132D01*
X117433Y349129D01*
X117591Y349072D01*
X119936Y348509D01*
X119968Y348507D01*
X119998Y348497D01*
X120085Y348498D01*
X120171Y348462D01*
X120203Y348455D01*
X120285Y348425D01*
X120352Y348409D01*
X120356Y348406D01*
X120502Y348325D01*
X122731Y347402D01*
X122762Y347395D01*
X122790Y347381D01*
X122876Y347368D01*
X122956Y347319D01*
X122986Y347307D01*
X123062Y347265D01*
X123126Y347238D01*
X123129Y347235D01*
X123262Y347132D01*
X125318Y345872D01*
X125347Y345860D01*
X125373Y345841D01*
X125457Y345815D01*
X125527Y345754D01*
X125555Y345737D01*
X125624Y345684D01*
X125683Y345648D01*
X125685Y345644D01*
X125800Y345521D01*
X127634Y343955D01*
X127661Y343939D01*
X127683Y343916D01*
X127762Y343877D01*
X127822Y343807D01*
X127847Y343785D01*
X127907Y343722D01*
X127959Y343677D01*
X127961Y343672D01*
X128055Y343534D01*
X129621Y341700D01*
X129646Y341679D01*
X129664Y341654D01*
X129736Y341603D01*
X129784Y341524D01*
X129806Y341499D01*
X129854Y341427D01*
X129899Y341374D01*
X129900Y341370D01*
X129972Y341218D01*
X131232Y339162D01*
X131253Y339137D01*
X131267Y339109D01*
X131329Y339048D01*
X131365Y338962D01*
X131382Y338934D01*
X131419Y338856D01*
X131455Y338796D01*
X131456Y338792D01*
X131502Y338631D01*
X132425Y336402D01*
X132442Y336375D01*
X132452Y336345D01*
X132504Y336275D01*
X132525Y336185D01*
X132538Y336154D01*
X132553Y336102D01*
X132557Y336087D01*
X132559Y336084D01*
X132562Y336071D01*
X132589Y336007D01*
X132588Y336002D01*
X132609Y335836D01*
X133172Y333491D01*
X133185Y333461D01*
X133190Y333430D01*
X133230Y333352D01*
X133237Y333260D01*
X133245Y333228D01*
X133256Y333142D01*
X133272Y333074D01*
X133271Y333070D01*
X133265Y332902D01*
X133455Y330498D01*
X133462Y330467D01*
X133462Y330435D01*
X133490Y330352D01*
X133483Y330260D01*
X133486Y330227D01*
X133483Y330140D01*
X133488Y330071D01*
X133486Y330067D01*
X133455Y329902D01*
X133265Y327498D01*
X133268Y327466D01*
X133263Y327434D01*
X133278Y327348D01*
X133256Y327258D01*
X133254Y327225D01*
X133237Y327140D01*
X133232Y327071D01*
X133229Y327067D01*
X133172Y326909D01*
X132609Y324564D01*
X132607Y324532D01*
X132597Y324502D01*
X132598Y324415D01*
X132562Y324329D01*
X132555Y324297D01*
X132525Y324215D01*
X132509Y324148D01*
X132506Y324144D01*
X132425Y323998D01*
X131502Y321769D01*
X131495Y321738D01*
X131480Y321710D01*
X131468Y321623D01*
X131419Y321544D01*
X131407Y321514D01*
X131365Y321438D01*
X131338Y321374D01*
X131335Y321371D01*
X131232Y321238D01*
X129972Y319182D01*
X129960Y319153D01*
X129941Y319127D01*
X129915Y319043D01*
X129854Y318973D01*
X129837Y318945D01*
X129784Y318876D01*
X129748Y318817D01*
X129744Y318815D01*
X129621Y318700D01*
X128055Y316866D01*
X128039Y316839D01*
X128016Y316817D01*
X127977Y316738D01*
X127907Y316678D01*
X127885Y316653D01*
X127822Y316593D01*
X127777Y316541D01*
X127772Y316539D01*
X127634Y316445D01*
X125800Y314879D01*
X125779Y314854D01*
X125753Y314836D01*
X125703Y314764D01*
X125624Y314716D01*
X125599Y314694D01*
X125527Y314646D01*
X125474Y314601D01*
X125470Y314600D01*
X125318Y314528D01*
X123262Y313268D01*
X123237Y313248D01*
X123209Y313233D01*
X123148Y313171D01*
X123062Y313135D01*
X123034Y313118D01*
X122956Y313081D01*
X122896Y313045D01*
X122892Y313044D01*
X122731Y312998D01*
X120502Y312075D01*
X120475Y312058D01*
X120445Y312048D01*
X120375Y311996D01*
X120285Y311975D01*
X120254Y311962D01*
X120171Y311938D01*
X120107Y311911D01*
X120102Y311912D01*
X119936Y311891D01*
X117591Y311328D01*
X117561Y311315D01*
X117530Y311310D01*
X117452Y311270D01*
X117360Y311263D01*
X117328Y311255D01*
X117242Y311244D01*
X117174Y311228D01*
X117170Y311229D01*
X117002Y311235D01*
X114637Y311048D01*
X114577Y311034D01*
X114515Y311029D01*
X114500Y311022D01*
X114335Y311022D01*
X114313Y311019D01*
X114275Y311020D01*
X114110Y311007D01*
X114048Y311014D01*
G37*
%LPD*%
%LPC*%
G36*
X114048Y488814D02*
X114048Y488814D01*
X114016Y488821D01*
X113999Y488819D01*
X113972Y488822D01*
X38428Y488822D01*
X38367Y488812D01*
X38306Y488812D01*
X38289Y488807D01*
X38125Y488820D01*
X38103Y488818D01*
X38065Y488822D01*
X37900Y488822D01*
X37838Y488834D01*
X37807Y488844D01*
X37790Y488843D01*
X37763Y488848D01*
X35398Y489035D01*
X35366Y489032D01*
X35334Y489037D01*
X35248Y489022D01*
X35158Y489044D01*
X35125Y489046D01*
X35040Y489063D01*
X34971Y489068D01*
X34967Y489071D01*
X34809Y489128D01*
X32464Y489691D01*
X32432Y489693D01*
X32402Y489703D01*
X32315Y489702D01*
X32229Y489738D01*
X32197Y489745D01*
X32115Y489775D01*
X32048Y489791D01*
X32044Y489794D01*
X31898Y489875D01*
X29669Y490798D01*
X29638Y490805D01*
X29610Y490819D01*
X29524Y490832D01*
X29444Y490881D01*
X29414Y490893D01*
X29338Y490935D01*
X29274Y490962D01*
X29271Y490965D01*
X29138Y491068D01*
X27082Y492328D01*
X27053Y492340D01*
X27027Y492359D01*
X26943Y492385D01*
X26873Y492446D01*
X26845Y492463D01*
X26776Y492516D01*
X26717Y492552D01*
X26715Y492556D01*
X26600Y492679D01*
X24766Y494245D01*
X24739Y494261D01*
X24717Y494284D01*
X24638Y494323D01*
X24578Y494393D01*
X24553Y494415D01*
X24493Y494478D01*
X24441Y494523D01*
X24439Y494528D01*
X24345Y494666D01*
X22779Y496500D01*
X22754Y496521D01*
X22736Y496547D01*
X22664Y496597D01*
X22616Y496676D01*
X22594Y496701D01*
X22546Y496773D01*
X22501Y496826D01*
X22500Y496830D01*
X22428Y496982D01*
X21168Y499038D01*
X21147Y499063D01*
X21133Y499091D01*
X21071Y499152D01*
X21035Y499238D01*
X21018Y499266D01*
X20981Y499344D01*
X20945Y499404D01*
X20944Y499408D01*
X20898Y499569D01*
X19975Y501798D01*
X19958Y501825D01*
X19948Y501855D01*
X19896Y501925D01*
X19875Y502015D01*
X19862Y502046D01*
X19838Y502129D01*
X19811Y502193D01*
X19812Y502198D01*
X19791Y502364D01*
X19228Y504709D01*
X19215Y504739D01*
X19210Y504770D01*
X19170Y504848D01*
X19163Y504940D01*
X19155Y504972D01*
X19144Y505058D01*
X19128Y505126D01*
X19129Y505130D01*
X19135Y505298D01*
X18945Y507702D01*
X18938Y507733D01*
X18938Y507765D01*
X18910Y507848D01*
X18917Y507940D01*
X18914Y507973D01*
X18917Y508060D01*
X18912Y508129D01*
X18914Y508133D01*
X18945Y508298D01*
X19135Y510702D01*
X19132Y510734D01*
X19137Y510766D01*
X19122Y510852D01*
X19144Y510942D01*
X19146Y510975D01*
X19163Y511060D01*
X19168Y511129D01*
X19171Y511133D01*
X19228Y511291D01*
X19791Y513636D01*
X19793Y513668D01*
X19803Y513698D01*
X19802Y513785D01*
X19838Y513871D01*
X19845Y513903D01*
X19875Y513985D01*
X19891Y514052D01*
X19894Y514056D01*
X19902Y514070D01*
X19904Y514072D01*
X19907Y514079D01*
X19975Y514202D01*
X20898Y516431D01*
X20905Y516462D01*
X20919Y516490D01*
X20932Y516576D01*
X20981Y516656D01*
X20993Y516686D01*
X21035Y516762D01*
X21062Y516826D01*
X21065Y516829D01*
X21168Y516962D01*
X22428Y519018D01*
X22440Y519047D01*
X22459Y519073D01*
X22485Y519157D01*
X22546Y519227D01*
X22563Y519255D01*
X22616Y519324D01*
X22652Y519383D01*
X22656Y519385D01*
X22779Y519500D01*
X24345Y521334D01*
X24361Y521361D01*
X24384Y521383D01*
X24423Y521462D01*
X24493Y521522D01*
X24515Y521547D01*
X24578Y521607D01*
X24623Y521659D01*
X24628Y521661D01*
X24766Y521755D01*
X26600Y523321D01*
X26621Y523346D01*
X26646Y523364D01*
X26697Y523436D01*
X26776Y523484D01*
X26801Y523506D01*
X26873Y523554D01*
X26926Y523599D01*
X26930Y523600D01*
X27082Y523672D01*
X29138Y524932D01*
X29163Y524953D01*
X29191Y524967D01*
X29252Y525029D01*
X29338Y525065D01*
X29366Y525082D01*
X29444Y525119D01*
X29504Y525155D01*
X29508Y525156D01*
X29650Y525197D01*
X29652Y525197D01*
X29653Y525197D01*
X29669Y525202D01*
X31898Y526125D01*
X31925Y526142D01*
X31955Y526152D01*
X32025Y526204D01*
X32115Y526225D01*
X32146Y526238D01*
X32229Y526262D01*
X32293Y526289D01*
X32298Y526288D01*
X32464Y526309D01*
X34809Y526872D01*
X34839Y526885D01*
X34870Y526890D01*
X34948Y526930D01*
X35040Y526937D01*
X35072Y526945D01*
X35158Y526956D01*
X35226Y526972D01*
X35230Y526971D01*
X35398Y526965D01*
X37763Y527152D01*
X37823Y527166D01*
X37885Y527171D01*
X37900Y527178D01*
X38065Y527178D01*
X38087Y527181D01*
X38125Y527180D01*
X38290Y527193D01*
X38352Y527186D01*
X38384Y527179D01*
X38401Y527181D01*
X38428Y527178D01*
X113972Y527178D01*
X114033Y527188D01*
X114094Y527188D01*
X114111Y527193D01*
X114275Y527180D01*
X114297Y527182D01*
X114335Y527178D01*
X114500Y527178D01*
X114562Y527166D01*
X114593Y527156D01*
X114610Y527157D01*
X114637Y527152D01*
X117002Y526965D01*
X117034Y526968D01*
X117066Y526963D01*
X117152Y526978D01*
X117242Y526956D01*
X117275Y526954D01*
X117360Y526937D01*
X117429Y526932D01*
X117433Y526929D01*
X117591Y526872D01*
X119936Y526309D01*
X119968Y526307D01*
X119998Y526297D01*
X120085Y526298D01*
X120171Y526262D01*
X120203Y526255D01*
X120285Y526225D01*
X120352Y526209D01*
X120356Y526206D01*
X120502Y526125D01*
X122731Y525202D01*
X122762Y525195D01*
X122790Y525181D01*
X122876Y525168D01*
X122956Y525119D01*
X122986Y525107D01*
X123062Y525065D01*
X123126Y525038D01*
X123129Y525035D01*
X123262Y524932D01*
X125318Y523672D01*
X125347Y523660D01*
X125373Y523641D01*
X125457Y523615D01*
X125527Y523554D01*
X125555Y523537D01*
X125624Y523484D01*
X125683Y523448D01*
X125685Y523444D01*
X125800Y523321D01*
X127634Y521755D01*
X127661Y521739D01*
X127683Y521716D01*
X127762Y521677D01*
X127822Y521607D01*
X127847Y521585D01*
X127907Y521522D01*
X127959Y521477D01*
X127961Y521472D01*
X128055Y521334D01*
X129621Y519500D01*
X129646Y519479D01*
X129664Y519454D01*
X129736Y519403D01*
X129784Y519324D01*
X129806Y519299D01*
X129854Y519227D01*
X129899Y519174D01*
X129900Y519170D01*
X129972Y519018D01*
X131232Y516962D01*
X131253Y516937D01*
X131267Y516909D01*
X131329Y516848D01*
X131365Y516762D01*
X131382Y516734D01*
X131419Y516656D01*
X131455Y516596D01*
X131456Y516592D01*
X131502Y516431D01*
X132425Y514202D01*
X132442Y514175D01*
X132452Y514145D01*
X132504Y514075D01*
X132525Y513985D01*
X132538Y513954D01*
X132562Y513871D01*
X132589Y513807D01*
X132588Y513802D01*
X132609Y513636D01*
X133172Y511291D01*
X133185Y511261D01*
X133190Y511230D01*
X133230Y511152D01*
X133237Y511060D01*
X133245Y511028D01*
X133256Y510942D01*
X133272Y510874D01*
X133271Y510870D01*
X133265Y510702D01*
X133455Y508298D01*
X133462Y508267D01*
X133462Y508235D01*
X133490Y508152D01*
X133483Y508060D01*
X133486Y508027D01*
X133483Y507940D01*
X133488Y507871D01*
X133486Y507867D01*
X133455Y507702D01*
X133265Y505298D01*
X133268Y505266D01*
X133263Y505235D01*
X133278Y505148D01*
X133256Y505058D01*
X133254Y505025D01*
X133237Y504940D01*
X133232Y504871D01*
X133229Y504867D01*
X133172Y504709D01*
X132609Y502364D01*
X132607Y502332D01*
X132597Y502302D01*
X132598Y502215D01*
X132562Y502129D01*
X132555Y502097D01*
X132525Y502015D01*
X132509Y501948D01*
X132506Y501944D01*
X132425Y501798D01*
X131502Y499569D01*
X131495Y499538D01*
X131481Y499510D01*
X131477Y499488D01*
X131473Y499480D01*
X131467Y499422D01*
X131419Y499344D01*
X131407Y499314D01*
X131365Y499238D01*
X131338Y499174D01*
X131335Y499171D01*
X131232Y499038D01*
X129972Y496982D01*
X129960Y496953D01*
X129941Y496927D01*
X129915Y496843D01*
X129854Y496773D01*
X129837Y496745D01*
X129784Y496676D01*
X129748Y496617D01*
X129744Y496615D01*
X129621Y496500D01*
X128055Y494666D01*
X128039Y494639D01*
X128016Y494617D01*
X127977Y494538D01*
X127907Y494478D01*
X127885Y494453D01*
X127822Y494394D01*
X127777Y494341D01*
X127772Y494339D01*
X127634Y494245D01*
X125800Y492679D01*
X125779Y492654D01*
X125753Y492636D01*
X125703Y492564D01*
X125624Y492516D01*
X125599Y492494D01*
X125527Y492446D01*
X125474Y492401D01*
X125470Y492400D01*
X125318Y492328D01*
X123262Y491068D01*
X123237Y491048D01*
X123209Y491033D01*
X123148Y490971D01*
X123062Y490935D01*
X123034Y490918D01*
X122956Y490881D01*
X122896Y490845D01*
X122892Y490845D01*
X122731Y490798D01*
X120502Y489875D01*
X120475Y489858D01*
X120445Y489848D01*
X120375Y489796D01*
X120285Y489775D01*
X120254Y489762D01*
X120171Y489738D01*
X120107Y489711D01*
X120102Y489712D01*
X119936Y489691D01*
X117591Y489128D01*
X117561Y489115D01*
X117530Y489110D01*
X117452Y489070D01*
X117360Y489063D01*
X117328Y489055D01*
X117242Y489044D01*
X117174Y489028D01*
X117170Y489029D01*
X117002Y489035D01*
X114637Y488848D01*
X114577Y488834D01*
X114515Y488829D01*
X114500Y488822D01*
X114335Y488822D01*
X114313Y488819D01*
X114275Y488820D01*
X114110Y488807D01*
X114048Y488814D01*
G37*
%LPD*%
%LPC*%
G36*
X501710Y469767D02*
X501710Y469767D01*
X501677Y469764D01*
X501590Y469767D01*
X501521Y469762D01*
X501517Y469764D01*
X501352Y469795D01*
X498948Y469985D01*
X498916Y469982D01*
X498885Y469987D01*
X498798Y469972D01*
X498708Y469994D01*
X498675Y469996D01*
X498590Y470013D01*
X498521Y470018D01*
X498517Y470021D01*
X498359Y470078D01*
X496014Y470641D01*
X495982Y470643D01*
X495952Y470653D01*
X495865Y470652D01*
X495779Y470688D01*
X495747Y470695D01*
X495665Y470725D01*
X495598Y470741D01*
X495594Y470744D01*
X495448Y470825D01*
X493219Y471748D01*
X493188Y471755D01*
X493160Y471769D01*
X493074Y471782D01*
X492994Y471831D01*
X492964Y471843D01*
X492888Y471885D01*
X492824Y471912D01*
X492821Y471915D01*
X492688Y472018D01*
X490632Y473278D01*
X490603Y473290D01*
X490577Y473309D01*
X490493Y473335D01*
X490423Y473396D01*
X490395Y473413D01*
X490326Y473466D01*
X490267Y473502D01*
X490265Y473506D01*
X490150Y473629D01*
X488316Y475195D01*
X488289Y475211D01*
X488267Y475234D01*
X488188Y475273D01*
X488128Y475343D01*
X488103Y475365D01*
X488043Y475428D01*
X487991Y475473D01*
X487989Y475478D01*
X487895Y475616D01*
X486329Y477450D01*
X486304Y477471D01*
X486286Y477496D01*
X486214Y477547D01*
X486166Y477626D01*
X486144Y477651D01*
X486096Y477723D01*
X486051Y477776D01*
X486050Y477780D01*
X485978Y477932D01*
X484718Y479988D01*
X484697Y480013D01*
X484683Y480041D01*
X484621Y480102D01*
X484585Y480188D01*
X484568Y480216D01*
X484531Y480294D01*
X484495Y480354D01*
X484494Y480358D01*
X484448Y480519D01*
X483525Y482748D01*
X483508Y482775D01*
X483498Y482805D01*
X483446Y482875D01*
X483425Y482965D01*
X483412Y482995D01*
X483388Y483079D01*
X483361Y483143D01*
X483362Y483148D01*
X483341Y483314D01*
X482778Y485659D01*
X482765Y485689D01*
X482760Y485720D01*
X482720Y485798D01*
X482713Y485890D01*
X482705Y485922D01*
X482694Y486008D01*
X482678Y486076D01*
X482679Y486080D01*
X482685Y486248D01*
X482498Y488613D01*
X482484Y488673D01*
X482479Y488734D01*
X482472Y488750D01*
X482472Y488915D01*
X482469Y488937D01*
X482470Y488975D01*
X482457Y489140D01*
X482464Y489202D01*
X482471Y489234D01*
X482469Y489250D01*
X482472Y489278D01*
X482472Y564822D01*
X482462Y564883D01*
X482462Y564944D01*
X482457Y564961D01*
X482470Y565125D01*
X482468Y565147D01*
X482472Y565185D01*
X482472Y565350D01*
X482484Y565412D01*
X482494Y565443D01*
X482493Y565460D01*
X482498Y565487D01*
X482685Y567852D01*
X482682Y567884D01*
X482687Y567915D01*
X482672Y568002D01*
X482694Y568092D01*
X482696Y568125D01*
X482713Y568210D01*
X482718Y568279D01*
X482721Y568283D01*
X482778Y568441D01*
X483341Y570786D01*
X483343Y570817D01*
X483353Y570848D01*
X483352Y570935D01*
X483388Y571021D01*
X483395Y571053D01*
X483425Y571135D01*
X483441Y571202D01*
X483444Y571206D01*
X483525Y571352D01*
X484448Y573581D01*
X484455Y573612D01*
X484469Y573640D01*
X484473Y573666D01*
X484476Y573672D01*
X484482Y573725D01*
X484482Y573726D01*
X484531Y573805D01*
X484543Y573836D01*
X484585Y573912D01*
X484612Y573976D01*
X484615Y573979D01*
X484718Y574112D01*
X485978Y576168D01*
X485990Y576197D01*
X486009Y576223D01*
X486035Y576307D01*
X486096Y576377D01*
X486113Y576405D01*
X486166Y576474D01*
X486202Y576533D01*
X486206Y576535D01*
X486329Y576650D01*
X487895Y578484D01*
X487911Y578511D01*
X487934Y578533D01*
X487973Y578612D01*
X488043Y578672D01*
X488065Y578697D01*
X488128Y578757D01*
X488173Y578809D01*
X488178Y578811D01*
X488316Y578905D01*
X490150Y580471D01*
X490171Y580496D01*
X490197Y580514D01*
X490247Y580586D01*
X490326Y580634D01*
X490351Y580656D01*
X490423Y580704D01*
X490476Y580749D01*
X490480Y580750D01*
X490632Y580822D01*
X492688Y582082D01*
X492713Y582102D01*
X492741Y582117D01*
X492802Y582179D01*
X492888Y582215D01*
X492916Y582232D01*
X492994Y582269D01*
X493054Y582305D01*
X493058Y582305D01*
X493219Y582352D01*
X495448Y583275D01*
X495475Y583292D01*
X495505Y583302D01*
X495575Y583354D01*
X495665Y583375D01*
X495696Y583388D01*
X495779Y583412D01*
X495843Y583439D01*
X495848Y583438D01*
X496014Y583459D01*
X498359Y584022D01*
X498389Y584035D01*
X498420Y584040D01*
X498498Y584080D01*
X498590Y584087D01*
X498622Y584095D01*
X498708Y584106D01*
X498776Y584122D01*
X498780Y584121D01*
X498948Y584115D01*
X501352Y584305D01*
X501383Y584312D01*
X501415Y584312D01*
X501498Y584340D01*
X501590Y584333D01*
X501623Y584336D01*
X501710Y584333D01*
X501779Y584338D01*
X501783Y584336D01*
X501948Y584305D01*
X504352Y584115D01*
X504384Y584118D01*
X504416Y584113D01*
X504502Y584128D01*
X504592Y584106D01*
X504625Y584104D01*
X504710Y584087D01*
X504779Y584082D01*
X504783Y584079D01*
X504941Y584022D01*
X507286Y583459D01*
X507318Y583457D01*
X507348Y583447D01*
X507435Y583448D01*
X507521Y583412D01*
X507553Y583405D01*
X507635Y583375D01*
X507702Y583359D01*
X507706Y583356D01*
X507852Y583275D01*
X510081Y582352D01*
X510112Y582345D01*
X510140Y582331D01*
X510226Y582318D01*
X510306Y582269D01*
X510336Y582257D01*
X510412Y582215D01*
X510476Y582188D01*
X510479Y582185D01*
X510612Y582082D01*
X512668Y580822D01*
X512697Y580810D01*
X512723Y580791D01*
X512807Y580765D01*
X512877Y580704D01*
X512905Y580687D01*
X512974Y580634D01*
X513033Y580598D01*
X513035Y580594D01*
X513150Y580471D01*
X514984Y578905D01*
X515011Y578889D01*
X515033Y578866D01*
X515112Y578827D01*
X515172Y578757D01*
X515197Y578735D01*
X515257Y578672D01*
X515309Y578627D01*
X515311Y578622D01*
X515405Y578484D01*
X516971Y576650D01*
X516996Y576629D01*
X517014Y576603D01*
X517086Y576553D01*
X517134Y576474D01*
X517156Y576449D01*
X517204Y576377D01*
X517249Y576324D01*
X517250Y576320D01*
X517322Y576168D01*
X518582Y574112D01*
X518603Y574087D01*
X518617Y574059D01*
X518679Y573998D01*
X518715Y573912D01*
X518732Y573884D01*
X518769Y573806D01*
X518805Y573746D01*
X518806Y573742D01*
X518852Y573581D01*
X519775Y571352D01*
X519792Y571325D01*
X519802Y571295D01*
X519854Y571225D01*
X519875Y571135D01*
X519888Y571104D01*
X519912Y571021D01*
X519939Y570957D01*
X519938Y570952D01*
X519959Y570786D01*
X520522Y568441D01*
X520535Y568411D01*
X520540Y568380D01*
X520580Y568302D01*
X520587Y568210D01*
X520595Y568178D01*
X520606Y568092D01*
X520622Y568024D01*
X520621Y568020D01*
X520615Y567852D01*
X520802Y565487D01*
X520816Y565427D01*
X520821Y565365D01*
X520828Y565350D01*
X520828Y565185D01*
X520831Y565163D01*
X520830Y565125D01*
X520843Y564960D01*
X520836Y564898D01*
X520829Y564866D01*
X520831Y564849D01*
X520828Y564822D01*
X520828Y489278D01*
X520838Y489217D01*
X520838Y489156D01*
X520843Y489139D01*
X520830Y488975D01*
X520832Y488953D01*
X520828Y488915D01*
X520828Y488750D01*
X520816Y488688D01*
X520806Y488657D01*
X520807Y488640D01*
X520802Y488613D01*
X520615Y486248D01*
X520618Y486216D01*
X520613Y486184D01*
X520628Y486098D01*
X520606Y486008D01*
X520604Y485975D01*
X520587Y485890D01*
X520582Y485821D01*
X520579Y485817D01*
X520522Y485659D01*
X519959Y483314D01*
X519957Y483282D01*
X519947Y483252D01*
X519948Y483165D01*
X519912Y483079D01*
X519905Y483047D01*
X519875Y482965D01*
X519859Y482898D01*
X519856Y482894D01*
X519775Y482748D01*
X518852Y480519D01*
X518845Y480488D01*
X518831Y480460D01*
X518829Y480449D01*
X518829Y480448D01*
X518818Y480373D01*
X518769Y480294D01*
X518757Y480264D01*
X518715Y480188D01*
X518688Y480124D01*
X518685Y480121D01*
X518582Y479988D01*
X517322Y477932D01*
X517310Y477903D01*
X517291Y477877D01*
X517265Y477793D01*
X517204Y477723D01*
X517187Y477695D01*
X517134Y477626D01*
X517098Y477567D01*
X517094Y477565D01*
X516971Y477450D01*
X515405Y475616D01*
X515389Y475589D01*
X515366Y475567D01*
X515327Y475488D01*
X515257Y475428D01*
X515235Y475403D01*
X515172Y475343D01*
X515127Y475291D01*
X515122Y475289D01*
X514984Y475195D01*
X513150Y473629D01*
X513129Y473604D01*
X513104Y473586D01*
X513053Y473514D01*
X512974Y473466D01*
X512949Y473444D01*
X512877Y473396D01*
X512824Y473351D01*
X512820Y473350D01*
X512668Y473278D01*
X510612Y472018D01*
X510587Y471997D01*
X510559Y471983D01*
X510498Y471921D01*
X510412Y471885D01*
X510384Y471868D01*
X510306Y471831D01*
X510246Y471795D01*
X510242Y471794D01*
X510081Y471748D01*
X507852Y470825D01*
X507825Y470808D01*
X507795Y470798D01*
X507725Y470746D01*
X507635Y470725D01*
X507604Y470712D01*
X507521Y470688D01*
X507457Y470661D01*
X507452Y470662D01*
X507286Y470641D01*
X504941Y470078D01*
X504911Y470065D01*
X504880Y470060D01*
X504802Y470020D01*
X504710Y470013D01*
X504678Y470005D01*
X504592Y469994D01*
X504524Y469978D01*
X504520Y469979D01*
X504352Y469985D01*
X501948Y469795D01*
X501917Y469788D01*
X501885Y469788D01*
X501802Y469760D01*
X501710Y469767D01*
G37*
%LPD*%
%LPC*%
G36*
X152926Y23820D02*
X152926Y23820D01*
X150545Y26201D01*
X150545Y43649D01*
X152926Y46030D01*
X164592Y46030D01*
X164612Y46033D01*
X164631Y46031D01*
X164733Y46053D01*
X164835Y46069D01*
X164852Y46079D01*
X164872Y46083D01*
X164961Y46136D01*
X165052Y46185D01*
X165066Y46199D01*
X165083Y46209D01*
X165150Y46288D01*
X165222Y46363D01*
X165230Y46381D01*
X165243Y46396D01*
X165282Y46492D01*
X165325Y46586D01*
X165327Y46606D01*
X165335Y46624D01*
X165353Y46791D01*
X165353Y83949D01*
X165350Y83969D01*
X165352Y83988D01*
X165330Y84090D01*
X165314Y84192D01*
X165304Y84209D01*
X165300Y84229D01*
X165247Y84318D01*
X165198Y84409D01*
X165184Y84423D01*
X165174Y84440D01*
X165095Y84507D01*
X165020Y84579D01*
X165002Y84587D01*
X164987Y84600D01*
X164891Y84639D01*
X164797Y84682D01*
X164777Y84684D01*
X164759Y84692D01*
X164592Y84710D01*
X162266Y84710D01*
X159885Y87091D01*
X159885Y103459D01*
X161769Y105343D01*
X161795Y105378D01*
X161827Y105408D01*
X161866Y105477D01*
X161913Y105542D01*
X161926Y105584D01*
X161947Y105622D01*
X161961Y105701D01*
X161985Y105777D01*
X161984Y105821D01*
X161992Y105864D01*
X161981Y105943D01*
X161979Y106023D01*
X161964Y106064D01*
X161957Y106108D01*
X161899Y106241D01*
X161894Y106254D01*
X161892Y106257D01*
X161890Y106261D01*
X161582Y106794D01*
X161409Y107441D01*
X161409Y112752D01*
X170688Y112752D01*
X170708Y112755D01*
X170727Y112753D01*
X170829Y112775D01*
X170931Y112792D01*
X170948Y112801D01*
X170968Y112805D01*
X171057Y112858D01*
X171148Y112907D01*
X171162Y112921D01*
X171179Y112931D01*
X171246Y113010D01*
X171317Y113085D01*
X171326Y113103D01*
X171339Y113118D01*
X171378Y113214D01*
X171421Y113308D01*
X171423Y113328D01*
X171431Y113346D01*
X171449Y113513D01*
X171449Y114276D01*
X171451Y114276D01*
X171451Y113513D01*
X171454Y113493D01*
X171452Y113474D01*
X171474Y113372D01*
X171491Y113270D01*
X171500Y113253D01*
X171504Y113233D01*
X171557Y113144D01*
X171606Y113053D01*
X171620Y113039D01*
X171630Y113022D01*
X171709Y112955D01*
X171784Y112884D01*
X171802Y112875D01*
X171817Y112862D01*
X171913Y112823D01*
X172007Y112780D01*
X172027Y112778D01*
X172045Y112770D01*
X172212Y112752D01*
X181491Y112752D01*
X181491Y107441D01*
X181318Y106794D01*
X181010Y106261D01*
X180994Y106220D01*
X180971Y106184D01*
X180951Y106106D01*
X180923Y106031D01*
X180921Y105987D01*
X180911Y105945D01*
X180917Y105866D01*
X180914Y105786D01*
X180926Y105743D01*
X180930Y105700D01*
X180961Y105626D01*
X180984Y105550D01*
X181009Y105514D01*
X181026Y105473D01*
X181117Y105360D01*
X181125Y105348D01*
X181128Y105346D01*
X181131Y105343D01*
X183015Y103459D01*
X183015Y87091D01*
X180634Y84710D01*
X178308Y84710D01*
X178288Y84707D01*
X178269Y84709D01*
X178167Y84687D01*
X178065Y84671D01*
X178048Y84661D01*
X178028Y84657D01*
X177939Y84604D01*
X177848Y84555D01*
X177834Y84541D01*
X177817Y84531D01*
X177750Y84452D01*
X177678Y84377D01*
X177670Y84359D01*
X177657Y84344D01*
X177618Y84248D01*
X177575Y84154D01*
X177573Y84134D01*
X177565Y84116D01*
X177547Y83949D01*
X177547Y41563D01*
X175127Y35720D01*
X172978Y33571D01*
X172925Y33497D01*
X172865Y33428D01*
X172853Y33398D01*
X172834Y33372D01*
X172807Y33285D01*
X172773Y33200D01*
X172769Y33159D01*
X172762Y33137D01*
X172763Y33104D01*
X172755Y33033D01*
X172755Y26201D01*
X170374Y23820D01*
X152926Y23820D01*
G37*
%LPD*%
%LPC*%
G36*
X406926Y23820D02*
X406926Y23820D01*
X404545Y26201D01*
X404545Y43649D01*
X406926Y46030D01*
X418592Y46030D01*
X418612Y46033D01*
X418631Y46031D01*
X418733Y46053D01*
X418835Y46069D01*
X418852Y46079D01*
X418872Y46083D01*
X418961Y46136D01*
X419052Y46185D01*
X419066Y46199D01*
X419083Y46209D01*
X419150Y46288D01*
X419222Y46363D01*
X419230Y46381D01*
X419243Y46396D01*
X419282Y46492D01*
X419325Y46586D01*
X419327Y46606D01*
X419335Y46624D01*
X419353Y46791D01*
X419353Y83949D01*
X419350Y83969D01*
X419352Y83988D01*
X419330Y84090D01*
X419314Y84192D01*
X419304Y84209D01*
X419300Y84229D01*
X419247Y84318D01*
X419198Y84409D01*
X419184Y84423D01*
X419174Y84440D01*
X419095Y84507D01*
X419020Y84579D01*
X419002Y84587D01*
X418987Y84600D01*
X418891Y84639D01*
X418797Y84682D01*
X418777Y84684D01*
X418759Y84692D01*
X418592Y84710D01*
X416266Y84710D01*
X413885Y87091D01*
X413885Y103459D01*
X415769Y105342D01*
X415795Y105378D01*
X415827Y105408D01*
X415866Y105477D01*
X415913Y105542D01*
X415926Y105584D01*
X415947Y105622D01*
X415962Y105701D01*
X415985Y105777D01*
X415984Y105821D01*
X415992Y105864D01*
X415981Y105943D01*
X415979Y106023D01*
X415964Y106064D01*
X415957Y106108D01*
X415899Y106241D01*
X415894Y106254D01*
X415892Y106257D01*
X415890Y106261D01*
X415582Y106794D01*
X415409Y107441D01*
X415409Y112752D01*
X424688Y112752D01*
X424708Y112755D01*
X424727Y112753D01*
X424829Y112775D01*
X424931Y112792D01*
X424948Y112801D01*
X424968Y112805D01*
X425057Y112858D01*
X425148Y112907D01*
X425162Y112921D01*
X425179Y112931D01*
X425246Y113010D01*
X425317Y113085D01*
X425326Y113103D01*
X425339Y113118D01*
X425378Y113214D01*
X425421Y113308D01*
X425423Y113328D01*
X425431Y113346D01*
X425449Y113513D01*
X425449Y114276D01*
X425451Y114276D01*
X425451Y113513D01*
X425454Y113493D01*
X425452Y113474D01*
X425474Y113372D01*
X425491Y113270D01*
X425500Y113253D01*
X425504Y113233D01*
X425557Y113144D01*
X425606Y113053D01*
X425620Y113039D01*
X425630Y113022D01*
X425709Y112955D01*
X425784Y112884D01*
X425802Y112875D01*
X425817Y112862D01*
X425913Y112823D01*
X426007Y112780D01*
X426027Y112778D01*
X426045Y112770D01*
X426212Y112752D01*
X435491Y112752D01*
X435491Y107441D01*
X435318Y106794D01*
X435010Y106261D01*
X434994Y106220D01*
X434971Y106184D01*
X434951Y106106D01*
X434923Y106031D01*
X434921Y105987D01*
X434911Y105945D01*
X434917Y105866D01*
X434914Y105786D01*
X434926Y105743D01*
X434930Y105700D01*
X434961Y105626D01*
X434984Y105550D01*
X435009Y105514D01*
X435026Y105473D01*
X435117Y105360D01*
X435125Y105348D01*
X435128Y105346D01*
X435131Y105343D01*
X437015Y103459D01*
X437015Y87091D01*
X434634Y84710D01*
X432308Y84710D01*
X432288Y84707D01*
X432269Y84709D01*
X432167Y84687D01*
X432065Y84671D01*
X432048Y84661D01*
X432028Y84657D01*
X431939Y84604D01*
X431848Y84555D01*
X431834Y84541D01*
X431817Y84531D01*
X431750Y84452D01*
X431678Y84377D01*
X431670Y84359D01*
X431657Y84344D01*
X431618Y84248D01*
X431575Y84154D01*
X431573Y84134D01*
X431565Y84116D01*
X431547Y83949D01*
X431547Y41563D01*
X429127Y35720D01*
X426978Y33571D01*
X426925Y33497D01*
X426865Y33428D01*
X426853Y33398D01*
X426834Y33372D01*
X426807Y33285D01*
X426773Y33200D01*
X426769Y33159D01*
X426762Y33137D01*
X426763Y33104D01*
X426755Y33033D01*
X426755Y26201D01*
X424374Y23820D01*
X406926Y23820D01*
G37*
%LPD*%
%LPC*%
G36*
X725844Y62991D02*
X725844Y62991D01*
X720336Y65273D01*
X716120Y69489D01*
X713838Y74997D01*
X713838Y102803D01*
X716120Y108311D01*
X720336Y112527D01*
X725844Y114809D01*
X731806Y114809D01*
X737314Y112527D01*
X741530Y108311D01*
X743812Y102803D01*
X743812Y74997D01*
X741530Y69489D01*
X737314Y65273D01*
X731806Y62991D01*
X725844Y62991D01*
G37*
%LPD*%
G36*
X97285Y599950D02*
X97285Y599950D01*
X97287Y599949D01*
X97330Y599969D01*
X97374Y599987D01*
X97374Y599989D01*
X97376Y599990D01*
X97409Y600075D01*
X97409Y600297D01*
X107823Y600297D01*
X107825Y600298D01*
X107827Y600297D01*
X107870Y600317D01*
X107914Y600335D01*
X107914Y600337D01*
X107916Y600338D01*
X107949Y600423D01*
X107949Y600551D01*
X107951Y600551D01*
X107951Y600423D01*
X107952Y600421D01*
X107951Y600419D01*
X107971Y600376D01*
X107989Y600332D01*
X107991Y600332D01*
X107992Y600330D01*
X108077Y600297D01*
X118491Y600297D01*
X118491Y600075D01*
X118492Y600073D01*
X118491Y600071D01*
X118511Y600028D01*
X118529Y599984D01*
X118531Y599984D01*
X118532Y599982D01*
X118617Y599949D01*
X120650Y599949D01*
X120652Y599950D01*
X120654Y599949D01*
X120697Y599969D01*
X120741Y599987D01*
X120741Y599989D01*
X120743Y599990D01*
X120776Y600075D01*
X120776Y649362D01*
X120766Y649386D01*
X120766Y649412D01*
X120748Y649430D01*
X120738Y649453D01*
X120713Y649462D01*
X120695Y649480D01*
X120669Y649479D01*
X120646Y649488D01*
X120622Y649477D01*
X120596Y649476D01*
X120577Y649457D01*
X120557Y649447D01*
X120549Y649426D01*
X120533Y649410D01*
X118872Y645399D01*
X115585Y642112D01*
X111290Y640333D01*
X106642Y640333D01*
X102347Y642112D01*
X99060Y645399D01*
X97281Y649694D01*
X97281Y654342D01*
X99060Y658637D01*
X102347Y661924D01*
X106642Y663703D01*
X111290Y663703D01*
X115585Y661924D01*
X118872Y658637D01*
X120533Y654626D01*
X120552Y654607D01*
X120562Y654583D01*
X120586Y654574D01*
X120604Y654556D01*
X120630Y654557D01*
X120654Y654548D01*
X120677Y654558D01*
X120702Y654559D01*
X120720Y654578D01*
X120743Y654589D01*
X120753Y654614D01*
X120769Y654631D01*
X120768Y654653D01*
X120776Y654674D01*
X120776Y660400D01*
X120774Y660405D01*
X120776Y660410D01*
X120580Y662893D01*
X120576Y662902D01*
X120577Y662913D01*
X119996Y665335D01*
X119990Y665343D01*
X119990Y665354D01*
X119036Y667655D01*
X119029Y667662D01*
X119027Y667673D01*
X117726Y669797D01*
X117718Y669803D01*
X117714Y669813D01*
X116889Y670779D01*
X116882Y670782D01*
X116879Y670789D01*
X116839Y670804D01*
X116801Y670823D01*
X116794Y670821D01*
X116787Y670823D01*
X116732Y670799D01*
X116708Y670790D01*
X116707Y670788D01*
X116704Y670786D01*
X115443Y669526D01*
X113779Y668414D01*
X111930Y667648D01*
X109967Y667257D01*
X109219Y667257D01*
X109219Y675639D01*
X109205Y675674D01*
X109197Y675710D01*
X109186Y675718D01*
X109181Y675730D01*
X109154Y675740D01*
X109122Y675762D01*
X108868Y675823D01*
X108856Y675821D01*
X108844Y675825D01*
X108839Y675825D01*
X108835Y675826D01*
X108804Y675812D01*
X108771Y675807D01*
X108761Y675792D01*
X108758Y675791D01*
X108748Y675787D01*
X108748Y675786D01*
X108746Y675785D01*
X108732Y675749D01*
X108715Y675726D01*
X108718Y675713D01*
X108713Y675700D01*
X108713Y667257D01*
X107965Y667257D01*
X106002Y667648D01*
X104153Y668414D01*
X102489Y669526D01*
X101074Y670941D01*
X99962Y672605D01*
X99196Y674454D01*
X98829Y676300D01*
X98806Y676332D01*
X98790Y676368D01*
X98779Y676373D01*
X98773Y676381D01*
X98744Y676386D01*
X98705Y676401D01*
X95250Y676401D01*
X95212Y676385D01*
X95172Y676374D01*
X95167Y676366D01*
X95159Y676363D01*
X95144Y676324D01*
X95124Y676287D01*
X95127Y676279D01*
X95124Y676271D01*
X95141Y676233D01*
X95154Y676193D01*
X95162Y676189D01*
X95165Y676182D01*
X95200Y676168D01*
X95234Y676150D01*
X95628Y676098D01*
X95980Y675952D01*
X96283Y675720D01*
X96515Y675418D01*
X96660Y675065D01*
X96711Y674679D01*
X96711Y635126D01*
X95250Y635126D01*
X95248Y635125D01*
X95246Y635126D01*
X95203Y635106D01*
X95159Y635088D01*
X95159Y635086D01*
X95157Y635085D01*
X95124Y635000D01*
X95124Y600075D01*
X95125Y600073D01*
X95124Y600071D01*
X95144Y600028D01*
X95162Y599984D01*
X95164Y599984D01*
X95165Y599982D01*
X95250Y599949D01*
X97283Y599949D01*
X97285Y599950D01*
G37*
%LPC*%
G36*
X294031Y40131D02*
X294031Y40131D01*
X289682Y44480D01*
X289608Y44533D01*
X289538Y44593D01*
X289508Y44605D01*
X289482Y44624D01*
X289395Y44651D01*
X289310Y44685D01*
X289269Y44689D01*
X289247Y44696D01*
X289215Y44695D01*
X289144Y44703D01*
X282201Y44703D01*
X282181Y44700D01*
X282162Y44702D01*
X282060Y44680D01*
X281958Y44664D01*
X281941Y44654D01*
X281921Y44650D01*
X281832Y44597D01*
X281741Y44548D01*
X281727Y44534D01*
X281710Y44524D01*
X281643Y44445D01*
X281571Y44370D01*
X281563Y44352D01*
X281550Y44337D01*
X281511Y44241D01*
X281468Y44147D01*
X281466Y44127D01*
X281458Y44109D01*
X281440Y43942D01*
X281440Y42641D01*
X279059Y40260D01*
X260691Y40260D01*
X258310Y42641D01*
X258310Y59009D01*
X260194Y60893D01*
X260220Y60928D01*
X260252Y60958D01*
X260291Y61027D01*
X260338Y61092D01*
X260351Y61134D01*
X260372Y61172D01*
X260386Y61251D01*
X260410Y61327D01*
X260409Y61371D01*
X260417Y61414D01*
X260406Y61493D01*
X260404Y61573D01*
X260389Y61614D01*
X260382Y61658D01*
X260324Y61791D01*
X260319Y61804D01*
X260317Y61807D01*
X260315Y61811D01*
X260007Y62344D01*
X259834Y62991D01*
X259834Y68302D01*
X269113Y68302D01*
X269133Y68305D01*
X269152Y68303D01*
X269254Y68325D01*
X269356Y68342D01*
X269373Y68351D01*
X269393Y68355D01*
X269482Y68408D01*
X269573Y68457D01*
X269587Y68471D01*
X269604Y68481D01*
X269671Y68560D01*
X269742Y68635D01*
X269751Y68653D01*
X269764Y68668D01*
X269803Y68764D01*
X269846Y68858D01*
X269848Y68878D01*
X269856Y68896D01*
X269874Y69063D01*
X269874Y69826D01*
X269876Y69826D01*
X269876Y69063D01*
X269879Y69043D01*
X269877Y69024D01*
X269899Y68922D01*
X269916Y68820D01*
X269925Y68803D01*
X269929Y68783D01*
X269982Y68694D01*
X270031Y68603D01*
X270045Y68589D01*
X270055Y68572D01*
X270134Y68505D01*
X270209Y68434D01*
X270227Y68425D01*
X270242Y68412D01*
X270338Y68373D01*
X270432Y68330D01*
X270452Y68328D01*
X270470Y68320D01*
X270637Y68302D01*
X279916Y68302D01*
X279916Y62991D01*
X279743Y62344D01*
X279435Y61811D01*
X279419Y61770D01*
X279396Y61734D01*
X279376Y61656D01*
X279348Y61581D01*
X279346Y61537D01*
X279336Y61495D01*
X279342Y61416D01*
X279339Y61336D01*
X279351Y61293D01*
X279355Y61250D01*
X279386Y61176D01*
X279409Y61100D01*
X279434Y61064D01*
X279451Y61023D01*
X279542Y60910D01*
X279550Y60898D01*
X279553Y60896D01*
X279556Y60893D01*
X281440Y59009D01*
X281440Y57658D01*
X281443Y57638D01*
X281441Y57619D01*
X281463Y57517D01*
X281479Y57415D01*
X281489Y57398D01*
X281493Y57378D01*
X281546Y57289D01*
X281595Y57198D01*
X281609Y57184D01*
X281619Y57167D01*
X281698Y57100D01*
X281773Y57028D01*
X281791Y57020D01*
X281806Y57007D01*
X281902Y56968D01*
X281996Y56925D01*
X282016Y56923D01*
X282034Y56915D01*
X282201Y56897D01*
X289144Y56897D01*
X289234Y56911D01*
X289325Y56919D01*
X289354Y56931D01*
X289386Y56936D01*
X289467Y56979D01*
X289551Y57015D01*
X289583Y57041D01*
X289604Y57052D01*
X289626Y57075D01*
X289682Y57120D01*
X294031Y61469D01*
X302869Y61469D01*
X309119Y55219D01*
X309119Y46381D01*
X302869Y40131D01*
X294031Y40131D01*
G37*
%LPD*%
%LPC*%
G36*
X652227Y559434D02*
X652227Y559434D01*
X645159Y566502D01*
X645159Y576498D01*
X652227Y583566D01*
X662223Y583566D01*
X669291Y576498D01*
X669291Y566502D01*
X662223Y559434D01*
X652227Y559434D01*
G37*
%LPD*%
%LPC*%
G36*
X553802Y559434D02*
X553802Y559434D01*
X546734Y566502D01*
X546734Y576498D01*
X553802Y583566D01*
X563798Y583566D01*
X570866Y576498D01*
X570866Y566502D01*
X563798Y559434D01*
X553802Y559434D01*
G37*
%LPD*%
%LPC*%
G36*
X553802Y470534D02*
X553802Y470534D01*
X546734Y477602D01*
X546734Y487598D01*
X553802Y494666D01*
X563798Y494666D01*
X570866Y487598D01*
X570866Y477602D01*
X563798Y470534D01*
X553802Y470534D01*
G37*
%LPD*%
%LPC*%
G36*
X652227Y470534D02*
X652227Y470534D01*
X645159Y477602D01*
X645159Y487598D01*
X652227Y494666D01*
X662223Y494666D01*
X669291Y487598D01*
X669291Y477602D01*
X662223Y470534D01*
X652227Y470534D01*
G37*
%LPD*%
%LPC*%
G36*
X563842Y665733D02*
X563842Y665733D01*
X559547Y667512D01*
X556260Y670799D01*
X554481Y675094D01*
X554481Y679742D01*
X556260Y684037D01*
X559547Y687324D01*
X563842Y689103D01*
X568490Y689103D01*
X572785Y687324D01*
X576072Y684037D01*
X577851Y679742D01*
X577851Y675094D01*
X576072Y670799D01*
X572785Y667512D01*
X568490Y665733D01*
X563842Y665733D01*
G37*
%LPD*%
%LPC*%
G36*
X182842Y665733D02*
X182842Y665733D01*
X178547Y667512D01*
X175260Y670799D01*
X173481Y675094D01*
X173481Y679742D01*
X175260Y684037D01*
X178547Y687324D01*
X182842Y689103D01*
X187490Y689103D01*
X191785Y687324D01*
X195072Y684037D01*
X196851Y679742D01*
X196851Y675094D01*
X195072Y670799D01*
X191785Y667512D01*
X187490Y665733D01*
X182842Y665733D01*
G37*
%LPD*%
%LPC*%
G36*
X411442Y665733D02*
X411442Y665733D01*
X407147Y667512D01*
X403860Y670799D01*
X402081Y675094D01*
X402081Y679742D01*
X403860Y684037D01*
X407147Y687324D01*
X411442Y689103D01*
X416090Y689103D01*
X420385Y687324D01*
X423672Y684037D01*
X425451Y679742D01*
X425451Y675094D01*
X423672Y670799D01*
X420385Y667512D01*
X416090Y665733D01*
X411442Y665733D01*
G37*
%LPD*%
%LPC*%
G36*
X259042Y665733D02*
X259042Y665733D01*
X254747Y667512D01*
X251460Y670799D01*
X249681Y675094D01*
X249681Y679742D01*
X251460Y684037D01*
X254747Y687324D01*
X259042Y689103D01*
X263690Y689103D01*
X267985Y687324D01*
X271272Y684037D01*
X273051Y679742D01*
X273051Y675094D01*
X271272Y670799D01*
X267985Y667512D01*
X263690Y665733D01*
X259042Y665733D01*
G37*
%LPD*%
%LPC*%
G36*
X233642Y665733D02*
X233642Y665733D01*
X229347Y667512D01*
X226060Y670799D01*
X224281Y675094D01*
X224281Y679742D01*
X226060Y684037D01*
X229347Y687324D01*
X233642Y689103D01*
X238290Y689103D01*
X242585Y687324D01*
X245872Y684037D01*
X247651Y679742D01*
X247651Y675094D01*
X245872Y670799D01*
X242585Y667512D01*
X238290Y665733D01*
X233642Y665733D01*
G37*
%LPD*%
%LPC*%
G36*
X259042Y640333D02*
X259042Y640333D01*
X254747Y642112D01*
X251460Y645399D01*
X249681Y649694D01*
X249681Y654342D01*
X251460Y658637D01*
X254747Y661924D01*
X259042Y663703D01*
X263690Y663703D01*
X267985Y661924D01*
X271272Y658637D01*
X273051Y654342D01*
X273051Y649694D01*
X271272Y645399D01*
X267985Y642112D01*
X263690Y640333D01*
X259042Y640333D01*
G37*
%LPD*%
%LPC*%
G36*
X436842Y640333D02*
X436842Y640333D01*
X432547Y642112D01*
X429260Y645399D01*
X427481Y649694D01*
X427481Y654342D01*
X429260Y658637D01*
X432547Y661924D01*
X436842Y663703D01*
X441490Y663703D01*
X445785Y661924D01*
X449072Y658637D01*
X450851Y654342D01*
X450851Y649694D01*
X449072Y645399D01*
X445785Y642112D01*
X441490Y640333D01*
X436842Y640333D01*
G37*
%LPD*%
%LPC*%
G36*
X462242Y640333D02*
X462242Y640333D01*
X457947Y642112D01*
X454660Y645399D01*
X452881Y649694D01*
X452881Y654342D01*
X454660Y658637D01*
X457947Y661924D01*
X462242Y663703D01*
X466890Y663703D01*
X471185Y661924D01*
X474472Y658637D01*
X476251Y654342D01*
X476251Y649694D01*
X474472Y645399D01*
X471185Y642112D01*
X466890Y640333D01*
X462242Y640333D01*
G37*
%LPD*%
%LPC*%
G36*
X411442Y640333D02*
X411442Y640333D01*
X407147Y642112D01*
X403860Y645399D01*
X402081Y649694D01*
X402081Y654342D01*
X403860Y658637D01*
X407147Y661924D01*
X411442Y663703D01*
X416090Y663703D01*
X420385Y661924D01*
X423672Y658637D01*
X425451Y654342D01*
X425451Y649694D01*
X423672Y645399D01*
X420385Y642112D01*
X416090Y640333D01*
X411442Y640333D01*
G37*
%LPD*%
%LPC*%
G36*
X360642Y640333D02*
X360642Y640333D01*
X356347Y642112D01*
X353060Y645399D01*
X351281Y649694D01*
X351281Y654342D01*
X353060Y658637D01*
X356347Y661924D01*
X360642Y663703D01*
X365290Y663703D01*
X369585Y661924D01*
X372872Y658637D01*
X374651Y654342D01*
X374651Y649694D01*
X372872Y645399D01*
X369585Y642112D01*
X365290Y640333D01*
X360642Y640333D01*
G37*
%LPD*%
%LPC*%
G36*
X335242Y640333D02*
X335242Y640333D01*
X330947Y642112D01*
X327660Y645399D01*
X325881Y649694D01*
X325881Y654342D01*
X327660Y658637D01*
X330947Y661924D01*
X335242Y663703D01*
X339890Y663703D01*
X344185Y661924D01*
X347472Y658637D01*
X349251Y654342D01*
X349251Y649694D01*
X347472Y645399D01*
X344185Y642112D01*
X339890Y640333D01*
X335242Y640333D01*
G37*
%LPD*%
%LPC*%
G36*
X309842Y640333D02*
X309842Y640333D01*
X305547Y642112D01*
X302260Y645399D01*
X300481Y649694D01*
X300481Y654342D01*
X302260Y658637D01*
X305547Y661924D01*
X309842Y663703D01*
X314490Y663703D01*
X318785Y661924D01*
X322072Y658637D01*
X323851Y654342D01*
X323851Y649694D01*
X322072Y645399D01*
X318785Y642112D01*
X314490Y640333D01*
X309842Y640333D01*
G37*
%LPD*%
%LPC*%
G36*
X284442Y640333D02*
X284442Y640333D01*
X280147Y642112D01*
X276860Y645399D01*
X275081Y649694D01*
X275081Y654342D01*
X276860Y658637D01*
X280147Y661924D01*
X284442Y663703D01*
X289090Y663703D01*
X293385Y661924D01*
X296672Y658637D01*
X298451Y654342D01*
X298451Y649694D01*
X296672Y645399D01*
X293385Y642112D01*
X289090Y640333D01*
X284442Y640333D01*
G37*
%LPD*%
%LPC*%
G36*
X157442Y640333D02*
X157442Y640333D01*
X153147Y642112D01*
X149860Y645399D01*
X148081Y649694D01*
X148081Y654342D01*
X149860Y658637D01*
X153147Y661924D01*
X157442Y663703D01*
X162090Y663703D01*
X166385Y661924D01*
X169672Y658637D01*
X171451Y654342D01*
X171451Y649694D01*
X169672Y645399D01*
X166385Y642112D01*
X162090Y640333D01*
X157442Y640333D01*
G37*
%LPD*%
%LPC*%
G36*
X487642Y640333D02*
X487642Y640333D01*
X483347Y642112D01*
X480060Y645399D01*
X478281Y649694D01*
X478281Y654342D01*
X480060Y658637D01*
X483347Y661924D01*
X487642Y663703D01*
X492290Y663703D01*
X496585Y661924D01*
X499872Y658637D01*
X501651Y654342D01*
X501651Y649694D01*
X499872Y645399D01*
X496585Y642112D01*
X492290Y640333D01*
X487642Y640333D01*
G37*
%LPD*%
%LPC*%
G36*
X513042Y640333D02*
X513042Y640333D01*
X508747Y642112D01*
X505460Y645399D01*
X503681Y649694D01*
X503681Y654342D01*
X505460Y658637D01*
X508747Y661924D01*
X513042Y663703D01*
X517690Y663703D01*
X521985Y661924D01*
X525272Y658637D01*
X527051Y654342D01*
X527051Y649694D01*
X525272Y645399D01*
X521985Y642112D01*
X517690Y640333D01*
X513042Y640333D01*
G37*
%LPD*%
%LPC*%
G36*
X538442Y640333D02*
X538442Y640333D01*
X534147Y642112D01*
X530860Y645399D01*
X529081Y649694D01*
X529081Y654342D01*
X530860Y658637D01*
X534147Y661924D01*
X538442Y663703D01*
X543090Y663703D01*
X547385Y661924D01*
X550672Y658637D01*
X552451Y654342D01*
X552451Y649694D01*
X550672Y645399D01*
X547385Y642112D01*
X543090Y640333D01*
X538442Y640333D01*
G37*
%LPD*%
%LPC*%
G36*
X563842Y640333D02*
X563842Y640333D01*
X559547Y642112D01*
X556260Y645399D01*
X554481Y649694D01*
X554481Y654342D01*
X556260Y658637D01*
X559547Y661924D01*
X563842Y663703D01*
X568490Y663703D01*
X572785Y661924D01*
X576072Y658637D01*
X577851Y654342D01*
X577851Y649694D01*
X576072Y645399D01*
X572785Y642112D01*
X568490Y640333D01*
X563842Y640333D01*
G37*
%LPD*%
%LPC*%
G36*
X182842Y640333D02*
X182842Y640333D01*
X178547Y642112D01*
X175260Y645399D01*
X173481Y649694D01*
X173481Y654342D01*
X175260Y658637D01*
X178547Y661924D01*
X182842Y663703D01*
X187490Y663703D01*
X191785Y661924D01*
X195072Y658637D01*
X196851Y654342D01*
X196851Y649694D01*
X195072Y645399D01*
X191785Y642112D01*
X187490Y640333D01*
X182842Y640333D01*
G37*
%LPD*%
%LPC*%
G36*
X208242Y640333D02*
X208242Y640333D01*
X203947Y642112D01*
X200660Y645399D01*
X198881Y649694D01*
X198881Y654342D01*
X200660Y658637D01*
X203947Y661924D01*
X208242Y663703D01*
X212890Y663703D01*
X217185Y661924D01*
X220472Y658637D01*
X222251Y654342D01*
X222251Y649694D01*
X220472Y645399D01*
X217185Y642112D01*
X212890Y640333D01*
X208242Y640333D01*
G37*
%LPD*%
%LPC*%
G36*
X233642Y640333D02*
X233642Y640333D01*
X229347Y642112D01*
X226060Y645399D01*
X224281Y649694D01*
X224281Y654342D01*
X226060Y658637D01*
X229347Y661924D01*
X233642Y663703D01*
X238290Y663703D01*
X242585Y661924D01*
X245872Y658637D01*
X247651Y654342D01*
X247651Y649694D01*
X245872Y645399D01*
X242585Y642112D01*
X238290Y640333D01*
X233642Y640333D01*
G37*
%LPD*%
%LPC*%
G36*
X360642Y665733D02*
X360642Y665733D01*
X356347Y667512D01*
X353060Y670799D01*
X351281Y675094D01*
X351281Y679742D01*
X353060Y684037D01*
X356347Y687324D01*
X360642Y689103D01*
X365290Y689103D01*
X369585Y687324D01*
X372872Y684037D01*
X374651Y679742D01*
X374651Y675094D01*
X372872Y670799D01*
X369585Y667512D01*
X365290Y665733D01*
X360642Y665733D01*
G37*
%LPD*%
%LPC*%
G36*
X538442Y665733D02*
X538442Y665733D01*
X534147Y667512D01*
X530860Y670799D01*
X529081Y675094D01*
X529081Y679742D01*
X530860Y684037D01*
X534147Y687324D01*
X538442Y689103D01*
X543090Y689103D01*
X547385Y687324D01*
X550672Y684037D01*
X552451Y679742D01*
X552451Y675094D01*
X550672Y670799D01*
X547385Y667512D01*
X543090Y665733D01*
X538442Y665733D01*
G37*
%LPD*%
%LPC*%
G36*
X487642Y665733D02*
X487642Y665733D01*
X483347Y667512D01*
X480060Y670799D01*
X478281Y675094D01*
X478281Y679742D01*
X480060Y684037D01*
X483347Y687324D01*
X487642Y689103D01*
X492290Y689103D01*
X496585Y687324D01*
X499872Y684037D01*
X501651Y679742D01*
X501651Y675094D01*
X499872Y670799D01*
X496585Y667512D01*
X492290Y665733D01*
X487642Y665733D01*
G37*
%LPD*%
%LPC*%
G36*
X309842Y665733D02*
X309842Y665733D01*
X305547Y667512D01*
X302260Y670799D01*
X300481Y675094D01*
X300481Y679742D01*
X302260Y684037D01*
X305547Y687324D01*
X309842Y689103D01*
X314490Y689103D01*
X318785Y687324D01*
X322072Y684037D01*
X323851Y679742D01*
X323851Y675094D01*
X322072Y670799D01*
X318785Y667512D01*
X314490Y665733D01*
X309842Y665733D01*
G37*
%LPD*%
%LPC*%
G36*
X462242Y665733D02*
X462242Y665733D01*
X457947Y667512D01*
X454660Y670799D01*
X452881Y675094D01*
X452881Y679742D01*
X454660Y684037D01*
X457947Y687324D01*
X462242Y689103D01*
X466890Y689103D01*
X471185Y687324D01*
X474472Y684037D01*
X476251Y679742D01*
X476251Y675094D01*
X474472Y670799D01*
X471185Y667512D01*
X466890Y665733D01*
X462242Y665733D01*
G37*
%LPD*%
%LPC*%
G36*
X436842Y665733D02*
X436842Y665733D01*
X432547Y667512D01*
X429260Y670799D01*
X427481Y675094D01*
X427481Y679742D01*
X429260Y684037D01*
X432547Y687324D01*
X436842Y689103D01*
X441490Y689103D01*
X445785Y687324D01*
X449072Y684037D01*
X450851Y679742D01*
X450851Y675094D01*
X449072Y670799D01*
X445785Y667512D01*
X441490Y665733D01*
X436842Y665733D01*
G37*
%LPD*%
%LPC*%
G36*
X208242Y665733D02*
X208242Y665733D01*
X203947Y667512D01*
X200660Y670799D01*
X198881Y675094D01*
X198881Y679742D01*
X200660Y684037D01*
X203947Y687324D01*
X208242Y689103D01*
X212890Y689103D01*
X217185Y687324D01*
X220472Y684037D01*
X222251Y679742D01*
X222251Y675094D01*
X220472Y670799D01*
X217185Y667512D01*
X212890Y665733D01*
X208242Y665733D01*
G37*
%LPD*%
%LPC*%
G36*
X386042Y665733D02*
X386042Y665733D01*
X381747Y667512D01*
X378460Y670799D01*
X376681Y675094D01*
X376681Y679742D01*
X378460Y684037D01*
X381747Y687324D01*
X386042Y689103D01*
X390690Y689103D01*
X394985Y687324D01*
X398272Y684037D01*
X400051Y679742D01*
X400051Y675094D01*
X398272Y670799D01*
X394985Y667512D01*
X390690Y665733D01*
X386042Y665733D01*
G37*
%LPD*%
%LPC*%
G36*
X157442Y665733D02*
X157442Y665733D01*
X153147Y667512D01*
X149860Y670799D01*
X148081Y675094D01*
X148081Y679742D01*
X149860Y684037D01*
X153147Y687324D01*
X157442Y689103D01*
X162090Y689103D01*
X166385Y687324D01*
X169672Y684037D01*
X171451Y679742D01*
X171451Y675094D01*
X169672Y670799D01*
X166385Y667512D01*
X162090Y665733D01*
X157442Y665733D01*
G37*
%LPD*%
%LPC*%
G36*
X284442Y665733D02*
X284442Y665733D01*
X280147Y667512D01*
X276860Y670799D01*
X275081Y675094D01*
X275081Y679742D01*
X276860Y684037D01*
X280147Y687324D01*
X284442Y689103D01*
X289090Y689103D01*
X293385Y687324D01*
X296672Y684037D01*
X298451Y679742D01*
X298451Y675094D01*
X296672Y670799D01*
X293385Y667512D01*
X289090Y665733D01*
X284442Y665733D01*
G37*
%LPD*%
%LPC*%
G36*
X335242Y665733D02*
X335242Y665733D01*
X330947Y667512D01*
X327660Y670799D01*
X325881Y675094D01*
X325881Y679742D01*
X327660Y684037D01*
X330947Y687324D01*
X335242Y689103D01*
X339890Y689103D01*
X344185Y687324D01*
X347472Y684037D01*
X349251Y679742D01*
X349251Y675094D01*
X347472Y670799D01*
X344185Y667512D01*
X339890Y665733D01*
X335242Y665733D01*
G37*
%LPD*%
%LPC*%
G36*
X513042Y665733D02*
X513042Y665733D01*
X508747Y667512D01*
X505460Y670799D01*
X503681Y675094D01*
X503681Y679742D01*
X505460Y684037D01*
X508747Y687324D01*
X513042Y689103D01*
X517690Y689103D01*
X521985Y687324D01*
X525272Y684037D01*
X527051Y679742D01*
X527051Y675094D01*
X525272Y670799D01*
X521985Y667512D01*
X517690Y665733D01*
X513042Y665733D01*
G37*
%LPD*%
%LPC*%
G36*
X319431Y40131D02*
X319431Y40131D01*
X313181Y46381D01*
X313181Y55219D01*
X319431Y61469D01*
X328269Y61469D01*
X334519Y55219D01*
X334519Y46381D01*
X328269Y40131D01*
X319431Y40131D01*
G37*
%LPD*%
%LPC*%
G36*
X185673Y363473D02*
X185673Y363473D01*
X185673Y377191D01*
X209884Y377191D01*
X210531Y377018D01*
X211110Y376683D01*
X211583Y376210D01*
X211918Y375631D01*
X212091Y374984D01*
X212091Y363473D01*
X185673Y363473D01*
G37*
%LPD*%
%LPC*%
G36*
X185673Y477773D02*
X185673Y477773D01*
X185673Y491491D01*
X209884Y491491D01*
X210531Y491318D01*
X211110Y490983D01*
X211583Y490510D01*
X211918Y489931D01*
X212091Y489284D01*
X212091Y477773D01*
X185673Y477773D01*
G37*
%LPD*%
%LPC*%
G36*
X156209Y363473D02*
X156209Y363473D01*
X156209Y374984D01*
X156382Y375631D01*
X156717Y376210D01*
X157190Y376683D01*
X157769Y377018D01*
X158416Y377191D01*
X182627Y377191D01*
X182627Y363473D01*
X156209Y363473D01*
G37*
%LPD*%
%LPC*%
G36*
X156209Y477773D02*
X156209Y477773D01*
X156209Y489284D01*
X156382Y489931D01*
X156717Y490510D01*
X157190Y490983D01*
X157769Y491318D01*
X158416Y491491D01*
X182627Y491491D01*
X182627Y477773D01*
X156209Y477773D01*
G37*
%LPD*%
%LPC*%
G36*
X185673Y360427D02*
X185673Y360427D01*
X212091Y360427D01*
X212091Y348916D01*
X211918Y348269D01*
X211583Y347690D01*
X211110Y347217D01*
X210531Y346882D01*
X209884Y346709D01*
X185673Y346709D01*
X185673Y360427D01*
G37*
%LPD*%
%LPC*%
G36*
X185673Y461009D02*
X185673Y461009D01*
X185673Y474727D01*
X212091Y474727D01*
X212091Y463216D01*
X211918Y462569D01*
X211583Y461990D01*
X211110Y461517D01*
X210531Y461182D01*
X209884Y461009D01*
X185673Y461009D01*
G37*
%LPD*%
%LPC*%
G36*
X158416Y461009D02*
X158416Y461009D01*
X157769Y461182D01*
X157190Y461517D01*
X156717Y461990D01*
X156382Y462569D01*
X156209Y463216D01*
X156209Y474727D01*
X182627Y474727D01*
X182627Y461009D01*
X158416Y461009D01*
G37*
%LPD*%
%LPC*%
G36*
X158416Y346709D02*
X158416Y346709D01*
X157769Y346882D01*
X157190Y347217D01*
X156717Y347690D01*
X156382Y348269D01*
X156209Y348916D01*
X156209Y360427D01*
X182627Y360427D01*
X182627Y346709D01*
X158416Y346709D01*
G37*
%LPD*%
%LPC*%
G36*
X790348Y90423D02*
X790348Y90423D01*
X790348Y113211D01*
X791977Y112953D01*
X793993Y112298D01*
X795881Y111336D01*
X797595Y110091D01*
X799094Y108592D01*
X800339Y106878D01*
X801301Y104990D01*
X801956Y102974D01*
X802288Y100882D01*
X802288Y90423D01*
X790348Y90423D01*
G37*
%LPD*%
%LPC*%
G36*
X760348Y42423D02*
X760348Y42423D01*
X760348Y54363D01*
X770807Y54363D01*
X772899Y54031D01*
X774915Y53376D01*
X776803Y52414D01*
X778517Y51169D01*
X780016Y49670D01*
X781261Y47956D01*
X782223Y46068D01*
X782878Y44052D01*
X783136Y42423D01*
X760348Y42423D01*
G37*
%LPD*%
%LPC*%
G36*
X734514Y42423D02*
X734514Y42423D01*
X734772Y44052D01*
X735427Y46068D01*
X736389Y47956D01*
X737634Y49670D01*
X739133Y51169D01*
X740847Y52414D01*
X742735Y53376D01*
X744751Y54031D01*
X746843Y54363D01*
X757302Y54363D01*
X757302Y42423D01*
X734514Y42423D01*
G37*
%LPD*%
%LPC*%
G36*
X790348Y87377D02*
X790348Y87377D01*
X802288Y87377D01*
X802288Y76918D01*
X801956Y74826D01*
X801301Y72810D01*
X800339Y70922D01*
X799094Y69208D01*
X797595Y67709D01*
X795881Y66464D01*
X793993Y65502D01*
X791977Y64847D01*
X790348Y64589D01*
X790348Y87377D01*
G37*
%LPD*%
%LPC*%
G36*
X775362Y90423D02*
X775362Y90423D01*
X775362Y100882D01*
X775694Y102974D01*
X776349Y104990D01*
X777311Y106878D01*
X778556Y108592D01*
X780055Y110091D01*
X781769Y111336D01*
X783657Y112298D01*
X785673Y112953D01*
X787302Y113211D01*
X787302Y90423D01*
X775362Y90423D01*
G37*
%LPD*%
%LPC*%
G36*
X760348Y27437D02*
X760348Y27437D01*
X760348Y39377D01*
X783136Y39377D01*
X782878Y37748D01*
X782223Y35732D01*
X781261Y33844D01*
X780016Y32130D01*
X778517Y30631D01*
X776803Y29386D01*
X774915Y28424D01*
X772899Y27769D01*
X770807Y27437D01*
X760348Y27437D01*
G37*
%LPD*%
%LPC*%
G36*
X785673Y64847D02*
X785673Y64847D01*
X783657Y65502D01*
X781769Y66464D01*
X780055Y67709D01*
X778556Y69208D01*
X777311Y70922D01*
X776349Y72810D01*
X775694Y74826D01*
X775362Y76918D01*
X775362Y87377D01*
X787302Y87377D01*
X787302Y64589D01*
X785673Y64847D01*
G37*
%LPD*%
%LPC*%
G36*
X746843Y27437D02*
X746843Y27437D01*
X744751Y27769D01*
X742735Y28424D01*
X740847Y29386D01*
X739133Y30631D01*
X737634Y32130D01*
X736389Y33844D01*
X735427Y35732D01*
X734772Y37748D01*
X734514Y39377D01*
X757302Y39377D01*
X757302Y27437D01*
X746843Y27437D01*
G37*
%LPD*%
%LPC*%
G36*
X642238Y429513D02*
X642238Y429513D01*
X642238Y440446D01*
X643652Y440222D01*
X645529Y439612D01*
X647288Y438716D01*
X648885Y437556D01*
X650281Y436160D01*
X651441Y434563D01*
X652337Y432804D01*
X652691Y431714D01*
X652695Y431707D01*
X652696Y431699D01*
X652751Y431598D01*
X652804Y431496D01*
X652809Y431490D01*
X652813Y431483D01*
X652898Y431404D01*
X652980Y431325D01*
X652988Y431321D01*
X652993Y431316D01*
X653098Y431268D01*
X653202Y431219D01*
X653210Y431218D01*
X653218Y431214D01*
X653332Y431203D01*
X653447Y431189D01*
X653454Y431191D01*
X653462Y431190D01*
X653575Y431216D01*
X653687Y431239D01*
X653694Y431243D01*
X653702Y431244D01*
X653801Y431305D01*
X653900Y431363D01*
X653905Y431369D01*
X653912Y431373D01*
X653987Y431462D01*
X654062Y431548D01*
X654065Y431555D01*
X654070Y431561D01*
X654139Y431714D01*
X654493Y432804D01*
X655389Y434563D01*
X656549Y436160D01*
X657945Y437556D01*
X659542Y438716D01*
X661301Y439612D01*
X663178Y440222D01*
X664592Y440446D01*
X664592Y429513D01*
X642238Y429513D01*
G37*
%LPD*%
%LPC*%
G36*
X642238Y614933D02*
X642238Y614933D01*
X642238Y625866D01*
X643652Y625642D01*
X645529Y625032D01*
X647288Y624136D01*
X648885Y622976D01*
X650281Y621580D01*
X651441Y619983D01*
X652337Y618224D01*
X652691Y617134D01*
X652695Y617127D01*
X652696Y617119D01*
X652751Y617018D01*
X652804Y616916D01*
X652809Y616910D01*
X652813Y616903D01*
X652898Y616824D01*
X652980Y616745D01*
X652988Y616741D01*
X652993Y616736D01*
X653098Y616688D01*
X653202Y616639D01*
X653210Y616638D01*
X653218Y616634D01*
X653332Y616623D01*
X653447Y616609D01*
X653454Y616611D01*
X653462Y616610D01*
X653575Y616636D01*
X653687Y616659D01*
X653694Y616663D01*
X653702Y616664D01*
X653801Y616725D01*
X653900Y616783D01*
X653905Y616789D01*
X653912Y616793D01*
X653987Y616882D01*
X654062Y616968D01*
X654065Y616975D01*
X654070Y616981D01*
X654139Y617134D01*
X654493Y618224D01*
X655389Y619983D01*
X656549Y621580D01*
X657945Y622976D01*
X659542Y624136D01*
X661301Y625032D01*
X663178Y625642D01*
X664592Y625866D01*
X664592Y614933D01*
X642238Y614933D01*
G37*
%LPD*%
%LPC*%
G36*
X663178Y415758D02*
X663178Y415758D01*
X661301Y416368D01*
X659542Y417264D01*
X657945Y418424D01*
X656549Y419820D01*
X655389Y421417D01*
X654493Y423176D01*
X654139Y424266D01*
X654135Y424273D01*
X654134Y424281D01*
X654079Y424381D01*
X654026Y424484D01*
X654020Y424490D01*
X654017Y424497D01*
X653932Y424575D01*
X653850Y424656D01*
X653842Y424659D01*
X653836Y424664D01*
X653732Y424712D01*
X653628Y424761D01*
X653620Y424762D01*
X653612Y424766D01*
X653498Y424777D01*
X653383Y424791D01*
X653376Y424789D01*
X653368Y424790D01*
X653255Y424765D01*
X653143Y424741D01*
X653136Y424737D01*
X653128Y424735D01*
X653030Y424676D01*
X652930Y424617D01*
X652925Y424611D01*
X652918Y424607D01*
X652844Y424519D01*
X652768Y424432D01*
X652765Y424425D01*
X652760Y424419D01*
X652691Y424266D01*
X652337Y423176D01*
X651441Y421417D01*
X650281Y419820D01*
X648885Y418424D01*
X647288Y417264D01*
X645529Y416368D01*
X643652Y415758D01*
X642238Y415534D01*
X642238Y426467D01*
X664592Y426467D01*
X664592Y415534D01*
X663178Y415758D01*
G37*
%LPD*%
%LPC*%
G36*
X663178Y601178D02*
X663178Y601178D01*
X661301Y601788D01*
X659542Y602684D01*
X657945Y603844D01*
X656549Y605240D01*
X655389Y606837D01*
X654493Y608596D01*
X654139Y609686D01*
X654135Y609693D01*
X654134Y609701D01*
X654079Y609801D01*
X654026Y609904D01*
X654020Y609910D01*
X654017Y609917D01*
X653932Y609995D01*
X653850Y610076D01*
X653842Y610079D01*
X653836Y610084D01*
X653732Y610132D01*
X653628Y610181D01*
X653620Y610182D01*
X653612Y610186D01*
X653498Y610197D01*
X653383Y610211D01*
X653376Y610209D01*
X653368Y610210D01*
X653255Y610185D01*
X653143Y610161D01*
X653136Y610157D01*
X653128Y610155D01*
X653030Y610096D01*
X652930Y610037D01*
X652925Y610031D01*
X652918Y610027D01*
X652844Y609939D01*
X652768Y609852D01*
X652765Y609845D01*
X652760Y609839D01*
X652691Y609686D01*
X652337Y608596D01*
X651441Y606837D01*
X650281Y605240D01*
X648885Y603844D01*
X647288Y602684D01*
X645529Y601788D01*
X643652Y601178D01*
X642238Y600954D01*
X642238Y611887D01*
X664592Y611887D01*
X664592Y600954D01*
X663178Y601178D01*
G37*
%LPD*%
%LPC*%
G36*
X350773Y420623D02*
X350773Y420623D01*
X350773Y427991D01*
X362284Y427991D01*
X362931Y427818D01*
X363510Y427483D01*
X363983Y427010D01*
X364318Y426431D01*
X364491Y425784D01*
X364491Y420623D01*
X350773Y420623D01*
G37*
%LPD*%
%LPC*%
G36*
X350773Y395223D02*
X350773Y395223D01*
X350773Y402591D01*
X362284Y402591D01*
X362931Y402418D01*
X363510Y402083D01*
X363983Y401610D01*
X364318Y401031D01*
X364491Y400384D01*
X364491Y395223D01*
X350773Y395223D01*
G37*
%LPD*%
%LPC*%
G36*
X350773Y410209D02*
X350773Y410209D01*
X350773Y417577D01*
X364491Y417577D01*
X364491Y412416D01*
X364318Y411769D01*
X363983Y411190D01*
X363510Y410717D01*
X362931Y410382D01*
X362284Y410209D01*
X350773Y410209D01*
G37*
%LPD*%
%LPC*%
G36*
X350773Y384809D02*
X350773Y384809D01*
X350773Y392177D01*
X364491Y392177D01*
X364491Y387016D01*
X364318Y386369D01*
X363983Y385790D01*
X363510Y385317D01*
X362931Y384982D01*
X362284Y384809D01*
X350773Y384809D01*
G37*
%LPD*%
%LPC*%
G36*
X223173Y63948D02*
X223173Y63948D01*
X223173Y74716D01*
X226741Y74716D01*
X233941Y67516D01*
X233941Y63948D01*
X223173Y63948D01*
G37*
%LPD*%
%LPC*%
G36*
X477173Y63948D02*
X477173Y63948D01*
X477173Y74716D01*
X480741Y74716D01*
X487941Y67516D01*
X487941Y63948D01*
X477173Y63948D01*
G37*
%LPD*%
%LPC*%
G36*
X402173Y63948D02*
X402173Y63948D01*
X402173Y74716D01*
X405741Y74716D01*
X412941Y67516D01*
X412941Y63948D01*
X402173Y63948D01*
G37*
%LPD*%
%LPC*%
G36*
X148173Y63948D02*
X148173Y63948D01*
X148173Y74716D01*
X151741Y74716D01*
X158941Y67516D01*
X158941Y63948D01*
X148173Y63948D01*
G37*
%LPD*%
%LPC*%
G36*
X134359Y63948D02*
X134359Y63948D01*
X134359Y67516D01*
X141559Y74716D01*
X145127Y74716D01*
X145127Y63948D01*
X134359Y63948D01*
G37*
%LPD*%
%LPC*%
G36*
X209359Y63948D02*
X209359Y63948D01*
X209359Y67516D01*
X216559Y74716D01*
X220127Y74716D01*
X220127Y63948D01*
X209359Y63948D01*
G37*
%LPD*%
%LPC*%
G36*
X223173Y50134D02*
X223173Y50134D01*
X223173Y60902D01*
X233941Y60902D01*
X233941Y57334D01*
X226741Y50134D01*
X223173Y50134D01*
G37*
%LPD*%
%LPC*%
G36*
X402173Y50134D02*
X402173Y50134D01*
X402173Y60902D01*
X412941Y60902D01*
X412941Y57334D01*
X405741Y50134D01*
X402173Y50134D01*
G37*
%LPD*%
%LPC*%
G36*
X477173Y50134D02*
X477173Y50134D01*
X477173Y60902D01*
X487941Y60902D01*
X487941Y57334D01*
X480741Y50134D01*
X477173Y50134D01*
G37*
%LPD*%
%LPC*%
G36*
X148173Y50134D02*
X148173Y50134D01*
X148173Y60902D01*
X158941Y60902D01*
X158941Y57334D01*
X151741Y50134D01*
X148173Y50134D01*
G37*
%LPD*%
%LPC*%
G36*
X463359Y63948D02*
X463359Y63948D01*
X463359Y67516D01*
X470559Y74716D01*
X474127Y74716D01*
X474127Y63948D01*
X463359Y63948D01*
G37*
%LPD*%
%LPC*%
G36*
X388359Y63948D02*
X388359Y63948D01*
X388359Y67516D01*
X395559Y74716D01*
X399127Y74716D01*
X399127Y63948D01*
X388359Y63948D01*
G37*
%LPD*%
%LPC*%
G36*
X141559Y50134D02*
X141559Y50134D01*
X134359Y57334D01*
X134359Y60902D01*
X145127Y60902D01*
X145127Y50134D01*
X141559Y50134D01*
G37*
%LPD*%
%LPC*%
G36*
X395559Y50134D02*
X395559Y50134D01*
X388359Y57334D01*
X388359Y60902D01*
X399127Y60902D01*
X399127Y50134D01*
X395559Y50134D01*
G37*
%LPD*%
%LPC*%
G36*
X216559Y50134D02*
X216559Y50134D01*
X209359Y57334D01*
X209359Y60902D01*
X220127Y60902D01*
X220127Y50134D01*
X216559Y50134D01*
G37*
%LPD*%
%LPC*%
G36*
X470559Y50134D02*
X470559Y50134D01*
X463359Y57334D01*
X463359Y60902D01*
X474127Y60902D01*
X474127Y50134D01*
X470559Y50134D01*
G37*
%LPD*%
%LPC*%
G36*
X108203Y600803D02*
X108203Y600803D01*
X108203Y609591D01*
X116285Y609591D01*
X116931Y609418D01*
X117510Y609083D01*
X117983Y608610D01*
X118318Y608031D01*
X118491Y607385D01*
X118491Y600803D01*
X108203Y600803D01*
G37*
%LPD*%
%LPC*%
G36*
X97409Y600803D02*
X97409Y600803D01*
X97409Y607385D01*
X97582Y608031D01*
X97917Y608610D01*
X98390Y609083D01*
X98969Y609418D01*
X99615Y609591D01*
X107697Y609591D01*
X107697Y600803D01*
X97409Y600803D01*
G37*
%LPD*%
%LPC*%
G36*
X667638Y429513D02*
X667638Y429513D01*
X667638Y440446D01*
X669052Y440222D01*
X670929Y439612D01*
X672688Y438716D01*
X674285Y437556D01*
X675681Y436160D01*
X676841Y434563D01*
X677737Y432804D01*
X678347Y430927D01*
X678571Y429513D01*
X667638Y429513D01*
G37*
%LPD*%
%LPC*%
G36*
X667638Y614933D02*
X667638Y614933D01*
X667638Y625866D01*
X669052Y625642D01*
X670929Y625032D01*
X672688Y624136D01*
X674285Y622976D01*
X675681Y621580D01*
X676841Y619983D01*
X677737Y618224D01*
X678347Y616347D01*
X678571Y614933D01*
X667638Y614933D01*
G37*
%LPD*%
%LPC*%
G36*
X628259Y429513D02*
X628259Y429513D01*
X628483Y430927D01*
X629093Y432804D01*
X629989Y434563D01*
X631149Y436160D01*
X632545Y437556D01*
X634142Y438716D01*
X635901Y439612D01*
X637778Y440222D01*
X639192Y440446D01*
X639192Y429513D01*
X628259Y429513D01*
G37*
%LPD*%
%LPC*%
G36*
X628259Y614933D02*
X628259Y614933D01*
X628483Y616347D01*
X629093Y618224D01*
X629989Y619983D01*
X631149Y621580D01*
X632545Y622976D01*
X634142Y624136D01*
X635901Y625032D01*
X637778Y625642D01*
X639192Y625866D01*
X639192Y614933D01*
X628259Y614933D01*
G37*
%LPD*%
%LPC*%
G36*
X667638Y426467D02*
X667638Y426467D01*
X678571Y426467D01*
X678347Y425053D01*
X677737Y423176D01*
X676841Y421417D01*
X675681Y419820D01*
X674285Y418424D01*
X672688Y417264D01*
X670929Y416368D01*
X669052Y415758D01*
X667638Y415534D01*
X667638Y426467D01*
G37*
%LPD*%
%LPC*%
G36*
X667638Y611887D02*
X667638Y611887D01*
X678571Y611887D01*
X678347Y610473D01*
X677737Y608596D01*
X676841Y606837D01*
X675681Y605240D01*
X674285Y603844D01*
X672688Y602684D01*
X670929Y601788D01*
X669052Y601178D01*
X667638Y600954D01*
X667638Y611887D01*
G37*
%LPD*%
%LPC*%
G36*
X637778Y415758D02*
X637778Y415758D01*
X635901Y416368D01*
X634142Y417264D01*
X632545Y418424D01*
X631149Y419820D01*
X629989Y421417D01*
X629093Y423176D01*
X628483Y425053D01*
X628259Y426467D01*
X639192Y426467D01*
X639192Y415534D01*
X637778Y415758D01*
G37*
%LPD*%
%LPC*%
G36*
X637778Y601178D02*
X637778Y601178D01*
X635901Y601788D01*
X634142Y602684D01*
X632545Y603844D01*
X631149Y605240D01*
X629989Y606837D01*
X629093Y608596D01*
X628483Y610473D01*
X628259Y611887D01*
X639192Y611887D01*
X639192Y600954D01*
X637778Y601178D01*
G37*
%LPD*%
%LPC*%
G36*
X109473Y571509D02*
X109473Y571509D01*
X109473Y579027D01*
X118491Y579027D01*
X118491Y573716D01*
X118318Y573069D01*
X117983Y572490D01*
X117510Y572017D01*
X116931Y571682D01*
X116284Y571509D01*
X109473Y571509D01*
G37*
%LPD*%
%LPC*%
G36*
X99616Y571509D02*
X99616Y571509D01*
X98969Y571682D01*
X98390Y572017D01*
X97917Y572490D01*
X97582Y573069D01*
X97409Y573716D01*
X97409Y579027D01*
X106427Y579027D01*
X106427Y571509D01*
X99616Y571509D01*
G37*
%LPD*%
%LPC*%
G36*
X426973Y115798D02*
X426973Y115798D01*
X426973Y123316D01*
X433284Y123316D01*
X433931Y123143D01*
X434510Y122808D01*
X434983Y122335D01*
X435318Y121756D01*
X435491Y121109D01*
X435491Y115798D01*
X426973Y115798D01*
G37*
%LPD*%
%LPC*%
G36*
X172973Y115798D02*
X172973Y115798D01*
X172973Y123316D01*
X179284Y123316D01*
X179931Y123143D01*
X180510Y122808D01*
X180983Y122335D01*
X181318Y121756D01*
X181491Y121109D01*
X181491Y115798D01*
X172973Y115798D01*
G37*
%LPD*%
%LPC*%
G36*
X271398Y71348D02*
X271398Y71348D01*
X271398Y78866D01*
X277709Y78866D01*
X278356Y78693D01*
X278935Y78358D01*
X279408Y77885D01*
X279743Y77306D01*
X279916Y76659D01*
X279916Y71348D01*
X271398Y71348D01*
G37*
%LPD*%
%LPC*%
G36*
X415409Y115798D02*
X415409Y115798D01*
X415409Y121109D01*
X415582Y121756D01*
X415917Y122335D01*
X416390Y122808D01*
X416969Y123143D01*
X417616Y123316D01*
X423927Y123316D01*
X423927Y115798D01*
X415409Y115798D01*
G37*
%LPD*%
%LPC*%
G36*
X161409Y115798D02*
X161409Y115798D01*
X161409Y121109D01*
X161582Y121756D01*
X161917Y122335D01*
X162390Y122808D01*
X162969Y123143D01*
X163616Y123316D01*
X169927Y123316D01*
X169927Y115798D01*
X161409Y115798D01*
G37*
%LPD*%
%LPC*%
G36*
X259834Y71348D02*
X259834Y71348D01*
X259834Y76659D01*
X260007Y77306D01*
X260342Y77885D01*
X260815Y78358D01*
X261394Y78693D01*
X262041Y78866D01*
X268352Y78866D01*
X268352Y71348D01*
X259834Y71348D01*
G37*
%LPD*%
%LPC*%
G36*
X389889Y653541D02*
X389889Y653541D01*
X389889Y662064D01*
X390745Y661929D01*
X392266Y661434D01*
X393691Y660708D01*
X394985Y659768D01*
X396116Y658637D01*
X397056Y657343D01*
X397782Y655918D01*
X398277Y654397D01*
X398412Y653541D01*
X389889Y653541D01*
G37*
%LPD*%
%LPC*%
G36*
X389889Y650495D02*
X389889Y650495D01*
X398412Y650495D01*
X398277Y649639D01*
X397782Y648118D01*
X397056Y646693D01*
X396116Y645399D01*
X394985Y644268D01*
X393691Y643328D01*
X392266Y642602D01*
X390745Y642107D01*
X389889Y641972D01*
X389889Y650495D01*
G37*
%LPD*%
%LPC*%
G36*
X378320Y653541D02*
X378320Y653541D01*
X378455Y654397D01*
X378950Y655918D01*
X379676Y657343D01*
X380616Y658637D01*
X381747Y659768D01*
X383041Y660708D01*
X384466Y661434D01*
X385987Y661929D01*
X386843Y662064D01*
X386843Y653541D01*
X378320Y653541D01*
G37*
%LPD*%
%LPC*%
G36*
X385987Y642107D02*
X385987Y642107D01*
X384466Y642602D01*
X383041Y643328D01*
X381747Y644268D01*
X380616Y645399D01*
X379676Y646693D01*
X378950Y648118D01*
X378455Y649639D01*
X378320Y650495D01*
X386843Y650495D01*
X386843Y641972D01*
X385987Y642107D01*
G37*
%LPD*%
%LPC*%
G36*
X640714Y613409D02*
X640714Y613409D01*
X640714Y613411D01*
X640716Y613411D01*
X640716Y613409D01*
X640714Y613409D01*
G37*
%LPD*%
%LPC*%
G36*
X475649Y62424D02*
X475649Y62424D01*
X475649Y62426D01*
X475651Y62426D01*
X475651Y62424D01*
X475649Y62424D01*
G37*
%LPD*%
%LPC*%
G36*
X400649Y62424D02*
X400649Y62424D01*
X400649Y62426D01*
X400651Y62426D01*
X400651Y62424D01*
X400649Y62424D01*
G37*
%LPD*%
%LPC*%
G36*
X388365Y652017D02*
X388365Y652017D01*
X388365Y652019D01*
X388367Y652019D01*
X388367Y652017D01*
X388365Y652017D01*
G37*
%LPD*%
%LPC*%
G36*
X666114Y427989D02*
X666114Y427989D01*
X666114Y427991D01*
X666116Y427991D01*
X666116Y427989D01*
X666114Y427989D01*
G37*
%LPD*%
%LPC*%
G36*
X640714Y427989D02*
X640714Y427989D01*
X640714Y427991D01*
X640716Y427991D01*
X640716Y427989D01*
X640714Y427989D01*
G37*
%LPD*%
%LPC*%
G36*
X146649Y62424D02*
X146649Y62424D01*
X146649Y62426D01*
X146651Y62426D01*
X146651Y62424D01*
X146649Y62424D01*
G37*
%LPD*%
%LPC*%
G36*
X788824Y88899D02*
X788824Y88899D01*
X788824Y88901D01*
X788826Y88901D01*
X788826Y88899D01*
X788824Y88899D01*
G37*
%LPD*%
%LPC*%
G36*
X666114Y613409D02*
X666114Y613409D01*
X666114Y613411D01*
X666116Y613411D01*
X666116Y613409D01*
X666114Y613409D01*
G37*
%LPD*%
%LPC*%
G36*
X758824Y40899D02*
X758824Y40899D01*
X758824Y40901D01*
X758826Y40901D01*
X758826Y40899D01*
X758824Y40899D01*
G37*
%LPD*%
%LPC*%
G36*
X221649Y62424D02*
X221649Y62424D01*
X221649Y62426D01*
X221651Y62426D01*
X221651Y62424D01*
X221649Y62424D01*
G37*
%LPD*%
%LPC*%
G36*
X184149Y361949D02*
X184149Y361949D01*
X184149Y361951D01*
X184151Y361951D01*
X184151Y361949D01*
X184149Y361949D01*
G37*
%LPD*%
%LPC*%
G36*
X184149Y476249D02*
X184149Y476249D01*
X184149Y476251D01*
X184151Y476251D01*
X184151Y476249D01*
X184149Y476249D01*
G37*
%LPD*%
D10*
X83700Y652000D03*
D11*
X83566Y677418D03*
X108966Y652018D03*
X108966Y677418D03*
X134366Y652018D03*
X134366Y677418D03*
X159766Y652018D03*
X159766Y677418D03*
X185166Y652018D03*
X185166Y677418D03*
X210566Y652018D03*
X210566Y677418D03*
X235966Y652018D03*
X235966Y677418D03*
X261366Y652018D03*
X261366Y677418D03*
X286766Y652018D03*
X286766Y677418D03*
X312166Y652018D03*
X312166Y677418D03*
X337566Y652018D03*
X337566Y677418D03*
X362966Y652018D03*
X362966Y677418D03*
X388366Y652018D03*
X388366Y677418D03*
X413766Y652018D03*
X413766Y677418D03*
X439166Y652018D03*
X439166Y677418D03*
X464566Y652018D03*
X464566Y677418D03*
X489966Y652018D03*
X489966Y677418D03*
X515366Y652018D03*
X515366Y677418D03*
X540766Y652018D03*
X540766Y677418D03*
X566166Y652018D03*
X566166Y677418D03*
D12*
X415650Y34925D03*
X460650Y34925D03*
D13*
X475650Y62425D03*
X400650Y62425D03*
D12*
X161650Y34925D03*
X206650Y34925D03*
D13*
X221650Y62425D03*
X146650Y62425D03*
D10*
X162550Y621250D03*
D11*
X187950Y621250D03*
D14*
X269875Y69825D03*
X269875Y50825D03*
X171450Y114275D03*
X171450Y95275D03*
X425450Y114275D03*
X425450Y95275D03*
X196850Y95275D03*
X196850Y114275D03*
X450850Y95275D03*
X450850Y114275D03*
D15*
X747903Y40900D02*
X769747Y40900D01*
X788825Y77978D02*
X788825Y99822D01*
X728825Y99822D02*
X728825Y77978D01*
D16*
X323850Y50800D03*
X298450Y50800D03*
D17*
X107950Y600550D03*
X107950Y580550D03*
D18*
X666115Y427990D03*
D19*
X534035Y427990D03*
D18*
X666115Y613410D03*
X640715Y427990D03*
X640715Y613410D03*
D19*
X559435Y427990D03*
X534035Y613410D03*
X559435Y613410D03*
D20*
X184150Y361950D03*
X184150Y476250D03*
D21*
X285750Y381000D03*
X285750Y406400D03*
X285750Y431800D03*
X285750Y457200D03*
X349250Y393700D03*
X349250Y419100D03*
X349250Y444500D03*
X438150Y488950D03*
X438150Y514350D03*
X438150Y539750D03*
X438150Y565150D03*
D22*
X657225Y571500D03*
X657225Y482600D03*
X558800Y571500D03*
X558800Y482600D03*
D23*
X450850Y127000D02*
X450850Y114275D01*
X450850Y127000D02*
X450844Y127537D01*
X450824Y128074D01*
X450792Y128610D01*
X450746Y129145D01*
X450688Y129679D01*
X450617Y130211D01*
X450533Y130742D01*
X450436Y131270D01*
X450326Y131796D01*
X450204Y132319D01*
X450069Y132839D01*
X449922Y133355D01*
X449762Y133868D01*
X449590Y134377D01*
X449406Y134881D01*
X449209Y135381D01*
X449001Y135876D01*
X448780Y136366D01*
X448548Y136850D01*
X448304Y137328D01*
X448049Y137801D01*
X447782Y138267D01*
X447504Y138727D01*
X447216Y139180D01*
X446916Y139625D01*
X446605Y140064D01*
X446284Y140494D01*
X445953Y140917D01*
X445612Y141332D01*
X445261Y141738D01*
X444900Y142136D01*
X444529Y142524D01*
X444149Y142904D01*
X443761Y143275D01*
X443363Y143636D01*
X442957Y143987D01*
X442542Y144328D01*
X442119Y144659D01*
X441689Y144980D01*
X441250Y145291D01*
X440805Y145591D01*
X440352Y145879D01*
X439892Y146157D01*
X439426Y146424D01*
X438953Y146679D01*
X438475Y146923D01*
X437991Y147155D01*
X437501Y147376D01*
X437006Y147584D01*
X436506Y147781D01*
X436002Y147965D01*
X435493Y148137D01*
X434980Y148297D01*
X434464Y148444D01*
X433944Y148579D01*
X433421Y148701D01*
X432895Y148811D01*
X432367Y148908D01*
X431836Y148992D01*
X431304Y149063D01*
X430770Y149121D01*
X430235Y149167D01*
X429699Y149199D01*
X429162Y149219D01*
X428625Y149225D01*
X241300Y149225D01*
X219075Y149225D01*
X218538Y149219D01*
X218001Y149199D01*
X217465Y149167D01*
X216930Y149121D01*
X216396Y149063D01*
X215864Y148992D01*
X215333Y148908D01*
X214805Y148811D01*
X214279Y148701D01*
X213756Y148579D01*
X213236Y148444D01*
X212720Y148297D01*
X212207Y148137D01*
X211698Y147965D01*
X211194Y147781D01*
X210694Y147584D01*
X210199Y147376D01*
X209709Y147155D01*
X209225Y146923D01*
X208747Y146679D01*
X208274Y146424D01*
X207808Y146157D01*
X207348Y145879D01*
X206895Y145591D01*
X206450Y145291D01*
X206011Y144980D01*
X205581Y144659D01*
X205158Y144328D01*
X204743Y143987D01*
X204337Y143636D01*
X203939Y143275D01*
X203551Y142904D01*
X203171Y142524D01*
X202800Y142136D01*
X202439Y141738D01*
X202088Y141332D01*
X201747Y140917D01*
X201416Y140494D01*
X201095Y140064D01*
X200784Y139625D01*
X200484Y139180D01*
X200196Y138727D01*
X199918Y138267D01*
X199651Y137801D01*
X199396Y137328D01*
X199152Y136850D01*
X198920Y136366D01*
X198699Y135876D01*
X198491Y135381D01*
X198294Y134881D01*
X198110Y134377D01*
X197938Y133868D01*
X197778Y133355D01*
X197631Y132839D01*
X197496Y132319D01*
X197374Y131796D01*
X197264Y131270D01*
X197167Y130742D01*
X197083Y130211D01*
X197012Y129679D01*
X196954Y129145D01*
X196908Y128610D01*
X196876Y128074D01*
X196856Y127537D01*
X196850Y127000D01*
X196850Y114275D01*
X241300Y149225D02*
X241300Y539750D01*
X241294Y540210D01*
X241278Y540670D01*
X241250Y541130D01*
X241211Y541589D01*
X241161Y542046D01*
X241100Y542503D01*
X241028Y542957D01*
X240945Y543410D01*
X240851Y543861D01*
X240746Y544309D01*
X240631Y544755D01*
X240505Y545197D01*
X240368Y545637D01*
X240220Y546073D01*
X240062Y546505D01*
X239894Y546934D01*
X239715Y547358D01*
X239526Y547778D01*
X239327Y548193D01*
X239118Y548603D01*
X238899Y549008D01*
X238671Y549408D01*
X238432Y549802D01*
X238185Y550190D01*
X237928Y550572D01*
X237662Y550947D01*
X237387Y551316D01*
X237103Y551679D01*
X236810Y552034D01*
X236509Y552382D01*
X236200Y552723D01*
X235882Y553057D01*
X235557Y553382D01*
X235223Y553700D01*
X234882Y554009D01*
X234534Y554310D01*
X234179Y554603D01*
X233816Y554887D01*
X233447Y555162D01*
X233072Y555428D01*
X232690Y555685D01*
X232302Y555932D01*
X231908Y556171D01*
X231508Y556399D01*
X231103Y556618D01*
X230693Y556827D01*
X230278Y557026D01*
X229858Y557215D01*
X229434Y557394D01*
X229005Y557562D01*
X228573Y557720D01*
X228137Y557868D01*
X227697Y558005D01*
X227255Y558131D01*
X226809Y558246D01*
X226361Y558351D01*
X225910Y558445D01*
X225457Y558528D01*
X225003Y558600D01*
X224546Y558661D01*
X224089Y558711D01*
X223630Y558750D01*
X223170Y558778D01*
X222710Y558794D01*
X222250Y558800D01*
X101600Y558800D01*
X101140Y558806D01*
X100680Y558822D01*
X100220Y558850D01*
X99761Y558889D01*
X99304Y558939D01*
X98847Y559000D01*
X98393Y559072D01*
X97940Y559155D01*
X97489Y559249D01*
X97041Y559354D01*
X96595Y559469D01*
X96153Y559595D01*
X95713Y559732D01*
X95277Y559880D01*
X94845Y560038D01*
X94416Y560206D01*
X93992Y560385D01*
X93572Y560574D01*
X93157Y560773D01*
X92747Y560982D01*
X92342Y561201D01*
X91942Y561429D01*
X91548Y561668D01*
X91160Y561915D01*
X90778Y562172D01*
X90403Y562438D01*
X90034Y562713D01*
X89671Y562997D01*
X89316Y563290D01*
X88968Y563591D01*
X88627Y563900D01*
X88293Y564218D01*
X87968Y564543D01*
X87650Y564877D01*
X87341Y565218D01*
X87040Y565566D01*
X86747Y565921D01*
X86463Y566284D01*
X86188Y566653D01*
X85922Y567028D01*
X85665Y567410D01*
X85418Y567798D01*
X85179Y568192D01*
X84951Y568592D01*
X84732Y568997D01*
X84523Y569407D01*
X84324Y569822D01*
X84135Y570242D01*
X83956Y570666D01*
X83788Y571095D01*
X83630Y571527D01*
X83482Y571963D01*
X83345Y572403D01*
X83219Y572845D01*
X83104Y573291D01*
X82999Y573739D01*
X82905Y574190D01*
X82822Y574643D01*
X82750Y575097D01*
X82689Y575554D01*
X82639Y576011D01*
X82600Y576470D01*
X82572Y576930D01*
X82556Y577390D01*
X82550Y577850D01*
X82550Y650850D01*
X82552Y650917D01*
X82558Y650984D01*
X82567Y651050D01*
X82581Y651115D01*
X82598Y651180D01*
X82619Y651243D01*
X82644Y651305D01*
X82672Y651366D01*
X82704Y651425D01*
X82739Y651482D01*
X82778Y651537D01*
X82819Y651589D01*
X82864Y651639D01*
X82911Y651686D01*
X82961Y651731D01*
X83013Y651772D01*
X83068Y651811D01*
X83125Y651846D01*
X83184Y651878D01*
X83245Y651906D01*
X83307Y651931D01*
X83370Y651952D01*
X83435Y651969D01*
X83500Y651983D01*
X83566Y651992D01*
X83633Y651998D01*
X83700Y652000D01*
D24*
X692150Y38100D03*
X527050Y82550D03*
X368300Y120650D03*
X298450Y82550D03*
X88900Y107950D03*
X44450Y260350D03*
X203200Y323850D03*
X203200Y209550D03*
X393700Y323850D03*
X615950Y266700D03*
X539750Y527050D03*
X660400Y660400D03*
X400050Y628650D03*
X196850Y419100D03*
X44450Y577850D03*
X146050Y577850D03*
X209550Y577850D03*
D23*
X269900Y50800D02*
X298450Y50800D01*
X269900Y50800D02*
X269892Y50801D01*
X269885Y50805D01*
X269880Y50810D01*
X269876Y50817D01*
X269875Y50825D01*
X206650Y34925D02*
X206413Y34928D01*
X206177Y34936D01*
X205940Y34951D01*
X205704Y34971D01*
X205469Y34996D01*
X205234Y35028D01*
X205000Y35065D01*
X204767Y35108D01*
X204535Y35156D01*
X204305Y35210D01*
X204075Y35269D01*
X203848Y35334D01*
X203622Y35405D01*
X203397Y35481D01*
X203175Y35562D01*
X202954Y35648D01*
X202736Y35740D01*
X202520Y35838D01*
X202307Y35940D01*
X202096Y36048D01*
X201887Y36160D01*
X201682Y36278D01*
X201479Y36400D01*
X201279Y36528D01*
X201083Y36660D01*
X200890Y36797D01*
X200700Y36938D01*
X200513Y37084D01*
X200331Y37235D01*
X200151Y37390D01*
X199976Y37549D01*
X199805Y37712D01*
X199637Y37880D01*
X199474Y38051D01*
X199315Y38226D01*
X199160Y38406D01*
X199009Y38588D01*
X198863Y38775D01*
X198722Y38965D01*
X198585Y39158D01*
X198453Y39354D01*
X198325Y39554D01*
X198203Y39757D01*
X198085Y39962D01*
X197973Y40171D01*
X197865Y40382D01*
X197763Y40595D01*
X197665Y40811D01*
X197573Y41029D01*
X197487Y41250D01*
X197406Y41472D01*
X197330Y41697D01*
X197259Y41923D01*
X197194Y42150D01*
X197135Y42380D01*
X197081Y42610D01*
X197033Y42842D01*
X196990Y43075D01*
X196953Y43309D01*
X196921Y43544D01*
X196896Y43779D01*
X196876Y44015D01*
X196861Y44252D01*
X196853Y44488D01*
X196850Y44725D01*
X196850Y95275D01*
X450850Y44725D02*
X450853Y44488D01*
X450861Y44252D01*
X450876Y44015D01*
X450896Y43779D01*
X450921Y43544D01*
X450953Y43309D01*
X450990Y43075D01*
X451033Y42842D01*
X451081Y42610D01*
X451135Y42380D01*
X451194Y42150D01*
X451259Y41923D01*
X451330Y41697D01*
X451406Y41472D01*
X451487Y41250D01*
X451573Y41029D01*
X451665Y40811D01*
X451763Y40595D01*
X451865Y40382D01*
X451973Y40171D01*
X452085Y39962D01*
X452203Y39757D01*
X452325Y39554D01*
X452453Y39354D01*
X452585Y39158D01*
X452722Y38965D01*
X452863Y38775D01*
X453009Y38588D01*
X453160Y38406D01*
X453315Y38226D01*
X453474Y38051D01*
X453637Y37880D01*
X453805Y37712D01*
X453976Y37549D01*
X454151Y37390D01*
X454331Y37235D01*
X454513Y37084D01*
X454700Y36938D01*
X454890Y36797D01*
X455083Y36660D01*
X455279Y36528D01*
X455479Y36400D01*
X455682Y36278D01*
X455887Y36160D01*
X456096Y36048D01*
X456307Y35940D01*
X456520Y35838D01*
X456736Y35740D01*
X456954Y35648D01*
X457175Y35562D01*
X457397Y35481D01*
X457622Y35405D01*
X457848Y35334D01*
X458075Y35269D01*
X458305Y35210D01*
X458535Y35156D01*
X458767Y35108D01*
X459000Y35065D01*
X459234Y35028D01*
X459469Y34996D01*
X459704Y34971D01*
X459940Y34951D01*
X460177Y34936D01*
X460413Y34928D01*
X460650Y34925D01*
X450850Y44725D02*
X450850Y95275D01*
X171450Y44725D02*
X171447Y44488D01*
X171439Y44252D01*
X171424Y44015D01*
X171404Y43779D01*
X171379Y43544D01*
X171347Y43309D01*
X171310Y43075D01*
X171267Y42842D01*
X171219Y42610D01*
X171165Y42380D01*
X171106Y42150D01*
X171041Y41923D01*
X170970Y41697D01*
X170894Y41472D01*
X170813Y41250D01*
X170727Y41029D01*
X170635Y40811D01*
X170537Y40595D01*
X170435Y40382D01*
X170327Y40171D01*
X170215Y39962D01*
X170097Y39757D01*
X169975Y39554D01*
X169847Y39354D01*
X169715Y39158D01*
X169578Y38965D01*
X169437Y38775D01*
X169291Y38588D01*
X169140Y38406D01*
X168985Y38226D01*
X168826Y38051D01*
X168663Y37880D01*
X168495Y37712D01*
X168324Y37549D01*
X168149Y37390D01*
X167969Y37235D01*
X167787Y37084D01*
X167600Y36938D01*
X167410Y36797D01*
X167217Y36660D01*
X167021Y36528D01*
X166821Y36400D01*
X166618Y36278D01*
X166413Y36160D01*
X166204Y36048D01*
X165993Y35940D01*
X165780Y35838D01*
X165564Y35740D01*
X165346Y35648D01*
X165125Y35562D01*
X164903Y35481D01*
X164678Y35405D01*
X164452Y35334D01*
X164225Y35269D01*
X163995Y35210D01*
X163765Y35156D01*
X163533Y35108D01*
X163300Y35065D01*
X163066Y35028D01*
X162831Y34996D01*
X162596Y34971D01*
X162360Y34951D01*
X162123Y34936D01*
X161887Y34928D01*
X161650Y34925D01*
X171450Y44725D02*
X171450Y95275D01*
X415650Y34925D02*
X415887Y34928D01*
X416123Y34936D01*
X416360Y34951D01*
X416596Y34971D01*
X416831Y34996D01*
X417066Y35028D01*
X417300Y35065D01*
X417533Y35108D01*
X417765Y35156D01*
X417995Y35210D01*
X418225Y35269D01*
X418452Y35334D01*
X418678Y35405D01*
X418903Y35481D01*
X419125Y35562D01*
X419346Y35648D01*
X419564Y35740D01*
X419780Y35838D01*
X419993Y35940D01*
X420204Y36048D01*
X420413Y36160D01*
X420618Y36278D01*
X420821Y36400D01*
X421021Y36528D01*
X421217Y36660D01*
X421410Y36797D01*
X421600Y36938D01*
X421787Y37084D01*
X421969Y37235D01*
X422149Y37390D01*
X422324Y37549D01*
X422495Y37712D01*
X422663Y37880D01*
X422826Y38051D01*
X422985Y38226D01*
X423140Y38406D01*
X423291Y38588D01*
X423437Y38775D01*
X423578Y38965D01*
X423715Y39158D01*
X423847Y39354D01*
X423975Y39554D01*
X424097Y39757D01*
X424215Y39962D01*
X424327Y40171D01*
X424435Y40382D01*
X424537Y40595D01*
X424635Y40811D01*
X424727Y41029D01*
X424813Y41250D01*
X424894Y41472D01*
X424970Y41697D01*
X425041Y41923D01*
X425106Y42150D01*
X425165Y42380D01*
X425219Y42610D01*
X425267Y42842D01*
X425310Y43075D01*
X425347Y43309D01*
X425379Y43544D01*
X425404Y43779D01*
X425424Y44015D01*
X425439Y44252D01*
X425447Y44488D01*
X425450Y44725D01*
X425450Y95275D01*
X349250Y444500D02*
X517525Y444500D01*
X517924Y444495D01*
X518323Y444481D01*
X518721Y444457D01*
X519118Y444423D01*
X519515Y444380D01*
X519911Y444327D01*
X520305Y444264D01*
X520697Y444192D01*
X521088Y444111D01*
X521476Y444020D01*
X521862Y443920D01*
X522246Y443811D01*
X522627Y443692D01*
X523005Y443564D01*
X523380Y443427D01*
X523751Y443281D01*
X524119Y443126D01*
X524482Y442962D01*
X524842Y442790D01*
X525198Y442609D01*
X525549Y442419D01*
X525895Y442221D01*
X526236Y442015D01*
X526573Y441800D01*
X526904Y441577D01*
X527229Y441347D01*
X527549Y441108D01*
X527863Y440862D01*
X528171Y440609D01*
X528473Y440348D01*
X528769Y440080D01*
X529057Y439805D01*
X529340Y439522D01*
X529615Y439234D01*
X529883Y438938D01*
X530144Y438636D01*
X530397Y438328D01*
X530643Y438014D01*
X530882Y437694D01*
X531112Y437369D01*
X531335Y437038D01*
X531550Y436701D01*
X531756Y436360D01*
X531954Y436014D01*
X532144Y435663D01*
X532325Y435307D01*
X532497Y434947D01*
X532661Y434584D01*
X532816Y434216D01*
X532962Y433845D01*
X533099Y433470D01*
X533227Y433092D01*
X533346Y432711D01*
X533455Y432327D01*
X533555Y431941D01*
X533646Y431553D01*
X533727Y431162D01*
X533799Y430770D01*
X533862Y430376D01*
X533915Y429980D01*
X533958Y429583D01*
X533992Y429186D01*
X534016Y428788D01*
X534030Y428389D01*
X534035Y427990D01*
X95250Y677418D02*
X83566Y677418D01*
X95250Y677418D02*
X104846Y677418D01*
X105250Y677413D01*
X105654Y677398D01*
X106058Y677374D01*
X106461Y677340D01*
X106863Y677296D01*
X107263Y677242D01*
X107663Y677178D01*
X108060Y677105D01*
X108456Y677022D01*
X108850Y676930D01*
X109241Y676828D01*
X109630Y676717D01*
X110016Y676596D01*
X110399Y676466D01*
X110778Y676327D01*
X111154Y676178D01*
X111527Y676020D01*
X111895Y675854D01*
X112259Y675678D01*
X112619Y675494D01*
X112975Y675301D01*
X113325Y675100D01*
X113671Y674890D01*
X114011Y674672D01*
X114346Y674445D01*
X114675Y674211D01*
X114999Y673968D01*
X115317Y673718D01*
X115628Y673460D01*
X115933Y673195D01*
X116232Y672922D01*
X116524Y672643D01*
X116809Y672356D01*
X117087Y672062D01*
X117358Y671762D01*
X117621Y671455D01*
X117877Y671142D01*
X118125Y670823D01*
X118365Y670498D01*
X118598Y670167D01*
X118822Y669831D01*
X119038Y669489D01*
X119246Y669142D01*
X119445Y668790D01*
X119636Y668434D01*
X119818Y668073D01*
X119991Y667707D01*
X120156Y667338D01*
X120311Y666964D01*
X120457Y666587D01*
X120594Y666207D01*
X120722Y665823D01*
X120840Y665437D01*
X120949Y665047D01*
X121048Y664655D01*
X121138Y664261D01*
X121219Y663865D01*
X121289Y663467D01*
X121350Y663067D01*
X121402Y662666D01*
X121443Y662264D01*
X96838Y675831D02*
X96836Y675909D01*
X96830Y675987D01*
X96821Y676064D01*
X96807Y676141D01*
X96790Y676217D01*
X96770Y676292D01*
X96745Y676366D01*
X96717Y676439D01*
X96686Y676510D01*
X96650Y676580D01*
X96612Y676647D01*
X96570Y676713D01*
X96525Y676777D01*
X96478Y676838D01*
X96427Y676897D01*
X96373Y676954D01*
X96316Y677008D01*
X96257Y677059D01*
X96196Y677106D01*
X96132Y677151D01*
X96066Y677193D01*
X95999Y677231D01*
X95929Y677267D01*
X95858Y677298D01*
X95785Y677326D01*
X95711Y677351D01*
X95636Y677371D01*
X95560Y677388D01*
X95483Y677402D01*
X95406Y677411D01*
X95328Y677417D01*
X95250Y677419D01*
X96838Y675831D02*
X96838Y602138D01*
X121444Y600869D02*
X121444Y662264D01*
D25*
X520700Y600075D02*
X521022Y600079D01*
X521344Y600091D01*
X521666Y600110D01*
X521987Y600137D01*
X522307Y600172D01*
X522627Y600215D01*
X522945Y600265D01*
X523262Y600323D01*
X523577Y600389D01*
X523891Y600462D01*
X524203Y600543D01*
X524513Y600632D01*
X524821Y600728D01*
X525126Y600831D01*
X525429Y600942D01*
X525729Y601059D01*
X526026Y601185D01*
X526319Y601317D01*
X526610Y601456D01*
X526897Y601602D01*
X527181Y601756D01*
X527460Y601916D01*
X527736Y602082D01*
X528008Y602256D01*
X528275Y602436D01*
X528538Y602622D01*
X528797Y602814D01*
X529050Y603013D01*
X529299Y603218D01*
X529543Y603429D01*
X529781Y603645D01*
X530015Y603867D01*
X530243Y604095D01*
X530465Y604329D01*
X530681Y604567D01*
X530892Y604811D01*
X531097Y605060D01*
X531296Y605313D01*
X531488Y605572D01*
X531674Y605835D01*
X531854Y606102D01*
X532028Y606374D01*
X532194Y606650D01*
X532354Y606929D01*
X532508Y607213D01*
X532654Y607500D01*
X532793Y607791D01*
X532925Y608084D01*
X533051Y608381D01*
X533168Y608681D01*
X533279Y608984D01*
X533382Y609289D01*
X533478Y609597D01*
X533567Y609907D01*
X533648Y610219D01*
X533721Y610533D01*
X533787Y610848D01*
X533845Y611165D01*
X533895Y611483D01*
X533938Y611803D01*
X533973Y612123D01*
X534000Y612444D01*
X534019Y612766D01*
X534031Y613088D01*
X534035Y613410D01*
X520700Y600075D02*
X117475Y600075D01*
D23*
X98425Y600550D02*
X98347Y600552D01*
X98269Y600558D01*
X98192Y600567D01*
X98115Y600581D01*
X98039Y600598D01*
X97964Y600618D01*
X97890Y600643D01*
X97817Y600671D01*
X97746Y600702D01*
X97676Y600738D01*
X97609Y600776D01*
X97543Y600818D01*
X97479Y600863D01*
X97418Y600910D01*
X97359Y600961D01*
X97302Y601015D01*
X97248Y601072D01*
X97197Y601131D01*
X97150Y601192D01*
X97105Y601256D01*
X97063Y601322D01*
X97025Y601389D01*
X96989Y601459D01*
X96958Y601530D01*
X96930Y601603D01*
X96905Y601677D01*
X96885Y601752D01*
X96868Y601828D01*
X96854Y601905D01*
X96845Y601982D01*
X96839Y602060D01*
X96837Y602138D01*
X98425Y600550D02*
X107950Y600550D01*
X285750Y381000D02*
X314325Y381000D01*
X314632Y381004D01*
X314939Y381015D01*
X315245Y381033D01*
X315551Y381059D01*
X315856Y381093D01*
X316160Y381133D01*
X316463Y381181D01*
X316765Y381237D01*
X317065Y381299D01*
X317364Y381369D01*
X317661Y381446D01*
X317957Y381530D01*
X318250Y381622D01*
X318540Y381720D01*
X318828Y381825D01*
X319114Y381938D01*
X319397Y382057D01*
X319677Y382183D01*
X319954Y382315D01*
X320227Y382455D01*
X320497Y382601D01*
X320763Y382753D01*
X321026Y382912D01*
X321285Y383077D01*
X321539Y383248D01*
X321790Y383425D01*
X322036Y383609D01*
X322278Y383798D01*
X322514Y383993D01*
X322747Y384194D01*
X322974Y384400D01*
X323196Y384612D01*
X323413Y384829D01*
X323625Y385051D01*
X323831Y385278D01*
X324032Y385511D01*
X324227Y385747D01*
X324416Y385989D01*
X324600Y386235D01*
X324777Y386486D01*
X324948Y386740D01*
X325113Y386999D01*
X325272Y387262D01*
X325424Y387528D01*
X325570Y387798D01*
X325710Y388071D01*
X325842Y388348D01*
X325968Y388628D01*
X326087Y388911D01*
X326200Y389197D01*
X326305Y389485D01*
X326403Y389775D01*
X326495Y390068D01*
X326579Y390364D01*
X326656Y390661D01*
X326726Y390960D01*
X326788Y391260D01*
X326844Y391562D01*
X326892Y391865D01*
X326932Y392169D01*
X326966Y392474D01*
X326992Y392780D01*
X327010Y393086D01*
X327021Y393393D01*
X327025Y393700D01*
X327025Y476250D01*
X327029Y476557D01*
X327040Y476864D01*
X327058Y477170D01*
X327084Y477476D01*
X327118Y477781D01*
X327158Y478085D01*
X327206Y478388D01*
X327262Y478690D01*
X327324Y478990D01*
X327394Y479289D01*
X327471Y479586D01*
X327555Y479882D01*
X327647Y480175D01*
X327745Y480465D01*
X327850Y480753D01*
X327963Y481039D01*
X328082Y481322D01*
X328208Y481602D01*
X328340Y481879D01*
X328480Y482152D01*
X328626Y482422D01*
X328778Y482688D01*
X328937Y482951D01*
X329102Y483210D01*
X329273Y483464D01*
X329450Y483715D01*
X329634Y483961D01*
X329823Y484203D01*
X330018Y484439D01*
X330219Y484672D01*
X330425Y484899D01*
X330637Y485121D01*
X330854Y485338D01*
X331076Y485550D01*
X331303Y485756D01*
X331536Y485957D01*
X331772Y486152D01*
X332014Y486341D01*
X332260Y486525D01*
X332511Y486702D01*
X332765Y486873D01*
X333024Y487038D01*
X333287Y487197D01*
X333553Y487349D01*
X333823Y487495D01*
X334096Y487635D01*
X334373Y487767D01*
X334653Y487893D01*
X334936Y488012D01*
X335222Y488125D01*
X335510Y488230D01*
X335800Y488328D01*
X336093Y488420D01*
X336389Y488504D01*
X336686Y488581D01*
X336985Y488651D01*
X337285Y488713D01*
X337587Y488769D01*
X337890Y488817D01*
X338194Y488857D01*
X338499Y488891D01*
X338805Y488917D01*
X339111Y488935D01*
X339418Y488946D01*
X339725Y488950D01*
X438150Y488950D01*
X304800Y406400D02*
X285750Y406400D01*
X304800Y406400D02*
X305107Y406404D01*
X305414Y406415D01*
X305720Y406433D01*
X306026Y406459D01*
X306331Y406493D01*
X306635Y406533D01*
X306938Y406581D01*
X307240Y406637D01*
X307540Y406699D01*
X307839Y406769D01*
X308136Y406846D01*
X308432Y406930D01*
X308725Y407022D01*
X309015Y407120D01*
X309303Y407225D01*
X309589Y407338D01*
X309872Y407457D01*
X310152Y407583D01*
X310429Y407715D01*
X310702Y407855D01*
X310972Y408001D01*
X311238Y408153D01*
X311501Y408312D01*
X311760Y408477D01*
X312014Y408648D01*
X312265Y408825D01*
X312511Y409009D01*
X312753Y409198D01*
X312989Y409393D01*
X313222Y409594D01*
X313449Y409800D01*
X313671Y410012D01*
X313888Y410229D01*
X314100Y410451D01*
X314306Y410678D01*
X314507Y410911D01*
X314702Y411147D01*
X314891Y411389D01*
X315075Y411635D01*
X315252Y411886D01*
X315423Y412140D01*
X315588Y412399D01*
X315747Y412662D01*
X315899Y412928D01*
X316045Y413198D01*
X316185Y413471D01*
X316317Y413748D01*
X316443Y414028D01*
X316562Y414311D01*
X316675Y414597D01*
X316780Y414885D01*
X316878Y415175D01*
X316970Y415468D01*
X317054Y415764D01*
X317131Y416061D01*
X317201Y416360D01*
X317263Y416660D01*
X317319Y416962D01*
X317367Y417265D01*
X317407Y417569D01*
X317441Y417874D01*
X317467Y418180D01*
X317485Y418486D01*
X317496Y418793D01*
X317500Y419100D01*
X317500Y498475D01*
X317505Y498859D01*
X317519Y499242D01*
X317542Y499625D01*
X317574Y500007D01*
X317616Y500389D01*
X317667Y500769D01*
X317727Y501148D01*
X317796Y501525D01*
X317874Y501901D01*
X317961Y502274D01*
X318058Y502645D01*
X318163Y503014D01*
X318277Y503381D01*
X318400Y503744D01*
X318532Y504104D01*
X318672Y504461D01*
X318821Y504815D01*
X318978Y505165D01*
X319144Y505511D01*
X319318Y505852D01*
X319501Y506190D01*
X319691Y506523D01*
X319890Y506851D01*
X320096Y507175D01*
X320310Y507493D01*
X320532Y507806D01*
X320761Y508114D01*
X320998Y508416D01*
X321241Y508712D01*
X321492Y509002D01*
X321750Y509286D01*
X322015Y509564D01*
X322286Y509835D01*
X322564Y510100D01*
X322848Y510358D01*
X323138Y510609D01*
X323434Y510852D01*
X323736Y511089D01*
X324044Y511318D01*
X324357Y511540D01*
X324675Y511754D01*
X324999Y511960D01*
X325327Y512159D01*
X325660Y512349D01*
X325998Y512532D01*
X326339Y512706D01*
X326685Y512872D01*
X327035Y513029D01*
X327389Y513178D01*
X327746Y513318D01*
X328106Y513450D01*
X328469Y513573D01*
X328836Y513687D01*
X329205Y513792D01*
X329576Y513889D01*
X329949Y513976D01*
X330325Y514054D01*
X330702Y514123D01*
X331081Y514183D01*
X331461Y514234D01*
X331843Y514276D01*
X332225Y514308D01*
X332608Y514331D01*
X332991Y514345D01*
X333375Y514350D01*
X438150Y514350D01*
X323850Y539750D02*
X323466Y539745D01*
X323083Y539731D01*
X322700Y539708D01*
X322318Y539676D01*
X321936Y539634D01*
X321556Y539583D01*
X321177Y539523D01*
X320800Y539454D01*
X320424Y539376D01*
X320051Y539289D01*
X319680Y539192D01*
X319311Y539087D01*
X318944Y538973D01*
X318581Y538850D01*
X318221Y538718D01*
X317864Y538578D01*
X317510Y538429D01*
X317160Y538272D01*
X316814Y538106D01*
X316473Y537932D01*
X316135Y537749D01*
X315802Y537559D01*
X315474Y537360D01*
X315150Y537154D01*
X314832Y536940D01*
X314519Y536718D01*
X314211Y536489D01*
X313909Y536252D01*
X313613Y536009D01*
X313323Y535758D01*
X313039Y535500D01*
X312761Y535235D01*
X312490Y534964D01*
X312225Y534686D01*
X311967Y534402D01*
X311716Y534112D01*
X311473Y533816D01*
X311236Y533514D01*
X311007Y533206D01*
X310785Y532893D01*
X310571Y532575D01*
X310365Y532251D01*
X310166Y531923D01*
X309976Y531590D01*
X309793Y531252D01*
X309619Y530911D01*
X309453Y530565D01*
X309296Y530215D01*
X309147Y529861D01*
X309007Y529504D01*
X308875Y529144D01*
X308752Y528781D01*
X308638Y528414D01*
X308533Y528045D01*
X308436Y527674D01*
X308349Y527301D01*
X308271Y526925D01*
X308202Y526548D01*
X308142Y526169D01*
X308091Y525789D01*
X308049Y525407D01*
X308017Y525025D01*
X307994Y524642D01*
X307980Y524259D01*
X307975Y523875D01*
X323850Y539750D02*
X438150Y539750D01*
X307975Y438150D02*
X307973Y437992D01*
X307967Y437833D01*
X307957Y437675D01*
X307943Y437518D01*
X307926Y437360D01*
X307904Y437204D01*
X307879Y437047D01*
X307849Y436892D01*
X307816Y436737D01*
X307779Y436583D01*
X307738Y436430D01*
X307693Y436278D01*
X307644Y436128D01*
X307592Y435978D01*
X307536Y435830D01*
X307476Y435683D01*
X307413Y435538D01*
X307346Y435395D01*
X307276Y435253D01*
X307202Y435113D01*
X307124Y434975D01*
X307043Y434839D01*
X306959Y434705D01*
X306872Y434573D01*
X306781Y434443D01*
X306687Y434316D01*
X306590Y434191D01*
X306489Y434068D01*
X306386Y433948D01*
X306280Y433831D01*
X306171Y433716D01*
X306059Y433604D01*
X305944Y433495D01*
X305827Y433389D01*
X305707Y433286D01*
X305584Y433185D01*
X305459Y433088D01*
X305332Y432994D01*
X305202Y432903D01*
X305070Y432816D01*
X304936Y432732D01*
X304800Y432651D01*
X304662Y432573D01*
X304522Y432499D01*
X304380Y432429D01*
X304237Y432362D01*
X304092Y432299D01*
X303945Y432239D01*
X303797Y432183D01*
X303647Y432131D01*
X303497Y432082D01*
X303345Y432037D01*
X303192Y431996D01*
X303038Y431959D01*
X302883Y431926D01*
X302728Y431896D01*
X302571Y431871D01*
X302415Y431849D01*
X302257Y431832D01*
X302100Y431818D01*
X301942Y431808D01*
X301783Y431802D01*
X301625Y431800D01*
X285750Y431800D01*
X307975Y438150D02*
X307975Y523875D01*
X285750Y552450D02*
X285750Y457200D01*
X285750Y552450D02*
X285754Y552757D01*
X285765Y553064D01*
X285783Y553370D01*
X285809Y553676D01*
X285843Y553981D01*
X285883Y554285D01*
X285931Y554588D01*
X285987Y554890D01*
X286049Y555190D01*
X286119Y555489D01*
X286196Y555786D01*
X286280Y556082D01*
X286372Y556375D01*
X286470Y556665D01*
X286575Y556953D01*
X286688Y557239D01*
X286807Y557522D01*
X286933Y557802D01*
X287065Y558079D01*
X287205Y558352D01*
X287351Y558622D01*
X287503Y558888D01*
X287662Y559151D01*
X287827Y559410D01*
X287998Y559664D01*
X288175Y559915D01*
X288359Y560161D01*
X288548Y560403D01*
X288743Y560639D01*
X288944Y560872D01*
X289150Y561099D01*
X289362Y561321D01*
X289579Y561538D01*
X289801Y561750D01*
X290028Y561956D01*
X290261Y562157D01*
X290497Y562352D01*
X290739Y562541D01*
X290985Y562725D01*
X291236Y562902D01*
X291490Y563073D01*
X291749Y563238D01*
X292012Y563397D01*
X292278Y563549D01*
X292548Y563695D01*
X292821Y563835D01*
X293098Y563967D01*
X293378Y564093D01*
X293661Y564212D01*
X293947Y564325D01*
X294235Y564430D01*
X294525Y564528D01*
X294818Y564620D01*
X295114Y564704D01*
X295411Y564781D01*
X295710Y564851D01*
X296010Y564913D01*
X296312Y564969D01*
X296615Y565017D01*
X296919Y565057D01*
X297224Y565091D01*
X297530Y565117D01*
X297836Y565135D01*
X298143Y565146D01*
X298450Y565150D01*
X438150Y565150D01*
M02*
