G04 EAGLE Gerber RS-274X export*
G75*
%MOMM*%
%FSLAX34Y34*%
%LPD*%
%IN*%
%IPPOS*%
%AMOC8*
5,1,8,0,0,1.08239X$1,22.5*%
G01*
%ADD10C,0.254000*%


D10*
X0Y76200D02*
X97Y73986D01*
X386Y71789D01*
X865Y69626D01*
X1532Y67513D01*
X2380Y65466D01*
X3403Y63500D01*
X4594Y61631D01*
X5942Y59873D01*
X7440Y58240D01*
X9073Y56742D01*
X10831Y55394D01*
X12700Y54203D01*
X14666Y53180D01*
X16713Y52332D01*
X18826Y51665D01*
X20989Y51186D01*
X23186Y50897D01*
X25400Y50800D01*
X82550Y50800D01*
X84210Y50728D01*
X85858Y50511D01*
X87481Y50151D01*
X89065Y49651D01*
X90601Y49015D01*
X92075Y48248D01*
X93477Y47355D01*
X94795Y46343D01*
X96020Y45220D01*
X97143Y43995D01*
X98155Y42677D01*
X99048Y41275D01*
X99815Y39801D01*
X100451Y38265D01*
X100951Y36681D01*
X101311Y35058D01*
X101528Y33410D01*
X101600Y31750D01*
X101600Y15875D01*
X812800Y15875D01*
X812800Y146050D01*
X673100Y146050D01*
X670754Y146291D01*
X668438Y146736D01*
X666169Y147380D01*
X663965Y148221D01*
X661843Y149249D01*
X659819Y150459D01*
X657908Y151841D01*
X656124Y153384D01*
X654482Y155077D01*
X652993Y156906D01*
X651670Y158859D01*
X650522Y160919D01*
X649558Y163071D01*
X648785Y165299D01*
X648209Y167586D01*
X647834Y169915D01*
X647664Y172267D01*
X647700Y174625D01*
X647700Y317500D01*
X647797Y319714D01*
X648086Y321911D01*
X648565Y324074D01*
X649232Y326187D01*
X650080Y328235D01*
X651103Y330200D01*
X652294Y332069D01*
X653642Y333827D01*
X655140Y335461D01*
X656773Y336958D01*
X658531Y338306D01*
X660400Y339497D01*
X662366Y340520D01*
X664413Y341368D01*
X666526Y342035D01*
X668689Y342514D01*
X670886Y342803D01*
X673100Y342900D01*
X685800Y342900D01*
X685800Y673100D01*
X685703Y675314D01*
X685414Y677511D01*
X684935Y679674D01*
X684268Y681787D01*
X683420Y683835D01*
X682397Y685800D01*
X681206Y687669D01*
X679858Y689427D01*
X678361Y691061D01*
X676727Y692558D01*
X674969Y693906D01*
X673100Y695097D01*
X671135Y696120D01*
X669087Y696968D01*
X666974Y697635D01*
X664811Y698114D01*
X662614Y698403D01*
X660400Y698500D01*
X25400Y698500D01*
X23186Y698403D01*
X20989Y698114D01*
X18826Y697635D01*
X16713Y696968D01*
X14666Y696120D01*
X12700Y695097D01*
X10831Y693906D01*
X9073Y692558D01*
X7440Y691061D01*
X5942Y689427D01*
X4594Y687669D01*
X3403Y685800D01*
X2380Y683835D01*
X1532Y681787D01*
X865Y679674D01*
X386Y677511D01*
X97Y675314D01*
X0Y673100D01*
X0Y508000D01*
X145Y504679D01*
X579Y501384D01*
X1298Y498139D01*
X2298Y494969D01*
X3570Y491898D01*
X5104Y488950D01*
X6890Y486147D01*
X8914Y483510D01*
X11159Y481059D01*
X13610Y478814D01*
X16247Y476790D01*
X19050Y475004D01*
X21998Y473470D01*
X25069Y472198D01*
X28239Y471198D01*
X31484Y470479D01*
X34779Y470045D01*
X38100Y469900D01*
X127000Y469900D01*
X129214Y469803D01*
X131411Y469514D01*
X133574Y469035D01*
X135687Y468368D01*
X137735Y467520D01*
X139700Y466497D01*
X141569Y465306D01*
X143327Y463958D01*
X144961Y462461D01*
X146458Y460827D01*
X147806Y459069D01*
X148997Y457200D01*
X150020Y455235D01*
X150868Y453187D01*
X151535Y451074D01*
X152014Y448911D01*
X152303Y446714D01*
X152400Y444500D01*
X152400Y393700D01*
X152303Y391486D01*
X152014Y389289D01*
X151535Y387126D01*
X150868Y385013D01*
X150020Y382966D01*
X148997Y381000D01*
X147806Y379131D01*
X146458Y377373D01*
X144961Y375740D01*
X143327Y374242D01*
X141569Y372894D01*
X139700Y371703D01*
X137735Y370680D01*
X135687Y369832D01*
X133574Y369165D01*
X131411Y368686D01*
X129214Y368397D01*
X127000Y368300D01*
X38100Y368300D01*
X34779Y368155D01*
X31484Y367721D01*
X28239Y367002D01*
X25069Y366002D01*
X21998Y364730D01*
X19050Y363196D01*
X16247Y361410D01*
X13610Y359386D01*
X11159Y357141D01*
X8914Y354690D01*
X6890Y352053D01*
X5104Y349250D01*
X3570Y346302D01*
X2298Y343231D01*
X1298Y340061D01*
X579Y336816D01*
X145Y333521D01*
X0Y330200D01*
X0Y76200D01*
X488950Y488950D02*
X488998Y487843D01*
X489143Y486745D01*
X489383Y485663D01*
X489716Y484606D01*
X490140Y483583D01*
X490651Y482600D01*
X491247Y481666D01*
X491921Y480787D01*
X492670Y479970D01*
X493487Y479221D01*
X494366Y478547D01*
X495300Y477951D01*
X496283Y477440D01*
X497306Y477016D01*
X498363Y476683D01*
X499445Y476443D01*
X500543Y476298D01*
X501650Y476250D01*
X502757Y476298D01*
X503855Y476443D01*
X504937Y476683D01*
X505994Y477016D01*
X507017Y477440D01*
X508000Y477951D01*
X508934Y478547D01*
X509813Y479221D01*
X510630Y479970D01*
X511379Y480787D01*
X512053Y481666D01*
X512649Y482600D01*
X513160Y483583D01*
X513584Y484606D01*
X513917Y485663D01*
X514157Y486745D01*
X514302Y487843D01*
X514350Y488950D01*
X514350Y565150D01*
X514302Y566257D01*
X514157Y567355D01*
X513917Y568437D01*
X513584Y569494D01*
X513160Y570517D01*
X512649Y571500D01*
X512053Y572434D01*
X511379Y573313D01*
X510630Y574130D01*
X509813Y574879D01*
X508934Y575553D01*
X508000Y576149D01*
X507017Y576660D01*
X505994Y577084D01*
X504937Y577417D01*
X503855Y577657D01*
X502757Y577802D01*
X501650Y577850D01*
X500543Y577802D01*
X499445Y577657D01*
X498363Y577417D01*
X497306Y577084D01*
X496283Y576660D01*
X495300Y576149D01*
X494366Y575553D01*
X493487Y574879D01*
X492670Y574130D01*
X491921Y573313D01*
X491247Y572434D01*
X490651Y571500D01*
X490140Y570517D01*
X489716Y569494D01*
X489383Y568437D01*
X489143Y567355D01*
X488998Y566257D01*
X488950Y565150D01*
X488950Y488950D01*
X25400Y330200D02*
X25448Y329093D01*
X25593Y327995D01*
X25833Y326913D01*
X26166Y325856D01*
X26590Y324833D01*
X27101Y323850D01*
X27697Y322916D01*
X28371Y322037D01*
X29120Y321220D01*
X29937Y320471D01*
X30816Y319797D01*
X31750Y319201D01*
X32733Y318690D01*
X33756Y318266D01*
X34813Y317933D01*
X35895Y317693D01*
X36993Y317548D01*
X38100Y317500D01*
X114300Y317500D01*
X115407Y317548D01*
X116505Y317693D01*
X117587Y317933D01*
X118644Y318266D01*
X119667Y318690D01*
X120650Y319201D01*
X121584Y319797D01*
X122463Y320471D01*
X123280Y321220D01*
X124029Y322037D01*
X124703Y322916D01*
X125299Y323850D01*
X125810Y324833D01*
X126234Y325856D01*
X126567Y326913D01*
X126807Y327995D01*
X126952Y329093D01*
X127000Y330200D01*
X126952Y331307D01*
X126807Y332405D01*
X126567Y333487D01*
X126234Y334544D01*
X125810Y335567D01*
X125299Y336550D01*
X124703Y337484D01*
X124029Y338363D01*
X123280Y339180D01*
X122463Y339929D01*
X121584Y340603D01*
X120650Y341199D01*
X119667Y341710D01*
X118644Y342134D01*
X117587Y342467D01*
X116505Y342707D01*
X115407Y342852D01*
X114300Y342900D01*
X38100Y342900D01*
X36993Y342852D01*
X35895Y342707D01*
X34813Y342467D01*
X33756Y342134D01*
X32733Y341710D01*
X31750Y341199D01*
X30816Y340603D01*
X29937Y339929D01*
X29120Y339180D01*
X28371Y338363D01*
X27697Y337484D01*
X27101Y336550D01*
X26590Y335567D01*
X26166Y334544D01*
X25833Y333487D01*
X25593Y332405D01*
X25448Y331307D01*
X25400Y330200D01*
X25400Y508000D02*
X25448Y506893D01*
X25593Y505795D01*
X25833Y504713D01*
X26166Y503656D01*
X26590Y502633D01*
X27101Y501650D01*
X27697Y500716D01*
X28371Y499837D01*
X29120Y499020D01*
X29937Y498271D01*
X30816Y497597D01*
X31750Y497001D01*
X32733Y496490D01*
X33756Y496066D01*
X34813Y495733D01*
X35895Y495493D01*
X36993Y495348D01*
X38100Y495300D01*
X114300Y495300D01*
X115407Y495348D01*
X116505Y495493D01*
X117587Y495733D01*
X118644Y496066D01*
X119667Y496490D01*
X120650Y497001D01*
X121584Y497597D01*
X122463Y498271D01*
X123280Y499020D01*
X124029Y499837D01*
X124703Y500716D01*
X125299Y501650D01*
X125810Y502633D01*
X126234Y503656D01*
X126567Y504713D01*
X126807Y505795D01*
X126952Y506893D01*
X127000Y508000D01*
X126952Y509107D01*
X126807Y510205D01*
X126567Y511287D01*
X126234Y512344D01*
X125810Y513367D01*
X125299Y514350D01*
X124703Y515284D01*
X124029Y516163D01*
X123280Y516980D01*
X122463Y517729D01*
X121584Y518403D01*
X120650Y518999D01*
X119667Y519510D01*
X118644Y519934D01*
X117587Y520267D01*
X116505Y520507D01*
X115407Y520652D01*
X114300Y520700D01*
X38100Y520700D01*
X36993Y520652D01*
X35895Y520507D01*
X34813Y520267D01*
X33756Y519934D01*
X32733Y519510D01*
X31750Y518999D01*
X30816Y518403D01*
X29937Y517729D01*
X29120Y516980D01*
X28371Y516163D01*
X27697Y515284D01*
X27101Y514350D01*
X26590Y513367D01*
X26166Y512344D01*
X25833Y511287D01*
X25593Y510205D01*
X25448Y509107D01*
X25400Y508000D01*
X743825Y36900D02*
X773825Y36900D01*
X773825Y44900D01*
X743825Y44900D01*
X743825Y36900D01*
X784825Y73900D02*
X792825Y73900D01*
X792825Y103900D01*
X784825Y103900D01*
X784825Y73900D01*
X723825Y71400D02*
X733825Y71400D01*
X733825Y106400D01*
X723825Y106400D01*
X723825Y71400D01*
X48750Y174209D02*
X48680Y173229D01*
X48540Y172257D01*
X48331Y171297D01*
X48055Y170355D01*
X47711Y169435D01*
X47303Y168541D01*
X46833Y167679D01*
X46302Y166853D01*
X45713Y166067D01*
X45070Y165325D01*
X44375Y164630D01*
X43633Y163987D01*
X42847Y163398D01*
X42021Y162867D01*
X41159Y162397D01*
X40265Y161989D01*
X39345Y161645D01*
X38403Y161369D01*
X37443Y161160D01*
X36471Y161020D01*
X35491Y160950D01*
X34509Y160950D01*
X33529Y161020D01*
X32557Y161160D01*
X31597Y161369D01*
X30655Y161645D01*
X29735Y161989D01*
X28841Y162397D01*
X27979Y162867D01*
X27153Y163398D01*
X26367Y163987D01*
X25625Y164630D01*
X24930Y165325D01*
X24287Y166067D01*
X23698Y166853D01*
X23167Y167679D01*
X22697Y168541D01*
X22289Y169435D01*
X21945Y170355D01*
X21669Y171297D01*
X21460Y172257D01*
X21320Y173229D01*
X21250Y174209D01*
X21250Y175191D01*
X21320Y176171D01*
X21460Y177143D01*
X21669Y178103D01*
X21945Y179045D01*
X22289Y179965D01*
X22697Y180859D01*
X23167Y181721D01*
X23698Y182547D01*
X24287Y183333D01*
X24930Y184075D01*
X25625Y184770D01*
X26367Y185413D01*
X27153Y186002D01*
X27979Y186533D01*
X28841Y187003D01*
X29735Y187411D01*
X30655Y187755D01*
X31597Y188031D01*
X32557Y188240D01*
X33529Y188380D01*
X34509Y188450D01*
X35491Y188450D01*
X36471Y188380D01*
X37443Y188240D01*
X38403Y188031D01*
X39345Y187755D01*
X40265Y187411D01*
X41159Y187003D01*
X42021Y186533D01*
X42847Y186002D01*
X43633Y185413D01*
X44375Y184770D01*
X45070Y184075D01*
X45713Y183333D01*
X46302Y182547D01*
X46833Y181721D01*
X47303Y180859D01*
X47711Y179965D01*
X48055Y179045D01*
X48331Y178103D01*
X48540Y177143D01*
X48680Y176171D01*
X48750Y175191D01*
X48750Y174209D01*
X628750Y174209D02*
X628680Y173229D01*
X628540Y172257D01*
X628331Y171297D01*
X628055Y170355D01*
X627711Y169435D01*
X627303Y168541D01*
X626833Y167679D01*
X626302Y166853D01*
X625713Y166067D01*
X625070Y165325D01*
X624375Y164630D01*
X623633Y163987D01*
X622847Y163398D01*
X622021Y162867D01*
X621159Y162397D01*
X620265Y161989D01*
X619345Y161645D01*
X618403Y161369D01*
X617443Y161160D01*
X616471Y161020D01*
X615491Y160950D01*
X614509Y160950D01*
X613529Y161020D01*
X612557Y161160D01*
X611597Y161369D01*
X610655Y161645D01*
X609735Y161989D01*
X608841Y162397D01*
X607979Y162867D01*
X607153Y163398D01*
X606367Y163987D01*
X605625Y164630D01*
X604930Y165325D01*
X604287Y166067D01*
X603698Y166853D01*
X603167Y167679D01*
X602697Y168541D01*
X602289Y169435D01*
X601945Y170355D01*
X601669Y171297D01*
X601460Y172257D01*
X601320Y173229D01*
X601250Y174209D01*
X601250Y175191D01*
X601320Y176171D01*
X601460Y177143D01*
X601669Y178103D01*
X601945Y179045D01*
X602289Y179965D01*
X602697Y180859D01*
X603167Y181721D01*
X603698Y182547D01*
X604287Y183333D01*
X604930Y184075D01*
X605625Y184770D01*
X606367Y185413D01*
X607153Y186002D01*
X607979Y186533D01*
X608841Y187003D01*
X609735Y187411D01*
X610655Y187755D01*
X611597Y188031D01*
X612557Y188240D01*
X613529Y188380D01*
X614509Y188450D01*
X615491Y188450D01*
X616471Y188380D01*
X617443Y188240D01*
X618403Y188031D01*
X619345Y187755D01*
X620265Y187411D01*
X621159Y187003D01*
X622021Y186533D01*
X622847Y186002D01*
X623633Y185413D01*
X624375Y184770D01*
X625070Y184075D01*
X625713Y183333D01*
X626302Y182547D01*
X626833Y181721D01*
X627303Y180859D01*
X627711Y179965D01*
X628055Y179045D01*
X628331Y178103D01*
X628540Y177143D01*
X628680Y176171D01*
X628750Y175191D01*
X628750Y174209D01*
X48750Y664209D02*
X48680Y663229D01*
X48540Y662257D01*
X48331Y661297D01*
X48055Y660355D01*
X47711Y659435D01*
X47303Y658541D01*
X46833Y657679D01*
X46302Y656853D01*
X45713Y656067D01*
X45070Y655325D01*
X44375Y654630D01*
X43633Y653987D01*
X42847Y653398D01*
X42021Y652867D01*
X41159Y652397D01*
X40265Y651989D01*
X39345Y651645D01*
X38403Y651369D01*
X37443Y651160D01*
X36471Y651020D01*
X35491Y650950D01*
X34509Y650950D01*
X33529Y651020D01*
X32557Y651160D01*
X31597Y651369D01*
X30655Y651645D01*
X29735Y651989D01*
X28841Y652397D01*
X27979Y652867D01*
X27153Y653398D01*
X26367Y653987D01*
X25625Y654630D01*
X24930Y655325D01*
X24287Y656067D01*
X23698Y656853D01*
X23167Y657679D01*
X22697Y658541D01*
X22289Y659435D01*
X21945Y660355D01*
X21669Y661297D01*
X21460Y662257D01*
X21320Y663229D01*
X21250Y664209D01*
X21250Y665191D01*
X21320Y666171D01*
X21460Y667143D01*
X21669Y668103D01*
X21945Y669045D01*
X22289Y669965D01*
X22697Y670859D01*
X23167Y671721D01*
X23698Y672547D01*
X24287Y673333D01*
X24930Y674075D01*
X25625Y674770D01*
X26367Y675413D01*
X27153Y676002D01*
X27979Y676533D01*
X28841Y677003D01*
X29735Y677411D01*
X30655Y677755D01*
X31597Y678031D01*
X32557Y678240D01*
X33529Y678380D01*
X34509Y678450D01*
X35491Y678450D01*
X36471Y678380D01*
X37443Y678240D01*
X38403Y678031D01*
X39345Y677755D01*
X40265Y677411D01*
X41159Y677003D01*
X42021Y676533D01*
X42847Y676002D01*
X43633Y675413D01*
X44375Y674770D01*
X45070Y674075D01*
X45713Y673333D01*
X46302Y672547D01*
X46833Y671721D01*
X47303Y670859D01*
X47711Y669965D01*
X48055Y669045D01*
X48331Y668103D01*
X48540Y667143D01*
X48680Y666171D01*
X48750Y665191D01*
X48750Y664209D01*
X628750Y664209D02*
X628680Y663229D01*
X628540Y662257D01*
X628331Y661297D01*
X628055Y660355D01*
X627711Y659435D01*
X627303Y658541D01*
X626833Y657679D01*
X626302Y656853D01*
X625713Y656067D01*
X625070Y655325D01*
X624375Y654630D01*
X623633Y653987D01*
X622847Y653398D01*
X622021Y652867D01*
X621159Y652397D01*
X620265Y651989D01*
X619345Y651645D01*
X618403Y651369D01*
X617443Y651160D01*
X616471Y651020D01*
X615491Y650950D01*
X614509Y650950D01*
X613529Y651020D01*
X612557Y651160D01*
X611597Y651369D01*
X610655Y651645D01*
X609735Y651989D01*
X608841Y652397D01*
X607979Y652867D01*
X607153Y653398D01*
X606367Y653987D01*
X605625Y654630D01*
X604930Y655325D01*
X604287Y656067D01*
X603698Y656853D01*
X603167Y657679D01*
X602697Y658541D01*
X602289Y659435D01*
X601945Y660355D01*
X601669Y661297D01*
X601460Y662257D01*
X601320Y663229D01*
X601250Y664209D01*
X601250Y665191D01*
X601320Y666171D01*
X601460Y667143D01*
X601669Y668103D01*
X601945Y669045D01*
X602289Y669965D01*
X602697Y670859D01*
X603167Y671721D01*
X603698Y672547D01*
X604287Y673333D01*
X604930Y674075D01*
X605625Y674770D01*
X606367Y675413D01*
X607153Y676002D01*
X607979Y676533D01*
X608841Y677003D01*
X609735Y677411D01*
X610655Y677755D01*
X611597Y678031D01*
X612557Y678240D01*
X613529Y678380D01*
X614509Y678450D01*
X615491Y678450D01*
X616471Y678380D01*
X617443Y678240D01*
X618403Y678031D01*
X619345Y677755D01*
X620265Y677411D01*
X621159Y677003D01*
X622021Y676533D01*
X622847Y676002D01*
X623633Y675413D01*
X624375Y674770D01*
X625070Y674075D01*
X625713Y673333D01*
X626302Y672547D01*
X626833Y671721D01*
X627303Y670859D01*
X627711Y669965D01*
X628055Y669045D01*
X628331Y668103D01*
X628540Y667143D01*
X628680Y666171D01*
X628750Y665191D01*
X628750Y664209D01*
M02*
