G04 EAGLE Gerber RS-274X export*
G75*
%MOMM*%
%FSLAX34Y34*%
%LPD*%
%INSilkscreen Top*%
%IPPOS*%
%AMOC8*
5,1,8,0,0,1.08239X$1,22.5*%
G01*
%ADD10C,0.152400*%
%ADD11C,0.203200*%
%ADD12C,0.127000*%
%ADD13C,0.076200*%
%ADD14C,0.101600*%


D10*
X685800Y558800D02*
X533400Y558800D01*
X533400Y495300D02*
X685800Y495300D01*
X577025Y522803D02*
X577025Y534543D01*
X577024Y522803D02*
X577026Y522670D01*
X577032Y522538D01*
X577042Y522406D01*
X577055Y522274D01*
X577073Y522142D01*
X577094Y522012D01*
X577119Y521881D01*
X577148Y521752D01*
X577181Y521624D01*
X577217Y521496D01*
X577257Y521370D01*
X577301Y521245D01*
X577349Y521121D01*
X577400Y520999D01*
X577455Y520878D01*
X577513Y520759D01*
X577575Y520641D01*
X577640Y520526D01*
X577709Y520412D01*
X577780Y520301D01*
X577856Y520192D01*
X577934Y520085D01*
X578015Y519980D01*
X578100Y519878D01*
X578187Y519778D01*
X578277Y519681D01*
X578370Y519586D01*
X578466Y519495D01*
X578564Y519406D01*
X578665Y519320D01*
X578769Y519237D01*
X578875Y519157D01*
X578983Y519081D01*
X579093Y519007D01*
X579206Y518937D01*
X579320Y518870D01*
X579437Y518807D01*
X579555Y518747D01*
X579675Y518690D01*
X579797Y518637D01*
X579920Y518588D01*
X580044Y518542D01*
X580170Y518500D01*
X580297Y518462D01*
X580425Y518427D01*
X580554Y518396D01*
X580683Y518369D01*
X580814Y518346D01*
X580945Y518326D01*
X581077Y518311D01*
X581209Y518299D01*
X581341Y518291D01*
X581474Y518287D01*
X581606Y518287D01*
X581739Y518291D01*
X581871Y518299D01*
X582003Y518311D01*
X582135Y518326D01*
X582266Y518346D01*
X582397Y518369D01*
X582526Y518396D01*
X582655Y518427D01*
X582783Y518462D01*
X582910Y518500D01*
X583036Y518542D01*
X583160Y518588D01*
X583283Y518637D01*
X583405Y518690D01*
X583525Y518747D01*
X583643Y518807D01*
X583760Y518870D01*
X583874Y518937D01*
X583987Y519007D01*
X584097Y519081D01*
X584205Y519157D01*
X584311Y519237D01*
X584415Y519320D01*
X584516Y519406D01*
X584614Y519495D01*
X584710Y519586D01*
X584803Y519681D01*
X584893Y519778D01*
X584980Y519878D01*
X585065Y519980D01*
X585146Y520085D01*
X585224Y520192D01*
X585300Y520301D01*
X585371Y520412D01*
X585440Y520526D01*
X585505Y520641D01*
X585567Y520759D01*
X585625Y520878D01*
X585680Y520999D01*
X585731Y521121D01*
X585779Y521245D01*
X585823Y521370D01*
X585863Y521496D01*
X585899Y521624D01*
X585932Y521752D01*
X585961Y521881D01*
X585986Y522012D01*
X586007Y522142D01*
X586025Y522274D01*
X586038Y522406D01*
X586048Y522538D01*
X586054Y522670D01*
X586056Y522803D01*
X586056Y534543D01*
X601686Y521899D02*
X601684Y521781D01*
X601678Y521663D01*
X601669Y521545D01*
X601655Y521428D01*
X601638Y521311D01*
X601617Y521194D01*
X601592Y521079D01*
X601563Y520964D01*
X601530Y520850D01*
X601494Y520738D01*
X601454Y520627D01*
X601411Y520517D01*
X601364Y520408D01*
X601314Y520301D01*
X601259Y520196D01*
X601202Y520093D01*
X601141Y519992D01*
X601077Y519892D01*
X601010Y519795D01*
X600940Y519700D01*
X600866Y519608D01*
X600790Y519517D01*
X600710Y519430D01*
X600628Y519345D01*
X600543Y519263D01*
X600456Y519183D01*
X600365Y519107D01*
X600273Y519033D01*
X600178Y518963D01*
X600081Y518896D01*
X599981Y518832D01*
X599880Y518771D01*
X599777Y518714D01*
X599672Y518659D01*
X599565Y518609D01*
X599456Y518562D01*
X599346Y518519D01*
X599235Y518479D01*
X599123Y518443D01*
X599009Y518410D01*
X598894Y518381D01*
X598779Y518356D01*
X598662Y518335D01*
X598545Y518318D01*
X598428Y518304D01*
X598310Y518295D01*
X598192Y518289D01*
X598074Y518287D01*
X597891Y518289D01*
X597709Y518296D01*
X597527Y518307D01*
X597345Y518322D01*
X597163Y518342D01*
X596982Y518365D01*
X596802Y518394D01*
X596622Y518426D01*
X596443Y518463D01*
X596266Y518504D01*
X596089Y518550D01*
X595913Y518599D01*
X595739Y518653D01*
X595565Y518711D01*
X595394Y518773D01*
X595224Y518839D01*
X595055Y518910D01*
X594888Y518984D01*
X594723Y519062D01*
X594560Y519144D01*
X594399Y519230D01*
X594240Y519320D01*
X594083Y519414D01*
X593929Y519511D01*
X593777Y519612D01*
X593627Y519717D01*
X593480Y519825D01*
X593336Y519936D01*
X593194Y520051D01*
X593055Y520170D01*
X592919Y520292D01*
X592786Y520417D01*
X592656Y520545D01*
X593108Y530931D02*
X593110Y531049D01*
X593116Y531167D01*
X593125Y531285D01*
X593139Y531402D01*
X593156Y531519D01*
X593177Y531636D01*
X593202Y531751D01*
X593231Y531866D01*
X593264Y531980D01*
X593300Y532092D01*
X593340Y532203D01*
X593383Y532313D01*
X593430Y532422D01*
X593480Y532529D01*
X593535Y532634D01*
X593592Y532737D01*
X593653Y532838D01*
X593717Y532938D01*
X593784Y533035D01*
X593854Y533130D01*
X593928Y533222D01*
X594004Y533313D01*
X594084Y533400D01*
X594166Y533485D01*
X594251Y533567D01*
X594338Y533647D01*
X594429Y533723D01*
X594521Y533797D01*
X594616Y533867D01*
X594713Y533934D01*
X594813Y533998D01*
X594914Y534059D01*
X595017Y534117D01*
X595122Y534171D01*
X595229Y534221D01*
X595338Y534268D01*
X595448Y534312D01*
X595559Y534351D01*
X595672Y534387D01*
X595785Y534420D01*
X595900Y534449D01*
X596015Y534474D01*
X596132Y534495D01*
X596249Y534512D01*
X596366Y534526D01*
X596484Y534535D01*
X596602Y534541D01*
X596720Y534543D01*
X596881Y534541D01*
X597043Y534535D01*
X597204Y534526D01*
X597365Y534512D01*
X597525Y534495D01*
X597685Y534474D01*
X597845Y534449D01*
X598004Y534420D01*
X598162Y534388D01*
X598319Y534352D01*
X598475Y534312D01*
X598631Y534268D01*
X598785Y534220D01*
X598938Y534169D01*
X599090Y534115D01*
X599241Y534056D01*
X599390Y533995D01*
X599537Y533929D01*
X599683Y533860D01*
X599828Y533788D01*
X599970Y533712D01*
X600111Y533633D01*
X600250Y533551D01*
X600386Y533465D01*
X600521Y533376D01*
X600654Y533284D01*
X600784Y533188D01*
X594913Y527770D02*
X594812Y527832D01*
X594712Y527897D01*
X594615Y527966D01*
X594520Y528038D01*
X594427Y528112D01*
X594337Y528190D01*
X594249Y528271D01*
X594164Y528354D01*
X594082Y528440D01*
X594003Y528529D01*
X593926Y528620D01*
X593853Y528714D01*
X593782Y528810D01*
X593715Y528908D01*
X593651Y529008D01*
X593590Y529111D01*
X593533Y529215D01*
X593479Y529321D01*
X593429Y529429D01*
X593382Y529538D01*
X593338Y529649D01*
X593298Y529761D01*
X593262Y529875D01*
X593230Y529989D01*
X593201Y530105D01*
X593176Y530221D01*
X593155Y530338D01*
X593138Y530456D01*
X593124Y530574D01*
X593115Y530693D01*
X593109Y530812D01*
X593107Y530931D01*
X599881Y525060D02*
X599982Y524998D01*
X600082Y524933D01*
X600179Y524864D01*
X600274Y524792D01*
X600367Y524718D01*
X600457Y524640D01*
X600545Y524559D01*
X600630Y524476D01*
X600712Y524390D01*
X600791Y524301D01*
X600868Y524210D01*
X600941Y524116D01*
X601012Y524020D01*
X601079Y523922D01*
X601143Y523822D01*
X601204Y523719D01*
X601261Y523615D01*
X601315Y523509D01*
X601365Y523401D01*
X601412Y523292D01*
X601456Y523181D01*
X601496Y523069D01*
X601532Y522955D01*
X601564Y522841D01*
X601593Y522725D01*
X601618Y522609D01*
X601639Y522492D01*
X601656Y522374D01*
X601670Y522256D01*
X601679Y522137D01*
X601685Y522018D01*
X601687Y521899D01*
X599881Y525060D02*
X594914Y527770D01*
X608498Y527318D02*
X613014Y527318D01*
X613014Y527319D02*
X613147Y527317D01*
X613279Y527311D01*
X613411Y527301D01*
X613543Y527288D01*
X613675Y527270D01*
X613805Y527249D01*
X613936Y527224D01*
X614065Y527195D01*
X614193Y527162D01*
X614321Y527126D01*
X614447Y527086D01*
X614572Y527042D01*
X614696Y526994D01*
X614818Y526943D01*
X614939Y526888D01*
X615058Y526830D01*
X615176Y526768D01*
X615291Y526703D01*
X615405Y526634D01*
X615516Y526563D01*
X615625Y526487D01*
X615732Y526409D01*
X615837Y526328D01*
X615939Y526243D01*
X616039Y526156D01*
X616136Y526066D01*
X616231Y525973D01*
X616322Y525877D01*
X616411Y525779D01*
X616497Y525678D01*
X616580Y525574D01*
X616660Y525468D01*
X616736Y525360D01*
X616810Y525250D01*
X616880Y525137D01*
X616947Y525023D01*
X617010Y524906D01*
X617070Y524788D01*
X617127Y524668D01*
X617180Y524546D01*
X617229Y524423D01*
X617275Y524299D01*
X617317Y524173D01*
X617355Y524046D01*
X617390Y523918D01*
X617421Y523789D01*
X617448Y523660D01*
X617471Y523529D01*
X617491Y523398D01*
X617506Y523266D01*
X617518Y523134D01*
X617526Y523002D01*
X617530Y522869D01*
X617530Y522737D01*
X617526Y522604D01*
X617518Y522472D01*
X617506Y522340D01*
X617491Y522208D01*
X617471Y522077D01*
X617448Y521946D01*
X617421Y521817D01*
X617390Y521688D01*
X617355Y521560D01*
X617317Y521433D01*
X617275Y521307D01*
X617229Y521183D01*
X617180Y521060D01*
X617127Y520938D01*
X617070Y520818D01*
X617010Y520700D01*
X616947Y520583D01*
X616880Y520469D01*
X616810Y520356D01*
X616736Y520246D01*
X616660Y520138D01*
X616580Y520032D01*
X616497Y519928D01*
X616411Y519827D01*
X616322Y519729D01*
X616231Y519633D01*
X616136Y519540D01*
X616039Y519450D01*
X615939Y519363D01*
X615837Y519278D01*
X615732Y519197D01*
X615625Y519119D01*
X615516Y519043D01*
X615405Y518972D01*
X615291Y518903D01*
X615176Y518838D01*
X615058Y518776D01*
X614939Y518718D01*
X614818Y518663D01*
X614696Y518612D01*
X614572Y518564D01*
X614447Y518520D01*
X614321Y518480D01*
X614193Y518444D01*
X614065Y518411D01*
X613936Y518382D01*
X613805Y518357D01*
X613675Y518336D01*
X613543Y518318D01*
X613411Y518305D01*
X613279Y518295D01*
X613147Y518289D01*
X613014Y518287D01*
X608498Y518287D01*
X608498Y534543D01*
X613014Y534543D01*
X613133Y534541D01*
X613253Y534535D01*
X613372Y534525D01*
X613490Y534511D01*
X613609Y534494D01*
X613726Y534472D01*
X613843Y534447D01*
X613958Y534417D01*
X614073Y534384D01*
X614187Y534347D01*
X614299Y534307D01*
X614410Y534262D01*
X614519Y534214D01*
X614627Y534163D01*
X614733Y534108D01*
X614837Y534049D01*
X614939Y533987D01*
X615039Y533922D01*
X615137Y533853D01*
X615233Y533781D01*
X615326Y533706D01*
X615416Y533629D01*
X615504Y533548D01*
X615589Y533464D01*
X615671Y533377D01*
X615751Y533288D01*
X615827Y533196D01*
X615901Y533102D01*
X615971Y533005D01*
X616038Y532907D01*
X616102Y532806D01*
X616162Y532702D01*
X616219Y532597D01*
X616272Y532490D01*
X616322Y532382D01*
X616368Y532272D01*
X616410Y532160D01*
X616449Y532047D01*
X616484Y531933D01*
X616515Y531818D01*
X616543Y531701D01*
X616566Y531584D01*
X616586Y531467D01*
X616602Y531348D01*
X616614Y531229D01*
X616622Y531110D01*
X616626Y530991D01*
X616626Y530871D01*
X616622Y530752D01*
X616614Y530633D01*
X616602Y530514D01*
X616586Y530395D01*
X616566Y530278D01*
X616543Y530161D01*
X616515Y530044D01*
X616484Y529929D01*
X616449Y529815D01*
X616410Y529702D01*
X616368Y529590D01*
X616322Y529480D01*
X616272Y529372D01*
X616219Y529265D01*
X616162Y529160D01*
X616102Y529056D01*
X616038Y528955D01*
X615971Y528857D01*
X615901Y528760D01*
X615827Y528666D01*
X615751Y528574D01*
X615671Y528485D01*
X615589Y528398D01*
X615504Y528314D01*
X615416Y528233D01*
X615326Y528156D01*
X615233Y528081D01*
X615137Y528009D01*
X615039Y527940D01*
X614939Y527875D01*
X614837Y527813D01*
X614733Y527754D01*
X614627Y527699D01*
X614519Y527648D01*
X614410Y527600D01*
X614299Y527555D01*
X614187Y527515D01*
X614073Y527478D01*
X613958Y527445D01*
X613843Y527415D01*
X613726Y527390D01*
X613609Y527368D01*
X613490Y527351D01*
X613372Y527337D01*
X613253Y527327D01*
X613133Y527321D01*
X613014Y527319D01*
X623397Y518287D02*
X627913Y518287D01*
X628046Y518289D01*
X628178Y518295D01*
X628310Y518305D01*
X628442Y518318D01*
X628574Y518336D01*
X628704Y518357D01*
X628835Y518382D01*
X628964Y518411D01*
X629092Y518444D01*
X629220Y518480D01*
X629346Y518520D01*
X629471Y518564D01*
X629595Y518612D01*
X629717Y518663D01*
X629838Y518718D01*
X629957Y518776D01*
X630075Y518838D01*
X630190Y518903D01*
X630304Y518972D01*
X630415Y519043D01*
X630524Y519119D01*
X630631Y519197D01*
X630736Y519278D01*
X630838Y519363D01*
X630938Y519450D01*
X631035Y519540D01*
X631130Y519633D01*
X631221Y519729D01*
X631310Y519827D01*
X631396Y519928D01*
X631479Y520032D01*
X631559Y520138D01*
X631635Y520246D01*
X631709Y520356D01*
X631779Y520469D01*
X631846Y520583D01*
X631909Y520700D01*
X631969Y520818D01*
X632026Y520938D01*
X632079Y521060D01*
X632128Y521183D01*
X632174Y521307D01*
X632216Y521433D01*
X632254Y521560D01*
X632289Y521688D01*
X632320Y521817D01*
X632347Y521946D01*
X632370Y522077D01*
X632390Y522208D01*
X632405Y522340D01*
X632417Y522472D01*
X632425Y522604D01*
X632429Y522737D01*
X632429Y522869D01*
X632425Y523002D01*
X632417Y523134D01*
X632405Y523266D01*
X632390Y523398D01*
X632370Y523529D01*
X632347Y523660D01*
X632320Y523789D01*
X632289Y523918D01*
X632254Y524046D01*
X632216Y524173D01*
X632174Y524299D01*
X632128Y524423D01*
X632079Y524546D01*
X632026Y524668D01*
X631969Y524788D01*
X631909Y524906D01*
X631846Y525023D01*
X631779Y525137D01*
X631709Y525250D01*
X631635Y525360D01*
X631559Y525468D01*
X631479Y525574D01*
X631396Y525678D01*
X631310Y525779D01*
X631221Y525877D01*
X631130Y525973D01*
X631035Y526066D01*
X630938Y526156D01*
X630838Y526243D01*
X630736Y526328D01*
X630631Y526409D01*
X630524Y526487D01*
X630415Y526563D01*
X630304Y526634D01*
X630190Y526703D01*
X630075Y526768D01*
X629957Y526830D01*
X629838Y526888D01*
X629717Y526943D01*
X629595Y526994D01*
X629471Y527042D01*
X629346Y527086D01*
X629220Y527126D01*
X629092Y527162D01*
X628964Y527195D01*
X628835Y527224D01*
X628704Y527249D01*
X628574Y527270D01*
X628442Y527288D01*
X628310Y527301D01*
X628178Y527311D01*
X628046Y527317D01*
X627913Y527319D01*
X628816Y534543D02*
X623397Y534543D01*
X628816Y534543D02*
X628935Y534541D01*
X629055Y534535D01*
X629174Y534525D01*
X629292Y534511D01*
X629411Y534494D01*
X629528Y534472D01*
X629645Y534447D01*
X629760Y534417D01*
X629875Y534384D01*
X629989Y534347D01*
X630101Y534307D01*
X630212Y534262D01*
X630321Y534214D01*
X630429Y534163D01*
X630535Y534108D01*
X630639Y534049D01*
X630741Y533987D01*
X630841Y533922D01*
X630939Y533853D01*
X631035Y533781D01*
X631128Y533706D01*
X631218Y533629D01*
X631306Y533548D01*
X631391Y533464D01*
X631473Y533377D01*
X631553Y533288D01*
X631629Y533196D01*
X631703Y533102D01*
X631773Y533005D01*
X631840Y532907D01*
X631904Y532806D01*
X631964Y532702D01*
X632021Y532597D01*
X632074Y532490D01*
X632124Y532382D01*
X632170Y532272D01*
X632212Y532160D01*
X632251Y532047D01*
X632286Y531933D01*
X632317Y531818D01*
X632345Y531701D01*
X632368Y531584D01*
X632388Y531467D01*
X632404Y531348D01*
X632416Y531229D01*
X632424Y531110D01*
X632428Y530991D01*
X632428Y530871D01*
X632424Y530752D01*
X632416Y530633D01*
X632404Y530514D01*
X632388Y530395D01*
X632368Y530278D01*
X632345Y530161D01*
X632317Y530044D01*
X632286Y529929D01*
X632251Y529815D01*
X632212Y529702D01*
X632170Y529590D01*
X632124Y529480D01*
X632074Y529372D01*
X632021Y529265D01*
X631964Y529160D01*
X631904Y529056D01*
X631840Y528955D01*
X631773Y528857D01*
X631703Y528760D01*
X631629Y528666D01*
X631553Y528574D01*
X631473Y528485D01*
X631391Y528398D01*
X631306Y528314D01*
X631218Y528233D01*
X631128Y528156D01*
X631035Y528081D01*
X630939Y528009D01*
X630841Y527940D01*
X630741Y527875D01*
X630639Y527813D01*
X630535Y527754D01*
X630429Y527699D01*
X630321Y527648D01*
X630212Y527600D01*
X630101Y527555D01*
X629989Y527515D01*
X629875Y527478D01*
X629760Y527445D01*
X629645Y527415D01*
X629528Y527390D01*
X629411Y527368D01*
X629292Y527351D01*
X629174Y527337D01*
X629055Y527327D01*
X628935Y527321D01*
X628816Y527319D01*
X628816Y527318D02*
X625203Y527318D01*
D11*
X223266Y189484D02*
X223266Y166116D01*
X223266Y175204D02*
X236248Y189484D01*
X228459Y180396D02*
X236248Y166116D01*
X243529Y166116D02*
X243529Y181695D01*
X242880Y188186D02*
X242880Y189484D01*
X244178Y189484D01*
X244178Y188186D01*
X242880Y188186D01*
X252255Y181695D02*
X252255Y166116D01*
X252255Y181695D02*
X258746Y181695D01*
X258868Y181693D01*
X258991Y181687D01*
X259113Y181678D01*
X259234Y181664D01*
X259355Y181647D01*
X259476Y181626D01*
X259596Y181601D01*
X259715Y181573D01*
X259833Y181540D01*
X259950Y181504D01*
X260065Y181465D01*
X260180Y181421D01*
X260293Y181375D01*
X260404Y181324D01*
X260514Y181270D01*
X260622Y181213D01*
X260729Y181153D01*
X260833Y181089D01*
X260935Y181021D01*
X261035Y180951D01*
X261133Y180878D01*
X261229Y180801D01*
X261322Y180722D01*
X261412Y180639D01*
X261500Y180554D01*
X261585Y180466D01*
X261668Y180376D01*
X261747Y180283D01*
X261824Y180187D01*
X261897Y180089D01*
X261967Y179989D01*
X262035Y179887D01*
X262099Y179783D01*
X262159Y179676D01*
X262216Y179568D01*
X262270Y179458D01*
X262321Y179347D01*
X262367Y179234D01*
X262411Y179119D01*
X262450Y179004D01*
X262486Y178887D01*
X262519Y178769D01*
X262547Y178650D01*
X262572Y178530D01*
X262593Y178409D01*
X262610Y178288D01*
X262624Y178167D01*
X262633Y178045D01*
X262639Y177922D01*
X262641Y177800D01*
X262641Y166116D01*
X274941Y166116D02*
X281432Y166116D01*
X274941Y166116D02*
X274819Y166118D01*
X274696Y166124D01*
X274574Y166133D01*
X274453Y166147D01*
X274332Y166164D01*
X274211Y166185D01*
X274091Y166210D01*
X273972Y166238D01*
X273854Y166271D01*
X273737Y166307D01*
X273622Y166346D01*
X273507Y166390D01*
X273394Y166436D01*
X273283Y166487D01*
X273173Y166541D01*
X273065Y166598D01*
X272958Y166658D01*
X272854Y166722D01*
X272752Y166790D01*
X272652Y166860D01*
X272554Y166933D01*
X272458Y167010D01*
X272365Y167089D01*
X272275Y167172D01*
X272187Y167257D01*
X272102Y167345D01*
X272019Y167435D01*
X271940Y167528D01*
X271863Y167624D01*
X271790Y167722D01*
X271720Y167822D01*
X271652Y167924D01*
X271588Y168028D01*
X271528Y168135D01*
X271471Y168243D01*
X271417Y168353D01*
X271366Y168464D01*
X271320Y168577D01*
X271276Y168692D01*
X271237Y168807D01*
X271201Y168924D01*
X271168Y169042D01*
X271140Y169161D01*
X271115Y169281D01*
X271094Y169402D01*
X271077Y169523D01*
X271063Y169644D01*
X271054Y169766D01*
X271048Y169889D01*
X271046Y170011D01*
X271046Y176502D01*
X271048Y176645D01*
X271054Y176788D01*
X271064Y176931D01*
X271078Y177073D01*
X271095Y177215D01*
X271117Y177357D01*
X271142Y177498D01*
X271172Y177638D01*
X271205Y177777D01*
X271242Y177915D01*
X271283Y178052D01*
X271327Y178188D01*
X271376Y178323D01*
X271428Y178456D01*
X271483Y178588D01*
X271543Y178718D01*
X271606Y178847D01*
X271672Y178974D01*
X271742Y179099D01*
X271815Y179221D01*
X271892Y179342D01*
X271972Y179461D01*
X272055Y179577D01*
X272141Y179692D01*
X272230Y179803D01*
X272323Y179913D01*
X272418Y180019D01*
X272517Y180123D01*
X272618Y180224D01*
X272722Y180323D01*
X272828Y180418D01*
X272938Y180511D01*
X273049Y180600D01*
X273164Y180686D01*
X273280Y180769D01*
X273399Y180849D01*
X273520Y180926D01*
X273643Y180999D01*
X273767Y181069D01*
X273894Y181135D01*
X274023Y181198D01*
X274153Y181258D01*
X274285Y181313D01*
X274418Y181365D01*
X274553Y181414D01*
X274689Y181458D01*
X274826Y181499D01*
X274964Y181536D01*
X275103Y181569D01*
X275243Y181599D01*
X275384Y181624D01*
X275526Y181646D01*
X275668Y181663D01*
X275810Y181677D01*
X275953Y181687D01*
X276096Y181693D01*
X276239Y181695D01*
X276382Y181693D01*
X276525Y181687D01*
X276668Y181677D01*
X276810Y181663D01*
X276952Y181646D01*
X277094Y181624D01*
X277235Y181599D01*
X277375Y181569D01*
X277514Y181536D01*
X277652Y181499D01*
X277789Y181458D01*
X277925Y181414D01*
X278060Y181365D01*
X278193Y181313D01*
X278325Y181258D01*
X278455Y181198D01*
X278584Y181135D01*
X278711Y181069D01*
X278836Y180999D01*
X278958Y180926D01*
X279079Y180849D01*
X279198Y180769D01*
X279314Y180686D01*
X279429Y180600D01*
X279540Y180511D01*
X279650Y180418D01*
X279756Y180323D01*
X279860Y180224D01*
X279961Y180123D01*
X280060Y180019D01*
X280155Y179913D01*
X280248Y179803D01*
X280337Y179692D01*
X280423Y179577D01*
X280506Y179461D01*
X280586Y179342D01*
X280663Y179221D01*
X280736Y179099D01*
X280806Y178974D01*
X280872Y178847D01*
X280935Y178718D01*
X280995Y178588D01*
X281050Y178456D01*
X281102Y178323D01*
X281151Y178188D01*
X281195Y178052D01*
X281236Y177915D01*
X281273Y177777D01*
X281306Y177638D01*
X281336Y177498D01*
X281361Y177357D01*
X281383Y177215D01*
X281400Y177073D01*
X281414Y176931D01*
X281424Y176788D01*
X281430Y176645D01*
X281432Y176502D01*
X281432Y173905D01*
X271046Y173905D01*
X293050Y166116D02*
X298243Y166116D01*
X293050Y166116D02*
X292928Y166118D01*
X292805Y166124D01*
X292683Y166133D01*
X292562Y166147D01*
X292441Y166164D01*
X292320Y166185D01*
X292200Y166210D01*
X292081Y166238D01*
X291963Y166271D01*
X291846Y166307D01*
X291731Y166346D01*
X291616Y166390D01*
X291503Y166436D01*
X291392Y166487D01*
X291282Y166541D01*
X291174Y166598D01*
X291067Y166658D01*
X290963Y166722D01*
X290861Y166790D01*
X290761Y166860D01*
X290663Y166933D01*
X290567Y167010D01*
X290474Y167089D01*
X290384Y167172D01*
X290296Y167257D01*
X290211Y167345D01*
X290128Y167435D01*
X290049Y167528D01*
X289972Y167624D01*
X289899Y167722D01*
X289829Y167822D01*
X289761Y167924D01*
X289697Y168028D01*
X289637Y168135D01*
X289580Y168243D01*
X289526Y168353D01*
X289475Y168464D01*
X289429Y168577D01*
X289385Y168692D01*
X289346Y168807D01*
X289310Y168924D01*
X289277Y169042D01*
X289249Y169161D01*
X289224Y169281D01*
X289203Y169402D01*
X289186Y169523D01*
X289172Y169644D01*
X289163Y169766D01*
X289157Y169889D01*
X289155Y170011D01*
X289155Y177800D01*
X289157Y177922D01*
X289163Y178045D01*
X289172Y178167D01*
X289186Y178288D01*
X289203Y178409D01*
X289224Y178530D01*
X289249Y178650D01*
X289277Y178769D01*
X289310Y178887D01*
X289346Y179004D01*
X289385Y179119D01*
X289429Y179234D01*
X289475Y179347D01*
X289526Y179458D01*
X289580Y179568D01*
X289637Y179676D01*
X289697Y179783D01*
X289761Y179887D01*
X289829Y179989D01*
X289899Y180089D01*
X289972Y180187D01*
X290049Y180283D01*
X290128Y180376D01*
X290211Y180466D01*
X290296Y180554D01*
X290384Y180639D01*
X290474Y180722D01*
X290567Y180801D01*
X290663Y180878D01*
X290761Y180951D01*
X290861Y181021D01*
X290963Y181089D01*
X291067Y181153D01*
X291174Y181213D01*
X291282Y181270D01*
X291392Y181324D01*
X291503Y181375D01*
X291616Y181421D01*
X291731Y181465D01*
X291846Y181504D01*
X291963Y181540D01*
X292081Y181573D01*
X292200Y181601D01*
X292320Y181626D01*
X292441Y181647D01*
X292562Y181664D01*
X292683Y181678D01*
X292805Y181687D01*
X292928Y181693D01*
X293050Y181695D01*
X298243Y181695D01*
X303578Y181695D02*
X311368Y181695D01*
X306175Y189484D02*
X306175Y170011D01*
X306174Y170011D02*
X306176Y169889D01*
X306182Y169766D01*
X306191Y169644D01*
X306205Y169523D01*
X306222Y169402D01*
X306243Y169281D01*
X306268Y169161D01*
X306296Y169042D01*
X306329Y168924D01*
X306365Y168807D01*
X306404Y168692D01*
X306448Y168577D01*
X306494Y168464D01*
X306545Y168353D01*
X306599Y168243D01*
X306656Y168135D01*
X306716Y168028D01*
X306780Y167924D01*
X306848Y167822D01*
X306918Y167722D01*
X306991Y167624D01*
X307068Y167528D01*
X307147Y167435D01*
X307230Y167345D01*
X307315Y167257D01*
X307403Y167172D01*
X307493Y167089D01*
X307586Y167010D01*
X307682Y166933D01*
X307780Y166860D01*
X307880Y166790D01*
X307982Y166722D01*
X308086Y166658D01*
X308193Y166598D01*
X308301Y166541D01*
X308411Y166487D01*
X308522Y166436D01*
X308635Y166390D01*
X308750Y166346D01*
X308865Y166307D01*
X308982Y166271D01*
X309100Y166238D01*
X309219Y166210D01*
X309339Y166185D01*
X309460Y166164D01*
X309581Y166147D01*
X309702Y166133D01*
X309824Y166124D01*
X309947Y166118D01*
X310069Y166116D01*
X311368Y166116D01*
X320780Y166116D02*
X320780Y189484D01*
X318184Y166116D02*
X323376Y166116D01*
X323376Y189484D02*
X318184Y189484D01*
X331835Y189484D02*
X331835Y166116D01*
X331835Y189484D02*
X338327Y189484D01*
X338486Y189482D01*
X338645Y189476D01*
X338805Y189466D01*
X338963Y189453D01*
X339122Y189435D01*
X339279Y189414D01*
X339437Y189388D01*
X339593Y189359D01*
X339749Y189326D01*
X339904Y189289D01*
X340058Y189249D01*
X340211Y189204D01*
X340363Y189156D01*
X340514Y189105D01*
X340663Y189049D01*
X340811Y188990D01*
X340957Y188927D01*
X341102Y188861D01*
X341245Y188791D01*
X341387Y188718D01*
X341526Y188641D01*
X341664Y188561D01*
X341800Y188477D01*
X341933Y188390D01*
X342065Y188300D01*
X342194Y188207D01*
X342320Y188110D01*
X342445Y188011D01*
X342567Y187908D01*
X342686Y187803D01*
X342803Y187694D01*
X342917Y187583D01*
X343028Y187469D01*
X343137Y187352D01*
X343242Y187233D01*
X343345Y187111D01*
X343444Y186986D01*
X343541Y186860D01*
X343634Y186731D01*
X343724Y186599D01*
X343811Y186466D01*
X343895Y186330D01*
X343975Y186192D01*
X344052Y186053D01*
X344125Y185911D01*
X344195Y185768D01*
X344261Y185623D01*
X344324Y185477D01*
X344383Y185329D01*
X344439Y185180D01*
X344490Y185029D01*
X344538Y184877D01*
X344583Y184724D01*
X344623Y184570D01*
X344660Y184415D01*
X344693Y184259D01*
X344722Y184103D01*
X344748Y183945D01*
X344769Y183788D01*
X344787Y183629D01*
X344800Y183471D01*
X344810Y183311D01*
X344816Y183152D01*
X344818Y182993D01*
X344816Y182834D01*
X344810Y182675D01*
X344800Y182515D01*
X344787Y182357D01*
X344769Y182198D01*
X344748Y182041D01*
X344722Y181883D01*
X344693Y181727D01*
X344660Y181571D01*
X344623Y181416D01*
X344583Y181262D01*
X344538Y181109D01*
X344490Y180957D01*
X344439Y180806D01*
X344383Y180657D01*
X344324Y180509D01*
X344261Y180363D01*
X344195Y180218D01*
X344125Y180075D01*
X344052Y179933D01*
X343975Y179794D01*
X343895Y179656D01*
X343811Y179520D01*
X343724Y179387D01*
X343634Y179255D01*
X343541Y179126D01*
X343444Y179000D01*
X343345Y178875D01*
X343242Y178753D01*
X343137Y178634D01*
X343028Y178517D01*
X342917Y178403D01*
X342803Y178292D01*
X342686Y178183D01*
X342567Y178078D01*
X342445Y177975D01*
X342320Y177876D01*
X342194Y177779D01*
X342065Y177686D01*
X341933Y177596D01*
X341800Y177509D01*
X341664Y177425D01*
X341526Y177345D01*
X341387Y177268D01*
X341245Y177195D01*
X341102Y177125D01*
X340957Y177059D01*
X340811Y176996D01*
X340663Y176937D01*
X340514Y176881D01*
X340363Y176830D01*
X340211Y176782D01*
X340058Y176737D01*
X339904Y176697D01*
X339749Y176660D01*
X339593Y176627D01*
X339437Y176598D01*
X339279Y176572D01*
X339122Y176551D01*
X338963Y176533D01*
X338805Y176520D01*
X338645Y176510D01*
X338486Y176504D01*
X338327Y176502D01*
X331835Y176502D01*
X362216Y181695D02*
X367409Y166116D01*
X372602Y181695D01*
X379709Y184291D02*
X386200Y189484D01*
X386200Y166116D01*
X379709Y166116D02*
X392691Y166116D01*
X400166Y166116D02*
X400166Y167414D01*
X401464Y167414D01*
X401464Y166116D01*
X400166Y166116D01*
X408939Y177800D02*
X408944Y178260D01*
X408961Y178719D01*
X408988Y179178D01*
X409027Y179636D01*
X409076Y180093D01*
X409136Y180549D01*
X409207Y181003D01*
X409289Y181456D01*
X409382Y181906D01*
X409485Y182354D01*
X409599Y182799D01*
X409724Y183242D01*
X409859Y183681D01*
X410005Y184117D01*
X410161Y184549D01*
X410327Y184978D01*
X410503Y185403D01*
X410690Y185823D01*
X410886Y186238D01*
X410887Y186239D02*
X410932Y186366D01*
X410982Y186492D01*
X411034Y186617D01*
X411091Y186740D01*
X411151Y186862D01*
X411214Y186981D01*
X411280Y187099D01*
X411350Y187215D01*
X411423Y187329D01*
X411499Y187441D01*
X411579Y187551D01*
X411661Y187658D01*
X411747Y187763D01*
X411835Y187866D01*
X411926Y187966D01*
X412020Y188064D01*
X412117Y188158D01*
X412216Y188250D01*
X412318Y188340D01*
X412422Y188426D01*
X412529Y188509D01*
X412638Y188589D01*
X412750Y188667D01*
X412863Y188740D01*
X412978Y188811D01*
X413096Y188879D01*
X413215Y188943D01*
X413336Y189004D01*
X413459Y189061D01*
X413583Y189115D01*
X413709Y189165D01*
X413836Y189212D01*
X413964Y189255D01*
X414094Y189294D01*
X414224Y189330D01*
X414356Y189362D01*
X414488Y189391D01*
X414621Y189415D01*
X414755Y189436D01*
X414890Y189453D01*
X415024Y189467D01*
X415159Y189476D01*
X415295Y189482D01*
X415430Y189484D01*
X415565Y189482D01*
X415701Y189476D01*
X415836Y189467D01*
X415971Y189453D01*
X416105Y189436D01*
X416239Y189415D01*
X416372Y189391D01*
X416504Y189362D01*
X416636Y189330D01*
X416766Y189294D01*
X416896Y189255D01*
X417024Y189212D01*
X417151Y189165D01*
X417277Y189115D01*
X417401Y189061D01*
X417524Y189004D01*
X417645Y188943D01*
X417764Y188879D01*
X417882Y188811D01*
X417997Y188740D01*
X418110Y188666D01*
X418222Y188589D01*
X418331Y188509D01*
X418438Y188426D01*
X418542Y188340D01*
X418644Y188250D01*
X418743Y188158D01*
X418840Y188064D01*
X418934Y187966D01*
X419025Y187866D01*
X419113Y187763D01*
X419199Y187658D01*
X419281Y187551D01*
X419361Y187441D01*
X419437Y187329D01*
X419510Y187215D01*
X419580Y187099D01*
X419646Y186981D01*
X419709Y186862D01*
X419769Y186740D01*
X419826Y186617D01*
X419878Y186492D01*
X419928Y186366D01*
X419973Y186239D01*
X419975Y186239D02*
X420171Y185823D01*
X420358Y185403D01*
X420534Y184978D01*
X420700Y184550D01*
X420856Y184117D01*
X421002Y183681D01*
X421137Y183242D01*
X421262Y182799D01*
X421376Y182354D01*
X421479Y181906D01*
X421572Y181456D01*
X421654Y181003D01*
X421725Y180549D01*
X421785Y180093D01*
X421834Y179636D01*
X421873Y179178D01*
X421900Y178719D01*
X421917Y178260D01*
X421922Y177800D01*
X408940Y177800D02*
X408945Y177340D01*
X408962Y176881D01*
X408989Y176422D01*
X409028Y175964D01*
X409077Y175507D01*
X409137Y175051D01*
X409208Y174597D01*
X409290Y174145D01*
X409383Y173694D01*
X409486Y173246D01*
X409600Y172801D01*
X409725Y172358D01*
X409860Y171919D01*
X410006Y171483D01*
X410162Y171051D01*
X410328Y170622D01*
X410504Y170197D01*
X410691Y169777D01*
X410887Y169362D01*
X410887Y169361D02*
X410932Y169234D01*
X410982Y169108D01*
X411034Y168983D01*
X411091Y168860D01*
X411151Y168738D01*
X411214Y168619D01*
X411280Y168501D01*
X411350Y168385D01*
X411423Y168271D01*
X411499Y168159D01*
X411579Y168049D01*
X411661Y167942D01*
X411747Y167837D01*
X411835Y167734D01*
X411926Y167634D01*
X412020Y167536D01*
X412117Y167442D01*
X412216Y167350D01*
X412318Y167260D01*
X412423Y167174D01*
X412529Y167091D01*
X412638Y167011D01*
X412750Y166933D01*
X412863Y166860D01*
X412978Y166789D01*
X413096Y166721D01*
X413215Y166657D01*
X413336Y166596D01*
X413459Y166539D01*
X413583Y166485D01*
X413709Y166435D01*
X413836Y166388D01*
X413964Y166345D01*
X414094Y166306D01*
X414224Y166270D01*
X414356Y166238D01*
X414488Y166209D01*
X414621Y166185D01*
X414755Y166164D01*
X414890Y166147D01*
X415024Y166133D01*
X415159Y166124D01*
X415295Y166118D01*
X415430Y166116D01*
X419974Y169362D02*
X420170Y169777D01*
X420357Y170197D01*
X420533Y170622D01*
X420699Y171050D01*
X420855Y171483D01*
X421001Y171919D01*
X421136Y172358D01*
X421261Y172801D01*
X421375Y173246D01*
X421478Y173694D01*
X421571Y174144D01*
X421653Y174597D01*
X421724Y175051D01*
X421784Y175507D01*
X421833Y175964D01*
X421872Y176422D01*
X421899Y176881D01*
X421916Y177340D01*
X421921Y177800D01*
X419973Y169361D02*
X419928Y169234D01*
X419878Y169108D01*
X419826Y168983D01*
X419769Y168860D01*
X419709Y168738D01*
X419646Y168619D01*
X419580Y168501D01*
X419510Y168385D01*
X419437Y168271D01*
X419361Y168159D01*
X419281Y168049D01*
X419199Y167942D01*
X419113Y167837D01*
X419025Y167734D01*
X418934Y167634D01*
X418840Y167536D01*
X418743Y167442D01*
X418644Y167350D01*
X418542Y167260D01*
X418438Y167174D01*
X418331Y167091D01*
X418222Y167011D01*
X418110Y166933D01*
X417997Y166860D01*
X417882Y166789D01*
X417764Y166721D01*
X417645Y166657D01*
X417524Y166596D01*
X417401Y166539D01*
X417277Y166485D01*
X417151Y166435D01*
X417024Y166388D01*
X416896Y166345D01*
X416766Y166306D01*
X416636Y166270D01*
X416504Y166238D01*
X416372Y166209D01*
X416239Y166185D01*
X416105Y166164D01*
X415970Y166147D01*
X415836Y166133D01*
X415701Y166124D01*
X415565Y166118D01*
X415430Y166116D01*
X410237Y171309D02*
X420623Y184291D01*
D12*
X582390Y689718D02*
X67390Y689718D01*
X67390Y649718D01*
X77390Y639718D01*
X582390Y639718D01*
X582390Y689718D01*
D13*
X513902Y625302D02*
X512336Y625302D01*
X513902Y625302D02*
X513902Y620081D01*
X510769Y620081D01*
X510680Y620083D01*
X510592Y620089D01*
X510504Y620098D01*
X510416Y620111D01*
X510329Y620128D01*
X510243Y620148D01*
X510158Y620173D01*
X510073Y620200D01*
X509990Y620232D01*
X509909Y620266D01*
X509829Y620305D01*
X509751Y620346D01*
X509674Y620391D01*
X509600Y620439D01*
X509527Y620490D01*
X509457Y620544D01*
X509390Y620602D01*
X509324Y620662D01*
X509262Y620724D01*
X509202Y620790D01*
X509144Y620857D01*
X509090Y620927D01*
X509039Y621000D01*
X508991Y621074D01*
X508946Y621151D01*
X508905Y621229D01*
X508866Y621309D01*
X508832Y621390D01*
X508800Y621473D01*
X508773Y621558D01*
X508748Y621643D01*
X508728Y621729D01*
X508711Y621816D01*
X508698Y621904D01*
X508689Y621992D01*
X508683Y622080D01*
X508681Y622169D01*
X508681Y627391D01*
X508683Y627482D01*
X508689Y627573D01*
X508699Y627664D01*
X508713Y627754D01*
X508730Y627843D01*
X508752Y627931D01*
X508778Y628019D01*
X508807Y628105D01*
X508840Y628190D01*
X508877Y628273D01*
X508917Y628355D01*
X508961Y628435D01*
X509008Y628513D01*
X509059Y628589D01*
X509112Y628662D01*
X509169Y628733D01*
X509230Y628802D01*
X509293Y628867D01*
X509358Y628930D01*
X509427Y628990D01*
X509498Y629048D01*
X509571Y629101D01*
X509647Y629152D01*
X509725Y629199D01*
X509805Y629243D01*
X509887Y629283D01*
X509970Y629320D01*
X510055Y629353D01*
X510141Y629382D01*
X510229Y629408D01*
X510317Y629430D01*
X510406Y629447D01*
X510496Y629461D01*
X510587Y629471D01*
X510678Y629477D01*
X510769Y629479D01*
X513902Y629479D01*
X518566Y629479D02*
X518566Y620081D01*
X518566Y629479D02*
X521176Y629479D01*
X521277Y629477D01*
X521378Y629471D01*
X521479Y629461D01*
X521579Y629448D01*
X521679Y629430D01*
X521778Y629409D01*
X521876Y629383D01*
X521973Y629354D01*
X522069Y629322D01*
X522163Y629285D01*
X522256Y629245D01*
X522348Y629201D01*
X522437Y629154D01*
X522525Y629103D01*
X522611Y629049D01*
X522694Y628992D01*
X522776Y628932D01*
X522854Y628868D01*
X522931Y628802D01*
X523004Y628732D01*
X523075Y628660D01*
X523143Y628585D01*
X523208Y628507D01*
X523270Y628427D01*
X523329Y628345D01*
X523385Y628260D01*
X523437Y628174D01*
X523486Y628085D01*
X523532Y627994D01*
X523573Y627902D01*
X523612Y627808D01*
X523646Y627713D01*
X523677Y627617D01*
X523704Y627519D01*
X523728Y627421D01*
X523747Y627321D01*
X523763Y627221D01*
X523775Y627121D01*
X523783Y627020D01*
X523787Y626919D01*
X523787Y626817D01*
X523783Y626716D01*
X523775Y626615D01*
X523763Y626515D01*
X523747Y626415D01*
X523728Y626315D01*
X523704Y626217D01*
X523677Y626119D01*
X523646Y626023D01*
X523612Y625928D01*
X523573Y625834D01*
X523532Y625742D01*
X523486Y625651D01*
X523437Y625563D01*
X523385Y625476D01*
X523329Y625391D01*
X523270Y625309D01*
X523208Y625229D01*
X523143Y625151D01*
X523075Y625076D01*
X523004Y625004D01*
X522931Y624934D01*
X522854Y624868D01*
X522776Y624804D01*
X522694Y624744D01*
X522611Y624687D01*
X522525Y624633D01*
X522437Y624582D01*
X522348Y624535D01*
X522256Y624491D01*
X522163Y624451D01*
X522069Y624414D01*
X521973Y624382D01*
X521876Y624353D01*
X521778Y624327D01*
X521679Y624306D01*
X521579Y624288D01*
X521479Y624275D01*
X521378Y624265D01*
X521277Y624259D01*
X521176Y624257D01*
X521176Y624258D02*
X518566Y624258D01*
X528056Y620081D02*
X528056Y629479D01*
X527011Y620081D02*
X529100Y620081D01*
X529100Y629479D02*
X527011Y629479D01*
X532760Y626868D02*
X532760Y622692D01*
X532760Y626868D02*
X532762Y626969D01*
X532768Y627070D01*
X532778Y627171D01*
X532791Y627271D01*
X532809Y627371D01*
X532830Y627470D01*
X532856Y627568D01*
X532885Y627665D01*
X532917Y627761D01*
X532954Y627855D01*
X532994Y627948D01*
X533038Y628040D01*
X533085Y628129D01*
X533136Y628217D01*
X533190Y628303D01*
X533247Y628386D01*
X533307Y628468D01*
X533371Y628546D01*
X533437Y628623D01*
X533507Y628696D01*
X533579Y628767D01*
X533654Y628835D01*
X533732Y628900D01*
X533812Y628962D01*
X533894Y629021D01*
X533979Y629077D01*
X534066Y629129D01*
X534154Y629178D01*
X534245Y629224D01*
X534337Y629265D01*
X534431Y629304D01*
X534526Y629338D01*
X534622Y629369D01*
X534720Y629396D01*
X534818Y629420D01*
X534918Y629439D01*
X535018Y629455D01*
X535118Y629467D01*
X535219Y629475D01*
X535320Y629479D01*
X535422Y629479D01*
X535523Y629475D01*
X535624Y629467D01*
X535724Y629455D01*
X535824Y629439D01*
X535924Y629420D01*
X536022Y629396D01*
X536120Y629369D01*
X536216Y629338D01*
X536311Y629304D01*
X536405Y629265D01*
X536497Y629224D01*
X536588Y629178D01*
X536677Y629129D01*
X536763Y629077D01*
X536848Y629021D01*
X536930Y628962D01*
X537010Y628900D01*
X537088Y628835D01*
X537163Y628767D01*
X537235Y628696D01*
X537305Y628623D01*
X537371Y628546D01*
X537435Y628468D01*
X537495Y628386D01*
X537552Y628303D01*
X537606Y628217D01*
X537657Y628129D01*
X537704Y628040D01*
X537748Y627948D01*
X537788Y627855D01*
X537825Y627761D01*
X537857Y627665D01*
X537886Y627568D01*
X537912Y627470D01*
X537933Y627371D01*
X537951Y627271D01*
X537964Y627171D01*
X537974Y627070D01*
X537980Y626969D01*
X537982Y626868D01*
X537981Y626868D02*
X537981Y622692D01*
X537982Y622692D02*
X537980Y622591D01*
X537974Y622490D01*
X537964Y622389D01*
X537951Y622289D01*
X537933Y622189D01*
X537912Y622090D01*
X537886Y621992D01*
X537857Y621895D01*
X537825Y621799D01*
X537788Y621705D01*
X537748Y621612D01*
X537704Y621520D01*
X537657Y621431D01*
X537606Y621343D01*
X537552Y621257D01*
X537495Y621174D01*
X537435Y621092D01*
X537371Y621014D01*
X537305Y620937D01*
X537235Y620864D01*
X537163Y620793D01*
X537088Y620725D01*
X537010Y620660D01*
X536930Y620598D01*
X536848Y620539D01*
X536763Y620483D01*
X536677Y620431D01*
X536588Y620382D01*
X536497Y620336D01*
X536405Y620295D01*
X536311Y620256D01*
X536216Y620222D01*
X536120Y620191D01*
X536022Y620164D01*
X535924Y620140D01*
X535824Y620121D01*
X535724Y620105D01*
X535624Y620093D01*
X535523Y620085D01*
X535422Y620081D01*
X535320Y620081D01*
X535219Y620085D01*
X535118Y620093D01*
X535018Y620105D01*
X534918Y620121D01*
X534818Y620140D01*
X534720Y620164D01*
X534622Y620191D01*
X534526Y620222D01*
X534431Y620256D01*
X534337Y620295D01*
X534245Y620336D01*
X534154Y620382D01*
X534066Y620431D01*
X533979Y620483D01*
X533894Y620539D01*
X533812Y620598D01*
X533732Y620660D01*
X533654Y620725D01*
X533579Y620793D01*
X533507Y620864D01*
X533437Y620937D01*
X533371Y621014D01*
X533307Y621092D01*
X533247Y621174D01*
X533190Y621257D01*
X533136Y621343D01*
X533085Y621431D01*
X533038Y621520D01*
X532994Y621612D01*
X532954Y621705D01*
X532917Y621799D01*
X532885Y621895D01*
X532856Y621992D01*
X532830Y622090D01*
X532809Y622189D01*
X532791Y622289D01*
X532778Y622389D01*
X532768Y622490D01*
X532762Y622591D01*
X532760Y622692D01*
X547217Y620081D02*
X547217Y629479D01*
X549827Y629479D01*
X549928Y629477D01*
X550029Y629471D01*
X550130Y629461D01*
X550230Y629448D01*
X550330Y629430D01*
X550429Y629409D01*
X550527Y629383D01*
X550624Y629354D01*
X550720Y629322D01*
X550814Y629285D01*
X550907Y629245D01*
X550999Y629201D01*
X551088Y629154D01*
X551176Y629103D01*
X551262Y629049D01*
X551345Y628992D01*
X551427Y628932D01*
X551505Y628868D01*
X551582Y628802D01*
X551655Y628732D01*
X551726Y628660D01*
X551794Y628585D01*
X551859Y628507D01*
X551921Y628427D01*
X551980Y628345D01*
X552036Y628260D01*
X552088Y628174D01*
X552137Y628085D01*
X552183Y627994D01*
X552224Y627902D01*
X552263Y627808D01*
X552297Y627713D01*
X552328Y627617D01*
X552355Y627519D01*
X552379Y627421D01*
X552398Y627321D01*
X552414Y627221D01*
X552426Y627121D01*
X552434Y627020D01*
X552438Y626919D01*
X552438Y626817D01*
X552434Y626716D01*
X552426Y626615D01*
X552414Y626515D01*
X552398Y626415D01*
X552379Y626315D01*
X552355Y626217D01*
X552328Y626119D01*
X552297Y626023D01*
X552263Y625928D01*
X552224Y625834D01*
X552183Y625742D01*
X552137Y625651D01*
X552088Y625563D01*
X552036Y625476D01*
X551980Y625391D01*
X551921Y625309D01*
X551859Y625229D01*
X551794Y625151D01*
X551726Y625076D01*
X551655Y625004D01*
X551582Y624934D01*
X551505Y624868D01*
X551427Y624804D01*
X551345Y624744D01*
X551262Y624687D01*
X551176Y624633D01*
X551088Y624582D01*
X550999Y624535D01*
X550907Y624491D01*
X550814Y624451D01*
X550720Y624414D01*
X550624Y624382D01*
X550527Y624353D01*
X550429Y624327D01*
X550330Y624306D01*
X550230Y624288D01*
X550130Y624275D01*
X550029Y624265D01*
X549928Y624259D01*
X549827Y624257D01*
X549827Y624258D02*
X547217Y624258D01*
X555792Y626346D02*
X555792Y620081D01*
X555531Y628957D02*
X555531Y629479D01*
X556053Y629479D01*
X556053Y628957D01*
X555531Y628957D01*
X559670Y623736D02*
X565935Y623736D01*
X569946Y622169D02*
X572034Y629479D01*
X569946Y622169D02*
X575167Y622169D01*
X573600Y620081D02*
X573600Y624258D01*
X579089Y624780D02*
X579091Y624965D01*
X579098Y625150D01*
X579109Y625334D01*
X579124Y625518D01*
X579144Y625702D01*
X579168Y625886D01*
X579197Y626068D01*
X579230Y626250D01*
X579267Y626431D01*
X579309Y626611D01*
X579355Y626791D01*
X579405Y626969D01*
X579459Y627145D01*
X579518Y627321D01*
X579580Y627495D01*
X579647Y627667D01*
X579718Y627838D01*
X579793Y628007D01*
X579872Y628174D01*
X579902Y628254D01*
X579935Y628333D01*
X579972Y628410D01*
X580012Y628486D01*
X580055Y628560D01*
X580101Y628632D01*
X580151Y628701D01*
X580203Y628769D01*
X580259Y628834D01*
X580317Y628897D01*
X580379Y628956D01*
X580442Y629014D01*
X580509Y629068D01*
X580577Y629119D01*
X580648Y629167D01*
X580721Y629212D01*
X580795Y629254D01*
X580872Y629292D01*
X580950Y629327D01*
X581029Y629359D01*
X581110Y629387D01*
X581192Y629411D01*
X581276Y629432D01*
X581359Y629449D01*
X581444Y629462D01*
X581529Y629471D01*
X581614Y629477D01*
X581700Y629479D01*
X581786Y629477D01*
X581871Y629471D01*
X581956Y629462D01*
X582041Y629449D01*
X582124Y629432D01*
X582208Y629411D01*
X582290Y629387D01*
X582371Y629359D01*
X582450Y629327D01*
X582528Y629292D01*
X582605Y629254D01*
X582679Y629212D01*
X582752Y629167D01*
X582823Y629119D01*
X582891Y629068D01*
X582958Y629014D01*
X583021Y628956D01*
X583083Y628897D01*
X583141Y628834D01*
X583197Y628769D01*
X583249Y628701D01*
X583299Y628632D01*
X583345Y628560D01*
X583388Y628486D01*
X583428Y628410D01*
X583465Y628333D01*
X583498Y628254D01*
X583528Y628174D01*
X583607Y628007D01*
X583682Y627838D01*
X583753Y627667D01*
X583820Y627495D01*
X583882Y627321D01*
X583941Y627145D01*
X583995Y626969D01*
X584045Y626791D01*
X584091Y626611D01*
X584133Y626431D01*
X584170Y626250D01*
X584203Y626068D01*
X584232Y625886D01*
X584256Y625702D01*
X584276Y625518D01*
X584291Y625334D01*
X584302Y625150D01*
X584309Y624965D01*
X584311Y624780D01*
X579089Y624780D02*
X579091Y624595D01*
X579098Y624410D01*
X579109Y624226D01*
X579124Y624042D01*
X579144Y623858D01*
X579168Y623674D01*
X579197Y623492D01*
X579230Y623310D01*
X579267Y623129D01*
X579309Y622949D01*
X579355Y622769D01*
X579405Y622591D01*
X579459Y622415D01*
X579518Y622239D01*
X579580Y622065D01*
X579647Y621893D01*
X579718Y621722D01*
X579793Y621553D01*
X579872Y621386D01*
X579902Y621306D01*
X579935Y621227D01*
X579972Y621150D01*
X580012Y621074D01*
X580055Y621000D01*
X580101Y620928D01*
X580151Y620859D01*
X580204Y620791D01*
X580259Y620726D01*
X580318Y620663D01*
X580379Y620604D01*
X580442Y620546D01*
X580509Y620492D01*
X580577Y620441D01*
X580648Y620393D01*
X580721Y620348D01*
X580795Y620306D01*
X580872Y620268D01*
X580950Y620233D01*
X581029Y620201D01*
X581110Y620173D01*
X581192Y620149D01*
X581276Y620128D01*
X581359Y620111D01*
X581444Y620098D01*
X581529Y620089D01*
X581614Y620083D01*
X581700Y620081D01*
X583528Y621386D02*
X583607Y621553D01*
X583682Y621722D01*
X583753Y621893D01*
X583820Y622065D01*
X583882Y622239D01*
X583941Y622415D01*
X583995Y622591D01*
X584045Y622769D01*
X584091Y622949D01*
X584133Y623129D01*
X584170Y623310D01*
X584203Y623492D01*
X584232Y623674D01*
X584256Y623858D01*
X584276Y624042D01*
X584291Y624226D01*
X584302Y624410D01*
X584309Y624595D01*
X584311Y624780D01*
X583528Y621386D02*
X583498Y621306D01*
X583465Y621227D01*
X583428Y621150D01*
X583388Y621074D01*
X583345Y621000D01*
X583299Y620928D01*
X583249Y620859D01*
X583197Y620791D01*
X583141Y620726D01*
X583083Y620663D01*
X583021Y620604D01*
X582958Y620546D01*
X582891Y620492D01*
X582823Y620441D01*
X582752Y620393D01*
X582679Y620348D01*
X582605Y620306D01*
X582528Y620268D01*
X582450Y620233D01*
X582371Y620201D01*
X582290Y620173D01*
X582208Y620149D01*
X582124Y620128D01*
X582041Y620111D01*
X581956Y620098D01*
X581871Y620089D01*
X581786Y620083D01*
X581700Y620081D01*
X579612Y622169D02*
X583789Y627391D01*
D14*
X256667Y41970D02*
X244983Y41970D01*
X244983Y45215D01*
X244985Y45328D01*
X244991Y45441D01*
X245001Y45554D01*
X245015Y45667D01*
X245032Y45779D01*
X245054Y45890D01*
X245079Y46000D01*
X245109Y46110D01*
X245142Y46218D01*
X245179Y46325D01*
X245219Y46431D01*
X245264Y46535D01*
X245312Y46638D01*
X245363Y46739D01*
X245418Y46838D01*
X245476Y46935D01*
X245538Y47030D01*
X245603Y47123D01*
X245671Y47213D01*
X245742Y47301D01*
X245817Y47387D01*
X245894Y47470D01*
X245974Y47550D01*
X246057Y47627D01*
X246143Y47702D01*
X246231Y47773D01*
X246321Y47841D01*
X246414Y47906D01*
X246509Y47968D01*
X246606Y48026D01*
X246705Y48081D01*
X246806Y48132D01*
X246909Y48180D01*
X247013Y48225D01*
X247119Y48265D01*
X247226Y48302D01*
X247334Y48335D01*
X247444Y48365D01*
X247554Y48390D01*
X247665Y48412D01*
X247777Y48429D01*
X247890Y48443D01*
X248003Y48453D01*
X248116Y48459D01*
X248229Y48461D01*
X248342Y48459D01*
X248455Y48453D01*
X248568Y48443D01*
X248681Y48429D01*
X248793Y48412D01*
X248904Y48390D01*
X249014Y48365D01*
X249124Y48335D01*
X249232Y48302D01*
X249339Y48265D01*
X249445Y48225D01*
X249549Y48180D01*
X249652Y48132D01*
X249753Y48081D01*
X249852Y48026D01*
X249949Y47968D01*
X250044Y47906D01*
X250137Y47841D01*
X250227Y47773D01*
X250315Y47702D01*
X250401Y47627D01*
X250484Y47550D01*
X250564Y47470D01*
X250641Y47387D01*
X250716Y47301D01*
X250787Y47213D01*
X250855Y47123D01*
X250920Y47030D01*
X250982Y46935D01*
X251040Y46838D01*
X251095Y46739D01*
X251146Y46638D01*
X251194Y46535D01*
X251239Y46431D01*
X251279Y46325D01*
X251316Y46218D01*
X251349Y46110D01*
X251379Y46000D01*
X251404Y45890D01*
X251426Y45779D01*
X251443Y45667D01*
X251457Y45554D01*
X251467Y45441D01*
X251473Y45328D01*
X251475Y45215D01*
X251474Y45215D02*
X251474Y41970D01*
X251474Y45864D02*
X256667Y48461D01*
X247579Y53326D02*
X244983Y56571D01*
X256667Y56571D01*
X256667Y53326D02*
X256667Y59817D01*
X158242Y80070D02*
X146558Y80070D01*
X146558Y83315D01*
X146560Y83428D01*
X146566Y83541D01*
X146576Y83654D01*
X146590Y83767D01*
X146607Y83879D01*
X146629Y83990D01*
X146654Y84100D01*
X146684Y84210D01*
X146717Y84318D01*
X146754Y84425D01*
X146794Y84531D01*
X146839Y84635D01*
X146887Y84738D01*
X146938Y84839D01*
X146993Y84938D01*
X147051Y85035D01*
X147113Y85130D01*
X147178Y85223D01*
X147246Y85313D01*
X147317Y85401D01*
X147392Y85487D01*
X147469Y85570D01*
X147549Y85650D01*
X147632Y85727D01*
X147718Y85802D01*
X147806Y85873D01*
X147896Y85941D01*
X147989Y86006D01*
X148084Y86068D01*
X148181Y86126D01*
X148280Y86181D01*
X148381Y86232D01*
X148484Y86280D01*
X148588Y86325D01*
X148694Y86365D01*
X148801Y86402D01*
X148909Y86435D01*
X149019Y86465D01*
X149129Y86490D01*
X149240Y86512D01*
X149352Y86529D01*
X149465Y86543D01*
X149578Y86553D01*
X149691Y86559D01*
X149804Y86561D01*
X149917Y86559D01*
X150030Y86553D01*
X150143Y86543D01*
X150256Y86529D01*
X150368Y86512D01*
X150479Y86490D01*
X150589Y86465D01*
X150699Y86435D01*
X150807Y86402D01*
X150914Y86365D01*
X151020Y86325D01*
X151124Y86280D01*
X151227Y86232D01*
X151328Y86181D01*
X151427Y86126D01*
X151524Y86068D01*
X151619Y86006D01*
X151712Y85941D01*
X151802Y85873D01*
X151890Y85802D01*
X151976Y85727D01*
X152059Y85650D01*
X152139Y85570D01*
X152216Y85487D01*
X152291Y85401D01*
X152362Y85313D01*
X152430Y85223D01*
X152495Y85130D01*
X152557Y85035D01*
X152615Y84938D01*
X152670Y84839D01*
X152721Y84738D01*
X152769Y84635D01*
X152814Y84531D01*
X152854Y84425D01*
X152891Y84318D01*
X152924Y84210D01*
X152954Y84100D01*
X152979Y83990D01*
X153001Y83879D01*
X153018Y83767D01*
X153032Y83654D01*
X153042Y83541D01*
X153048Y83428D01*
X153050Y83315D01*
X153049Y83315D02*
X153049Y80070D01*
X153049Y83964D02*
X158242Y86561D01*
X149479Y97917D02*
X149372Y97915D01*
X149266Y97909D01*
X149160Y97899D01*
X149054Y97886D01*
X148948Y97868D01*
X148844Y97847D01*
X148740Y97822D01*
X148637Y97793D01*
X148536Y97761D01*
X148436Y97724D01*
X148337Y97684D01*
X148239Y97641D01*
X148143Y97594D01*
X148049Y97543D01*
X147957Y97489D01*
X147867Y97432D01*
X147779Y97372D01*
X147694Y97308D01*
X147611Y97241D01*
X147530Y97171D01*
X147452Y97099D01*
X147376Y97023D01*
X147304Y96945D01*
X147234Y96864D01*
X147167Y96781D01*
X147103Y96696D01*
X147043Y96608D01*
X146986Y96518D01*
X146932Y96426D01*
X146881Y96332D01*
X146834Y96236D01*
X146791Y96138D01*
X146751Y96039D01*
X146714Y95939D01*
X146682Y95838D01*
X146653Y95735D01*
X146628Y95631D01*
X146607Y95527D01*
X146589Y95421D01*
X146576Y95315D01*
X146566Y95209D01*
X146560Y95103D01*
X146558Y94996D01*
X146560Y94875D01*
X146566Y94754D01*
X146576Y94634D01*
X146589Y94513D01*
X146607Y94394D01*
X146628Y94274D01*
X146653Y94156D01*
X146682Y94039D01*
X146715Y93922D01*
X146751Y93807D01*
X146792Y93693D01*
X146835Y93580D01*
X146883Y93468D01*
X146934Y93359D01*
X146989Y93251D01*
X147047Y93144D01*
X147108Y93040D01*
X147173Y92938D01*
X147241Y92838D01*
X147312Y92740D01*
X147386Y92644D01*
X147463Y92551D01*
X147544Y92461D01*
X147627Y92373D01*
X147713Y92288D01*
X147802Y92205D01*
X147893Y92126D01*
X147987Y92049D01*
X148083Y91976D01*
X148181Y91906D01*
X148282Y91839D01*
X148385Y91775D01*
X148490Y91715D01*
X148597Y91657D01*
X148705Y91604D01*
X148815Y91554D01*
X148927Y91508D01*
X149040Y91465D01*
X149155Y91426D01*
X151751Y96943D02*
X151673Y97022D01*
X151593Y97098D01*
X151510Y97171D01*
X151424Y97241D01*
X151337Y97308D01*
X151246Y97372D01*
X151154Y97432D01*
X151060Y97490D01*
X150963Y97544D01*
X150865Y97594D01*
X150765Y97641D01*
X150664Y97685D01*
X150561Y97725D01*
X150456Y97761D01*
X150351Y97793D01*
X150244Y97822D01*
X150137Y97847D01*
X150028Y97869D01*
X149919Y97886D01*
X149810Y97900D01*
X149700Y97909D01*
X149589Y97915D01*
X149479Y97917D01*
X151751Y96943D02*
X158242Y91426D01*
X158242Y97917D01*
X400558Y80070D02*
X412242Y80070D01*
X400558Y80070D02*
X400558Y83315D01*
X400560Y83428D01*
X400566Y83541D01*
X400576Y83654D01*
X400590Y83767D01*
X400607Y83879D01*
X400629Y83990D01*
X400654Y84100D01*
X400684Y84210D01*
X400717Y84318D01*
X400754Y84425D01*
X400794Y84531D01*
X400839Y84635D01*
X400887Y84738D01*
X400938Y84839D01*
X400993Y84938D01*
X401051Y85035D01*
X401113Y85130D01*
X401178Y85223D01*
X401246Y85313D01*
X401317Y85401D01*
X401392Y85487D01*
X401469Y85570D01*
X401549Y85650D01*
X401632Y85727D01*
X401718Y85802D01*
X401806Y85873D01*
X401896Y85941D01*
X401989Y86006D01*
X402084Y86068D01*
X402181Y86126D01*
X402280Y86181D01*
X402381Y86232D01*
X402484Y86280D01*
X402588Y86325D01*
X402694Y86365D01*
X402801Y86402D01*
X402909Y86435D01*
X403019Y86465D01*
X403129Y86490D01*
X403240Y86512D01*
X403352Y86529D01*
X403465Y86543D01*
X403578Y86553D01*
X403691Y86559D01*
X403804Y86561D01*
X403917Y86559D01*
X404030Y86553D01*
X404143Y86543D01*
X404256Y86529D01*
X404368Y86512D01*
X404479Y86490D01*
X404589Y86465D01*
X404699Y86435D01*
X404807Y86402D01*
X404914Y86365D01*
X405020Y86325D01*
X405124Y86280D01*
X405227Y86232D01*
X405328Y86181D01*
X405427Y86126D01*
X405524Y86068D01*
X405619Y86006D01*
X405712Y85941D01*
X405802Y85873D01*
X405890Y85802D01*
X405976Y85727D01*
X406059Y85650D01*
X406139Y85570D01*
X406216Y85487D01*
X406291Y85401D01*
X406362Y85313D01*
X406430Y85223D01*
X406495Y85130D01*
X406557Y85035D01*
X406615Y84938D01*
X406670Y84839D01*
X406721Y84738D01*
X406769Y84635D01*
X406814Y84531D01*
X406854Y84425D01*
X406891Y84318D01*
X406924Y84210D01*
X406954Y84100D01*
X406979Y83990D01*
X407001Y83879D01*
X407018Y83767D01*
X407032Y83654D01*
X407042Y83541D01*
X407048Y83428D01*
X407050Y83315D01*
X407049Y83315D02*
X407049Y80070D01*
X407049Y83964D02*
X412242Y86561D01*
X412242Y91426D02*
X412242Y94671D01*
X412240Y94784D01*
X412234Y94897D01*
X412224Y95010D01*
X412210Y95123D01*
X412193Y95235D01*
X412171Y95346D01*
X412146Y95456D01*
X412116Y95566D01*
X412083Y95674D01*
X412046Y95781D01*
X412006Y95887D01*
X411961Y95991D01*
X411913Y96094D01*
X411862Y96195D01*
X411807Y96294D01*
X411749Y96391D01*
X411687Y96486D01*
X411622Y96579D01*
X411554Y96669D01*
X411483Y96757D01*
X411408Y96843D01*
X411331Y96926D01*
X411251Y97006D01*
X411168Y97083D01*
X411082Y97158D01*
X410994Y97229D01*
X410904Y97297D01*
X410811Y97362D01*
X410716Y97424D01*
X410619Y97482D01*
X410520Y97537D01*
X410419Y97588D01*
X410316Y97636D01*
X410212Y97681D01*
X410106Y97721D01*
X409999Y97758D01*
X409891Y97791D01*
X409781Y97821D01*
X409671Y97846D01*
X409560Y97868D01*
X409448Y97885D01*
X409335Y97899D01*
X409222Y97909D01*
X409109Y97915D01*
X408996Y97917D01*
X408883Y97915D01*
X408770Y97909D01*
X408657Y97899D01*
X408544Y97885D01*
X408432Y97868D01*
X408321Y97846D01*
X408211Y97821D01*
X408101Y97791D01*
X407993Y97758D01*
X407886Y97721D01*
X407780Y97681D01*
X407676Y97636D01*
X407573Y97588D01*
X407472Y97537D01*
X407373Y97482D01*
X407276Y97424D01*
X407181Y97362D01*
X407088Y97297D01*
X406998Y97229D01*
X406910Y97158D01*
X406824Y97083D01*
X406741Y97006D01*
X406661Y96926D01*
X406584Y96843D01*
X406509Y96757D01*
X406438Y96669D01*
X406370Y96579D01*
X406305Y96486D01*
X406243Y96391D01*
X406185Y96294D01*
X406130Y96195D01*
X406079Y96094D01*
X406031Y95991D01*
X405986Y95887D01*
X405946Y95781D01*
X405909Y95674D01*
X405876Y95566D01*
X405846Y95456D01*
X405821Y95346D01*
X405799Y95235D01*
X405782Y95123D01*
X405768Y95010D01*
X405758Y94897D01*
X405752Y94784D01*
X405750Y94671D01*
X400558Y95321D02*
X400558Y91426D01*
X400558Y95321D02*
X400560Y95422D01*
X400566Y95522D01*
X400576Y95622D01*
X400589Y95722D01*
X400607Y95821D01*
X400628Y95920D01*
X400653Y96017D01*
X400682Y96114D01*
X400715Y96209D01*
X400751Y96303D01*
X400791Y96395D01*
X400834Y96486D01*
X400881Y96575D01*
X400931Y96662D01*
X400985Y96748D01*
X401042Y96831D01*
X401102Y96911D01*
X401165Y96990D01*
X401232Y97066D01*
X401301Y97139D01*
X401373Y97209D01*
X401447Y97277D01*
X401524Y97342D01*
X401604Y97403D01*
X401686Y97462D01*
X401770Y97517D01*
X401856Y97569D01*
X401944Y97618D01*
X402034Y97663D01*
X402126Y97705D01*
X402219Y97743D01*
X402314Y97777D01*
X402409Y97808D01*
X402506Y97835D01*
X402604Y97858D01*
X402703Y97878D01*
X402803Y97893D01*
X402903Y97905D01*
X403003Y97913D01*
X403104Y97917D01*
X403204Y97917D01*
X403305Y97913D01*
X403405Y97905D01*
X403505Y97893D01*
X403605Y97878D01*
X403704Y97858D01*
X403802Y97835D01*
X403899Y97808D01*
X403994Y97777D01*
X404089Y97743D01*
X404182Y97705D01*
X404274Y97663D01*
X404364Y97618D01*
X404452Y97569D01*
X404538Y97517D01*
X404622Y97462D01*
X404704Y97403D01*
X404784Y97342D01*
X404861Y97277D01*
X404935Y97209D01*
X405007Y97139D01*
X405076Y97066D01*
X405143Y96990D01*
X405206Y96911D01*
X405266Y96831D01*
X405323Y96748D01*
X405377Y96662D01*
X405427Y96575D01*
X405474Y96486D01*
X405517Y96395D01*
X405557Y96303D01*
X405593Y96209D01*
X405626Y96114D01*
X405655Y96017D01*
X405680Y95920D01*
X405701Y95821D01*
X405719Y95722D01*
X405732Y95622D01*
X405742Y95522D01*
X405748Y95422D01*
X405750Y95321D01*
X405751Y95321D02*
X405751Y92724D01*
X221742Y76708D02*
X210058Y76708D01*
X210058Y79954D01*
X210060Y80067D01*
X210066Y80180D01*
X210076Y80293D01*
X210090Y80406D01*
X210107Y80518D01*
X210129Y80629D01*
X210154Y80739D01*
X210184Y80849D01*
X210217Y80957D01*
X210254Y81064D01*
X210294Y81170D01*
X210339Y81274D01*
X210387Y81377D01*
X210438Y81478D01*
X210493Y81577D01*
X210551Y81674D01*
X210613Y81769D01*
X210678Y81862D01*
X210746Y81952D01*
X210817Y82040D01*
X210892Y82126D01*
X210969Y82209D01*
X211049Y82289D01*
X211132Y82366D01*
X211218Y82441D01*
X211306Y82512D01*
X211396Y82580D01*
X211489Y82645D01*
X211584Y82707D01*
X211681Y82765D01*
X211780Y82820D01*
X211881Y82871D01*
X211984Y82919D01*
X212088Y82964D01*
X212194Y83004D01*
X212301Y83041D01*
X212409Y83074D01*
X212519Y83104D01*
X212629Y83129D01*
X212740Y83151D01*
X212852Y83168D01*
X212965Y83182D01*
X213078Y83192D01*
X213191Y83198D01*
X213304Y83200D01*
X213417Y83198D01*
X213530Y83192D01*
X213643Y83182D01*
X213756Y83168D01*
X213868Y83151D01*
X213979Y83129D01*
X214089Y83104D01*
X214199Y83074D01*
X214307Y83041D01*
X214414Y83004D01*
X214520Y82964D01*
X214624Y82919D01*
X214727Y82871D01*
X214828Y82820D01*
X214927Y82765D01*
X215024Y82707D01*
X215119Y82645D01*
X215212Y82580D01*
X215302Y82512D01*
X215390Y82441D01*
X215476Y82366D01*
X215559Y82289D01*
X215639Y82209D01*
X215716Y82126D01*
X215791Y82040D01*
X215862Y81952D01*
X215930Y81862D01*
X215995Y81769D01*
X216057Y81674D01*
X216115Y81577D01*
X216170Y81478D01*
X216221Y81377D01*
X216269Y81274D01*
X216314Y81170D01*
X216354Y81064D01*
X216391Y80957D01*
X216424Y80849D01*
X216454Y80739D01*
X216479Y80629D01*
X216501Y80518D01*
X216518Y80406D01*
X216532Y80293D01*
X216542Y80180D01*
X216548Y80067D01*
X216550Y79954D01*
X216549Y79954D02*
X216549Y76708D01*
X216549Y80603D02*
X221742Y83199D01*
X219146Y88064D02*
X210058Y90661D01*
X219146Y88064D02*
X219146Y94555D01*
X216549Y92608D02*
X221742Y92608D01*
X464058Y76708D02*
X475742Y76708D01*
X464058Y76708D02*
X464058Y79954D01*
X464060Y80067D01*
X464066Y80180D01*
X464076Y80293D01*
X464090Y80406D01*
X464107Y80518D01*
X464129Y80629D01*
X464154Y80739D01*
X464184Y80849D01*
X464217Y80957D01*
X464254Y81064D01*
X464294Y81170D01*
X464339Y81274D01*
X464387Y81377D01*
X464438Y81478D01*
X464493Y81577D01*
X464551Y81674D01*
X464613Y81769D01*
X464678Y81862D01*
X464746Y81952D01*
X464817Y82040D01*
X464892Y82126D01*
X464969Y82209D01*
X465049Y82289D01*
X465132Y82366D01*
X465218Y82441D01*
X465306Y82512D01*
X465396Y82580D01*
X465489Y82645D01*
X465584Y82707D01*
X465681Y82765D01*
X465780Y82820D01*
X465881Y82871D01*
X465984Y82919D01*
X466088Y82964D01*
X466194Y83004D01*
X466301Y83041D01*
X466409Y83074D01*
X466519Y83104D01*
X466629Y83129D01*
X466740Y83151D01*
X466852Y83168D01*
X466965Y83182D01*
X467078Y83192D01*
X467191Y83198D01*
X467304Y83200D01*
X467417Y83198D01*
X467530Y83192D01*
X467643Y83182D01*
X467756Y83168D01*
X467868Y83151D01*
X467979Y83129D01*
X468089Y83104D01*
X468199Y83074D01*
X468307Y83041D01*
X468414Y83004D01*
X468520Y82964D01*
X468624Y82919D01*
X468727Y82871D01*
X468828Y82820D01*
X468927Y82765D01*
X469024Y82707D01*
X469119Y82645D01*
X469212Y82580D01*
X469302Y82512D01*
X469390Y82441D01*
X469476Y82366D01*
X469559Y82289D01*
X469639Y82209D01*
X469716Y82126D01*
X469791Y82040D01*
X469862Y81952D01*
X469930Y81862D01*
X469995Y81769D01*
X470057Y81674D01*
X470115Y81577D01*
X470170Y81478D01*
X470221Y81377D01*
X470269Y81274D01*
X470314Y81170D01*
X470354Y81064D01*
X470391Y80957D01*
X470424Y80849D01*
X470454Y80739D01*
X470479Y80629D01*
X470501Y80518D01*
X470518Y80406D01*
X470532Y80293D01*
X470542Y80180D01*
X470548Y80067D01*
X470550Y79954D01*
X470549Y79954D02*
X470549Y76708D01*
X470549Y80603D02*
X475742Y83199D01*
X475742Y88064D02*
X475742Y91959D01*
X475740Y92058D01*
X475734Y92158D01*
X475725Y92257D01*
X475712Y92355D01*
X475695Y92453D01*
X475674Y92551D01*
X475649Y92647D01*
X475621Y92742D01*
X475589Y92836D01*
X475554Y92929D01*
X475515Y93021D01*
X475472Y93111D01*
X475427Y93199D01*
X475377Y93286D01*
X475325Y93370D01*
X475269Y93453D01*
X475211Y93533D01*
X475149Y93611D01*
X475084Y93686D01*
X475016Y93759D01*
X474946Y93829D01*
X474873Y93897D01*
X474798Y93962D01*
X474720Y94024D01*
X474640Y94082D01*
X474557Y94138D01*
X474473Y94190D01*
X474386Y94240D01*
X474298Y94285D01*
X474208Y94328D01*
X474116Y94367D01*
X474023Y94402D01*
X473929Y94434D01*
X473834Y94462D01*
X473738Y94487D01*
X473640Y94508D01*
X473542Y94525D01*
X473444Y94538D01*
X473345Y94547D01*
X473245Y94553D01*
X473146Y94555D01*
X471847Y94555D01*
X471748Y94553D01*
X471648Y94547D01*
X471549Y94538D01*
X471451Y94525D01*
X471353Y94508D01*
X471255Y94487D01*
X471159Y94462D01*
X471064Y94434D01*
X470970Y94402D01*
X470877Y94367D01*
X470785Y94328D01*
X470695Y94285D01*
X470607Y94240D01*
X470520Y94190D01*
X470436Y94138D01*
X470353Y94082D01*
X470273Y94024D01*
X470195Y93962D01*
X470120Y93897D01*
X470047Y93829D01*
X469977Y93759D01*
X469909Y93686D01*
X469844Y93611D01*
X469782Y93533D01*
X469724Y93453D01*
X469668Y93370D01*
X469616Y93286D01*
X469566Y93199D01*
X469521Y93111D01*
X469478Y93021D01*
X469439Y92929D01*
X469404Y92836D01*
X469372Y92742D01*
X469344Y92647D01*
X469319Y92551D01*
X469298Y92453D01*
X469281Y92355D01*
X469268Y92257D01*
X469259Y92158D01*
X469253Y92058D01*
X469251Y91959D01*
X469251Y88064D01*
X464058Y88064D01*
X464058Y94555D01*
D13*
X126479Y589391D02*
X126479Y591479D01*
X126479Y589391D02*
X126477Y589302D01*
X126471Y589214D01*
X126462Y589126D01*
X126449Y589038D01*
X126432Y588951D01*
X126412Y588865D01*
X126387Y588780D01*
X126360Y588695D01*
X126328Y588612D01*
X126294Y588531D01*
X126255Y588451D01*
X126214Y588373D01*
X126169Y588296D01*
X126121Y588222D01*
X126070Y588149D01*
X126016Y588079D01*
X125958Y588012D01*
X125898Y587946D01*
X125836Y587884D01*
X125770Y587824D01*
X125703Y587766D01*
X125633Y587712D01*
X125560Y587661D01*
X125486Y587613D01*
X125409Y587568D01*
X125331Y587527D01*
X125251Y587488D01*
X125170Y587454D01*
X125087Y587422D01*
X125002Y587395D01*
X124917Y587370D01*
X124831Y587350D01*
X124744Y587333D01*
X124656Y587320D01*
X124568Y587311D01*
X124480Y587305D01*
X124391Y587303D01*
X124391Y587302D02*
X119169Y587302D01*
X119078Y587304D01*
X118987Y587310D01*
X118896Y587320D01*
X118806Y587334D01*
X118717Y587352D01*
X118628Y587373D01*
X118541Y587399D01*
X118455Y587428D01*
X118370Y587461D01*
X118286Y587498D01*
X118204Y587538D01*
X118125Y587582D01*
X118047Y587629D01*
X117971Y587680D01*
X117897Y587734D01*
X117826Y587791D01*
X117758Y587851D01*
X117692Y587914D01*
X117629Y587980D01*
X117569Y588048D01*
X117512Y588119D01*
X117458Y588193D01*
X117407Y588269D01*
X117360Y588346D01*
X117316Y588426D01*
X117276Y588508D01*
X117239Y588592D01*
X117206Y588676D01*
X117177Y588763D01*
X117151Y588850D01*
X117130Y588939D01*
X117112Y589028D01*
X117098Y589118D01*
X117088Y589209D01*
X117082Y589300D01*
X117080Y589391D01*
X117081Y589391D02*
X117081Y591479D01*
X119169Y594948D02*
X117081Y597558D01*
X126479Y597558D01*
X126479Y594948D02*
X126479Y600169D01*
D14*
X173101Y380929D02*
X173099Y380830D01*
X173093Y380730D01*
X173084Y380631D01*
X173071Y380533D01*
X173054Y380435D01*
X173033Y380337D01*
X173008Y380241D01*
X172980Y380146D01*
X172948Y380052D01*
X172913Y379959D01*
X172874Y379867D01*
X172831Y379777D01*
X172786Y379689D01*
X172736Y379602D01*
X172684Y379518D01*
X172628Y379435D01*
X172570Y379355D01*
X172508Y379277D01*
X172443Y379202D01*
X172375Y379129D01*
X172305Y379059D01*
X172232Y378991D01*
X172157Y378926D01*
X172079Y378864D01*
X171999Y378806D01*
X171916Y378750D01*
X171832Y378698D01*
X171745Y378648D01*
X171657Y378603D01*
X171567Y378560D01*
X171475Y378521D01*
X171382Y378486D01*
X171288Y378454D01*
X171193Y378426D01*
X171097Y378401D01*
X170999Y378380D01*
X170901Y378363D01*
X170803Y378350D01*
X170704Y378341D01*
X170604Y378335D01*
X170505Y378333D01*
X170361Y378335D01*
X170216Y378341D01*
X170072Y378350D01*
X169929Y378363D01*
X169785Y378380D01*
X169642Y378401D01*
X169500Y378426D01*
X169359Y378454D01*
X169218Y378486D01*
X169078Y378522D01*
X168939Y378561D01*
X168801Y378604D01*
X168665Y378651D01*
X168529Y378701D01*
X168395Y378755D01*
X168263Y378812D01*
X168132Y378873D01*
X168003Y378937D01*
X167875Y379005D01*
X167749Y379075D01*
X167625Y379150D01*
X167504Y379227D01*
X167384Y379308D01*
X167266Y379391D01*
X167151Y379478D01*
X167038Y379568D01*
X166927Y379661D01*
X166819Y379756D01*
X166713Y379855D01*
X166610Y379956D01*
X166935Y387421D02*
X166937Y387520D01*
X166943Y387620D01*
X166952Y387719D01*
X166965Y387817D01*
X166982Y387915D01*
X167003Y388013D01*
X167028Y388109D01*
X167056Y388204D01*
X167088Y388298D01*
X167123Y388391D01*
X167162Y388483D01*
X167205Y388573D01*
X167250Y388661D01*
X167300Y388748D01*
X167352Y388832D01*
X167408Y388915D01*
X167466Y388995D01*
X167528Y389073D01*
X167593Y389148D01*
X167661Y389221D01*
X167731Y389291D01*
X167804Y389359D01*
X167879Y389424D01*
X167957Y389486D01*
X168037Y389544D01*
X168120Y389600D01*
X168204Y389652D01*
X168291Y389702D01*
X168379Y389747D01*
X168469Y389790D01*
X168561Y389829D01*
X168654Y389864D01*
X168748Y389896D01*
X168843Y389924D01*
X168940Y389949D01*
X169037Y389970D01*
X169135Y389987D01*
X169233Y390000D01*
X169332Y390009D01*
X169432Y390015D01*
X169531Y390017D01*
X169667Y390015D01*
X169803Y390009D01*
X169939Y390000D01*
X170075Y389987D01*
X170210Y389969D01*
X170344Y389949D01*
X170478Y389924D01*
X170612Y389896D01*
X170744Y389863D01*
X170875Y389828D01*
X171006Y389788D01*
X171135Y389745D01*
X171263Y389699D01*
X171389Y389648D01*
X171515Y389595D01*
X171638Y389537D01*
X171760Y389477D01*
X171880Y389413D01*
X171999Y389345D01*
X172115Y389275D01*
X172229Y389201D01*
X172342Y389124D01*
X172452Y389043D01*
X168232Y385149D02*
X168146Y385202D01*
X168062Y385259D01*
X167980Y385318D01*
X167900Y385381D01*
X167823Y385447D01*
X167748Y385515D01*
X167676Y385587D01*
X167607Y385661D01*
X167541Y385738D01*
X167478Y385817D01*
X167418Y385899D01*
X167361Y385983D01*
X167307Y386069D01*
X167257Y386157D01*
X167210Y386247D01*
X167166Y386338D01*
X167127Y386432D01*
X167090Y386526D01*
X167058Y386622D01*
X167029Y386720D01*
X167004Y386818D01*
X166983Y386917D01*
X166965Y387017D01*
X166952Y387117D01*
X166942Y387218D01*
X166936Y387320D01*
X166934Y387421D01*
X171803Y383201D02*
X171889Y383148D01*
X171973Y383091D01*
X172055Y383032D01*
X172135Y382969D01*
X172212Y382903D01*
X172287Y382835D01*
X172359Y382763D01*
X172428Y382689D01*
X172494Y382612D01*
X172557Y382533D01*
X172617Y382451D01*
X172674Y382367D01*
X172728Y382281D01*
X172778Y382193D01*
X172825Y382103D01*
X172869Y382012D01*
X172908Y381918D01*
X172945Y381824D01*
X172977Y381728D01*
X173006Y381630D01*
X173031Y381532D01*
X173052Y381433D01*
X173070Y381333D01*
X173083Y381233D01*
X173093Y381132D01*
X173099Y381030D01*
X173101Y380929D01*
X171803Y383201D02*
X168233Y385149D01*
X178040Y390017D02*
X178040Y378333D01*
X178040Y384824D02*
X184531Y384824D01*
X184531Y390017D02*
X184531Y378333D01*
X189851Y387421D02*
X193096Y390017D01*
X193096Y378333D01*
X189851Y378333D02*
X196342Y378333D01*
X170505Y448183D02*
X170604Y448185D01*
X170704Y448191D01*
X170803Y448200D01*
X170901Y448213D01*
X170999Y448230D01*
X171097Y448251D01*
X171193Y448276D01*
X171288Y448304D01*
X171382Y448336D01*
X171475Y448371D01*
X171567Y448410D01*
X171657Y448453D01*
X171745Y448498D01*
X171832Y448548D01*
X171916Y448600D01*
X171999Y448656D01*
X172079Y448714D01*
X172157Y448776D01*
X172232Y448841D01*
X172305Y448909D01*
X172375Y448979D01*
X172443Y449052D01*
X172508Y449127D01*
X172570Y449205D01*
X172628Y449285D01*
X172684Y449368D01*
X172736Y449452D01*
X172786Y449539D01*
X172831Y449627D01*
X172874Y449717D01*
X172913Y449809D01*
X172948Y449902D01*
X172980Y449996D01*
X173008Y450091D01*
X173033Y450187D01*
X173054Y450285D01*
X173071Y450383D01*
X173084Y450481D01*
X173093Y450580D01*
X173099Y450680D01*
X173101Y450779D01*
X170505Y448183D02*
X170361Y448185D01*
X170216Y448191D01*
X170072Y448200D01*
X169929Y448213D01*
X169785Y448230D01*
X169642Y448251D01*
X169500Y448276D01*
X169359Y448304D01*
X169218Y448336D01*
X169078Y448372D01*
X168939Y448411D01*
X168801Y448454D01*
X168665Y448501D01*
X168529Y448551D01*
X168395Y448605D01*
X168263Y448662D01*
X168132Y448723D01*
X168003Y448787D01*
X167875Y448855D01*
X167749Y448925D01*
X167625Y449000D01*
X167504Y449077D01*
X167384Y449158D01*
X167266Y449241D01*
X167151Y449328D01*
X167038Y449418D01*
X166927Y449511D01*
X166819Y449606D01*
X166713Y449705D01*
X166610Y449806D01*
X166935Y457271D02*
X166937Y457370D01*
X166943Y457470D01*
X166952Y457569D01*
X166965Y457667D01*
X166982Y457765D01*
X167003Y457863D01*
X167028Y457959D01*
X167056Y458054D01*
X167088Y458148D01*
X167123Y458241D01*
X167162Y458333D01*
X167205Y458423D01*
X167250Y458511D01*
X167300Y458598D01*
X167352Y458682D01*
X167408Y458765D01*
X167466Y458845D01*
X167528Y458923D01*
X167593Y458998D01*
X167661Y459071D01*
X167731Y459141D01*
X167804Y459209D01*
X167879Y459274D01*
X167957Y459336D01*
X168037Y459394D01*
X168120Y459450D01*
X168204Y459502D01*
X168291Y459552D01*
X168379Y459597D01*
X168469Y459640D01*
X168561Y459679D01*
X168654Y459714D01*
X168748Y459746D01*
X168843Y459774D01*
X168940Y459799D01*
X169037Y459820D01*
X169135Y459837D01*
X169233Y459850D01*
X169332Y459859D01*
X169432Y459865D01*
X169531Y459867D01*
X169667Y459865D01*
X169803Y459859D01*
X169939Y459850D01*
X170075Y459837D01*
X170210Y459819D01*
X170344Y459799D01*
X170478Y459774D01*
X170612Y459746D01*
X170744Y459713D01*
X170875Y459678D01*
X171006Y459638D01*
X171135Y459595D01*
X171263Y459549D01*
X171389Y459498D01*
X171515Y459445D01*
X171638Y459387D01*
X171760Y459327D01*
X171880Y459263D01*
X171999Y459195D01*
X172115Y459125D01*
X172229Y459051D01*
X172342Y458974D01*
X172452Y458893D01*
X168232Y454999D02*
X168146Y455052D01*
X168062Y455109D01*
X167980Y455168D01*
X167900Y455231D01*
X167823Y455297D01*
X167748Y455365D01*
X167676Y455437D01*
X167607Y455511D01*
X167541Y455588D01*
X167478Y455667D01*
X167418Y455749D01*
X167361Y455833D01*
X167307Y455919D01*
X167257Y456007D01*
X167210Y456097D01*
X167166Y456188D01*
X167127Y456282D01*
X167090Y456376D01*
X167058Y456472D01*
X167029Y456570D01*
X167004Y456668D01*
X166983Y456767D01*
X166965Y456867D01*
X166952Y456967D01*
X166942Y457068D01*
X166936Y457170D01*
X166934Y457271D01*
X171803Y453051D02*
X171889Y452998D01*
X171973Y452941D01*
X172055Y452882D01*
X172135Y452819D01*
X172212Y452753D01*
X172287Y452685D01*
X172359Y452613D01*
X172428Y452539D01*
X172494Y452462D01*
X172557Y452383D01*
X172617Y452301D01*
X172674Y452217D01*
X172728Y452131D01*
X172778Y452043D01*
X172825Y451953D01*
X172869Y451862D01*
X172908Y451768D01*
X172945Y451674D01*
X172977Y451578D01*
X173006Y451480D01*
X173031Y451382D01*
X173052Y451283D01*
X173070Y451183D01*
X173083Y451083D01*
X173093Y450982D01*
X173099Y450880D01*
X173101Y450779D01*
X171803Y453051D02*
X168233Y454999D01*
X178040Y459867D02*
X178040Y448183D01*
X178040Y454674D02*
X184531Y454674D01*
X184531Y459867D02*
X184531Y448183D01*
X193421Y459867D02*
X193528Y459865D01*
X193634Y459859D01*
X193740Y459849D01*
X193846Y459836D01*
X193952Y459818D01*
X194056Y459797D01*
X194160Y459772D01*
X194263Y459743D01*
X194364Y459711D01*
X194464Y459674D01*
X194563Y459634D01*
X194661Y459591D01*
X194757Y459544D01*
X194851Y459493D01*
X194943Y459439D01*
X195033Y459382D01*
X195121Y459322D01*
X195206Y459258D01*
X195289Y459191D01*
X195370Y459121D01*
X195448Y459049D01*
X195524Y458973D01*
X195596Y458895D01*
X195666Y458814D01*
X195733Y458731D01*
X195797Y458646D01*
X195857Y458558D01*
X195914Y458468D01*
X195968Y458376D01*
X196019Y458282D01*
X196066Y458186D01*
X196109Y458088D01*
X196149Y457989D01*
X196186Y457889D01*
X196218Y457788D01*
X196247Y457685D01*
X196272Y457581D01*
X196293Y457477D01*
X196311Y457371D01*
X196324Y457265D01*
X196334Y457159D01*
X196340Y457053D01*
X196342Y456946D01*
X193421Y459867D02*
X193300Y459865D01*
X193179Y459859D01*
X193059Y459849D01*
X192938Y459836D01*
X192819Y459818D01*
X192699Y459797D01*
X192581Y459772D01*
X192464Y459743D01*
X192347Y459710D01*
X192232Y459674D01*
X192118Y459633D01*
X192005Y459590D01*
X191893Y459542D01*
X191784Y459491D01*
X191676Y459436D01*
X191569Y459378D01*
X191465Y459317D01*
X191363Y459252D01*
X191263Y459184D01*
X191165Y459113D01*
X191069Y459039D01*
X190976Y458962D01*
X190886Y458881D01*
X190798Y458798D01*
X190713Y458712D01*
X190630Y458623D01*
X190551Y458532D01*
X190474Y458438D01*
X190401Y458342D01*
X190331Y458244D01*
X190264Y458143D01*
X190200Y458040D01*
X190140Y457935D01*
X190083Y457828D01*
X190029Y457720D01*
X189979Y457610D01*
X189933Y457498D01*
X189890Y457385D01*
X189851Y457270D01*
X195369Y454674D02*
X195448Y454751D01*
X195524Y454832D01*
X195597Y454915D01*
X195667Y455000D01*
X195734Y455088D01*
X195798Y455178D01*
X195858Y455270D01*
X195915Y455365D01*
X195969Y455461D01*
X196020Y455559D01*
X196067Y455659D01*
X196111Y455761D01*
X196151Y455864D01*
X196187Y455968D01*
X196219Y456074D01*
X196248Y456180D01*
X196273Y456288D01*
X196295Y456396D01*
X196312Y456506D01*
X196326Y456615D01*
X196335Y456725D01*
X196341Y456836D01*
X196343Y456946D01*
X195368Y454674D02*
X189851Y448183D01*
X196342Y448183D01*
D13*
X222291Y385319D02*
X222291Y379999D01*
X222293Y379910D01*
X222299Y379821D01*
X222309Y379732D01*
X222322Y379644D01*
X222339Y379556D01*
X222361Y379469D01*
X222386Y379384D01*
X222414Y379299D01*
X222447Y379216D01*
X222483Y379134D01*
X222522Y379054D01*
X222565Y378976D01*
X222611Y378900D01*
X222661Y378825D01*
X222714Y378753D01*
X222770Y378684D01*
X222829Y378617D01*
X222890Y378552D01*
X222955Y378491D01*
X223022Y378432D01*
X223091Y378376D01*
X223163Y378323D01*
X223238Y378273D01*
X223314Y378227D01*
X223392Y378184D01*
X223472Y378145D01*
X223554Y378109D01*
X223637Y378076D01*
X223722Y378048D01*
X223807Y378023D01*
X223894Y378001D01*
X223982Y377984D01*
X224070Y377971D01*
X224159Y377961D01*
X224248Y377955D01*
X224337Y377953D01*
X224426Y377955D01*
X224515Y377961D01*
X224604Y377971D01*
X224692Y377984D01*
X224780Y378001D01*
X224867Y378023D01*
X224952Y378048D01*
X225037Y378076D01*
X225120Y378109D01*
X225202Y378145D01*
X225282Y378184D01*
X225360Y378227D01*
X225436Y378273D01*
X225511Y378323D01*
X225583Y378376D01*
X225652Y378432D01*
X225719Y378491D01*
X225784Y378552D01*
X225845Y378617D01*
X225904Y378684D01*
X225960Y378753D01*
X226013Y378825D01*
X226063Y378900D01*
X226109Y378976D01*
X226152Y379054D01*
X226191Y379134D01*
X226227Y379216D01*
X226260Y379299D01*
X226288Y379384D01*
X226313Y379469D01*
X226335Y379556D01*
X226352Y379644D01*
X226365Y379732D01*
X226375Y379821D01*
X226381Y379910D01*
X226383Y379999D01*
X226383Y385319D01*
X233698Y379590D02*
X233696Y379512D01*
X233691Y379434D01*
X233681Y379357D01*
X233668Y379280D01*
X233652Y379204D01*
X233632Y379129D01*
X233608Y379055D01*
X233581Y378982D01*
X233550Y378910D01*
X233516Y378840D01*
X233479Y378772D01*
X233438Y378705D01*
X233394Y378640D01*
X233348Y378578D01*
X233298Y378518D01*
X233246Y378460D01*
X233191Y378405D01*
X233133Y378353D01*
X233073Y378303D01*
X233011Y378257D01*
X232946Y378213D01*
X232880Y378172D01*
X232811Y378135D01*
X232741Y378101D01*
X232669Y378070D01*
X232596Y378043D01*
X232522Y378019D01*
X232447Y377999D01*
X232371Y377983D01*
X232294Y377970D01*
X232217Y377960D01*
X232139Y377955D01*
X232061Y377953D01*
X231947Y377955D01*
X231834Y377960D01*
X231720Y377970D01*
X231607Y377983D01*
X231495Y378000D01*
X231383Y378020D01*
X231272Y378044D01*
X231161Y378072D01*
X231052Y378103D01*
X230944Y378138D01*
X230837Y378177D01*
X230731Y378219D01*
X230627Y378264D01*
X230524Y378313D01*
X230423Y378366D01*
X230324Y378421D01*
X230226Y378480D01*
X230131Y378542D01*
X230038Y378607D01*
X229946Y378675D01*
X229858Y378746D01*
X229771Y378820D01*
X229687Y378897D01*
X229606Y378976D01*
X229811Y383682D02*
X229813Y383760D01*
X229818Y383838D01*
X229828Y383915D01*
X229841Y383992D01*
X229857Y384068D01*
X229877Y384143D01*
X229901Y384217D01*
X229928Y384290D01*
X229959Y384362D01*
X229993Y384432D01*
X230030Y384501D01*
X230071Y384567D01*
X230115Y384632D01*
X230161Y384694D01*
X230211Y384754D01*
X230263Y384812D01*
X230318Y384867D01*
X230376Y384919D01*
X230436Y384969D01*
X230498Y385015D01*
X230563Y385059D01*
X230630Y385100D01*
X230698Y385137D01*
X230768Y385171D01*
X230840Y385202D01*
X230913Y385229D01*
X230987Y385253D01*
X231062Y385273D01*
X231138Y385289D01*
X231215Y385302D01*
X231292Y385312D01*
X231370Y385317D01*
X231448Y385319D01*
X231447Y385319D02*
X231557Y385317D01*
X231666Y385311D01*
X231776Y385301D01*
X231884Y385288D01*
X231993Y385270D01*
X232100Y385249D01*
X232207Y385223D01*
X232313Y385194D01*
X232418Y385162D01*
X232521Y385125D01*
X232623Y385085D01*
X232724Y385041D01*
X232823Y384993D01*
X232920Y384943D01*
X233015Y384888D01*
X233108Y384830D01*
X233199Y384769D01*
X233288Y384705D01*
X230629Y382249D02*
X230562Y382291D01*
X230497Y382335D01*
X230435Y382383D01*
X230375Y382433D01*
X230317Y382486D01*
X230262Y382542D01*
X230210Y382601D01*
X230160Y382661D01*
X230113Y382725D01*
X230070Y382790D01*
X230029Y382857D01*
X229992Y382926D01*
X229958Y382997D01*
X229927Y383069D01*
X229900Y383143D01*
X229876Y383217D01*
X229856Y383293D01*
X229840Y383370D01*
X229827Y383447D01*
X229817Y383525D01*
X229812Y383604D01*
X229810Y383682D01*
X232880Y381022D02*
X232946Y380980D01*
X233011Y380936D01*
X233073Y380889D01*
X233133Y380838D01*
X233191Y380785D01*
X233246Y380729D01*
X233299Y380671D01*
X233348Y380610D01*
X233395Y380547D01*
X233438Y380482D01*
X233479Y380415D01*
X233516Y380346D01*
X233550Y380275D01*
X233581Y380203D01*
X233608Y380129D01*
X233632Y380054D01*
X233652Y379979D01*
X233668Y379902D01*
X233681Y379825D01*
X233691Y379747D01*
X233696Y379668D01*
X233698Y379590D01*
X232880Y381022D02*
X230629Y382250D01*
X237039Y382045D02*
X239085Y382045D01*
X239174Y382043D01*
X239263Y382037D01*
X239352Y382027D01*
X239440Y382014D01*
X239528Y381997D01*
X239615Y381975D01*
X239700Y381950D01*
X239785Y381922D01*
X239868Y381889D01*
X239950Y381853D01*
X240030Y381814D01*
X240108Y381771D01*
X240184Y381725D01*
X240259Y381675D01*
X240331Y381622D01*
X240400Y381566D01*
X240467Y381507D01*
X240532Y381446D01*
X240593Y381381D01*
X240652Y381314D01*
X240708Y381245D01*
X240761Y381173D01*
X240811Y381098D01*
X240857Y381022D01*
X240900Y380944D01*
X240939Y380864D01*
X240975Y380782D01*
X241008Y380699D01*
X241036Y380614D01*
X241061Y380529D01*
X241083Y380442D01*
X241100Y380354D01*
X241113Y380266D01*
X241123Y380177D01*
X241129Y380088D01*
X241131Y379999D01*
X241129Y379910D01*
X241123Y379821D01*
X241113Y379732D01*
X241100Y379644D01*
X241083Y379556D01*
X241061Y379469D01*
X241036Y379384D01*
X241008Y379299D01*
X240975Y379216D01*
X240939Y379134D01*
X240900Y379054D01*
X240857Y378976D01*
X240811Y378900D01*
X240761Y378825D01*
X240708Y378753D01*
X240652Y378684D01*
X240593Y378617D01*
X240532Y378552D01*
X240467Y378491D01*
X240400Y378432D01*
X240331Y378376D01*
X240259Y378323D01*
X240184Y378273D01*
X240108Y378227D01*
X240030Y378184D01*
X239950Y378145D01*
X239868Y378109D01*
X239785Y378076D01*
X239700Y378048D01*
X239615Y378023D01*
X239528Y378001D01*
X239440Y377984D01*
X239352Y377971D01*
X239263Y377961D01*
X239174Y377955D01*
X239085Y377953D01*
X237039Y377953D01*
X237039Y385319D01*
X239085Y385319D01*
X239164Y385317D01*
X239243Y385311D01*
X239322Y385302D01*
X239400Y385289D01*
X239477Y385271D01*
X239553Y385251D01*
X239628Y385226D01*
X239702Y385198D01*
X239775Y385167D01*
X239846Y385131D01*
X239915Y385093D01*
X239982Y385051D01*
X240047Y385006D01*
X240110Y384958D01*
X240171Y384907D01*
X240228Y384853D01*
X240284Y384797D01*
X240336Y384738D01*
X240386Y384676D01*
X240432Y384612D01*
X240476Y384546D01*
X240516Y384478D01*
X240552Y384408D01*
X240586Y384336D01*
X240616Y384262D01*
X240642Y384188D01*
X240665Y384112D01*
X240683Y384035D01*
X240699Y383958D01*
X240710Y383879D01*
X240718Y383801D01*
X240722Y383722D01*
X240722Y383642D01*
X240718Y383563D01*
X240710Y383485D01*
X240699Y383406D01*
X240683Y383329D01*
X240665Y383252D01*
X240642Y383176D01*
X240616Y383102D01*
X240586Y383028D01*
X240552Y382956D01*
X240516Y382886D01*
X240476Y382818D01*
X240432Y382752D01*
X240386Y382688D01*
X240336Y382626D01*
X240284Y382567D01*
X240228Y382511D01*
X240171Y382457D01*
X240110Y382406D01*
X240047Y382358D01*
X239982Y382313D01*
X239915Y382271D01*
X239846Y382233D01*
X239775Y382197D01*
X239702Y382166D01*
X239628Y382138D01*
X239553Y382113D01*
X239477Y382093D01*
X239400Y382075D01*
X239322Y382062D01*
X239243Y382053D01*
X239164Y382047D01*
X239085Y382045D01*
X243670Y377135D02*
X246944Y377135D01*
X251891Y377953D02*
X249435Y385319D01*
X254346Y385319D02*
X251891Y377953D01*
X258774Y377953D02*
X260411Y377953D01*
X258774Y377953D02*
X258696Y377955D01*
X258618Y377960D01*
X258541Y377970D01*
X258464Y377983D01*
X258388Y377999D01*
X258313Y378019D01*
X258239Y378043D01*
X258166Y378070D01*
X258094Y378101D01*
X258024Y378135D01*
X257956Y378172D01*
X257889Y378213D01*
X257824Y378257D01*
X257762Y378303D01*
X257702Y378353D01*
X257644Y378405D01*
X257589Y378460D01*
X257537Y378518D01*
X257487Y378578D01*
X257441Y378640D01*
X257397Y378705D01*
X257356Y378772D01*
X257319Y378840D01*
X257285Y378910D01*
X257254Y378982D01*
X257227Y379055D01*
X257203Y379129D01*
X257183Y379204D01*
X257167Y379280D01*
X257154Y379357D01*
X257144Y379434D01*
X257139Y379512D01*
X257137Y379590D01*
X257137Y383682D01*
X257139Y383762D01*
X257145Y383842D01*
X257155Y383922D01*
X257168Y384001D01*
X257186Y384080D01*
X257207Y384157D01*
X257233Y384233D01*
X257262Y384308D01*
X257294Y384382D01*
X257330Y384454D01*
X257370Y384524D01*
X257413Y384591D01*
X257459Y384657D01*
X257509Y384720D01*
X257561Y384781D01*
X257616Y384840D01*
X257675Y384895D01*
X257735Y384947D01*
X257799Y384997D01*
X257865Y385043D01*
X257932Y385086D01*
X258002Y385126D01*
X258074Y385162D01*
X258148Y385194D01*
X258222Y385223D01*
X258299Y385249D01*
X258376Y385270D01*
X258455Y385288D01*
X258534Y385301D01*
X258614Y385311D01*
X258694Y385317D01*
X258774Y385319D01*
X260411Y385319D01*
X264870Y377953D02*
X266507Y377953D01*
X264870Y377953D02*
X264792Y377955D01*
X264714Y377960D01*
X264637Y377970D01*
X264560Y377983D01*
X264484Y377999D01*
X264409Y378019D01*
X264335Y378043D01*
X264262Y378070D01*
X264190Y378101D01*
X264120Y378135D01*
X264052Y378172D01*
X263985Y378213D01*
X263920Y378257D01*
X263858Y378303D01*
X263798Y378353D01*
X263740Y378405D01*
X263685Y378460D01*
X263633Y378518D01*
X263583Y378578D01*
X263537Y378640D01*
X263493Y378705D01*
X263452Y378772D01*
X263415Y378840D01*
X263381Y378910D01*
X263350Y378982D01*
X263323Y379055D01*
X263299Y379129D01*
X263279Y379204D01*
X263263Y379280D01*
X263250Y379357D01*
X263240Y379434D01*
X263235Y379512D01*
X263233Y379590D01*
X263233Y383682D01*
X263235Y383762D01*
X263241Y383842D01*
X263251Y383922D01*
X263264Y384001D01*
X263282Y384080D01*
X263303Y384157D01*
X263329Y384233D01*
X263358Y384308D01*
X263390Y384382D01*
X263426Y384454D01*
X263466Y384524D01*
X263509Y384591D01*
X263555Y384657D01*
X263605Y384720D01*
X263657Y384781D01*
X263712Y384840D01*
X263771Y384895D01*
X263831Y384947D01*
X263895Y384997D01*
X263961Y385043D01*
X264028Y385086D01*
X264098Y385126D01*
X264170Y385162D01*
X264244Y385194D01*
X264318Y385223D01*
X264395Y385249D01*
X264472Y385270D01*
X264551Y385288D01*
X264630Y385301D01*
X264710Y385311D01*
X264790Y385317D01*
X264870Y385319D01*
X266507Y385319D01*
X228794Y405715D02*
X228794Y411035D01*
X228794Y405715D02*
X228796Y405626D01*
X228802Y405537D01*
X228812Y405448D01*
X228825Y405360D01*
X228842Y405272D01*
X228864Y405185D01*
X228889Y405100D01*
X228917Y405015D01*
X228950Y404932D01*
X228986Y404850D01*
X229025Y404770D01*
X229068Y404692D01*
X229114Y404616D01*
X229164Y404541D01*
X229217Y404469D01*
X229273Y404400D01*
X229332Y404333D01*
X229393Y404268D01*
X229458Y404207D01*
X229525Y404148D01*
X229594Y404092D01*
X229666Y404039D01*
X229741Y403989D01*
X229817Y403943D01*
X229895Y403900D01*
X229975Y403861D01*
X230057Y403825D01*
X230140Y403792D01*
X230225Y403764D01*
X230310Y403739D01*
X230397Y403717D01*
X230485Y403700D01*
X230573Y403687D01*
X230662Y403677D01*
X230751Y403671D01*
X230840Y403669D01*
X230929Y403671D01*
X231018Y403677D01*
X231107Y403687D01*
X231195Y403700D01*
X231283Y403717D01*
X231370Y403739D01*
X231455Y403764D01*
X231540Y403792D01*
X231623Y403825D01*
X231705Y403861D01*
X231785Y403900D01*
X231863Y403943D01*
X231939Y403989D01*
X232014Y404039D01*
X232086Y404092D01*
X232155Y404148D01*
X232222Y404207D01*
X232287Y404268D01*
X232348Y404333D01*
X232407Y404400D01*
X232463Y404469D01*
X232516Y404541D01*
X232566Y404616D01*
X232612Y404692D01*
X232655Y404770D01*
X232694Y404850D01*
X232730Y404932D01*
X232763Y405015D01*
X232791Y405100D01*
X232816Y405185D01*
X232838Y405272D01*
X232855Y405360D01*
X232868Y405448D01*
X232878Y405537D01*
X232884Y405626D01*
X232886Y405715D01*
X232886Y411035D01*
X240201Y405305D02*
X240199Y405227D01*
X240194Y405149D01*
X240184Y405072D01*
X240171Y404995D01*
X240155Y404919D01*
X240135Y404844D01*
X240111Y404770D01*
X240084Y404697D01*
X240053Y404625D01*
X240019Y404555D01*
X239982Y404487D01*
X239941Y404420D01*
X239897Y404355D01*
X239851Y404293D01*
X239801Y404233D01*
X239749Y404175D01*
X239694Y404120D01*
X239636Y404068D01*
X239576Y404018D01*
X239514Y403972D01*
X239449Y403928D01*
X239383Y403887D01*
X239314Y403850D01*
X239244Y403816D01*
X239172Y403785D01*
X239099Y403758D01*
X239025Y403734D01*
X238950Y403714D01*
X238874Y403698D01*
X238797Y403685D01*
X238720Y403675D01*
X238642Y403670D01*
X238564Y403668D01*
X238450Y403670D01*
X238337Y403675D01*
X238223Y403685D01*
X238110Y403698D01*
X237998Y403715D01*
X237886Y403735D01*
X237775Y403759D01*
X237664Y403787D01*
X237555Y403818D01*
X237447Y403853D01*
X237340Y403892D01*
X237234Y403934D01*
X237130Y403979D01*
X237027Y404028D01*
X236926Y404081D01*
X236827Y404136D01*
X236729Y404195D01*
X236634Y404257D01*
X236541Y404322D01*
X236449Y404390D01*
X236361Y404461D01*
X236274Y404535D01*
X236190Y404612D01*
X236109Y404691D01*
X236313Y409398D02*
X236315Y409476D01*
X236320Y409554D01*
X236330Y409631D01*
X236343Y409708D01*
X236359Y409784D01*
X236379Y409859D01*
X236403Y409933D01*
X236430Y410006D01*
X236461Y410078D01*
X236495Y410148D01*
X236532Y410217D01*
X236573Y410283D01*
X236617Y410348D01*
X236663Y410410D01*
X236713Y410470D01*
X236765Y410528D01*
X236820Y410583D01*
X236878Y410635D01*
X236938Y410685D01*
X237000Y410731D01*
X237065Y410775D01*
X237132Y410816D01*
X237200Y410853D01*
X237270Y410887D01*
X237342Y410918D01*
X237415Y410945D01*
X237489Y410969D01*
X237564Y410989D01*
X237640Y411005D01*
X237717Y411018D01*
X237794Y411028D01*
X237872Y411033D01*
X237950Y411035D01*
X237950Y411034D02*
X238060Y411032D01*
X238169Y411026D01*
X238279Y411016D01*
X238387Y411003D01*
X238496Y410985D01*
X238603Y410964D01*
X238710Y410938D01*
X238816Y410909D01*
X238921Y410877D01*
X239024Y410840D01*
X239126Y410800D01*
X239227Y410756D01*
X239326Y410708D01*
X239423Y410658D01*
X239518Y410603D01*
X239611Y410545D01*
X239702Y410484D01*
X239791Y410420D01*
X237132Y407965D02*
X237065Y408007D01*
X237000Y408051D01*
X236938Y408099D01*
X236878Y408149D01*
X236820Y408202D01*
X236765Y408258D01*
X236713Y408317D01*
X236663Y408377D01*
X236616Y408441D01*
X236573Y408506D01*
X236532Y408573D01*
X236495Y408642D01*
X236461Y408713D01*
X236430Y408785D01*
X236403Y408859D01*
X236379Y408933D01*
X236359Y409009D01*
X236343Y409086D01*
X236330Y409163D01*
X236320Y409241D01*
X236315Y409320D01*
X236313Y409398D01*
X239382Y406737D02*
X239448Y406695D01*
X239513Y406651D01*
X239575Y406604D01*
X239635Y406553D01*
X239693Y406500D01*
X239748Y406444D01*
X239801Y406386D01*
X239850Y406325D01*
X239897Y406262D01*
X239940Y406197D01*
X239981Y406130D01*
X240018Y406061D01*
X240052Y405990D01*
X240083Y405918D01*
X240110Y405844D01*
X240134Y405769D01*
X240154Y405694D01*
X240170Y405617D01*
X240183Y405540D01*
X240193Y405462D01*
X240198Y405383D01*
X240200Y405305D01*
X239382Y406738D02*
X237132Y407965D01*
X243542Y407761D02*
X245588Y407761D01*
X245677Y407759D01*
X245766Y407753D01*
X245855Y407743D01*
X245943Y407730D01*
X246031Y407713D01*
X246118Y407691D01*
X246203Y407666D01*
X246288Y407638D01*
X246371Y407605D01*
X246453Y407569D01*
X246533Y407530D01*
X246611Y407487D01*
X246687Y407441D01*
X246762Y407391D01*
X246834Y407338D01*
X246903Y407282D01*
X246970Y407223D01*
X247035Y407162D01*
X247096Y407097D01*
X247155Y407030D01*
X247211Y406961D01*
X247264Y406889D01*
X247314Y406814D01*
X247360Y406738D01*
X247403Y406660D01*
X247442Y406580D01*
X247478Y406498D01*
X247511Y406415D01*
X247539Y406330D01*
X247564Y406245D01*
X247586Y406158D01*
X247603Y406070D01*
X247616Y405982D01*
X247626Y405893D01*
X247632Y405804D01*
X247634Y405715D01*
X247632Y405626D01*
X247626Y405537D01*
X247616Y405448D01*
X247603Y405360D01*
X247586Y405272D01*
X247564Y405185D01*
X247539Y405100D01*
X247511Y405015D01*
X247478Y404932D01*
X247442Y404850D01*
X247403Y404770D01*
X247360Y404692D01*
X247314Y404616D01*
X247264Y404541D01*
X247211Y404469D01*
X247155Y404400D01*
X247096Y404333D01*
X247035Y404268D01*
X246970Y404207D01*
X246903Y404148D01*
X246834Y404092D01*
X246762Y404039D01*
X246687Y403989D01*
X246611Y403943D01*
X246533Y403900D01*
X246453Y403861D01*
X246371Y403825D01*
X246288Y403792D01*
X246203Y403764D01*
X246118Y403739D01*
X246031Y403717D01*
X245943Y403700D01*
X245855Y403687D01*
X245766Y403677D01*
X245677Y403671D01*
X245588Y403669D01*
X243542Y403669D01*
X243542Y411035D01*
X245588Y411035D01*
X245667Y411033D01*
X245746Y411027D01*
X245825Y411018D01*
X245903Y411005D01*
X245980Y410987D01*
X246056Y410967D01*
X246131Y410942D01*
X246205Y410914D01*
X246278Y410883D01*
X246349Y410847D01*
X246418Y410809D01*
X246485Y410767D01*
X246550Y410722D01*
X246613Y410674D01*
X246674Y410623D01*
X246731Y410569D01*
X246787Y410513D01*
X246839Y410454D01*
X246889Y410392D01*
X246935Y410328D01*
X246979Y410262D01*
X247019Y410194D01*
X247055Y410124D01*
X247089Y410052D01*
X247119Y409978D01*
X247145Y409904D01*
X247168Y409828D01*
X247186Y409751D01*
X247202Y409674D01*
X247213Y409595D01*
X247221Y409517D01*
X247225Y409438D01*
X247225Y409358D01*
X247221Y409279D01*
X247213Y409201D01*
X247202Y409122D01*
X247186Y409045D01*
X247168Y408968D01*
X247145Y408892D01*
X247119Y408818D01*
X247089Y408744D01*
X247055Y408672D01*
X247019Y408602D01*
X246979Y408534D01*
X246935Y408468D01*
X246889Y408404D01*
X246839Y408342D01*
X246787Y408283D01*
X246731Y408227D01*
X246674Y408173D01*
X246613Y408122D01*
X246550Y408074D01*
X246485Y408029D01*
X246418Y407987D01*
X246349Y407949D01*
X246278Y407913D01*
X246205Y407882D01*
X246131Y407854D01*
X246056Y407829D01*
X245980Y407809D01*
X245903Y407791D01*
X245825Y407778D01*
X245746Y407769D01*
X245667Y407763D01*
X245588Y407761D01*
X250173Y402850D02*
X253447Y402850D01*
X256591Y403669D02*
X256591Y411035D01*
X258637Y411035D01*
X258637Y411034D02*
X258726Y411032D01*
X258815Y411026D01*
X258904Y411016D01*
X258992Y411003D01*
X259080Y410986D01*
X259167Y410964D01*
X259252Y410939D01*
X259337Y410911D01*
X259420Y410878D01*
X259502Y410842D01*
X259582Y410803D01*
X259660Y410760D01*
X259736Y410714D01*
X259811Y410664D01*
X259883Y410611D01*
X259952Y410555D01*
X260019Y410496D01*
X260084Y410435D01*
X260145Y410370D01*
X260204Y410303D01*
X260260Y410234D01*
X260313Y410162D01*
X260363Y410087D01*
X260409Y410011D01*
X260452Y409933D01*
X260491Y409853D01*
X260527Y409771D01*
X260560Y409688D01*
X260588Y409603D01*
X260613Y409518D01*
X260635Y409431D01*
X260652Y409343D01*
X260665Y409255D01*
X260675Y409166D01*
X260681Y409077D01*
X260683Y408988D01*
X260683Y405715D01*
X260681Y405626D01*
X260675Y405537D01*
X260665Y405448D01*
X260652Y405360D01*
X260635Y405272D01*
X260613Y405185D01*
X260588Y405100D01*
X260560Y405015D01*
X260527Y404932D01*
X260491Y404850D01*
X260452Y404770D01*
X260409Y404692D01*
X260363Y404616D01*
X260313Y404541D01*
X260260Y404469D01*
X260204Y404400D01*
X260145Y404333D01*
X260084Y404268D01*
X260019Y404207D01*
X259952Y404148D01*
X259883Y404092D01*
X259811Y404039D01*
X259736Y403989D01*
X259660Y403943D01*
X259582Y403900D01*
X259502Y403861D01*
X259420Y403825D01*
X259337Y403792D01*
X259252Y403764D01*
X259167Y403739D01*
X259080Y403717D01*
X258992Y403700D01*
X258904Y403687D01*
X258815Y403677D01*
X258726Y403671D01*
X258637Y403669D01*
X256591Y403669D01*
X264229Y406533D02*
X269139Y406533D01*
X230923Y430799D02*
X230923Y436119D01*
X230923Y430799D02*
X230925Y430710D01*
X230931Y430621D01*
X230941Y430532D01*
X230954Y430444D01*
X230971Y430356D01*
X230993Y430269D01*
X231018Y430184D01*
X231046Y430099D01*
X231079Y430016D01*
X231115Y429934D01*
X231154Y429854D01*
X231197Y429776D01*
X231243Y429700D01*
X231293Y429625D01*
X231346Y429553D01*
X231402Y429484D01*
X231461Y429417D01*
X231522Y429352D01*
X231587Y429291D01*
X231654Y429232D01*
X231723Y429176D01*
X231795Y429123D01*
X231870Y429073D01*
X231946Y429027D01*
X232024Y428984D01*
X232104Y428945D01*
X232186Y428909D01*
X232269Y428876D01*
X232354Y428848D01*
X232439Y428823D01*
X232526Y428801D01*
X232614Y428784D01*
X232702Y428771D01*
X232791Y428761D01*
X232880Y428755D01*
X232969Y428753D01*
X233058Y428755D01*
X233147Y428761D01*
X233236Y428771D01*
X233324Y428784D01*
X233412Y428801D01*
X233499Y428823D01*
X233584Y428848D01*
X233669Y428876D01*
X233752Y428909D01*
X233834Y428945D01*
X233914Y428984D01*
X233992Y429027D01*
X234068Y429073D01*
X234143Y429123D01*
X234215Y429176D01*
X234284Y429232D01*
X234351Y429291D01*
X234416Y429352D01*
X234477Y429417D01*
X234536Y429484D01*
X234592Y429553D01*
X234645Y429625D01*
X234695Y429700D01*
X234741Y429776D01*
X234784Y429854D01*
X234823Y429934D01*
X234859Y430016D01*
X234892Y430099D01*
X234920Y430184D01*
X234945Y430269D01*
X234967Y430356D01*
X234984Y430444D01*
X234997Y430532D01*
X235007Y430621D01*
X235013Y430710D01*
X235015Y430799D01*
X235015Y436119D01*
X242331Y430390D02*
X242329Y430312D01*
X242324Y430234D01*
X242314Y430157D01*
X242301Y430080D01*
X242285Y430004D01*
X242265Y429929D01*
X242241Y429855D01*
X242214Y429782D01*
X242183Y429710D01*
X242149Y429640D01*
X242112Y429572D01*
X242071Y429505D01*
X242027Y429440D01*
X241981Y429378D01*
X241931Y429318D01*
X241879Y429260D01*
X241824Y429205D01*
X241766Y429153D01*
X241706Y429103D01*
X241644Y429057D01*
X241579Y429013D01*
X241513Y428972D01*
X241444Y428935D01*
X241374Y428901D01*
X241302Y428870D01*
X241229Y428843D01*
X241155Y428819D01*
X241080Y428799D01*
X241004Y428783D01*
X240927Y428770D01*
X240850Y428760D01*
X240772Y428755D01*
X240694Y428753D01*
X240580Y428755D01*
X240467Y428760D01*
X240353Y428770D01*
X240240Y428783D01*
X240128Y428800D01*
X240016Y428820D01*
X239905Y428844D01*
X239794Y428872D01*
X239685Y428903D01*
X239577Y428938D01*
X239470Y428977D01*
X239364Y429019D01*
X239260Y429064D01*
X239157Y429113D01*
X239056Y429166D01*
X238957Y429221D01*
X238859Y429280D01*
X238764Y429342D01*
X238671Y429407D01*
X238579Y429475D01*
X238491Y429546D01*
X238404Y429620D01*
X238320Y429697D01*
X238239Y429776D01*
X238443Y434482D02*
X238445Y434560D01*
X238450Y434638D01*
X238460Y434715D01*
X238473Y434792D01*
X238489Y434868D01*
X238509Y434943D01*
X238533Y435017D01*
X238560Y435090D01*
X238591Y435162D01*
X238625Y435232D01*
X238662Y435301D01*
X238703Y435367D01*
X238747Y435432D01*
X238793Y435494D01*
X238843Y435554D01*
X238895Y435612D01*
X238950Y435667D01*
X239008Y435719D01*
X239068Y435769D01*
X239130Y435815D01*
X239195Y435859D01*
X239262Y435900D01*
X239330Y435937D01*
X239400Y435971D01*
X239472Y436002D01*
X239545Y436029D01*
X239619Y436053D01*
X239694Y436073D01*
X239770Y436089D01*
X239847Y436102D01*
X239924Y436112D01*
X240002Y436117D01*
X240080Y436119D01*
X240190Y436117D01*
X240299Y436111D01*
X240409Y436101D01*
X240517Y436088D01*
X240626Y436070D01*
X240733Y436049D01*
X240840Y436023D01*
X240946Y435994D01*
X241051Y435962D01*
X241154Y435925D01*
X241256Y435885D01*
X241357Y435841D01*
X241456Y435793D01*
X241553Y435743D01*
X241648Y435688D01*
X241741Y435630D01*
X241832Y435569D01*
X241921Y435505D01*
X239261Y433049D02*
X239194Y433091D01*
X239129Y433135D01*
X239067Y433183D01*
X239007Y433233D01*
X238949Y433286D01*
X238894Y433342D01*
X238842Y433401D01*
X238792Y433461D01*
X238745Y433525D01*
X238702Y433590D01*
X238661Y433657D01*
X238624Y433726D01*
X238590Y433797D01*
X238559Y433869D01*
X238532Y433943D01*
X238508Y434017D01*
X238488Y434093D01*
X238472Y434170D01*
X238459Y434247D01*
X238449Y434325D01*
X238444Y434404D01*
X238442Y434482D01*
X241512Y431822D02*
X241578Y431780D01*
X241643Y431736D01*
X241705Y431689D01*
X241765Y431638D01*
X241823Y431585D01*
X241878Y431529D01*
X241931Y431471D01*
X241980Y431410D01*
X242027Y431347D01*
X242070Y431282D01*
X242111Y431215D01*
X242148Y431146D01*
X242182Y431075D01*
X242213Y431003D01*
X242240Y430929D01*
X242264Y430854D01*
X242284Y430779D01*
X242300Y430702D01*
X242313Y430625D01*
X242323Y430547D01*
X242328Y430468D01*
X242330Y430390D01*
X241512Y431822D02*
X239261Y433050D01*
X245671Y432845D02*
X247717Y432845D01*
X247806Y432843D01*
X247895Y432837D01*
X247984Y432827D01*
X248072Y432814D01*
X248160Y432797D01*
X248247Y432775D01*
X248332Y432750D01*
X248417Y432722D01*
X248500Y432689D01*
X248582Y432653D01*
X248662Y432614D01*
X248740Y432571D01*
X248816Y432525D01*
X248891Y432475D01*
X248963Y432422D01*
X249032Y432366D01*
X249099Y432307D01*
X249164Y432246D01*
X249225Y432181D01*
X249284Y432114D01*
X249340Y432045D01*
X249393Y431973D01*
X249443Y431898D01*
X249489Y431822D01*
X249532Y431744D01*
X249571Y431664D01*
X249607Y431582D01*
X249640Y431499D01*
X249668Y431414D01*
X249693Y431329D01*
X249715Y431242D01*
X249732Y431154D01*
X249745Y431066D01*
X249755Y430977D01*
X249761Y430888D01*
X249763Y430799D01*
X249761Y430710D01*
X249755Y430621D01*
X249745Y430532D01*
X249732Y430444D01*
X249715Y430356D01*
X249693Y430269D01*
X249668Y430184D01*
X249640Y430099D01*
X249607Y430016D01*
X249571Y429934D01*
X249532Y429854D01*
X249489Y429776D01*
X249443Y429700D01*
X249393Y429625D01*
X249340Y429553D01*
X249284Y429484D01*
X249225Y429417D01*
X249164Y429352D01*
X249099Y429291D01*
X249032Y429232D01*
X248963Y429176D01*
X248891Y429123D01*
X248816Y429073D01*
X248740Y429027D01*
X248662Y428984D01*
X248582Y428945D01*
X248500Y428909D01*
X248417Y428876D01*
X248332Y428848D01*
X248247Y428823D01*
X248160Y428801D01*
X248072Y428784D01*
X247984Y428771D01*
X247895Y428761D01*
X247806Y428755D01*
X247717Y428753D01*
X245671Y428753D01*
X245671Y436119D01*
X247717Y436119D01*
X247796Y436117D01*
X247875Y436111D01*
X247954Y436102D01*
X248032Y436089D01*
X248109Y436071D01*
X248185Y436051D01*
X248260Y436026D01*
X248334Y435998D01*
X248407Y435967D01*
X248478Y435931D01*
X248547Y435893D01*
X248614Y435851D01*
X248679Y435806D01*
X248742Y435758D01*
X248803Y435707D01*
X248860Y435653D01*
X248916Y435597D01*
X248968Y435538D01*
X249018Y435476D01*
X249064Y435412D01*
X249108Y435346D01*
X249148Y435278D01*
X249184Y435208D01*
X249218Y435136D01*
X249248Y435062D01*
X249274Y434988D01*
X249297Y434912D01*
X249315Y434835D01*
X249331Y434758D01*
X249342Y434679D01*
X249350Y434601D01*
X249354Y434522D01*
X249354Y434442D01*
X249350Y434363D01*
X249342Y434285D01*
X249331Y434206D01*
X249315Y434129D01*
X249297Y434052D01*
X249274Y433976D01*
X249248Y433902D01*
X249218Y433828D01*
X249184Y433756D01*
X249148Y433686D01*
X249108Y433618D01*
X249064Y433552D01*
X249018Y433488D01*
X248968Y433426D01*
X248916Y433367D01*
X248860Y433311D01*
X248803Y433257D01*
X248742Y433206D01*
X248679Y433158D01*
X248614Y433113D01*
X248547Y433071D01*
X248478Y433033D01*
X248407Y432997D01*
X248334Y432966D01*
X248260Y432938D01*
X248185Y432913D01*
X248109Y432893D01*
X248032Y432875D01*
X247954Y432862D01*
X247875Y432853D01*
X247796Y432847D01*
X247717Y432845D01*
X252303Y427935D02*
X255576Y427935D01*
X258721Y428753D02*
X258721Y436119D01*
X260767Y436119D01*
X260856Y436117D01*
X260945Y436111D01*
X261034Y436101D01*
X261122Y436088D01*
X261210Y436071D01*
X261297Y436049D01*
X261382Y436024D01*
X261467Y435996D01*
X261550Y435963D01*
X261632Y435927D01*
X261712Y435888D01*
X261790Y435845D01*
X261866Y435799D01*
X261941Y435749D01*
X262013Y435696D01*
X262082Y435640D01*
X262149Y435581D01*
X262214Y435520D01*
X262275Y435455D01*
X262334Y435388D01*
X262390Y435319D01*
X262443Y435247D01*
X262493Y435172D01*
X262539Y435096D01*
X262582Y435018D01*
X262621Y434938D01*
X262657Y434856D01*
X262690Y434773D01*
X262718Y434688D01*
X262743Y434603D01*
X262765Y434516D01*
X262782Y434428D01*
X262795Y434340D01*
X262805Y434251D01*
X262811Y434162D01*
X262813Y434073D01*
X262813Y430799D01*
X262811Y430710D01*
X262805Y430621D01*
X262795Y430532D01*
X262782Y430444D01*
X262765Y430356D01*
X262743Y430269D01*
X262718Y430184D01*
X262690Y430099D01*
X262657Y430016D01*
X262621Y429934D01*
X262582Y429854D01*
X262539Y429776D01*
X262493Y429700D01*
X262443Y429625D01*
X262390Y429553D01*
X262334Y429484D01*
X262275Y429417D01*
X262214Y429352D01*
X262149Y429291D01*
X262082Y429232D01*
X262013Y429176D01*
X261941Y429123D01*
X261866Y429073D01*
X261790Y429027D01*
X261712Y428984D01*
X261632Y428945D01*
X261550Y428909D01*
X261467Y428876D01*
X261382Y428848D01*
X261297Y428823D01*
X261210Y428801D01*
X261122Y428784D01*
X261034Y428771D01*
X260945Y428761D01*
X260856Y428755D01*
X260767Y428753D01*
X258721Y428753D01*
X266358Y431618D02*
X271269Y431618D01*
X268814Y434073D02*
X268814Y429162D01*
X214506Y456515D02*
X214506Y461835D01*
X214506Y456515D02*
X214508Y456426D01*
X214514Y456337D01*
X214524Y456248D01*
X214537Y456160D01*
X214554Y456072D01*
X214576Y455985D01*
X214601Y455900D01*
X214629Y455815D01*
X214662Y455732D01*
X214698Y455650D01*
X214737Y455570D01*
X214780Y455492D01*
X214826Y455416D01*
X214876Y455341D01*
X214929Y455269D01*
X214985Y455200D01*
X215044Y455133D01*
X215105Y455068D01*
X215170Y455007D01*
X215237Y454948D01*
X215306Y454892D01*
X215378Y454839D01*
X215453Y454789D01*
X215529Y454743D01*
X215607Y454700D01*
X215687Y454661D01*
X215769Y454625D01*
X215852Y454592D01*
X215937Y454564D01*
X216022Y454539D01*
X216109Y454517D01*
X216197Y454500D01*
X216285Y454487D01*
X216374Y454477D01*
X216463Y454471D01*
X216552Y454469D01*
X216641Y454471D01*
X216730Y454477D01*
X216819Y454487D01*
X216907Y454500D01*
X216995Y454517D01*
X217082Y454539D01*
X217167Y454564D01*
X217252Y454592D01*
X217335Y454625D01*
X217417Y454661D01*
X217497Y454700D01*
X217575Y454743D01*
X217651Y454789D01*
X217726Y454839D01*
X217798Y454892D01*
X217867Y454948D01*
X217934Y455007D01*
X217999Y455068D01*
X218060Y455133D01*
X218119Y455200D01*
X218175Y455269D01*
X218228Y455341D01*
X218278Y455416D01*
X218324Y455492D01*
X218367Y455570D01*
X218406Y455650D01*
X218442Y455732D01*
X218475Y455815D01*
X218503Y455900D01*
X218528Y455985D01*
X218550Y456072D01*
X218567Y456160D01*
X218580Y456248D01*
X218590Y456337D01*
X218596Y456426D01*
X218598Y456515D01*
X218598Y461835D01*
X225914Y456105D02*
X225912Y456027D01*
X225907Y455949D01*
X225897Y455872D01*
X225884Y455795D01*
X225868Y455719D01*
X225848Y455644D01*
X225824Y455570D01*
X225797Y455497D01*
X225766Y455425D01*
X225732Y455355D01*
X225695Y455287D01*
X225654Y455220D01*
X225610Y455155D01*
X225564Y455093D01*
X225514Y455033D01*
X225462Y454975D01*
X225407Y454920D01*
X225349Y454868D01*
X225289Y454818D01*
X225227Y454772D01*
X225162Y454728D01*
X225096Y454687D01*
X225027Y454650D01*
X224957Y454616D01*
X224885Y454585D01*
X224812Y454558D01*
X224738Y454534D01*
X224663Y454514D01*
X224587Y454498D01*
X224510Y454485D01*
X224433Y454475D01*
X224355Y454470D01*
X224277Y454468D01*
X224163Y454470D01*
X224050Y454475D01*
X223936Y454485D01*
X223823Y454498D01*
X223711Y454515D01*
X223599Y454535D01*
X223488Y454559D01*
X223377Y454587D01*
X223268Y454618D01*
X223160Y454653D01*
X223053Y454692D01*
X222947Y454734D01*
X222843Y454779D01*
X222740Y454828D01*
X222639Y454881D01*
X222540Y454936D01*
X222442Y454995D01*
X222347Y455057D01*
X222254Y455122D01*
X222162Y455190D01*
X222074Y455261D01*
X221987Y455335D01*
X221903Y455412D01*
X221822Y455491D01*
X222026Y460198D02*
X222028Y460276D01*
X222033Y460354D01*
X222043Y460431D01*
X222056Y460508D01*
X222072Y460584D01*
X222092Y460659D01*
X222116Y460733D01*
X222143Y460806D01*
X222174Y460878D01*
X222208Y460948D01*
X222245Y461017D01*
X222286Y461083D01*
X222330Y461148D01*
X222376Y461210D01*
X222426Y461270D01*
X222478Y461328D01*
X222533Y461383D01*
X222591Y461435D01*
X222651Y461485D01*
X222713Y461531D01*
X222778Y461575D01*
X222845Y461616D01*
X222913Y461653D01*
X222983Y461687D01*
X223055Y461718D01*
X223128Y461745D01*
X223202Y461769D01*
X223277Y461789D01*
X223353Y461805D01*
X223430Y461818D01*
X223507Y461828D01*
X223585Y461833D01*
X223663Y461835D01*
X223663Y461834D02*
X223773Y461832D01*
X223882Y461826D01*
X223992Y461816D01*
X224100Y461803D01*
X224209Y461785D01*
X224316Y461764D01*
X224423Y461738D01*
X224529Y461709D01*
X224634Y461677D01*
X224737Y461640D01*
X224839Y461600D01*
X224940Y461556D01*
X225039Y461508D01*
X225136Y461458D01*
X225231Y461403D01*
X225324Y461345D01*
X225415Y461284D01*
X225504Y461220D01*
X222844Y458765D02*
X222777Y458807D01*
X222712Y458851D01*
X222650Y458899D01*
X222590Y458949D01*
X222532Y459002D01*
X222477Y459058D01*
X222425Y459117D01*
X222375Y459177D01*
X222328Y459241D01*
X222285Y459306D01*
X222244Y459373D01*
X222207Y459442D01*
X222173Y459513D01*
X222142Y459585D01*
X222115Y459659D01*
X222091Y459733D01*
X222071Y459809D01*
X222055Y459886D01*
X222042Y459963D01*
X222032Y460041D01*
X222027Y460120D01*
X222025Y460198D01*
X225095Y457537D02*
X225161Y457495D01*
X225226Y457451D01*
X225288Y457404D01*
X225348Y457353D01*
X225406Y457300D01*
X225461Y457244D01*
X225514Y457186D01*
X225563Y457125D01*
X225610Y457062D01*
X225653Y456997D01*
X225694Y456930D01*
X225731Y456861D01*
X225765Y456790D01*
X225796Y456718D01*
X225823Y456644D01*
X225847Y456569D01*
X225867Y456494D01*
X225883Y456417D01*
X225896Y456340D01*
X225906Y456262D01*
X225911Y456183D01*
X225913Y456105D01*
X225095Y457538D02*
X222844Y458765D01*
X229254Y458561D02*
X231300Y458561D01*
X231389Y458559D01*
X231478Y458553D01*
X231567Y458543D01*
X231655Y458530D01*
X231743Y458513D01*
X231830Y458491D01*
X231915Y458466D01*
X232000Y458438D01*
X232083Y458405D01*
X232165Y458369D01*
X232245Y458330D01*
X232323Y458287D01*
X232399Y458241D01*
X232474Y458191D01*
X232546Y458138D01*
X232615Y458082D01*
X232682Y458023D01*
X232747Y457962D01*
X232808Y457897D01*
X232867Y457830D01*
X232923Y457761D01*
X232976Y457689D01*
X233026Y457614D01*
X233072Y457538D01*
X233115Y457460D01*
X233154Y457380D01*
X233190Y457298D01*
X233223Y457215D01*
X233251Y457130D01*
X233276Y457045D01*
X233298Y456958D01*
X233315Y456870D01*
X233328Y456782D01*
X233338Y456693D01*
X233344Y456604D01*
X233346Y456515D01*
X233344Y456426D01*
X233338Y456337D01*
X233328Y456248D01*
X233315Y456160D01*
X233298Y456072D01*
X233276Y455985D01*
X233251Y455900D01*
X233223Y455815D01*
X233190Y455732D01*
X233154Y455650D01*
X233115Y455570D01*
X233072Y455492D01*
X233026Y455416D01*
X232976Y455341D01*
X232923Y455269D01*
X232867Y455200D01*
X232808Y455133D01*
X232747Y455068D01*
X232682Y455007D01*
X232615Y454948D01*
X232546Y454892D01*
X232474Y454839D01*
X232399Y454789D01*
X232323Y454743D01*
X232245Y454700D01*
X232165Y454661D01*
X232083Y454625D01*
X232000Y454592D01*
X231915Y454564D01*
X231830Y454539D01*
X231743Y454517D01*
X231655Y454500D01*
X231567Y454487D01*
X231478Y454477D01*
X231389Y454471D01*
X231300Y454469D01*
X229254Y454469D01*
X229254Y461835D01*
X231300Y461835D01*
X231379Y461833D01*
X231458Y461827D01*
X231537Y461818D01*
X231615Y461805D01*
X231692Y461787D01*
X231768Y461767D01*
X231843Y461742D01*
X231917Y461714D01*
X231990Y461683D01*
X232061Y461647D01*
X232130Y461609D01*
X232197Y461567D01*
X232262Y461522D01*
X232325Y461474D01*
X232386Y461423D01*
X232443Y461369D01*
X232499Y461313D01*
X232551Y461254D01*
X232601Y461192D01*
X232647Y461128D01*
X232691Y461062D01*
X232731Y460994D01*
X232767Y460924D01*
X232801Y460852D01*
X232831Y460778D01*
X232857Y460704D01*
X232880Y460628D01*
X232898Y460551D01*
X232914Y460474D01*
X232925Y460395D01*
X232933Y460317D01*
X232937Y460238D01*
X232937Y460158D01*
X232933Y460079D01*
X232925Y460001D01*
X232914Y459922D01*
X232898Y459845D01*
X232880Y459768D01*
X232857Y459692D01*
X232831Y459618D01*
X232801Y459544D01*
X232767Y459472D01*
X232731Y459402D01*
X232691Y459334D01*
X232647Y459268D01*
X232601Y459204D01*
X232551Y459142D01*
X232499Y459083D01*
X232443Y459027D01*
X232386Y458973D01*
X232325Y458922D01*
X232262Y458874D01*
X232197Y458829D01*
X232130Y458787D01*
X232061Y458749D01*
X231990Y458713D01*
X231917Y458682D01*
X231843Y458654D01*
X231768Y458629D01*
X231692Y458609D01*
X231615Y458591D01*
X231537Y458578D01*
X231458Y458569D01*
X231379Y458563D01*
X231300Y458561D01*
X235885Y453650D02*
X239159Y453650D01*
X245168Y458561D02*
X246396Y458561D01*
X246396Y454469D01*
X243941Y454469D01*
X243941Y454468D02*
X243863Y454470D01*
X243785Y454475D01*
X243708Y454485D01*
X243631Y454498D01*
X243555Y454514D01*
X243480Y454534D01*
X243406Y454558D01*
X243333Y454585D01*
X243261Y454616D01*
X243191Y454650D01*
X243123Y454687D01*
X243056Y454728D01*
X242991Y454772D01*
X242929Y454818D01*
X242869Y454868D01*
X242811Y454920D01*
X242756Y454975D01*
X242704Y455033D01*
X242654Y455093D01*
X242608Y455155D01*
X242564Y455220D01*
X242523Y455287D01*
X242486Y455355D01*
X242452Y455425D01*
X242421Y455497D01*
X242394Y455570D01*
X242370Y455644D01*
X242350Y455719D01*
X242334Y455795D01*
X242321Y455872D01*
X242311Y455949D01*
X242306Y456027D01*
X242304Y456105D01*
X242304Y460198D01*
X242306Y460278D01*
X242312Y460358D01*
X242322Y460438D01*
X242335Y460517D01*
X242353Y460596D01*
X242374Y460673D01*
X242400Y460749D01*
X242429Y460824D01*
X242461Y460898D01*
X242497Y460970D01*
X242537Y461040D01*
X242580Y461107D01*
X242626Y461173D01*
X242676Y461236D01*
X242728Y461297D01*
X242783Y461356D01*
X242842Y461411D01*
X242902Y461463D01*
X242966Y461513D01*
X243032Y461559D01*
X243099Y461602D01*
X243169Y461642D01*
X243241Y461678D01*
X243315Y461710D01*
X243389Y461739D01*
X243466Y461765D01*
X243543Y461786D01*
X243622Y461804D01*
X243701Y461817D01*
X243781Y461827D01*
X243861Y461833D01*
X243941Y461835D01*
X246396Y461835D01*
X250107Y461835D02*
X250107Y454469D01*
X254199Y454469D02*
X250107Y461835D01*
X254199Y461835D02*
X254199Y454469D01*
X257909Y454469D02*
X257909Y461835D01*
X259955Y461835D01*
X259955Y461834D02*
X260044Y461832D01*
X260133Y461826D01*
X260222Y461816D01*
X260310Y461803D01*
X260398Y461786D01*
X260485Y461764D01*
X260570Y461739D01*
X260655Y461711D01*
X260738Y461678D01*
X260820Y461642D01*
X260900Y461603D01*
X260978Y461560D01*
X261054Y461514D01*
X261129Y461464D01*
X261201Y461411D01*
X261270Y461355D01*
X261337Y461296D01*
X261402Y461235D01*
X261463Y461170D01*
X261522Y461103D01*
X261578Y461034D01*
X261631Y460962D01*
X261681Y460887D01*
X261727Y460811D01*
X261770Y460733D01*
X261809Y460653D01*
X261845Y460571D01*
X261878Y460488D01*
X261906Y460403D01*
X261931Y460318D01*
X261953Y460231D01*
X261970Y460143D01*
X261983Y460055D01*
X261993Y459966D01*
X261999Y459877D01*
X262001Y459788D01*
X262002Y459788D02*
X262002Y456515D01*
X262000Y456426D01*
X261994Y456337D01*
X261984Y456248D01*
X261971Y456160D01*
X261954Y456072D01*
X261932Y455985D01*
X261907Y455900D01*
X261879Y455815D01*
X261846Y455732D01*
X261810Y455650D01*
X261771Y455570D01*
X261728Y455492D01*
X261682Y455416D01*
X261632Y455341D01*
X261579Y455269D01*
X261523Y455200D01*
X261464Y455133D01*
X261403Y455068D01*
X261338Y455007D01*
X261271Y454948D01*
X261202Y454892D01*
X261130Y454839D01*
X261055Y454789D01*
X260979Y454743D01*
X260901Y454700D01*
X260821Y454661D01*
X260739Y454625D01*
X260656Y454592D01*
X260571Y454564D01*
X260486Y454539D01*
X260399Y454517D01*
X260311Y454500D01*
X260223Y454487D01*
X260134Y454477D01*
X260045Y454471D01*
X259956Y454469D01*
X259955Y454469D02*
X257909Y454469D01*
X370081Y398335D02*
X370081Y390969D01*
X370081Y393833D02*
X374173Y398335D01*
X371718Y395470D02*
X374173Y390969D01*
X377618Y390969D02*
X377618Y398335D01*
X376799Y390969D02*
X378436Y390969D01*
X378436Y398335D02*
X376799Y398335D01*
X381668Y398335D02*
X381668Y390969D01*
X385760Y390969D02*
X381668Y398335D01*
X385760Y398335D02*
X385760Y390969D01*
X389486Y390969D02*
X392760Y390969D01*
X389486Y390969D02*
X389486Y398335D01*
X392760Y398335D01*
X391942Y395061D02*
X389486Y395061D01*
X397180Y390969D02*
X398817Y390969D01*
X397180Y390968D02*
X397102Y390970D01*
X397024Y390975D01*
X396947Y390985D01*
X396870Y390998D01*
X396794Y391014D01*
X396719Y391034D01*
X396645Y391058D01*
X396572Y391085D01*
X396500Y391116D01*
X396430Y391150D01*
X396362Y391187D01*
X396295Y391228D01*
X396230Y391272D01*
X396168Y391318D01*
X396108Y391368D01*
X396050Y391420D01*
X395995Y391475D01*
X395943Y391533D01*
X395893Y391593D01*
X395847Y391655D01*
X395803Y391720D01*
X395762Y391787D01*
X395725Y391855D01*
X395691Y391925D01*
X395660Y391997D01*
X395633Y392070D01*
X395609Y392144D01*
X395589Y392219D01*
X395573Y392295D01*
X395560Y392372D01*
X395550Y392449D01*
X395545Y392527D01*
X395543Y392605D01*
X395543Y396698D01*
X395545Y396778D01*
X395551Y396858D01*
X395561Y396938D01*
X395574Y397017D01*
X395592Y397096D01*
X395613Y397173D01*
X395639Y397249D01*
X395668Y397324D01*
X395700Y397398D01*
X395736Y397470D01*
X395776Y397540D01*
X395819Y397607D01*
X395865Y397673D01*
X395915Y397736D01*
X395967Y397797D01*
X396022Y397856D01*
X396081Y397911D01*
X396141Y397963D01*
X396205Y398013D01*
X396271Y398059D01*
X396338Y398102D01*
X396408Y398142D01*
X396480Y398178D01*
X396554Y398210D01*
X396628Y398239D01*
X396705Y398265D01*
X396782Y398286D01*
X396861Y398304D01*
X396940Y398317D01*
X397020Y398327D01*
X397100Y398333D01*
X397180Y398335D01*
X398817Y398335D01*
X403221Y398335D02*
X403221Y390969D01*
X401175Y398335D02*
X405267Y398335D01*
X407680Y390150D02*
X410954Y390150D01*
X416963Y395061D02*
X418190Y395061D01*
X418190Y390969D01*
X415735Y390969D01*
X415735Y390968D02*
X415657Y390970D01*
X415579Y390975D01*
X415502Y390985D01*
X415425Y390998D01*
X415349Y391014D01*
X415274Y391034D01*
X415200Y391058D01*
X415127Y391085D01*
X415055Y391116D01*
X414985Y391150D01*
X414917Y391187D01*
X414850Y391228D01*
X414785Y391272D01*
X414723Y391318D01*
X414663Y391368D01*
X414605Y391420D01*
X414550Y391475D01*
X414498Y391533D01*
X414448Y391593D01*
X414402Y391655D01*
X414358Y391720D01*
X414317Y391787D01*
X414280Y391855D01*
X414246Y391925D01*
X414215Y391997D01*
X414188Y392070D01*
X414164Y392144D01*
X414144Y392219D01*
X414128Y392295D01*
X414115Y392372D01*
X414105Y392449D01*
X414100Y392527D01*
X414098Y392605D01*
X414098Y396698D01*
X414100Y396778D01*
X414106Y396858D01*
X414116Y396938D01*
X414129Y397017D01*
X414147Y397096D01*
X414168Y397173D01*
X414194Y397249D01*
X414223Y397324D01*
X414255Y397398D01*
X414291Y397470D01*
X414331Y397540D01*
X414374Y397607D01*
X414420Y397673D01*
X414470Y397736D01*
X414522Y397797D01*
X414577Y397856D01*
X414636Y397911D01*
X414696Y397963D01*
X414760Y398013D01*
X414826Y398059D01*
X414893Y398102D01*
X414963Y398142D01*
X415035Y398178D01*
X415109Y398210D01*
X415183Y398239D01*
X415260Y398265D01*
X415337Y398286D01*
X415416Y398304D01*
X415495Y398317D01*
X415575Y398327D01*
X415655Y398333D01*
X415735Y398335D01*
X418190Y398335D01*
X421952Y398335D02*
X421952Y390969D01*
X421952Y398335D02*
X423998Y398335D01*
X423998Y398334D02*
X424087Y398332D01*
X424176Y398326D01*
X424265Y398316D01*
X424353Y398303D01*
X424441Y398286D01*
X424528Y398264D01*
X424613Y398239D01*
X424698Y398211D01*
X424781Y398178D01*
X424863Y398142D01*
X424943Y398103D01*
X425021Y398060D01*
X425097Y398014D01*
X425172Y397964D01*
X425244Y397911D01*
X425313Y397855D01*
X425380Y397796D01*
X425445Y397735D01*
X425506Y397670D01*
X425565Y397603D01*
X425621Y397534D01*
X425674Y397462D01*
X425724Y397387D01*
X425770Y397311D01*
X425813Y397233D01*
X425852Y397153D01*
X425888Y397071D01*
X425921Y396988D01*
X425949Y396903D01*
X425974Y396818D01*
X425996Y396731D01*
X426013Y396643D01*
X426026Y396555D01*
X426036Y396466D01*
X426042Y396377D01*
X426044Y396288D01*
X426042Y396199D01*
X426036Y396110D01*
X426026Y396021D01*
X426013Y395933D01*
X425996Y395845D01*
X425974Y395758D01*
X425949Y395673D01*
X425921Y395588D01*
X425888Y395505D01*
X425852Y395423D01*
X425813Y395343D01*
X425770Y395265D01*
X425724Y395189D01*
X425674Y395114D01*
X425621Y395042D01*
X425565Y394973D01*
X425506Y394906D01*
X425445Y394841D01*
X425380Y394780D01*
X425313Y394721D01*
X425244Y394665D01*
X425172Y394612D01*
X425097Y394562D01*
X425021Y394516D01*
X424943Y394473D01*
X424863Y394434D01*
X424781Y394398D01*
X424698Y394365D01*
X424613Y394337D01*
X424528Y394312D01*
X424441Y394290D01*
X424353Y394273D01*
X424265Y394260D01*
X424176Y394250D01*
X424087Y394244D01*
X423998Y394242D01*
X421952Y394242D01*
X424408Y394242D02*
X426044Y390969D01*
X429476Y390969D02*
X432750Y390969D01*
X429476Y390969D02*
X429476Y398335D01*
X432750Y398335D01*
X431931Y395061D02*
X429476Y395061D01*
X435147Y398335D02*
X437602Y394856D01*
X440058Y398335D01*
X437602Y394856D02*
X437602Y390969D01*
X370081Y416369D02*
X370081Y423735D01*
X374173Y423735D02*
X370081Y419233D01*
X371718Y420870D02*
X374173Y416369D01*
X377618Y416369D02*
X377618Y423735D01*
X376799Y416369D02*
X378436Y416369D01*
X378436Y423735D02*
X376799Y423735D01*
X381668Y423735D02*
X381668Y416369D01*
X385760Y416369D02*
X381668Y423735D01*
X385760Y423735D02*
X385760Y416369D01*
X389486Y416369D02*
X392760Y416369D01*
X389486Y416369D02*
X389486Y423735D01*
X392760Y423735D01*
X391942Y420461D02*
X389486Y420461D01*
X397180Y416369D02*
X398817Y416369D01*
X397180Y416368D02*
X397102Y416370D01*
X397024Y416375D01*
X396947Y416385D01*
X396870Y416398D01*
X396794Y416414D01*
X396719Y416434D01*
X396645Y416458D01*
X396572Y416485D01*
X396500Y416516D01*
X396430Y416550D01*
X396362Y416587D01*
X396295Y416628D01*
X396230Y416672D01*
X396168Y416718D01*
X396108Y416768D01*
X396050Y416820D01*
X395995Y416875D01*
X395943Y416933D01*
X395893Y416993D01*
X395847Y417055D01*
X395803Y417120D01*
X395762Y417187D01*
X395725Y417255D01*
X395691Y417325D01*
X395660Y417397D01*
X395633Y417470D01*
X395609Y417544D01*
X395589Y417619D01*
X395573Y417695D01*
X395560Y417772D01*
X395550Y417849D01*
X395545Y417927D01*
X395543Y418005D01*
X395543Y422098D01*
X395545Y422178D01*
X395551Y422258D01*
X395561Y422338D01*
X395574Y422417D01*
X395592Y422496D01*
X395613Y422573D01*
X395639Y422649D01*
X395668Y422724D01*
X395700Y422798D01*
X395736Y422870D01*
X395776Y422940D01*
X395819Y423007D01*
X395865Y423073D01*
X395915Y423136D01*
X395967Y423197D01*
X396022Y423256D01*
X396081Y423311D01*
X396141Y423363D01*
X396205Y423413D01*
X396271Y423459D01*
X396338Y423502D01*
X396408Y423542D01*
X396480Y423578D01*
X396554Y423610D01*
X396628Y423639D01*
X396705Y423665D01*
X396782Y423686D01*
X396861Y423704D01*
X396940Y423717D01*
X397020Y423727D01*
X397100Y423733D01*
X397180Y423735D01*
X398817Y423735D01*
X403221Y423735D02*
X403221Y416369D01*
X401175Y423735D02*
X405267Y423735D01*
X407680Y415550D02*
X410954Y415550D01*
X414216Y420461D02*
X416262Y420461D01*
X416351Y420459D01*
X416440Y420453D01*
X416529Y420443D01*
X416617Y420430D01*
X416705Y420413D01*
X416792Y420391D01*
X416877Y420366D01*
X416962Y420338D01*
X417045Y420305D01*
X417127Y420269D01*
X417207Y420230D01*
X417285Y420187D01*
X417361Y420141D01*
X417436Y420091D01*
X417508Y420038D01*
X417577Y419982D01*
X417644Y419923D01*
X417709Y419862D01*
X417770Y419797D01*
X417829Y419730D01*
X417885Y419661D01*
X417938Y419589D01*
X417988Y419514D01*
X418034Y419438D01*
X418077Y419360D01*
X418116Y419280D01*
X418152Y419198D01*
X418185Y419115D01*
X418213Y419030D01*
X418238Y418945D01*
X418260Y418858D01*
X418277Y418770D01*
X418290Y418682D01*
X418300Y418593D01*
X418306Y418504D01*
X418308Y418415D01*
X418306Y418326D01*
X418300Y418237D01*
X418290Y418148D01*
X418277Y418060D01*
X418260Y417972D01*
X418238Y417885D01*
X418213Y417800D01*
X418185Y417715D01*
X418152Y417632D01*
X418116Y417550D01*
X418077Y417470D01*
X418034Y417392D01*
X417988Y417316D01*
X417938Y417241D01*
X417885Y417169D01*
X417829Y417100D01*
X417770Y417033D01*
X417709Y416968D01*
X417644Y416907D01*
X417577Y416848D01*
X417508Y416792D01*
X417436Y416739D01*
X417361Y416689D01*
X417285Y416643D01*
X417207Y416600D01*
X417127Y416561D01*
X417045Y416525D01*
X416962Y416492D01*
X416877Y416464D01*
X416792Y416439D01*
X416705Y416417D01*
X416617Y416400D01*
X416529Y416387D01*
X416440Y416377D01*
X416351Y416371D01*
X416262Y416369D01*
X414216Y416369D01*
X414216Y423735D01*
X416262Y423735D01*
X416341Y423733D01*
X416420Y423727D01*
X416499Y423718D01*
X416577Y423705D01*
X416654Y423687D01*
X416730Y423667D01*
X416805Y423642D01*
X416879Y423614D01*
X416952Y423583D01*
X417023Y423547D01*
X417092Y423509D01*
X417159Y423467D01*
X417224Y423422D01*
X417287Y423374D01*
X417348Y423323D01*
X417405Y423269D01*
X417461Y423213D01*
X417513Y423154D01*
X417563Y423092D01*
X417609Y423028D01*
X417653Y422962D01*
X417693Y422894D01*
X417729Y422824D01*
X417763Y422752D01*
X417793Y422678D01*
X417819Y422604D01*
X417842Y422528D01*
X417860Y422451D01*
X417876Y422374D01*
X417887Y422295D01*
X417895Y422217D01*
X417899Y422138D01*
X417899Y422058D01*
X417895Y421979D01*
X417887Y421901D01*
X417876Y421822D01*
X417860Y421745D01*
X417842Y421668D01*
X417819Y421592D01*
X417793Y421518D01*
X417763Y421444D01*
X417729Y421372D01*
X417693Y421302D01*
X417653Y421234D01*
X417609Y421168D01*
X417563Y421104D01*
X417513Y421042D01*
X417461Y420983D01*
X417405Y420927D01*
X417348Y420873D01*
X417287Y420822D01*
X417224Y420774D01*
X417159Y420729D01*
X417092Y420687D01*
X417023Y420649D01*
X416952Y420613D01*
X416879Y420582D01*
X416805Y420554D01*
X416730Y420529D01*
X416654Y420509D01*
X416577Y420491D01*
X416499Y420478D01*
X416420Y420469D01*
X416341Y420463D01*
X416262Y420461D01*
X421429Y423735D02*
X421429Y416369D01*
X424703Y416369D01*
X427100Y416369D02*
X429555Y423735D01*
X432011Y416369D01*
X431397Y418210D02*
X427714Y418210D01*
X436438Y416369D02*
X438075Y416369D01*
X436438Y416368D02*
X436360Y416370D01*
X436282Y416375D01*
X436205Y416385D01*
X436128Y416398D01*
X436052Y416414D01*
X435977Y416434D01*
X435903Y416458D01*
X435830Y416485D01*
X435758Y416516D01*
X435688Y416550D01*
X435620Y416587D01*
X435553Y416628D01*
X435488Y416672D01*
X435426Y416718D01*
X435366Y416768D01*
X435308Y416820D01*
X435253Y416875D01*
X435201Y416933D01*
X435151Y416993D01*
X435105Y417055D01*
X435061Y417120D01*
X435020Y417187D01*
X434983Y417255D01*
X434949Y417325D01*
X434918Y417397D01*
X434891Y417470D01*
X434867Y417544D01*
X434847Y417619D01*
X434831Y417695D01*
X434818Y417772D01*
X434808Y417849D01*
X434803Y417927D01*
X434801Y418005D01*
X434801Y422098D01*
X434803Y422178D01*
X434809Y422258D01*
X434819Y422338D01*
X434832Y422417D01*
X434850Y422496D01*
X434871Y422573D01*
X434897Y422649D01*
X434926Y422724D01*
X434958Y422798D01*
X434994Y422870D01*
X435034Y422940D01*
X435077Y423007D01*
X435123Y423073D01*
X435173Y423136D01*
X435225Y423197D01*
X435280Y423256D01*
X435339Y423311D01*
X435399Y423363D01*
X435463Y423413D01*
X435529Y423459D01*
X435596Y423502D01*
X435666Y423542D01*
X435738Y423578D01*
X435812Y423610D01*
X435886Y423639D01*
X435963Y423665D01*
X436040Y423686D01*
X436119Y423704D01*
X436198Y423717D01*
X436278Y423727D01*
X436358Y423733D01*
X436438Y423735D01*
X438075Y423735D01*
X441282Y423735D02*
X441282Y416369D01*
X441282Y419233D02*
X445374Y423735D01*
X442919Y420870D02*
X445374Y416369D01*
X370081Y441769D02*
X370081Y449135D01*
X374173Y449135D02*
X370081Y444633D01*
X371718Y446270D02*
X374173Y441769D01*
X377618Y441769D02*
X377618Y449135D01*
X376799Y441769D02*
X378436Y441769D01*
X378436Y449135D02*
X376799Y449135D01*
X381668Y449135D02*
X381668Y441769D01*
X385760Y441769D02*
X381668Y449135D01*
X385760Y449135D02*
X385760Y441769D01*
X389486Y441769D02*
X392760Y441769D01*
X389486Y441769D02*
X389486Y449135D01*
X392760Y449135D01*
X391942Y445861D02*
X389486Y445861D01*
X397180Y441769D02*
X398817Y441769D01*
X397180Y441768D02*
X397102Y441770D01*
X397024Y441775D01*
X396947Y441785D01*
X396870Y441798D01*
X396794Y441814D01*
X396719Y441834D01*
X396645Y441858D01*
X396572Y441885D01*
X396500Y441916D01*
X396430Y441950D01*
X396362Y441987D01*
X396295Y442028D01*
X396230Y442072D01*
X396168Y442118D01*
X396108Y442168D01*
X396050Y442220D01*
X395995Y442275D01*
X395943Y442333D01*
X395893Y442393D01*
X395847Y442455D01*
X395803Y442520D01*
X395762Y442587D01*
X395725Y442655D01*
X395691Y442725D01*
X395660Y442797D01*
X395633Y442870D01*
X395609Y442944D01*
X395589Y443019D01*
X395573Y443095D01*
X395560Y443172D01*
X395550Y443249D01*
X395545Y443327D01*
X395543Y443405D01*
X395543Y447498D01*
X395545Y447578D01*
X395551Y447658D01*
X395561Y447738D01*
X395574Y447817D01*
X395592Y447896D01*
X395613Y447973D01*
X395639Y448049D01*
X395668Y448124D01*
X395700Y448198D01*
X395736Y448270D01*
X395776Y448340D01*
X395819Y448407D01*
X395865Y448473D01*
X395915Y448536D01*
X395967Y448597D01*
X396022Y448656D01*
X396081Y448711D01*
X396141Y448763D01*
X396205Y448813D01*
X396271Y448859D01*
X396338Y448902D01*
X396408Y448942D01*
X396480Y448978D01*
X396554Y449010D01*
X396628Y449039D01*
X396705Y449065D01*
X396782Y449086D01*
X396861Y449104D01*
X396940Y449117D01*
X397020Y449127D01*
X397100Y449133D01*
X397180Y449135D01*
X398817Y449135D01*
X403221Y449135D02*
X403221Y441769D01*
X401175Y449135D02*
X405267Y449135D01*
X407680Y440950D02*
X410954Y440950D01*
X414216Y445861D02*
X416262Y445861D01*
X416351Y445859D01*
X416440Y445853D01*
X416529Y445843D01*
X416617Y445830D01*
X416705Y445813D01*
X416792Y445791D01*
X416877Y445766D01*
X416962Y445738D01*
X417045Y445705D01*
X417127Y445669D01*
X417207Y445630D01*
X417285Y445587D01*
X417361Y445541D01*
X417436Y445491D01*
X417508Y445438D01*
X417577Y445382D01*
X417644Y445323D01*
X417709Y445262D01*
X417770Y445197D01*
X417829Y445130D01*
X417885Y445061D01*
X417938Y444989D01*
X417988Y444914D01*
X418034Y444838D01*
X418077Y444760D01*
X418116Y444680D01*
X418152Y444598D01*
X418185Y444515D01*
X418213Y444430D01*
X418238Y444345D01*
X418260Y444258D01*
X418277Y444170D01*
X418290Y444082D01*
X418300Y443993D01*
X418306Y443904D01*
X418308Y443815D01*
X418306Y443726D01*
X418300Y443637D01*
X418290Y443548D01*
X418277Y443460D01*
X418260Y443372D01*
X418238Y443285D01*
X418213Y443200D01*
X418185Y443115D01*
X418152Y443032D01*
X418116Y442950D01*
X418077Y442870D01*
X418034Y442792D01*
X417988Y442716D01*
X417938Y442641D01*
X417885Y442569D01*
X417829Y442500D01*
X417770Y442433D01*
X417709Y442368D01*
X417644Y442307D01*
X417577Y442248D01*
X417508Y442192D01*
X417436Y442139D01*
X417361Y442089D01*
X417285Y442043D01*
X417207Y442000D01*
X417127Y441961D01*
X417045Y441925D01*
X416962Y441892D01*
X416877Y441864D01*
X416792Y441839D01*
X416705Y441817D01*
X416617Y441800D01*
X416529Y441787D01*
X416440Y441777D01*
X416351Y441771D01*
X416262Y441769D01*
X414216Y441769D01*
X414216Y449135D01*
X416262Y449135D01*
X416341Y449133D01*
X416420Y449127D01*
X416499Y449118D01*
X416577Y449105D01*
X416654Y449087D01*
X416730Y449067D01*
X416805Y449042D01*
X416879Y449014D01*
X416952Y448983D01*
X417023Y448947D01*
X417092Y448909D01*
X417159Y448867D01*
X417224Y448822D01*
X417287Y448774D01*
X417348Y448723D01*
X417405Y448669D01*
X417461Y448613D01*
X417513Y448554D01*
X417563Y448492D01*
X417609Y448428D01*
X417653Y448362D01*
X417693Y448294D01*
X417729Y448224D01*
X417763Y448152D01*
X417793Y448078D01*
X417819Y448004D01*
X417842Y447928D01*
X417860Y447851D01*
X417876Y447774D01*
X417887Y447695D01*
X417895Y447617D01*
X417899Y447538D01*
X417899Y447458D01*
X417895Y447379D01*
X417887Y447301D01*
X417876Y447222D01*
X417860Y447145D01*
X417842Y447068D01*
X417819Y446992D01*
X417793Y446918D01*
X417763Y446844D01*
X417729Y446772D01*
X417693Y446702D01*
X417653Y446634D01*
X417609Y446568D01*
X417563Y446504D01*
X417513Y446442D01*
X417461Y446383D01*
X417405Y446327D01*
X417348Y446273D01*
X417287Y446222D01*
X417224Y446174D01*
X417159Y446129D01*
X417092Y446087D01*
X417023Y446049D01*
X416952Y446013D01*
X416879Y445982D01*
X416805Y445954D01*
X416730Y445929D01*
X416654Y445909D01*
X416577Y445891D01*
X416499Y445878D01*
X416420Y445869D01*
X416341Y445863D01*
X416262Y445861D01*
X421465Y449135D02*
X421465Y441769D01*
X421465Y449135D02*
X423511Y449135D01*
X423511Y449134D02*
X423600Y449132D01*
X423689Y449126D01*
X423778Y449116D01*
X423866Y449103D01*
X423954Y449086D01*
X424041Y449064D01*
X424126Y449039D01*
X424211Y449011D01*
X424294Y448978D01*
X424376Y448942D01*
X424456Y448903D01*
X424534Y448860D01*
X424610Y448814D01*
X424685Y448764D01*
X424757Y448711D01*
X424826Y448655D01*
X424893Y448596D01*
X424958Y448535D01*
X425019Y448470D01*
X425078Y448403D01*
X425134Y448334D01*
X425187Y448262D01*
X425237Y448187D01*
X425283Y448111D01*
X425326Y448033D01*
X425365Y447953D01*
X425401Y447871D01*
X425434Y447788D01*
X425462Y447703D01*
X425487Y447618D01*
X425509Y447531D01*
X425526Y447443D01*
X425539Y447355D01*
X425549Y447266D01*
X425555Y447177D01*
X425557Y447088D01*
X425555Y446999D01*
X425549Y446910D01*
X425539Y446821D01*
X425526Y446733D01*
X425509Y446645D01*
X425487Y446558D01*
X425462Y446473D01*
X425434Y446388D01*
X425401Y446305D01*
X425365Y446223D01*
X425326Y446143D01*
X425283Y446065D01*
X425237Y445989D01*
X425187Y445914D01*
X425134Y445842D01*
X425078Y445773D01*
X425019Y445706D01*
X424958Y445641D01*
X424893Y445580D01*
X424826Y445521D01*
X424757Y445465D01*
X424685Y445412D01*
X424610Y445362D01*
X424534Y445316D01*
X424456Y445273D01*
X424376Y445234D01*
X424294Y445198D01*
X424211Y445165D01*
X424126Y445137D01*
X424041Y445112D01*
X423954Y445090D01*
X423866Y445073D01*
X423778Y445060D01*
X423689Y445050D01*
X423600Y445044D01*
X423511Y445042D01*
X421465Y445042D01*
X423920Y445042D02*
X425557Y441769D01*
X428729Y443815D02*
X428729Y447088D01*
X428731Y447177D01*
X428737Y447266D01*
X428747Y447355D01*
X428760Y447443D01*
X428777Y447531D01*
X428799Y447618D01*
X428824Y447703D01*
X428852Y447788D01*
X428885Y447871D01*
X428921Y447953D01*
X428960Y448033D01*
X429003Y448111D01*
X429049Y448187D01*
X429099Y448262D01*
X429152Y448334D01*
X429208Y448403D01*
X429267Y448470D01*
X429328Y448535D01*
X429393Y448596D01*
X429460Y448655D01*
X429529Y448711D01*
X429601Y448764D01*
X429676Y448814D01*
X429752Y448860D01*
X429830Y448903D01*
X429910Y448942D01*
X429992Y448978D01*
X430075Y449011D01*
X430160Y449039D01*
X430245Y449064D01*
X430332Y449086D01*
X430420Y449103D01*
X430508Y449116D01*
X430597Y449126D01*
X430686Y449132D01*
X430775Y449134D01*
X430864Y449132D01*
X430953Y449126D01*
X431042Y449116D01*
X431130Y449103D01*
X431218Y449086D01*
X431305Y449064D01*
X431390Y449039D01*
X431475Y449011D01*
X431558Y448978D01*
X431640Y448942D01*
X431720Y448903D01*
X431798Y448860D01*
X431874Y448814D01*
X431949Y448764D01*
X432021Y448711D01*
X432090Y448655D01*
X432157Y448596D01*
X432222Y448535D01*
X432283Y448470D01*
X432342Y448403D01*
X432398Y448334D01*
X432451Y448262D01*
X432501Y448187D01*
X432547Y448111D01*
X432590Y448033D01*
X432629Y447953D01*
X432665Y447871D01*
X432698Y447788D01*
X432726Y447703D01*
X432751Y447618D01*
X432773Y447531D01*
X432790Y447443D01*
X432803Y447355D01*
X432813Y447266D01*
X432819Y447177D01*
X432821Y447088D01*
X432821Y443815D01*
X432819Y443726D01*
X432813Y443637D01*
X432803Y443548D01*
X432790Y443460D01*
X432773Y443372D01*
X432751Y443285D01*
X432726Y443200D01*
X432698Y443115D01*
X432665Y443032D01*
X432629Y442950D01*
X432590Y442870D01*
X432547Y442792D01*
X432501Y442716D01*
X432451Y442641D01*
X432398Y442569D01*
X432342Y442500D01*
X432283Y442433D01*
X432222Y442368D01*
X432157Y442307D01*
X432090Y442248D01*
X432021Y442192D01*
X431949Y442139D01*
X431874Y442089D01*
X431798Y442043D01*
X431720Y442000D01*
X431640Y441961D01*
X431558Y441925D01*
X431475Y441892D01*
X431390Y441864D01*
X431305Y441839D01*
X431218Y441817D01*
X431130Y441800D01*
X431042Y441787D01*
X430953Y441777D01*
X430864Y441771D01*
X430775Y441769D01*
X430686Y441771D01*
X430597Y441777D01*
X430508Y441787D01*
X430420Y441800D01*
X430332Y441817D01*
X430245Y441839D01*
X430160Y441864D01*
X430075Y441892D01*
X429992Y441925D01*
X429910Y441961D01*
X429830Y442000D01*
X429752Y442043D01*
X429676Y442089D01*
X429601Y442139D01*
X429529Y442192D01*
X429460Y442248D01*
X429393Y442307D01*
X429328Y442368D01*
X429267Y442433D01*
X429208Y442500D01*
X429152Y442569D01*
X429099Y442641D01*
X429049Y442716D01*
X429003Y442792D01*
X428960Y442870D01*
X428921Y442950D01*
X428885Y443032D01*
X428852Y443115D01*
X428824Y443200D01*
X428799Y443285D01*
X428777Y443372D01*
X428760Y443460D01*
X428747Y443548D01*
X428737Y443637D01*
X428731Y443726D01*
X428729Y443815D01*
X435792Y449135D02*
X437428Y441769D01*
X439065Y446679D01*
X440702Y441769D01*
X442339Y449135D01*
X445554Y449135D02*
X445554Y441769D01*
X449646Y441769D02*
X445554Y449135D01*
X449646Y449135D02*
X449646Y441769D01*
X340443Y487949D02*
X340443Y493269D01*
X340443Y487949D02*
X340445Y487860D01*
X340451Y487771D01*
X340461Y487682D01*
X340474Y487594D01*
X340491Y487506D01*
X340513Y487419D01*
X340538Y487334D01*
X340566Y487249D01*
X340599Y487166D01*
X340635Y487084D01*
X340674Y487004D01*
X340717Y486926D01*
X340763Y486850D01*
X340813Y486775D01*
X340866Y486703D01*
X340922Y486634D01*
X340981Y486567D01*
X341042Y486502D01*
X341107Y486441D01*
X341174Y486382D01*
X341243Y486326D01*
X341315Y486273D01*
X341390Y486223D01*
X341466Y486177D01*
X341544Y486134D01*
X341624Y486095D01*
X341706Y486059D01*
X341789Y486026D01*
X341874Y485998D01*
X341959Y485973D01*
X342046Y485951D01*
X342134Y485934D01*
X342222Y485921D01*
X342311Y485911D01*
X342400Y485905D01*
X342489Y485903D01*
X342578Y485905D01*
X342667Y485911D01*
X342756Y485921D01*
X342844Y485934D01*
X342932Y485951D01*
X343019Y485973D01*
X343104Y485998D01*
X343189Y486026D01*
X343272Y486059D01*
X343354Y486095D01*
X343434Y486134D01*
X343512Y486177D01*
X343588Y486223D01*
X343663Y486273D01*
X343735Y486326D01*
X343804Y486382D01*
X343871Y486441D01*
X343936Y486502D01*
X343997Y486567D01*
X344056Y486634D01*
X344112Y486703D01*
X344165Y486775D01*
X344215Y486850D01*
X344261Y486926D01*
X344304Y487004D01*
X344343Y487084D01*
X344379Y487166D01*
X344412Y487249D01*
X344440Y487334D01*
X344465Y487419D01*
X344487Y487506D01*
X344504Y487594D01*
X344517Y487682D01*
X344527Y487771D01*
X344533Y487860D01*
X344535Y487949D01*
X344536Y487949D02*
X344536Y493269D01*
X351851Y487540D02*
X351849Y487462D01*
X351844Y487384D01*
X351834Y487307D01*
X351821Y487230D01*
X351805Y487154D01*
X351785Y487079D01*
X351761Y487005D01*
X351734Y486932D01*
X351703Y486860D01*
X351669Y486790D01*
X351632Y486722D01*
X351591Y486655D01*
X351547Y486590D01*
X351501Y486528D01*
X351451Y486468D01*
X351399Y486410D01*
X351344Y486355D01*
X351286Y486303D01*
X351226Y486253D01*
X351164Y486207D01*
X351099Y486163D01*
X351033Y486122D01*
X350964Y486085D01*
X350894Y486051D01*
X350822Y486020D01*
X350749Y485993D01*
X350675Y485969D01*
X350600Y485949D01*
X350524Y485933D01*
X350447Y485920D01*
X350370Y485910D01*
X350292Y485905D01*
X350214Y485903D01*
X350100Y485905D01*
X349987Y485910D01*
X349873Y485920D01*
X349760Y485933D01*
X349648Y485950D01*
X349536Y485970D01*
X349425Y485994D01*
X349314Y486022D01*
X349205Y486053D01*
X349097Y486088D01*
X348990Y486127D01*
X348884Y486169D01*
X348780Y486214D01*
X348677Y486263D01*
X348576Y486316D01*
X348477Y486371D01*
X348379Y486430D01*
X348284Y486492D01*
X348191Y486557D01*
X348099Y486625D01*
X348011Y486696D01*
X347924Y486770D01*
X347840Y486847D01*
X347759Y486926D01*
X347963Y491632D02*
X347965Y491710D01*
X347970Y491788D01*
X347980Y491865D01*
X347993Y491942D01*
X348009Y492018D01*
X348029Y492093D01*
X348053Y492167D01*
X348080Y492240D01*
X348111Y492312D01*
X348145Y492382D01*
X348182Y492451D01*
X348223Y492517D01*
X348267Y492582D01*
X348313Y492644D01*
X348363Y492704D01*
X348415Y492762D01*
X348470Y492817D01*
X348528Y492869D01*
X348588Y492919D01*
X348650Y492965D01*
X348715Y493009D01*
X348782Y493050D01*
X348850Y493087D01*
X348920Y493121D01*
X348992Y493152D01*
X349065Y493179D01*
X349139Y493203D01*
X349214Y493223D01*
X349290Y493239D01*
X349367Y493252D01*
X349444Y493262D01*
X349522Y493267D01*
X349600Y493269D01*
X349710Y493267D01*
X349819Y493261D01*
X349929Y493251D01*
X350037Y493238D01*
X350146Y493220D01*
X350253Y493199D01*
X350360Y493173D01*
X350466Y493144D01*
X350571Y493112D01*
X350674Y493075D01*
X350776Y493035D01*
X350877Y492991D01*
X350976Y492943D01*
X351073Y492893D01*
X351168Y492838D01*
X351261Y492780D01*
X351352Y492719D01*
X351441Y492655D01*
X348782Y490199D02*
X348715Y490241D01*
X348650Y490285D01*
X348588Y490333D01*
X348528Y490383D01*
X348470Y490436D01*
X348415Y490492D01*
X348363Y490551D01*
X348313Y490611D01*
X348266Y490675D01*
X348223Y490740D01*
X348182Y490807D01*
X348145Y490876D01*
X348111Y490947D01*
X348080Y491019D01*
X348053Y491093D01*
X348029Y491167D01*
X348009Y491243D01*
X347993Y491320D01*
X347980Y491397D01*
X347970Y491475D01*
X347965Y491554D01*
X347963Y491632D01*
X351032Y488972D02*
X351098Y488930D01*
X351163Y488886D01*
X351225Y488839D01*
X351285Y488788D01*
X351343Y488735D01*
X351398Y488679D01*
X351451Y488621D01*
X351500Y488560D01*
X351547Y488497D01*
X351590Y488432D01*
X351631Y488365D01*
X351668Y488296D01*
X351702Y488225D01*
X351733Y488153D01*
X351760Y488079D01*
X351784Y488004D01*
X351804Y487929D01*
X351820Y487852D01*
X351833Y487775D01*
X351843Y487697D01*
X351848Y487618D01*
X351850Y487540D01*
X351032Y488972D02*
X348782Y490200D01*
X355191Y489995D02*
X357237Y489995D01*
X357326Y489993D01*
X357415Y489987D01*
X357504Y489977D01*
X357592Y489964D01*
X357680Y489947D01*
X357767Y489925D01*
X357852Y489900D01*
X357937Y489872D01*
X358020Y489839D01*
X358102Y489803D01*
X358182Y489764D01*
X358260Y489721D01*
X358336Y489675D01*
X358411Y489625D01*
X358483Y489572D01*
X358552Y489516D01*
X358619Y489457D01*
X358684Y489396D01*
X358745Y489331D01*
X358804Y489264D01*
X358860Y489195D01*
X358913Y489123D01*
X358963Y489048D01*
X359009Y488972D01*
X359052Y488894D01*
X359091Y488814D01*
X359127Y488732D01*
X359160Y488649D01*
X359188Y488564D01*
X359213Y488479D01*
X359235Y488392D01*
X359252Y488304D01*
X359265Y488216D01*
X359275Y488127D01*
X359281Y488038D01*
X359283Y487949D01*
X359281Y487860D01*
X359275Y487771D01*
X359265Y487682D01*
X359252Y487594D01*
X359235Y487506D01*
X359213Y487419D01*
X359188Y487334D01*
X359160Y487249D01*
X359127Y487166D01*
X359091Y487084D01*
X359052Y487004D01*
X359009Y486926D01*
X358963Y486850D01*
X358913Y486775D01*
X358860Y486703D01*
X358804Y486634D01*
X358745Y486567D01*
X358684Y486502D01*
X358619Y486441D01*
X358552Y486382D01*
X358483Y486326D01*
X358411Y486273D01*
X358336Y486223D01*
X358260Y486177D01*
X358182Y486134D01*
X358102Y486095D01*
X358020Y486059D01*
X357937Y486026D01*
X357852Y485998D01*
X357767Y485973D01*
X357680Y485951D01*
X357592Y485934D01*
X357504Y485921D01*
X357415Y485911D01*
X357326Y485905D01*
X357237Y485903D01*
X355191Y485903D01*
X355191Y493269D01*
X357237Y493269D01*
X357316Y493267D01*
X357395Y493261D01*
X357474Y493252D01*
X357552Y493239D01*
X357629Y493221D01*
X357705Y493201D01*
X357780Y493176D01*
X357854Y493148D01*
X357927Y493117D01*
X357998Y493081D01*
X358067Y493043D01*
X358134Y493001D01*
X358199Y492956D01*
X358262Y492908D01*
X358323Y492857D01*
X358380Y492803D01*
X358436Y492747D01*
X358488Y492688D01*
X358538Y492626D01*
X358584Y492562D01*
X358628Y492496D01*
X358668Y492428D01*
X358704Y492358D01*
X358738Y492286D01*
X358768Y492212D01*
X358794Y492138D01*
X358817Y492062D01*
X358835Y491985D01*
X358851Y491908D01*
X358862Y491829D01*
X358870Y491751D01*
X358874Y491672D01*
X358874Y491592D01*
X358870Y491513D01*
X358862Y491435D01*
X358851Y491356D01*
X358835Y491279D01*
X358817Y491202D01*
X358794Y491126D01*
X358768Y491052D01*
X358738Y490978D01*
X358704Y490906D01*
X358668Y490836D01*
X358628Y490768D01*
X358584Y490702D01*
X358538Y490638D01*
X358488Y490576D01*
X358436Y490517D01*
X358380Y490461D01*
X358323Y490407D01*
X358262Y490356D01*
X358199Y490308D01*
X358134Y490263D01*
X358067Y490221D01*
X357998Y490183D01*
X357927Y490147D01*
X357854Y490116D01*
X357780Y490088D01*
X357705Y490063D01*
X357629Y490043D01*
X357552Y490025D01*
X357474Y490012D01*
X357395Y490003D01*
X357316Y489997D01*
X357237Y489995D01*
X361823Y485085D02*
X365096Y485085D01*
X370043Y485903D02*
X367588Y493269D01*
X372499Y493269D02*
X370043Y485903D01*
X376926Y485903D02*
X378563Y485903D01*
X376926Y485903D02*
X376848Y485905D01*
X376770Y485910D01*
X376693Y485920D01*
X376616Y485933D01*
X376540Y485949D01*
X376465Y485969D01*
X376391Y485993D01*
X376318Y486020D01*
X376246Y486051D01*
X376176Y486085D01*
X376108Y486122D01*
X376041Y486163D01*
X375976Y486207D01*
X375914Y486253D01*
X375854Y486303D01*
X375796Y486355D01*
X375741Y486410D01*
X375689Y486468D01*
X375639Y486528D01*
X375593Y486590D01*
X375549Y486655D01*
X375508Y486722D01*
X375471Y486790D01*
X375437Y486860D01*
X375406Y486932D01*
X375379Y487005D01*
X375355Y487079D01*
X375335Y487154D01*
X375319Y487230D01*
X375306Y487307D01*
X375296Y487384D01*
X375291Y487462D01*
X375289Y487540D01*
X375289Y491632D01*
X375291Y491712D01*
X375297Y491792D01*
X375307Y491872D01*
X375320Y491951D01*
X375338Y492030D01*
X375359Y492107D01*
X375385Y492183D01*
X375414Y492258D01*
X375446Y492332D01*
X375482Y492404D01*
X375522Y492474D01*
X375565Y492541D01*
X375611Y492607D01*
X375661Y492670D01*
X375713Y492731D01*
X375768Y492790D01*
X375827Y492845D01*
X375887Y492897D01*
X375951Y492947D01*
X376017Y492993D01*
X376084Y493036D01*
X376154Y493076D01*
X376226Y493112D01*
X376300Y493144D01*
X376374Y493173D01*
X376451Y493199D01*
X376528Y493220D01*
X376607Y493238D01*
X376686Y493251D01*
X376766Y493261D01*
X376846Y493267D01*
X376926Y493269D01*
X378563Y493269D01*
X383022Y485903D02*
X384659Y485903D01*
X383022Y485903D02*
X382944Y485905D01*
X382866Y485910D01*
X382789Y485920D01*
X382712Y485933D01*
X382636Y485949D01*
X382561Y485969D01*
X382487Y485993D01*
X382414Y486020D01*
X382342Y486051D01*
X382272Y486085D01*
X382204Y486122D01*
X382137Y486163D01*
X382072Y486207D01*
X382010Y486253D01*
X381950Y486303D01*
X381892Y486355D01*
X381837Y486410D01*
X381785Y486468D01*
X381735Y486528D01*
X381689Y486590D01*
X381645Y486655D01*
X381604Y486722D01*
X381567Y486790D01*
X381533Y486860D01*
X381502Y486932D01*
X381475Y487005D01*
X381451Y487079D01*
X381431Y487154D01*
X381415Y487230D01*
X381402Y487307D01*
X381392Y487384D01*
X381387Y487462D01*
X381385Y487540D01*
X381385Y491632D01*
X381387Y491712D01*
X381393Y491792D01*
X381403Y491872D01*
X381416Y491951D01*
X381434Y492030D01*
X381455Y492107D01*
X381481Y492183D01*
X381510Y492258D01*
X381542Y492332D01*
X381578Y492404D01*
X381618Y492474D01*
X381661Y492541D01*
X381707Y492607D01*
X381757Y492670D01*
X381809Y492731D01*
X381864Y492790D01*
X381923Y492845D01*
X381983Y492897D01*
X382047Y492947D01*
X382113Y492993D01*
X382180Y493036D01*
X382250Y493076D01*
X382322Y493112D01*
X382396Y493144D01*
X382470Y493173D01*
X382547Y493199D01*
X382624Y493220D01*
X382703Y493238D01*
X382782Y493251D01*
X382862Y493261D01*
X382942Y493267D01*
X383022Y493269D01*
X384659Y493269D01*
X387182Y485085D02*
X390456Y485085D01*
X393600Y485903D02*
X393600Y493269D01*
X393600Y489995D02*
X397692Y489995D01*
X397692Y493269D02*
X397692Y485903D01*
X401159Y487949D02*
X401159Y491223D01*
X401161Y491312D01*
X401167Y491401D01*
X401177Y491490D01*
X401190Y491578D01*
X401207Y491666D01*
X401229Y491753D01*
X401254Y491838D01*
X401282Y491923D01*
X401315Y492006D01*
X401351Y492088D01*
X401390Y492168D01*
X401433Y492246D01*
X401479Y492322D01*
X401529Y492397D01*
X401582Y492469D01*
X401638Y492538D01*
X401697Y492605D01*
X401758Y492670D01*
X401823Y492731D01*
X401890Y492790D01*
X401959Y492846D01*
X402031Y492899D01*
X402106Y492949D01*
X402182Y492995D01*
X402260Y493038D01*
X402340Y493077D01*
X402422Y493113D01*
X402505Y493146D01*
X402590Y493174D01*
X402675Y493199D01*
X402762Y493221D01*
X402850Y493238D01*
X402938Y493251D01*
X403027Y493261D01*
X403116Y493267D01*
X403205Y493269D01*
X403294Y493267D01*
X403383Y493261D01*
X403472Y493251D01*
X403560Y493238D01*
X403648Y493221D01*
X403735Y493199D01*
X403820Y493174D01*
X403905Y493146D01*
X403988Y493113D01*
X404070Y493077D01*
X404150Y493038D01*
X404228Y492995D01*
X404304Y492949D01*
X404379Y492899D01*
X404451Y492846D01*
X404520Y492790D01*
X404587Y492731D01*
X404652Y492670D01*
X404713Y492605D01*
X404772Y492538D01*
X404828Y492469D01*
X404881Y492397D01*
X404931Y492322D01*
X404977Y492246D01*
X405020Y492168D01*
X405059Y492088D01*
X405095Y492006D01*
X405128Y491923D01*
X405156Y491838D01*
X405181Y491753D01*
X405203Y491666D01*
X405220Y491578D01*
X405233Y491490D01*
X405243Y491401D01*
X405249Y491312D01*
X405251Y491223D01*
X405251Y487949D01*
X405249Y487860D01*
X405243Y487771D01*
X405233Y487682D01*
X405220Y487594D01*
X405203Y487506D01*
X405181Y487419D01*
X405156Y487334D01*
X405128Y487249D01*
X405095Y487166D01*
X405059Y487084D01*
X405020Y487004D01*
X404977Y486926D01*
X404931Y486850D01*
X404881Y486775D01*
X404828Y486703D01*
X404772Y486634D01*
X404713Y486567D01*
X404652Y486502D01*
X404587Y486441D01*
X404520Y486382D01*
X404451Y486326D01*
X404379Y486273D01*
X404304Y486223D01*
X404228Y486177D01*
X404150Y486134D01*
X404070Y486095D01*
X403988Y486059D01*
X403905Y486026D01*
X403820Y485998D01*
X403735Y485973D01*
X403648Y485951D01*
X403560Y485934D01*
X403472Y485921D01*
X403383Y485911D01*
X403294Y485905D01*
X403205Y485903D01*
X403116Y485905D01*
X403027Y485911D01*
X402938Y485921D01*
X402850Y485934D01*
X402762Y485951D01*
X402675Y485973D01*
X402590Y485998D01*
X402505Y486026D01*
X402422Y486059D01*
X402340Y486095D01*
X402260Y486134D01*
X402182Y486177D01*
X402106Y486223D01*
X402031Y486273D01*
X401959Y486326D01*
X401890Y486382D01*
X401823Y486441D01*
X401758Y486502D01*
X401697Y486567D01*
X401638Y486634D01*
X401582Y486703D01*
X401529Y486775D01*
X401479Y486850D01*
X401433Y486926D01*
X401390Y487004D01*
X401351Y487084D01*
X401315Y487166D01*
X401282Y487249D01*
X401254Y487334D01*
X401229Y487419D01*
X401207Y487506D01*
X401190Y487594D01*
X401177Y487682D01*
X401167Y487771D01*
X401161Y487860D01*
X401159Y487949D01*
X410686Y485903D02*
X410764Y485905D01*
X410842Y485910D01*
X410919Y485920D01*
X410996Y485933D01*
X411072Y485949D01*
X411147Y485969D01*
X411221Y485993D01*
X411294Y486020D01*
X411366Y486051D01*
X411436Y486085D01*
X411505Y486122D01*
X411571Y486163D01*
X411636Y486207D01*
X411698Y486253D01*
X411758Y486303D01*
X411816Y486355D01*
X411871Y486410D01*
X411923Y486468D01*
X411973Y486528D01*
X412019Y486590D01*
X412063Y486655D01*
X412104Y486722D01*
X412141Y486790D01*
X412175Y486860D01*
X412206Y486932D01*
X412233Y487005D01*
X412257Y487079D01*
X412277Y487154D01*
X412293Y487230D01*
X412306Y487307D01*
X412316Y487384D01*
X412321Y487462D01*
X412323Y487540D01*
X410686Y485903D02*
X410572Y485905D01*
X410459Y485910D01*
X410345Y485920D01*
X410232Y485933D01*
X410120Y485950D01*
X410008Y485970D01*
X409897Y485994D01*
X409786Y486022D01*
X409677Y486053D01*
X409569Y486088D01*
X409462Y486127D01*
X409356Y486169D01*
X409252Y486214D01*
X409149Y486263D01*
X409048Y486316D01*
X408949Y486371D01*
X408851Y486430D01*
X408756Y486492D01*
X408663Y486557D01*
X408571Y486625D01*
X408483Y486696D01*
X408396Y486770D01*
X408312Y486847D01*
X408231Y486926D01*
X408435Y491632D02*
X408437Y491710D01*
X408442Y491788D01*
X408452Y491865D01*
X408465Y491942D01*
X408481Y492018D01*
X408501Y492093D01*
X408525Y492167D01*
X408552Y492240D01*
X408583Y492312D01*
X408617Y492382D01*
X408654Y492451D01*
X408695Y492517D01*
X408739Y492582D01*
X408785Y492644D01*
X408835Y492704D01*
X408887Y492762D01*
X408942Y492817D01*
X409000Y492869D01*
X409060Y492919D01*
X409122Y492965D01*
X409187Y493009D01*
X409254Y493050D01*
X409322Y493087D01*
X409392Y493121D01*
X409464Y493152D01*
X409537Y493179D01*
X409611Y493203D01*
X409686Y493223D01*
X409762Y493239D01*
X409839Y493252D01*
X409916Y493262D01*
X409994Y493267D01*
X410072Y493269D01*
X410182Y493267D01*
X410291Y493261D01*
X410401Y493251D01*
X410509Y493238D01*
X410618Y493220D01*
X410725Y493199D01*
X410832Y493173D01*
X410938Y493144D01*
X411043Y493112D01*
X411146Y493075D01*
X411248Y493035D01*
X411349Y492991D01*
X411448Y492943D01*
X411545Y492893D01*
X411640Y492838D01*
X411733Y492780D01*
X411824Y492719D01*
X411913Y492655D01*
X409254Y490199D02*
X409187Y490241D01*
X409122Y490285D01*
X409060Y490333D01*
X409000Y490383D01*
X408942Y490436D01*
X408887Y490492D01*
X408835Y490551D01*
X408785Y490611D01*
X408738Y490675D01*
X408695Y490740D01*
X408654Y490807D01*
X408617Y490876D01*
X408583Y490947D01*
X408552Y491019D01*
X408525Y491093D01*
X408501Y491167D01*
X408481Y491243D01*
X408465Y491320D01*
X408452Y491397D01*
X408442Y491475D01*
X408437Y491554D01*
X408435Y491632D01*
X411504Y488972D02*
X411570Y488930D01*
X411635Y488886D01*
X411697Y488839D01*
X411757Y488788D01*
X411815Y488735D01*
X411870Y488679D01*
X411923Y488621D01*
X411972Y488560D01*
X412019Y488497D01*
X412062Y488432D01*
X412103Y488365D01*
X412140Y488296D01*
X412174Y488225D01*
X412205Y488153D01*
X412232Y488079D01*
X412256Y488004D01*
X412276Y487929D01*
X412292Y487852D01*
X412305Y487775D01*
X412315Y487697D01*
X412320Y487618D01*
X412322Y487540D01*
X411504Y488972D02*
X409254Y490200D01*
X416860Y493269D02*
X416860Y485903D01*
X414814Y493269D02*
X418907Y493269D01*
X343857Y513349D02*
X343857Y518669D01*
X343857Y513349D02*
X343859Y513260D01*
X343865Y513171D01*
X343875Y513082D01*
X343888Y512994D01*
X343905Y512906D01*
X343927Y512819D01*
X343952Y512734D01*
X343980Y512649D01*
X344013Y512566D01*
X344049Y512484D01*
X344088Y512404D01*
X344131Y512326D01*
X344177Y512250D01*
X344227Y512175D01*
X344280Y512103D01*
X344336Y512034D01*
X344395Y511967D01*
X344456Y511902D01*
X344521Y511841D01*
X344588Y511782D01*
X344657Y511726D01*
X344729Y511673D01*
X344804Y511623D01*
X344880Y511577D01*
X344958Y511534D01*
X345038Y511495D01*
X345120Y511459D01*
X345203Y511426D01*
X345288Y511398D01*
X345373Y511373D01*
X345460Y511351D01*
X345548Y511334D01*
X345636Y511321D01*
X345725Y511311D01*
X345814Y511305D01*
X345903Y511303D01*
X345992Y511305D01*
X346081Y511311D01*
X346170Y511321D01*
X346258Y511334D01*
X346346Y511351D01*
X346433Y511373D01*
X346518Y511398D01*
X346603Y511426D01*
X346686Y511459D01*
X346768Y511495D01*
X346848Y511534D01*
X346926Y511577D01*
X347002Y511623D01*
X347077Y511673D01*
X347149Y511726D01*
X347218Y511782D01*
X347285Y511841D01*
X347350Y511902D01*
X347411Y511967D01*
X347470Y512034D01*
X347526Y512103D01*
X347579Y512175D01*
X347629Y512250D01*
X347675Y512326D01*
X347718Y512404D01*
X347757Y512484D01*
X347793Y512566D01*
X347826Y512649D01*
X347854Y512734D01*
X347879Y512819D01*
X347901Y512906D01*
X347918Y512994D01*
X347931Y513082D01*
X347941Y513171D01*
X347947Y513260D01*
X347949Y513349D01*
X347949Y518669D01*
X355265Y512940D02*
X355263Y512862D01*
X355258Y512784D01*
X355248Y512707D01*
X355235Y512630D01*
X355219Y512554D01*
X355199Y512479D01*
X355175Y512405D01*
X355148Y512332D01*
X355117Y512260D01*
X355083Y512190D01*
X355046Y512122D01*
X355005Y512055D01*
X354961Y511990D01*
X354915Y511928D01*
X354865Y511868D01*
X354813Y511810D01*
X354758Y511755D01*
X354700Y511703D01*
X354640Y511653D01*
X354578Y511607D01*
X354513Y511563D01*
X354447Y511522D01*
X354378Y511485D01*
X354308Y511451D01*
X354236Y511420D01*
X354163Y511393D01*
X354089Y511369D01*
X354014Y511349D01*
X353938Y511333D01*
X353861Y511320D01*
X353784Y511310D01*
X353706Y511305D01*
X353628Y511303D01*
X353514Y511305D01*
X353401Y511310D01*
X353287Y511320D01*
X353174Y511333D01*
X353062Y511350D01*
X352950Y511370D01*
X352839Y511394D01*
X352728Y511422D01*
X352619Y511453D01*
X352511Y511488D01*
X352404Y511527D01*
X352298Y511569D01*
X352194Y511614D01*
X352091Y511663D01*
X351990Y511716D01*
X351891Y511771D01*
X351793Y511830D01*
X351698Y511892D01*
X351605Y511957D01*
X351513Y512025D01*
X351425Y512096D01*
X351338Y512170D01*
X351254Y512247D01*
X351173Y512326D01*
X351377Y517032D02*
X351379Y517110D01*
X351384Y517188D01*
X351394Y517265D01*
X351407Y517342D01*
X351423Y517418D01*
X351443Y517493D01*
X351467Y517567D01*
X351494Y517640D01*
X351525Y517712D01*
X351559Y517782D01*
X351596Y517851D01*
X351637Y517917D01*
X351681Y517982D01*
X351727Y518044D01*
X351777Y518104D01*
X351829Y518162D01*
X351884Y518217D01*
X351942Y518269D01*
X352002Y518319D01*
X352064Y518365D01*
X352129Y518409D01*
X352196Y518450D01*
X352264Y518487D01*
X352334Y518521D01*
X352406Y518552D01*
X352479Y518579D01*
X352553Y518603D01*
X352628Y518623D01*
X352704Y518639D01*
X352781Y518652D01*
X352858Y518662D01*
X352936Y518667D01*
X353014Y518669D01*
X353124Y518667D01*
X353233Y518661D01*
X353343Y518651D01*
X353451Y518638D01*
X353560Y518620D01*
X353667Y518599D01*
X353774Y518573D01*
X353880Y518544D01*
X353985Y518512D01*
X354088Y518475D01*
X354190Y518435D01*
X354291Y518391D01*
X354390Y518343D01*
X354487Y518293D01*
X354582Y518238D01*
X354675Y518180D01*
X354766Y518119D01*
X354855Y518055D01*
X352195Y515599D02*
X352128Y515641D01*
X352063Y515685D01*
X352001Y515733D01*
X351941Y515783D01*
X351883Y515836D01*
X351828Y515892D01*
X351776Y515951D01*
X351726Y516011D01*
X351679Y516075D01*
X351636Y516140D01*
X351595Y516207D01*
X351558Y516276D01*
X351524Y516347D01*
X351493Y516419D01*
X351466Y516493D01*
X351442Y516567D01*
X351422Y516643D01*
X351406Y516720D01*
X351393Y516797D01*
X351383Y516875D01*
X351378Y516954D01*
X351376Y517032D01*
X354446Y514372D02*
X354512Y514330D01*
X354577Y514286D01*
X354639Y514239D01*
X354699Y514188D01*
X354757Y514135D01*
X354812Y514079D01*
X354865Y514021D01*
X354914Y513960D01*
X354961Y513897D01*
X355004Y513832D01*
X355045Y513765D01*
X355082Y513696D01*
X355116Y513625D01*
X355147Y513553D01*
X355174Y513479D01*
X355198Y513404D01*
X355218Y513329D01*
X355234Y513252D01*
X355247Y513175D01*
X355257Y513097D01*
X355262Y513018D01*
X355264Y512940D01*
X354446Y514372D02*
X352195Y515600D01*
X358605Y515395D02*
X360651Y515395D01*
X360740Y515393D01*
X360829Y515387D01*
X360918Y515377D01*
X361006Y515364D01*
X361094Y515347D01*
X361181Y515325D01*
X361266Y515300D01*
X361351Y515272D01*
X361434Y515239D01*
X361516Y515203D01*
X361596Y515164D01*
X361674Y515121D01*
X361750Y515075D01*
X361825Y515025D01*
X361897Y514972D01*
X361966Y514916D01*
X362033Y514857D01*
X362098Y514796D01*
X362159Y514731D01*
X362218Y514664D01*
X362274Y514595D01*
X362327Y514523D01*
X362377Y514448D01*
X362423Y514372D01*
X362466Y514294D01*
X362505Y514214D01*
X362541Y514132D01*
X362574Y514049D01*
X362602Y513964D01*
X362627Y513879D01*
X362649Y513792D01*
X362666Y513704D01*
X362679Y513616D01*
X362689Y513527D01*
X362695Y513438D01*
X362697Y513349D01*
X362695Y513260D01*
X362689Y513171D01*
X362679Y513082D01*
X362666Y512994D01*
X362649Y512906D01*
X362627Y512819D01*
X362602Y512734D01*
X362574Y512649D01*
X362541Y512566D01*
X362505Y512484D01*
X362466Y512404D01*
X362423Y512326D01*
X362377Y512250D01*
X362327Y512175D01*
X362274Y512103D01*
X362218Y512034D01*
X362159Y511967D01*
X362098Y511902D01*
X362033Y511841D01*
X361966Y511782D01*
X361897Y511726D01*
X361825Y511673D01*
X361750Y511623D01*
X361674Y511577D01*
X361596Y511534D01*
X361516Y511495D01*
X361434Y511459D01*
X361351Y511426D01*
X361266Y511398D01*
X361181Y511373D01*
X361094Y511351D01*
X361006Y511334D01*
X360918Y511321D01*
X360829Y511311D01*
X360740Y511305D01*
X360651Y511303D01*
X358605Y511303D01*
X358605Y518669D01*
X360651Y518669D01*
X360730Y518667D01*
X360809Y518661D01*
X360888Y518652D01*
X360966Y518639D01*
X361043Y518621D01*
X361119Y518601D01*
X361194Y518576D01*
X361268Y518548D01*
X361341Y518517D01*
X361412Y518481D01*
X361481Y518443D01*
X361548Y518401D01*
X361613Y518356D01*
X361676Y518308D01*
X361737Y518257D01*
X361794Y518203D01*
X361850Y518147D01*
X361902Y518088D01*
X361952Y518026D01*
X361998Y517962D01*
X362042Y517896D01*
X362082Y517828D01*
X362118Y517758D01*
X362152Y517686D01*
X362182Y517612D01*
X362208Y517538D01*
X362231Y517462D01*
X362249Y517385D01*
X362265Y517308D01*
X362276Y517229D01*
X362284Y517151D01*
X362288Y517072D01*
X362288Y516992D01*
X362284Y516913D01*
X362276Y516835D01*
X362265Y516756D01*
X362249Y516679D01*
X362231Y516602D01*
X362208Y516526D01*
X362182Y516452D01*
X362152Y516378D01*
X362118Y516306D01*
X362082Y516236D01*
X362042Y516168D01*
X361998Y516102D01*
X361952Y516038D01*
X361902Y515976D01*
X361850Y515917D01*
X361794Y515861D01*
X361737Y515807D01*
X361676Y515756D01*
X361613Y515708D01*
X361548Y515663D01*
X361481Y515621D01*
X361412Y515583D01*
X361341Y515547D01*
X361268Y515516D01*
X361194Y515488D01*
X361119Y515463D01*
X361043Y515443D01*
X360966Y515425D01*
X360888Y515412D01*
X360809Y515403D01*
X360730Y515397D01*
X360651Y515395D01*
X365236Y510485D02*
X368510Y510485D01*
X371655Y511303D02*
X371655Y518669D01*
X373701Y518669D01*
X373790Y518667D01*
X373879Y518661D01*
X373968Y518651D01*
X374056Y518638D01*
X374144Y518621D01*
X374231Y518599D01*
X374316Y518574D01*
X374401Y518546D01*
X374484Y518513D01*
X374566Y518477D01*
X374646Y518438D01*
X374724Y518395D01*
X374800Y518349D01*
X374875Y518299D01*
X374947Y518246D01*
X375016Y518190D01*
X375083Y518131D01*
X375148Y518070D01*
X375209Y518005D01*
X375268Y517938D01*
X375324Y517869D01*
X375377Y517797D01*
X375427Y517722D01*
X375473Y517646D01*
X375516Y517568D01*
X375555Y517488D01*
X375591Y517406D01*
X375624Y517323D01*
X375652Y517238D01*
X375677Y517153D01*
X375699Y517066D01*
X375716Y516978D01*
X375729Y516890D01*
X375739Y516801D01*
X375745Y516712D01*
X375747Y516623D01*
X375747Y513349D01*
X375745Y513260D01*
X375739Y513171D01*
X375729Y513082D01*
X375716Y512994D01*
X375699Y512906D01*
X375677Y512819D01*
X375652Y512734D01*
X375624Y512649D01*
X375591Y512566D01*
X375555Y512484D01*
X375516Y512404D01*
X375473Y512326D01*
X375427Y512250D01*
X375377Y512175D01*
X375324Y512103D01*
X375268Y512034D01*
X375209Y511967D01*
X375148Y511902D01*
X375083Y511841D01*
X375016Y511782D01*
X374947Y511726D01*
X374875Y511673D01*
X374800Y511623D01*
X374724Y511577D01*
X374646Y511534D01*
X374566Y511495D01*
X374484Y511459D01*
X374401Y511426D01*
X374316Y511398D01*
X374231Y511373D01*
X374144Y511351D01*
X374056Y511334D01*
X373968Y511321D01*
X373879Y511311D01*
X373790Y511305D01*
X373701Y511303D01*
X371655Y511303D01*
X379292Y514168D02*
X384203Y514168D01*
X387182Y510485D02*
X390456Y510485D01*
X393600Y511303D02*
X393600Y518669D01*
X393600Y515395D02*
X397692Y515395D01*
X397692Y518669D02*
X397692Y511303D01*
X401159Y513349D02*
X401159Y516623D01*
X401161Y516712D01*
X401167Y516801D01*
X401177Y516890D01*
X401190Y516978D01*
X401207Y517066D01*
X401229Y517153D01*
X401254Y517238D01*
X401282Y517323D01*
X401315Y517406D01*
X401351Y517488D01*
X401390Y517568D01*
X401433Y517646D01*
X401479Y517722D01*
X401529Y517797D01*
X401582Y517869D01*
X401638Y517938D01*
X401697Y518005D01*
X401758Y518070D01*
X401823Y518131D01*
X401890Y518190D01*
X401959Y518246D01*
X402031Y518299D01*
X402106Y518349D01*
X402182Y518395D01*
X402260Y518438D01*
X402340Y518477D01*
X402422Y518513D01*
X402505Y518546D01*
X402590Y518574D01*
X402675Y518599D01*
X402762Y518621D01*
X402850Y518638D01*
X402938Y518651D01*
X403027Y518661D01*
X403116Y518667D01*
X403205Y518669D01*
X403294Y518667D01*
X403383Y518661D01*
X403472Y518651D01*
X403560Y518638D01*
X403648Y518621D01*
X403735Y518599D01*
X403820Y518574D01*
X403905Y518546D01*
X403988Y518513D01*
X404070Y518477D01*
X404150Y518438D01*
X404228Y518395D01*
X404304Y518349D01*
X404379Y518299D01*
X404451Y518246D01*
X404520Y518190D01*
X404587Y518131D01*
X404652Y518070D01*
X404713Y518005D01*
X404772Y517938D01*
X404828Y517869D01*
X404881Y517797D01*
X404931Y517722D01*
X404977Y517646D01*
X405020Y517568D01*
X405059Y517488D01*
X405095Y517406D01*
X405128Y517323D01*
X405156Y517238D01*
X405181Y517153D01*
X405203Y517066D01*
X405220Y516978D01*
X405233Y516890D01*
X405243Y516801D01*
X405249Y516712D01*
X405251Y516623D01*
X405251Y513349D01*
X405249Y513260D01*
X405243Y513171D01*
X405233Y513082D01*
X405220Y512994D01*
X405203Y512906D01*
X405181Y512819D01*
X405156Y512734D01*
X405128Y512649D01*
X405095Y512566D01*
X405059Y512484D01*
X405020Y512404D01*
X404977Y512326D01*
X404931Y512250D01*
X404881Y512175D01*
X404828Y512103D01*
X404772Y512034D01*
X404713Y511967D01*
X404652Y511902D01*
X404587Y511841D01*
X404520Y511782D01*
X404451Y511726D01*
X404379Y511673D01*
X404304Y511623D01*
X404228Y511577D01*
X404150Y511534D01*
X404070Y511495D01*
X403988Y511459D01*
X403905Y511426D01*
X403820Y511398D01*
X403735Y511373D01*
X403648Y511351D01*
X403560Y511334D01*
X403472Y511321D01*
X403383Y511311D01*
X403294Y511305D01*
X403205Y511303D01*
X403116Y511305D01*
X403027Y511311D01*
X402938Y511321D01*
X402850Y511334D01*
X402762Y511351D01*
X402675Y511373D01*
X402590Y511398D01*
X402505Y511426D01*
X402422Y511459D01*
X402340Y511495D01*
X402260Y511534D01*
X402182Y511577D01*
X402106Y511623D01*
X402031Y511673D01*
X401959Y511726D01*
X401890Y511782D01*
X401823Y511841D01*
X401758Y511902D01*
X401697Y511967D01*
X401638Y512034D01*
X401582Y512103D01*
X401529Y512175D01*
X401479Y512250D01*
X401433Y512326D01*
X401390Y512404D01*
X401351Y512484D01*
X401315Y512566D01*
X401282Y512649D01*
X401254Y512734D01*
X401229Y512819D01*
X401207Y512906D01*
X401190Y512994D01*
X401177Y513082D01*
X401167Y513171D01*
X401161Y513260D01*
X401159Y513349D01*
X410686Y511303D02*
X410764Y511305D01*
X410842Y511310D01*
X410919Y511320D01*
X410996Y511333D01*
X411072Y511349D01*
X411147Y511369D01*
X411221Y511393D01*
X411294Y511420D01*
X411366Y511451D01*
X411436Y511485D01*
X411505Y511522D01*
X411571Y511563D01*
X411636Y511607D01*
X411698Y511653D01*
X411758Y511703D01*
X411816Y511755D01*
X411871Y511810D01*
X411923Y511868D01*
X411973Y511928D01*
X412019Y511990D01*
X412063Y512055D01*
X412104Y512122D01*
X412141Y512190D01*
X412175Y512260D01*
X412206Y512332D01*
X412233Y512405D01*
X412257Y512479D01*
X412277Y512554D01*
X412293Y512630D01*
X412306Y512707D01*
X412316Y512784D01*
X412321Y512862D01*
X412323Y512940D01*
X410686Y511303D02*
X410572Y511305D01*
X410459Y511310D01*
X410345Y511320D01*
X410232Y511333D01*
X410120Y511350D01*
X410008Y511370D01*
X409897Y511394D01*
X409786Y511422D01*
X409677Y511453D01*
X409569Y511488D01*
X409462Y511527D01*
X409356Y511569D01*
X409252Y511614D01*
X409149Y511663D01*
X409048Y511716D01*
X408949Y511771D01*
X408851Y511830D01*
X408756Y511892D01*
X408663Y511957D01*
X408571Y512025D01*
X408483Y512096D01*
X408396Y512170D01*
X408312Y512247D01*
X408231Y512326D01*
X408435Y517032D02*
X408437Y517110D01*
X408442Y517188D01*
X408452Y517265D01*
X408465Y517342D01*
X408481Y517418D01*
X408501Y517493D01*
X408525Y517567D01*
X408552Y517640D01*
X408583Y517712D01*
X408617Y517782D01*
X408654Y517851D01*
X408695Y517917D01*
X408739Y517982D01*
X408785Y518044D01*
X408835Y518104D01*
X408887Y518162D01*
X408942Y518217D01*
X409000Y518269D01*
X409060Y518319D01*
X409122Y518365D01*
X409187Y518409D01*
X409254Y518450D01*
X409322Y518487D01*
X409392Y518521D01*
X409464Y518552D01*
X409537Y518579D01*
X409611Y518603D01*
X409686Y518623D01*
X409762Y518639D01*
X409839Y518652D01*
X409916Y518662D01*
X409994Y518667D01*
X410072Y518669D01*
X410182Y518667D01*
X410291Y518661D01*
X410401Y518651D01*
X410509Y518638D01*
X410618Y518620D01*
X410725Y518599D01*
X410832Y518573D01*
X410938Y518544D01*
X411043Y518512D01*
X411146Y518475D01*
X411248Y518435D01*
X411349Y518391D01*
X411448Y518343D01*
X411545Y518293D01*
X411640Y518238D01*
X411733Y518180D01*
X411824Y518119D01*
X411913Y518055D01*
X409254Y515599D02*
X409187Y515641D01*
X409122Y515685D01*
X409060Y515733D01*
X409000Y515783D01*
X408942Y515836D01*
X408887Y515892D01*
X408835Y515951D01*
X408785Y516011D01*
X408738Y516075D01*
X408695Y516140D01*
X408654Y516207D01*
X408617Y516276D01*
X408583Y516347D01*
X408552Y516419D01*
X408525Y516493D01*
X408501Y516567D01*
X408481Y516643D01*
X408465Y516720D01*
X408452Y516797D01*
X408442Y516875D01*
X408437Y516954D01*
X408435Y517032D01*
X411504Y514372D02*
X411570Y514330D01*
X411635Y514286D01*
X411697Y514239D01*
X411757Y514188D01*
X411815Y514135D01*
X411870Y514079D01*
X411923Y514021D01*
X411972Y513960D01*
X412019Y513897D01*
X412062Y513832D01*
X412103Y513765D01*
X412140Y513696D01*
X412174Y513625D01*
X412205Y513553D01*
X412232Y513479D01*
X412256Y513404D01*
X412276Y513329D01*
X412292Y513252D01*
X412305Y513175D01*
X412315Y513097D01*
X412320Y513018D01*
X412322Y512940D01*
X411504Y514372D02*
X409254Y515600D01*
X416860Y518669D02*
X416860Y511303D01*
X414814Y518669D02*
X418907Y518669D01*
X343857Y538749D02*
X343857Y544069D01*
X343857Y538749D02*
X343859Y538660D01*
X343865Y538571D01*
X343875Y538482D01*
X343888Y538394D01*
X343905Y538306D01*
X343927Y538219D01*
X343952Y538134D01*
X343980Y538049D01*
X344013Y537966D01*
X344049Y537884D01*
X344088Y537804D01*
X344131Y537726D01*
X344177Y537650D01*
X344227Y537575D01*
X344280Y537503D01*
X344336Y537434D01*
X344395Y537367D01*
X344456Y537302D01*
X344521Y537241D01*
X344588Y537182D01*
X344657Y537126D01*
X344729Y537073D01*
X344804Y537023D01*
X344880Y536977D01*
X344958Y536934D01*
X345038Y536895D01*
X345120Y536859D01*
X345203Y536826D01*
X345288Y536798D01*
X345373Y536773D01*
X345460Y536751D01*
X345548Y536734D01*
X345636Y536721D01*
X345725Y536711D01*
X345814Y536705D01*
X345903Y536703D01*
X345992Y536705D01*
X346081Y536711D01*
X346170Y536721D01*
X346258Y536734D01*
X346346Y536751D01*
X346433Y536773D01*
X346518Y536798D01*
X346603Y536826D01*
X346686Y536859D01*
X346768Y536895D01*
X346848Y536934D01*
X346926Y536977D01*
X347002Y537023D01*
X347077Y537073D01*
X347149Y537126D01*
X347218Y537182D01*
X347285Y537241D01*
X347350Y537302D01*
X347411Y537367D01*
X347470Y537434D01*
X347526Y537503D01*
X347579Y537575D01*
X347629Y537650D01*
X347675Y537726D01*
X347718Y537804D01*
X347757Y537884D01*
X347793Y537966D01*
X347826Y538049D01*
X347854Y538134D01*
X347879Y538219D01*
X347901Y538306D01*
X347918Y538394D01*
X347931Y538482D01*
X347941Y538571D01*
X347947Y538660D01*
X347949Y538749D01*
X347949Y544069D01*
X355265Y538340D02*
X355263Y538262D01*
X355258Y538184D01*
X355248Y538107D01*
X355235Y538030D01*
X355219Y537954D01*
X355199Y537879D01*
X355175Y537805D01*
X355148Y537732D01*
X355117Y537660D01*
X355083Y537590D01*
X355046Y537522D01*
X355005Y537455D01*
X354961Y537390D01*
X354915Y537328D01*
X354865Y537268D01*
X354813Y537210D01*
X354758Y537155D01*
X354700Y537103D01*
X354640Y537053D01*
X354578Y537007D01*
X354513Y536963D01*
X354447Y536922D01*
X354378Y536885D01*
X354308Y536851D01*
X354236Y536820D01*
X354163Y536793D01*
X354089Y536769D01*
X354014Y536749D01*
X353938Y536733D01*
X353861Y536720D01*
X353784Y536710D01*
X353706Y536705D01*
X353628Y536703D01*
X353514Y536705D01*
X353401Y536710D01*
X353287Y536720D01*
X353174Y536733D01*
X353062Y536750D01*
X352950Y536770D01*
X352839Y536794D01*
X352728Y536822D01*
X352619Y536853D01*
X352511Y536888D01*
X352404Y536927D01*
X352298Y536969D01*
X352194Y537014D01*
X352091Y537063D01*
X351990Y537116D01*
X351891Y537171D01*
X351793Y537230D01*
X351698Y537292D01*
X351605Y537357D01*
X351513Y537425D01*
X351425Y537496D01*
X351338Y537570D01*
X351254Y537647D01*
X351173Y537726D01*
X351377Y542432D02*
X351379Y542510D01*
X351384Y542588D01*
X351394Y542665D01*
X351407Y542742D01*
X351423Y542818D01*
X351443Y542893D01*
X351467Y542967D01*
X351494Y543040D01*
X351525Y543112D01*
X351559Y543182D01*
X351596Y543251D01*
X351637Y543317D01*
X351681Y543382D01*
X351727Y543444D01*
X351777Y543504D01*
X351829Y543562D01*
X351884Y543617D01*
X351942Y543669D01*
X352002Y543719D01*
X352064Y543765D01*
X352129Y543809D01*
X352196Y543850D01*
X352264Y543887D01*
X352334Y543921D01*
X352406Y543952D01*
X352479Y543979D01*
X352553Y544003D01*
X352628Y544023D01*
X352704Y544039D01*
X352781Y544052D01*
X352858Y544062D01*
X352936Y544067D01*
X353014Y544069D01*
X353124Y544067D01*
X353233Y544061D01*
X353343Y544051D01*
X353451Y544038D01*
X353560Y544020D01*
X353667Y543999D01*
X353774Y543973D01*
X353880Y543944D01*
X353985Y543912D01*
X354088Y543875D01*
X354190Y543835D01*
X354291Y543791D01*
X354390Y543743D01*
X354487Y543693D01*
X354582Y543638D01*
X354675Y543580D01*
X354766Y543519D01*
X354855Y543455D01*
X352195Y540999D02*
X352128Y541041D01*
X352063Y541085D01*
X352001Y541133D01*
X351941Y541183D01*
X351883Y541236D01*
X351828Y541292D01*
X351776Y541351D01*
X351726Y541411D01*
X351679Y541475D01*
X351636Y541540D01*
X351595Y541607D01*
X351558Y541676D01*
X351524Y541747D01*
X351493Y541819D01*
X351466Y541893D01*
X351442Y541967D01*
X351422Y542043D01*
X351406Y542120D01*
X351393Y542197D01*
X351383Y542275D01*
X351378Y542354D01*
X351376Y542432D01*
X354446Y539772D02*
X354512Y539730D01*
X354577Y539686D01*
X354639Y539639D01*
X354699Y539588D01*
X354757Y539535D01*
X354812Y539479D01*
X354865Y539421D01*
X354914Y539360D01*
X354961Y539297D01*
X355004Y539232D01*
X355045Y539165D01*
X355082Y539096D01*
X355116Y539025D01*
X355147Y538953D01*
X355174Y538879D01*
X355198Y538804D01*
X355218Y538729D01*
X355234Y538652D01*
X355247Y538575D01*
X355257Y538497D01*
X355262Y538418D01*
X355264Y538340D01*
X354446Y539772D02*
X352195Y541000D01*
X358605Y540795D02*
X360651Y540795D01*
X360740Y540793D01*
X360829Y540787D01*
X360918Y540777D01*
X361006Y540764D01*
X361094Y540747D01*
X361181Y540725D01*
X361266Y540700D01*
X361351Y540672D01*
X361434Y540639D01*
X361516Y540603D01*
X361596Y540564D01*
X361674Y540521D01*
X361750Y540475D01*
X361825Y540425D01*
X361897Y540372D01*
X361966Y540316D01*
X362033Y540257D01*
X362098Y540196D01*
X362159Y540131D01*
X362218Y540064D01*
X362274Y539995D01*
X362327Y539923D01*
X362377Y539848D01*
X362423Y539772D01*
X362466Y539694D01*
X362505Y539614D01*
X362541Y539532D01*
X362574Y539449D01*
X362602Y539364D01*
X362627Y539279D01*
X362649Y539192D01*
X362666Y539104D01*
X362679Y539016D01*
X362689Y538927D01*
X362695Y538838D01*
X362697Y538749D01*
X362695Y538660D01*
X362689Y538571D01*
X362679Y538482D01*
X362666Y538394D01*
X362649Y538306D01*
X362627Y538219D01*
X362602Y538134D01*
X362574Y538049D01*
X362541Y537966D01*
X362505Y537884D01*
X362466Y537804D01*
X362423Y537726D01*
X362377Y537650D01*
X362327Y537575D01*
X362274Y537503D01*
X362218Y537434D01*
X362159Y537367D01*
X362098Y537302D01*
X362033Y537241D01*
X361966Y537182D01*
X361897Y537126D01*
X361825Y537073D01*
X361750Y537023D01*
X361674Y536977D01*
X361596Y536934D01*
X361516Y536895D01*
X361434Y536859D01*
X361351Y536826D01*
X361266Y536798D01*
X361181Y536773D01*
X361094Y536751D01*
X361006Y536734D01*
X360918Y536721D01*
X360829Y536711D01*
X360740Y536705D01*
X360651Y536703D01*
X358605Y536703D01*
X358605Y544069D01*
X360651Y544069D01*
X360730Y544067D01*
X360809Y544061D01*
X360888Y544052D01*
X360966Y544039D01*
X361043Y544021D01*
X361119Y544001D01*
X361194Y543976D01*
X361268Y543948D01*
X361341Y543917D01*
X361412Y543881D01*
X361481Y543843D01*
X361548Y543801D01*
X361613Y543756D01*
X361676Y543708D01*
X361737Y543657D01*
X361794Y543603D01*
X361850Y543547D01*
X361902Y543488D01*
X361952Y543426D01*
X361998Y543362D01*
X362042Y543296D01*
X362082Y543228D01*
X362118Y543158D01*
X362152Y543086D01*
X362182Y543012D01*
X362208Y542938D01*
X362231Y542862D01*
X362249Y542785D01*
X362265Y542708D01*
X362276Y542629D01*
X362284Y542551D01*
X362288Y542472D01*
X362288Y542392D01*
X362284Y542313D01*
X362276Y542235D01*
X362265Y542156D01*
X362249Y542079D01*
X362231Y542002D01*
X362208Y541926D01*
X362182Y541852D01*
X362152Y541778D01*
X362118Y541706D01*
X362082Y541636D01*
X362042Y541568D01*
X361998Y541502D01*
X361952Y541438D01*
X361902Y541376D01*
X361850Y541317D01*
X361794Y541261D01*
X361737Y541207D01*
X361676Y541156D01*
X361613Y541108D01*
X361548Y541063D01*
X361481Y541021D01*
X361412Y540983D01*
X361341Y540947D01*
X361268Y540916D01*
X361194Y540888D01*
X361119Y540863D01*
X361043Y540843D01*
X360966Y540825D01*
X360888Y540812D01*
X360809Y540803D01*
X360730Y540797D01*
X360651Y540795D01*
X365236Y535885D02*
X368510Y535885D01*
X371655Y536703D02*
X371655Y544069D01*
X373701Y544069D01*
X373790Y544067D01*
X373879Y544061D01*
X373968Y544051D01*
X374056Y544038D01*
X374144Y544021D01*
X374231Y543999D01*
X374316Y543974D01*
X374401Y543946D01*
X374484Y543913D01*
X374566Y543877D01*
X374646Y543838D01*
X374724Y543795D01*
X374800Y543749D01*
X374875Y543699D01*
X374947Y543646D01*
X375016Y543590D01*
X375083Y543531D01*
X375148Y543470D01*
X375209Y543405D01*
X375268Y543338D01*
X375324Y543269D01*
X375377Y543197D01*
X375427Y543122D01*
X375473Y543046D01*
X375516Y542968D01*
X375555Y542888D01*
X375591Y542806D01*
X375624Y542723D01*
X375652Y542638D01*
X375677Y542553D01*
X375699Y542466D01*
X375716Y542378D01*
X375729Y542290D01*
X375739Y542201D01*
X375745Y542112D01*
X375747Y542023D01*
X375747Y538749D01*
X375745Y538660D01*
X375739Y538571D01*
X375729Y538482D01*
X375716Y538394D01*
X375699Y538306D01*
X375677Y538219D01*
X375652Y538134D01*
X375624Y538049D01*
X375591Y537966D01*
X375555Y537884D01*
X375516Y537804D01*
X375473Y537726D01*
X375427Y537650D01*
X375377Y537575D01*
X375324Y537503D01*
X375268Y537434D01*
X375209Y537367D01*
X375148Y537302D01*
X375083Y537241D01*
X375016Y537182D01*
X374947Y537126D01*
X374875Y537073D01*
X374800Y537023D01*
X374724Y536977D01*
X374646Y536934D01*
X374566Y536895D01*
X374484Y536859D01*
X374401Y536826D01*
X374316Y536798D01*
X374231Y536773D01*
X374144Y536751D01*
X374056Y536734D01*
X373968Y536721D01*
X373879Y536711D01*
X373790Y536705D01*
X373701Y536703D01*
X371655Y536703D01*
X379292Y539568D02*
X384203Y539568D01*
X381747Y542023D02*
X381747Y537112D01*
X387182Y535885D02*
X390456Y535885D01*
X393600Y536703D02*
X393600Y544069D01*
X393600Y540795D02*
X397692Y540795D01*
X397692Y544069D02*
X397692Y536703D01*
X401159Y538749D02*
X401159Y542023D01*
X401161Y542112D01*
X401167Y542201D01*
X401177Y542290D01*
X401190Y542378D01*
X401207Y542466D01*
X401229Y542553D01*
X401254Y542638D01*
X401282Y542723D01*
X401315Y542806D01*
X401351Y542888D01*
X401390Y542968D01*
X401433Y543046D01*
X401479Y543122D01*
X401529Y543197D01*
X401582Y543269D01*
X401638Y543338D01*
X401697Y543405D01*
X401758Y543470D01*
X401823Y543531D01*
X401890Y543590D01*
X401959Y543646D01*
X402031Y543699D01*
X402106Y543749D01*
X402182Y543795D01*
X402260Y543838D01*
X402340Y543877D01*
X402422Y543913D01*
X402505Y543946D01*
X402590Y543974D01*
X402675Y543999D01*
X402762Y544021D01*
X402850Y544038D01*
X402938Y544051D01*
X403027Y544061D01*
X403116Y544067D01*
X403205Y544069D01*
X403294Y544067D01*
X403383Y544061D01*
X403472Y544051D01*
X403560Y544038D01*
X403648Y544021D01*
X403735Y543999D01*
X403820Y543974D01*
X403905Y543946D01*
X403988Y543913D01*
X404070Y543877D01*
X404150Y543838D01*
X404228Y543795D01*
X404304Y543749D01*
X404379Y543699D01*
X404451Y543646D01*
X404520Y543590D01*
X404587Y543531D01*
X404652Y543470D01*
X404713Y543405D01*
X404772Y543338D01*
X404828Y543269D01*
X404881Y543197D01*
X404931Y543122D01*
X404977Y543046D01*
X405020Y542968D01*
X405059Y542888D01*
X405095Y542806D01*
X405128Y542723D01*
X405156Y542638D01*
X405181Y542553D01*
X405203Y542466D01*
X405220Y542378D01*
X405233Y542290D01*
X405243Y542201D01*
X405249Y542112D01*
X405251Y542023D01*
X405251Y538749D01*
X405249Y538660D01*
X405243Y538571D01*
X405233Y538482D01*
X405220Y538394D01*
X405203Y538306D01*
X405181Y538219D01*
X405156Y538134D01*
X405128Y538049D01*
X405095Y537966D01*
X405059Y537884D01*
X405020Y537804D01*
X404977Y537726D01*
X404931Y537650D01*
X404881Y537575D01*
X404828Y537503D01*
X404772Y537434D01*
X404713Y537367D01*
X404652Y537302D01*
X404587Y537241D01*
X404520Y537182D01*
X404451Y537126D01*
X404379Y537073D01*
X404304Y537023D01*
X404228Y536977D01*
X404150Y536934D01*
X404070Y536895D01*
X403988Y536859D01*
X403905Y536826D01*
X403820Y536798D01*
X403735Y536773D01*
X403648Y536751D01*
X403560Y536734D01*
X403472Y536721D01*
X403383Y536711D01*
X403294Y536705D01*
X403205Y536703D01*
X403116Y536705D01*
X403027Y536711D01*
X402938Y536721D01*
X402850Y536734D01*
X402762Y536751D01*
X402675Y536773D01*
X402590Y536798D01*
X402505Y536826D01*
X402422Y536859D01*
X402340Y536895D01*
X402260Y536934D01*
X402182Y536977D01*
X402106Y537023D01*
X402031Y537073D01*
X401959Y537126D01*
X401890Y537182D01*
X401823Y537241D01*
X401758Y537302D01*
X401697Y537367D01*
X401638Y537434D01*
X401582Y537503D01*
X401529Y537575D01*
X401479Y537650D01*
X401433Y537726D01*
X401390Y537804D01*
X401351Y537884D01*
X401315Y537966D01*
X401282Y538049D01*
X401254Y538134D01*
X401229Y538219D01*
X401207Y538306D01*
X401190Y538394D01*
X401177Y538482D01*
X401167Y538571D01*
X401161Y538660D01*
X401159Y538749D01*
X410686Y536703D02*
X410764Y536705D01*
X410842Y536710D01*
X410919Y536720D01*
X410996Y536733D01*
X411072Y536749D01*
X411147Y536769D01*
X411221Y536793D01*
X411294Y536820D01*
X411366Y536851D01*
X411436Y536885D01*
X411505Y536922D01*
X411571Y536963D01*
X411636Y537007D01*
X411698Y537053D01*
X411758Y537103D01*
X411816Y537155D01*
X411871Y537210D01*
X411923Y537268D01*
X411973Y537328D01*
X412019Y537390D01*
X412063Y537455D01*
X412104Y537522D01*
X412141Y537590D01*
X412175Y537660D01*
X412206Y537732D01*
X412233Y537805D01*
X412257Y537879D01*
X412277Y537954D01*
X412293Y538030D01*
X412306Y538107D01*
X412316Y538184D01*
X412321Y538262D01*
X412323Y538340D01*
X410686Y536703D02*
X410572Y536705D01*
X410459Y536710D01*
X410345Y536720D01*
X410232Y536733D01*
X410120Y536750D01*
X410008Y536770D01*
X409897Y536794D01*
X409786Y536822D01*
X409677Y536853D01*
X409569Y536888D01*
X409462Y536927D01*
X409356Y536969D01*
X409252Y537014D01*
X409149Y537063D01*
X409048Y537116D01*
X408949Y537171D01*
X408851Y537230D01*
X408756Y537292D01*
X408663Y537357D01*
X408571Y537425D01*
X408483Y537496D01*
X408396Y537570D01*
X408312Y537647D01*
X408231Y537726D01*
X408435Y542432D02*
X408437Y542510D01*
X408442Y542588D01*
X408452Y542665D01*
X408465Y542742D01*
X408481Y542818D01*
X408501Y542893D01*
X408525Y542967D01*
X408552Y543040D01*
X408583Y543112D01*
X408617Y543182D01*
X408654Y543251D01*
X408695Y543317D01*
X408739Y543382D01*
X408785Y543444D01*
X408835Y543504D01*
X408887Y543562D01*
X408942Y543617D01*
X409000Y543669D01*
X409060Y543719D01*
X409122Y543765D01*
X409187Y543809D01*
X409254Y543850D01*
X409322Y543887D01*
X409392Y543921D01*
X409464Y543952D01*
X409537Y543979D01*
X409611Y544003D01*
X409686Y544023D01*
X409762Y544039D01*
X409839Y544052D01*
X409916Y544062D01*
X409994Y544067D01*
X410072Y544069D01*
X410182Y544067D01*
X410291Y544061D01*
X410401Y544051D01*
X410509Y544038D01*
X410618Y544020D01*
X410725Y543999D01*
X410832Y543973D01*
X410938Y543944D01*
X411043Y543912D01*
X411146Y543875D01*
X411248Y543835D01*
X411349Y543791D01*
X411448Y543743D01*
X411545Y543693D01*
X411640Y543638D01*
X411733Y543580D01*
X411824Y543519D01*
X411913Y543455D01*
X409254Y540999D02*
X409187Y541041D01*
X409122Y541085D01*
X409060Y541133D01*
X409000Y541183D01*
X408942Y541236D01*
X408887Y541292D01*
X408835Y541351D01*
X408785Y541411D01*
X408738Y541475D01*
X408695Y541540D01*
X408654Y541607D01*
X408617Y541676D01*
X408583Y541747D01*
X408552Y541819D01*
X408525Y541893D01*
X408501Y541967D01*
X408481Y542043D01*
X408465Y542120D01*
X408452Y542197D01*
X408442Y542275D01*
X408437Y542354D01*
X408435Y542432D01*
X411504Y539772D02*
X411570Y539730D01*
X411635Y539686D01*
X411697Y539639D01*
X411757Y539588D01*
X411815Y539535D01*
X411870Y539479D01*
X411923Y539421D01*
X411972Y539360D01*
X412019Y539297D01*
X412062Y539232D01*
X412103Y539165D01*
X412140Y539096D01*
X412174Y539025D01*
X412205Y538953D01*
X412232Y538879D01*
X412256Y538804D01*
X412276Y538729D01*
X412292Y538652D01*
X412305Y538575D01*
X412315Y538497D01*
X412320Y538418D01*
X412322Y538340D01*
X411504Y539772D02*
X409254Y541000D01*
X416860Y544069D02*
X416860Y536703D01*
X414814Y544069D02*
X418907Y544069D01*
X336354Y564212D02*
X336354Y569532D01*
X336354Y564212D02*
X336356Y564123D01*
X336362Y564034D01*
X336372Y563945D01*
X336385Y563857D01*
X336402Y563769D01*
X336424Y563682D01*
X336449Y563597D01*
X336477Y563512D01*
X336510Y563429D01*
X336546Y563347D01*
X336585Y563267D01*
X336628Y563189D01*
X336674Y563113D01*
X336724Y563038D01*
X336777Y562966D01*
X336833Y562897D01*
X336892Y562830D01*
X336953Y562765D01*
X337018Y562704D01*
X337085Y562645D01*
X337154Y562589D01*
X337226Y562536D01*
X337301Y562486D01*
X337377Y562440D01*
X337455Y562397D01*
X337535Y562358D01*
X337617Y562322D01*
X337700Y562289D01*
X337785Y562261D01*
X337870Y562236D01*
X337957Y562214D01*
X338045Y562197D01*
X338133Y562184D01*
X338222Y562174D01*
X338311Y562168D01*
X338400Y562166D01*
X338489Y562168D01*
X338578Y562174D01*
X338667Y562184D01*
X338755Y562197D01*
X338843Y562214D01*
X338930Y562236D01*
X339015Y562261D01*
X339100Y562289D01*
X339183Y562322D01*
X339265Y562358D01*
X339345Y562397D01*
X339423Y562440D01*
X339499Y562486D01*
X339574Y562536D01*
X339646Y562589D01*
X339715Y562645D01*
X339782Y562704D01*
X339847Y562765D01*
X339908Y562830D01*
X339967Y562897D01*
X340023Y562966D01*
X340076Y563038D01*
X340126Y563113D01*
X340172Y563189D01*
X340215Y563267D01*
X340254Y563347D01*
X340290Y563429D01*
X340323Y563512D01*
X340351Y563597D01*
X340376Y563682D01*
X340398Y563769D01*
X340415Y563857D01*
X340428Y563945D01*
X340438Y564034D01*
X340444Y564123D01*
X340446Y564212D01*
X340447Y564212D02*
X340447Y569532D01*
X347762Y563802D02*
X347760Y563724D01*
X347755Y563646D01*
X347745Y563569D01*
X347732Y563492D01*
X347716Y563416D01*
X347696Y563341D01*
X347672Y563267D01*
X347645Y563194D01*
X347614Y563122D01*
X347580Y563052D01*
X347543Y562984D01*
X347502Y562917D01*
X347458Y562852D01*
X347412Y562790D01*
X347362Y562730D01*
X347310Y562672D01*
X347255Y562617D01*
X347197Y562565D01*
X347137Y562515D01*
X347075Y562469D01*
X347010Y562425D01*
X346944Y562384D01*
X346875Y562347D01*
X346805Y562313D01*
X346733Y562282D01*
X346660Y562255D01*
X346586Y562231D01*
X346511Y562211D01*
X346435Y562195D01*
X346358Y562182D01*
X346281Y562172D01*
X346203Y562167D01*
X346125Y562165D01*
X346011Y562167D01*
X345898Y562172D01*
X345784Y562182D01*
X345671Y562195D01*
X345559Y562212D01*
X345447Y562232D01*
X345336Y562256D01*
X345225Y562284D01*
X345116Y562315D01*
X345008Y562350D01*
X344901Y562389D01*
X344795Y562431D01*
X344691Y562476D01*
X344588Y562525D01*
X344487Y562578D01*
X344388Y562633D01*
X344290Y562692D01*
X344195Y562754D01*
X344102Y562819D01*
X344010Y562887D01*
X343922Y562958D01*
X343835Y563032D01*
X343751Y563109D01*
X343670Y563188D01*
X343874Y567895D02*
X343876Y567973D01*
X343881Y568051D01*
X343891Y568128D01*
X343904Y568205D01*
X343920Y568281D01*
X343940Y568356D01*
X343964Y568430D01*
X343991Y568503D01*
X344022Y568575D01*
X344056Y568645D01*
X344093Y568714D01*
X344134Y568780D01*
X344178Y568845D01*
X344224Y568907D01*
X344274Y568967D01*
X344326Y569025D01*
X344381Y569080D01*
X344439Y569132D01*
X344499Y569182D01*
X344561Y569228D01*
X344626Y569272D01*
X344693Y569313D01*
X344761Y569350D01*
X344831Y569384D01*
X344903Y569415D01*
X344976Y569442D01*
X345050Y569466D01*
X345125Y569486D01*
X345201Y569502D01*
X345278Y569515D01*
X345355Y569525D01*
X345433Y569530D01*
X345511Y569532D01*
X345511Y569531D02*
X345621Y569529D01*
X345730Y569523D01*
X345840Y569513D01*
X345948Y569500D01*
X346057Y569482D01*
X346164Y569461D01*
X346271Y569435D01*
X346377Y569406D01*
X346482Y569374D01*
X346585Y569337D01*
X346687Y569297D01*
X346788Y569253D01*
X346887Y569205D01*
X346984Y569155D01*
X347079Y569100D01*
X347172Y569042D01*
X347263Y568981D01*
X347352Y568917D01*
X344693Y566462D02*
X344626Y566504D01*
X344561Y566548D01*
X344499Y566596D01*
X344439Y566646D01*
X344381Y566699D01*
X344326Y566755D01*
X344274Y566814D01*
X344224Y566874D01*
X344177Y566938D01*
X344134Y567003D01*
X344093Y567070D01*
X344056Y567139D01*
X344022Y567210D01*
X343991Y567282D01*
X343964Y567356D01*
X343940Y567430D01*
X343920Y567506D01*
X343904Y567583D01*
X343891Y567660D01*
X343881Y567738D01*
X343876Y567817D01*
X343874Y567895D01*
X346943Y565234D02*
X347009Y565192D01*
X347074Y565148D01*
X347136Y565101D01*
X347196Y565050D01*
X347254Y564997D01*
X347309Y564941D01*
X347362Y564883D01*
X347411Y564822D01*
X347458Y564759D01*
X347501Y564694D01*
X347542Y564627D01*
X347579Y564558D01*
X347613Y564487D01*
X347644Y564415D01*
X347671Y564341D01*
X347695Y564266D01*
X347715Y564191D01*
X347731Y564114D01*
X347744Y564037D01*
X347754Y563959D01*
X347759Y563880D01*
X347761Y563802D01*
X346943Y565235D02*
X344693Y566462D01*
X351102Y566258D02*
X353149Y566258D01*
X353238Y566256D01*
X353327Y566250D01*
X353416Y566240D01*
X353504Y566227D01*
X353592Y566210D01*
X353679Y566188D01*
X353764Y566163D01*
X353849Y566135D01*
X353932Y566102D01*
X354014Y566066D01*
X354094Y566027D01*
X354172Y565984D01*
X354248Y565938D01*
X354323Y565888D01*
X354395Y565835D01*
X354464Y565779D01*
X354531Y565720D01*
X354596Y565659D01*
X354657Y565594D01*
X354716Y565527D01*
X354772Y565458D01*
X354825Y565386D01*
X354875Y565311D01*
X354921Y565235D01*
X354964Y565157D01*
X355003Y565077D01*
X355039Y564995D01*
X355072Y564912D01*
X355100Y564827D01*
X355125Y564742D01*
X355147Y564655D01*
X355164Y564567D01*
X355177Y564479D01*
X355187Y564390D01*
X355193Y564301D01*
X355195Y564212D01*
X355193Y564123D01*
X355187Y564034D01*
X355177Y563945D01*
X355164Y563857D01*
X355147Y563769D01*
X355125Y563682D01*
X355100Y563597D01*
X355072Y563512D01*
X355039Y563429D01*
X355003Y563347D01*
X354964Y563267D01*
X354921Y563189D01*
X354875Y563113D01*
X354825Y563038D01*
X354772Y562966D01*
X354716Y562897D01*
X354657Y562830D01*
X354596Y562765D01*
X354531Y562704D01*
X354464Y562645D01*
X354395Y562589D01*
X354323Y562536D01*
X354248Y562486D01*
X354172Y562440D01*
X354094Y562397D01*
X354014Y562358D01*
X353932Y562322D01*
X353849Y562289D01*
X353764Y562261D01*
X353679Y562236D01*
X353592Y562214D01*
X353504Y562197D01*
X353416Y562184D01*
X353327Y562174D01*
X353238Y562168D01*
X353149Y562166D01*
X351102Y562166D01*
X351102Y569532D01*
X353149Y569532D01*
X353228Y569530D01*
X353307Y569524D01*
X353386Y569515D01*
X353464Y569502D01*
X353541Y569484D01*
X353617Y569464D01*
X353692Y569439D01*
X353766Y569411D01*
X353839Y569380D01*
X353910Y569344D01*
X353979Y569306D01*
X354046Y569264D01*
X354111Y569219D01*
X354174Y569171D01*
X354235Y569120D01*
X354292Y569066D01*
X354348Y569010D01*
X354400Y568951D01*
X354450Y568889D01*
X354496Y568825D01*
X354540Y568759D01*
X354580Y568691D01*
X354616Y568621D01*
X354650Y568549D01*
X354680Y568475D01*
X354706Y568401D01*
X354729Y568325D01*
X354747Y568248D01*
X354763Y568171D01*
X354774Y568092D01*
X354782Y568014D01*
X354786Y567935D01*
X354786Y567855D01*
X354782Y567776D01*
X354774Y567698D01*
X354763Y567619D01*
X354747Y567542D01*
X354729Y567465D01*
X354706Y567389D01*
X354680Y567315D01*
X354650Y567241D01*
X354616Y567169D01*
X354580Y567099D01*
X354540Y567031D01*
X354496Y566965D01*
X354450Y566901D01*
X354400Y566839D01*
X354348Y566780D01*
X354292Y566724D01*
X354235Y566670D01*
X354174Y566619D01*
X354111Y566571D01*
X354046Y566526D01*
X353979Y566484D01*
X353910Y566446D01*
X353839Y566410D01*
X353766Y566379D01*
X353692Y566351D01*
X353617Y566326D01*
X353541Y566306D01*
X353464Y566288D01*
X353386Y566275D01*
X353307Y566266D01*
X353228Y566260D01*
X353149Y566258D01*
X357734Y561347D02*
X361008Y561347D01*
X367017Y566258D02*
X368244Y566258D01*
X368244Y562166D01*
X365789Y562166D01*
X365789Y562165D02*
X365711Y562167D01*
X365633Y562172D01*
X365556Y562182D01*
X365479Y562195D01*
X365403Y562211D01*
X365328Y562231D01*
X365254Y562255D01*
X365181Y562282D01*
X365109Y562313D01*
X365039Y562347D01*
X364971Y562384D01*
X364904Y562425D01*
X364839Y562469D01*
X364777Y562515D01*
X364717Y562565D01*
X364659Y562617D01*
X364604Y562672D01*
X364552Y562730D01*
X364502Y562790D01*
X364456Y562852D01*
X364412Y562917D01*
X364371Y562984D01*
X364334Y563052D01*
X364300Y563122D01*
X364269Y563194D01*
X364242Y563267D01*
X364218Y563341D01*
X364198Y563416D01*
X364182Y563492D01*
X364169Y563569D01*
X364159Y563646D01*
X364154Y563724D01*
X364152Y563802D01*
X364152Y567895D01*
X364154Y567975D01*
X364160Y568055D01*
X364170Y568135D01*
X364183Y568214D01*
X364201Y568293D01*
X364222Y568370D01*
X364248Y568446D01*
X364277Y568521D01*
X364309Y568595D01*
X364345Y568667D01*
X364385Y568737D01*
X364428Y568804D01*
X364474Y568870D01*
X364524Y568933D01*
X364576Y568994D01*
X364631Y569053D01*
X364690Y569108D01*
X364750Y569160D01*
X364814Y569210D01*
X364880Y569256D01*
X364947Y569299D01*
X365017Y569339D01*
X365089Y569375D01*
X365163Y569407D01*
X365237Y569436D01*
X365314Y569462D01*
X365391Y569483D01*
X365470Y569501D01*
X365549Y569514D01*
X365629Y569524D01*
X365709Y569530D01*
X365789Y569532D01*
X368244Y569532D01*
X371955Y569532D02*
X371955Y562166D01*
X376047Y562166D02*
X371955Y569532D01*
X376047Y569532D02*
X376047Y562166D01*
X379758Y562166D02*
X379758Y569532D01*
X381804Y569532D01*
X381804Y569531D02*
X381893Y569529D01*
X381982Y569523D01*
X382071Y569513D01*
X382159Y569500D01*
X382247Y569483D01*
X382334Y569461D01*
X382419Y569436D01*
X382504Y569408D01*
X382587Y569375D01*
X382669Y569339D01*
X382749Y569300D01*
X382827Y569257D01*
X382903Y569211D01*
X382978Y569161D01*
X383050Y569108D01*
X383119Y569052D01*
X383186Y568993D01*
X383251Y568932D01*
X383312Y568867D01*
X383371Y568800D01*
X383427Y568731D01*
X383480Y568659D01*
X383530Y568584D01*
X383576Y568508D01*
X383619Y568430D01*
X383658Y568350D01*
X383694Y568268D01*
X383727Y568185D01*
X383755Y568100D01*
X383780Y568015D01*
X383802Y567928D01*
X383819Y567840D01*
X383832Y567752D01*
X383842Y567663D01*
X383848Y567574D01*
X383850Y567485D01*
X383850Y564212D01*
X383848Y564123D01*
X383842Y564034D01*
X383832Y563945D01*
X383819Y563857D01*
X383802Y563769D01*
X383780Y563682D01*
X383755Y563597D01*
X383727Y563512D01*
X383694Y563429D01*
X383658Y563347D01*
X383619Y563267D01*
X383576Y563189D01*
X383530Y563113D01*
X383480Y563038D01*
X383427Y562966D01*
X383371Y562897D01*
X383312Y562830D01*
X383251Y562765D01*
X383186Y562704D01*
X383119Y562645D01*
X383050Y562589D01*
X382978Y562536D01*
X382903Y562486D01*
X382827Y562440D01*
X382749Y562397D01*
X382669Y562358D01*
X382587Y562322D01*
X382504Y562289D01*
X382419Y562261D01*
X382334Y562236D01*
X382247Y562214D01*
X382159Y562197D01*
X382071Y562184D01*
X381982Y562174D01*
X381893Y562168D01*
X381804Y562166D01*
X379758Y562166D01*
X386994Y561347D02*
X390268Y561347D01*
X393413Y562166D02*
X393413Y569532D01*
X393413Y566258D02*
X397505Y566258D01*
X397505Y569532D02*
X397505Y562166D01*
X400972Y564212D02*
X400972Y567485D01*
X400974Y567574D01*
X400980Y567663D01*
X400990Y567752D01*
X401003Y567840D01*
X401020Y567928D01*
X401042Y568015D01*
X401067Y568100D01*
X401095Y568185D01*
X401128Y568268D01*
X401164Y568350D01*
X401203Y568430D01*
X401246Y568508D01*
X401292Y568584D01*
X401342Y568659D01*
X401395Y568731D01*
X401451Y568800D01*
X401510Y568867D01*
X401571Y568932D01*
X401636Y568993D01*
X401703Y569052D01*
X401772Y569108D01*
X401844Y569161D01*
X401919Y569211D01*
X401995Y569257D01*
X402073Y569300D01*
X402153Y569339D01*
X402235Y569375D01*
X402318Y569408D01*
X402403Y569436D01*
X402488Y569461D01*
X402575Y569483D01*
X402663Y569500D01*
X402751Y569513D01*
X402840Y569523D01*
X402929Y569529D01*
X403018Y569531D01*
X403107Y569529D01*
X403196Y569523D01*
X403285Y569513D01*
X403373Y569500D01*
X403461Y569483D01*
X403548Y569461D01*
X403633Y569436D01*
X403718Y569408D01*
X403801Y569375D01*
X403883Y569339D01*
X403963Y569300D01*
X404041Y569257D01*
X404117Y569211D01*
X404192Y569161D01*
X404264Y569108D01*
X404333Y569052D01*
X404400Y568993D01*
X404465Y568932D01*
X404526Y568867D01*
X404585Y568800D01*
X404641Y568731D01*
X404694Y568659D01*
X404744Y568584D01*
X404790Y568508D01*
X404833Y568430D01*
X404872Y568350D01*
X404908Y568268D01*
X404941Y568185D01*
X404969Y568100D01*
X404994Y568015D01*
X405016Y567928D01*
X405033Y567840D01*
X405046Y567752D01*
X405056Y567663D01*
X405062Y567574D01*
X405064Y567485D01*
X405064Y564212D01*
X405062Y564123D01*
X405056Y564034D01*
X405046Y563945D01*
X405033Y563857D01*
X405016Y563769D01*
X404994Y563682D01*
X404969Y563597D01*
X404941Y563512D01*
X404908Y563429D01*
X404872Y563347D01*
X404833Y563267D01*
X404790Y563189D01*
X404744Y563113D01*
X404694Y563038D01*
X404641Y562966D01*
X404585Y562897D01*
X404526Y562830D01*
X404465Y562765D01*
X404400Y562704D01*
X404333Y562645D01*
X404264Y562589D01*
X404192Y562536D01*
X404117Y562486D01*
X404041Y562440D01*
X403963Y562397D01*
X403883Y562358D01*
X403801Y562322D01*
X403718Y562289D01*
X403633Y562261D01*
X403548Y562236D01*
X403461Y562214D01*
X403373Y562197D01*
X403285Y562184D01*
X403196Y562174D01*
X403107Y562168D01*
X403018Y562166D01*
X402929Y562168D01*
X402840Y562174D01*
X402751Y562184D01*
X402663Y562197D01*
X402575Y562214D01*
X402488Y562236D01*
X402403Y562261D01*
X402318Y562289D01*
X402235Y562322D01*
X402153Y562358D01*
X402073Y562397D01*
X401995Y562440D01*
X401919Y562486D01*
X401844Y562536D01*
X401772Y562589D01*
X401703Y562645D01*
X401636Y562704D01*
X401571Y562765D01*
X401510Y562830D01*
X401451Y562897D01*
X401395Y562966D01*
X401342Y563038D01*
X401292Y563113D01*
X401246Y563189D01*
X401203Y563267D01*
X401164Y563347D01*
X401128Y563429D01*
X401095Y563512D01*
X401067Y563597D01*
X401042Y563682D01*
X401020Y563769D01*
X401003Y563857D01*
X400990Y563945D01*
X400980Y564034D01*
X400974Y564123D01*
X400972Y564212D01*
X410498Y562165D02*
X410576Y562167D01*
X410654Y562172D01*
X410731Y562182D01*
X410808Y562195D01*
X410884Y562211D01*
X410959Y562231D01*
X411033Y562255D01*
X411106Y562282D01*
X411178Y562313D01*
X411248Y562347D01*
X411317Y562384D01*
X411383Y562425D01*
X411448Y562469D01*
X411510Y562515D01*
X411570Y562565D01*
X411628Y562617D01*
X411683Y562672D01*
X411735Y562730D01*
X411785Y562790D01*
X411831Y562852D01*
X411875Y562917D01*
X411916Y562984D01*
X411953Y563052D01*
X411987Y563122D01*
X412018Y563194D01*
X412045Y563267D01*
X412069Y563341D01*
X412089Y563416D01*
X412105Y563492D01*
X412118Y563569D01*
X412128Y563646D01*
X412133Y563724D01*
X412135Y563802D01*
X410498Y562165D02*
X410384Y562167D01*
X410271Y562172D01*
X410157Y562182D01*
X410044Y562195D01*
X409932Y562212D01*
X409820Y562232D01*
X409709Y562256D01*
X409598Y562284D01*
X409489Y562315D01*
X409381Y562350D01*
X409274Y562389D01*
X409168Y562431D01*
X409064Y562476D01*
X408961Y562525D01*
X408860Y562578D01*
X408761Y562633D01*
X408663Y562692D01*
X408568Y562754D01*
X408475Y562819D01*
X408383Y562887D01*
X408295Y562958D01*
X408208Y563032D01*
X408124Y563109D01*
X408043Y563188D01*
X408248Y567895D02*
X408250Y567973D01*
X408255Y568051D01*
X408265Y568128D01*
X408278Y568205D01*
X408294Y568281D01*
X408314Y568356D01*
X408338Y568430D01*
X408365Y568503D01*
X408396Y568575D01*
X408430Y568645D01*
X408467Y568714D01*
X408508Y568780D01*
X408552Y568845D01*
X408598Y568907D01*
X408648Y568967D01*
X408700Y569025D01*
X408755Y569080D01*
X408813Y569132D01*
X408873Y569182D01*
X408935Y569228D01*
X409000Y569272D01*
X409067Y569313D01*
X409135Y569350D01*
X409205Y569384D01*
X409277Y569415D01*
X409350Y569442D01*
X409424Y569466D01*
X409499Y569486D01*
X409575Y569502D01*
X409652Y569515D01*
X409729Y569525D01*
X409807Y569530D01*
X409885Y569532D01*
X409885Y569531D02*
X409995Y569529D01*
X410104Y569523D01*
X410214Y569513D01*
X410322Y569500D01*
X410431Y569482D01*
X410538Y569461D01*
X410645Y569435D01*
X410751Y569406D01*
X410856Y569374D01*
X410959Y569337D01*
X411061Y569297D01*
X411162Y569253D01*
X411261Y569205D01*
X411358Y569155D01*
X411453Y569100D01*
X411546Y569042D01*
X411637Y568981D01*
X411726Y568917D01*
X409066Y566462D02*
X408999Y566504D01*
X408934Y566548D01*
X408872Y566596D01*
X408812Y566646D01*
X408754Y566699D01*
X408699Y566755D01*
X408647Y566814D01*
X408597Y566874D01*
X408550Y566938D01*
X408507Y567003D01*
X408466Y567070D01*
X408429Y567139D01*
X408395Y567210D01*
X408364Y567282D01*
X408337Y567356D01*
X408313Y567430D01*
X408293Y567506D01*
X408277Y567583D01*
X408264Y567660D01*
X408254Y567738D01*
X408249Y567817D01*
X408247Y567895D01*
X411317Y565234D02*
X411383Y565192D01*
X411448Y565148D01*
X411510Y565101D01*
X411570Y565050D01*
X411628Y564997D01*
X411683Y564941D01*
X411736Y564883D01*
X411785Y564822D01*
X411832Y564759D01*
X411875Y564694D01*
X411916Y564627D01*
X411953Y564558D01*
X411987Y564487D01*
X412018Y564415D01*
X412045Y564341D01*
X412069Y564266D01*
X412089Y564191D01*
X412105Y564114D01*
X412118Y564037D01*
X412128Y563959D01*
X412133Y563880D01*
X412135Y563802D01*
X411317Y565235D02*
X409066Y566462D01*
X416673Y569532D02*
X416673Y562166D01*
X414627Y569532D02*
X418719Y569532D01*
D10*
X649605Y579120D02*
X652145Y579120D01*
X649605Y579120D02*
X649605Y576580D01*
X664845Y576580D02*
X664845Y579120D01*
X662305Y579120D01*
X664845Y566420D02*
X664845Y563880D01*
X662305Y563880D01*
X652145Y563880D02*
X649605Y563880D01*
X649605Y566420D01*
X649605Y490220D02*
X652145Y490220D01*
X649605Y490220D02*
X649605Y487680D01*
X664845Y487680D02*
X664845Y490220D01*
X662305Y490220D01*
X664845Y477520D02*
X664845Y474980D01*
X662305Y474980D01*
X652145Y474980D02*
X649605Y474980D01*
X649605Y477520D01*
X553720Y579120D02*
X551180Y579120D01*
X551180Y576580D01*
X566420Y576580D02*
X566420Y579120D01*
X563880Y579120D01*
X566420Y566420D02*
X566420Y563880D01*
X563880Y563880D01*
X553720Y563880D02*
X551180Y563880D01*
X551180Y566420D01*
X551180Y490220D02*
X553720Y490220D01*
X551180Y490220D02*
X551180Y487680D01*
X566420Y487680D02*
X566420Y490220D01*
X563880Y490220D01*
X566420Y477520D02*
X566420Y474980D01*
X563880Y474980D01*
X553720Y474980D02*
X551180Y474980D01*
X551180Y477520D01*
M02*
